<svg width="700" height="250" viewBox="0 0 700 250" xmlns="http://www.w3.org/2000/svg">
  <g fill="none" fill-rule="evenodd">
    <g fill-rule="nonzero" fill="#FFF">
      <path d="M239.79 164.568V112.22c0-4.008-3.262-7.271-7.272-7.271h-85.453c-4.008 0-7.271 3.261-7.271 7.271v53.621l.002.09v9.725a3.643 3.643 0 0 0-.002.115v.534l.002.115v.136h.005a6.404 6.404 0 0 0 6.4 6.155h32.441c-.058 1.438-.859 7.963-10.605 9.188h.313a2.788 2.788 0 0 0 0 5.575h42.732a2.787 2.787 0 0 0 0-5.575h.466c-9.746-1.225-10.548-7.75-10.605-9.188h32.442a6.405 6.405 0 0 0 6.4-6.155h.009v-11.99l-.005.002zm-49.997 14.527a3.556 3.556 0 1 1 0-7.112 3.556 3.556 0 0 1 0 7.112zm44-13.254c0 .703-.573 1.275-1.275 1.275h-85.453a1.276 1.276 0 0 1-1.274-1.275v-53.62c0-.703.572-1.275 1.274-1.275h85.453c.702 0 1.275.57 1.275 1.274v53.621z"/>
      <path d="M208.99 138.814c-.093-2.708-.754-4.036-4.083-9.606-3.4-5.688-9.805-7.019-13.632-7.814l-.258-.053c-10.42-2.175-19.72 6.68-21.156 9.138-1.018 1.742-.922 4.323-.76 6.112.308 3.422 3.06 5.239 4.834 5.624.774.168 1.493.171 2.072.173.42.002.89.003 1.102.088.06.162.119.491.146.643.019.109.037.208.054.286.812 3.71 2.676 5.141 4.097 5.689 2.143.826 4.334.148 5.51-.486.389.322 1.027.978 1.406 1.366.591.606.938.958 1.198 1.14.55.422 4.198 4.674 4.588 5.15.172.21.42.339.7.361.036.003.076.006.122.006.308 0 .9-.146 2.475-1.527a.867.867 0 0 0 .21-1.04c-.622-1.256-1.303-2.75-1.607-3.565.267-.001.606.023.847.04.546.04 1.164.086 1.766.01.245-.031.458-.036.663-.04 1.027-.024 1.752-.148 3.16-1.674 1.015-1.099 1.295-1.646 1.464-2.065.148-.069.41-.156.646-.233.804-.265 1.904-.627 2.754-1.503 1.213-1.251 1.779-3.344 1.681-6.22zm-1.802.059c.006.175.004.34.005.509-3.743 1.884-8.79 1.696-9.611.419-.102-.159-.182-.37-.162-.716.088-1.53 1.97-2.155 2.46-4.758.307-1.625 3.57-.501 3.776-.728.113-.124-.551-.574-.845-.675-.994-.34-2.075-.156-2.855.157 0-.04-.001-.079-.003-.119-.051-1.514.69-2.445 1.32-2.96a3.998 3.998 0 0 1 1.507-.769c.2.276.391.562.572.865 3.184 5.328 3.757 6.462 3.836 8.775zm-5.15-10.558a5.14 5.14 0 0 0-1.488.842c-.823.672-1.79 1.883-1.724 3.841a6.633 6.633 0 0 1-.032.954c-.158 1.424-.8 2.06-1.318 2.531-.458-.864-1.356-2.14-2.723-2.791-1.145-.544-2.386-.558-3.69-.037-1.043.415-2.978 1.538-3.884 2.19-.111.08-.246.19-.395.312a9.65 9.65 0 0 1-.752.567c-.05-.18-.106-.37-.165-.57-.233-.783-.522-1.76-.48-2.549.21-3.864 3.625-4.933 4.747-5.284.113-.035.207-.065.286-.096.19-.004.736.002 2 .143 1.799 1.031 2.22 3.527 2.22 3.527.076-.065.734-.687.35-2.155-.18-.687-.86-1.386-1.387-1.843.841-.83 2.868-1.086 4.356-.336.276.14-.191-.546-.437-.732-.115-.087-.864-.879-3.391-.355-.508.106-1.272.562-1.638.794a26.962 26.962 0 0 0-1.46-.128l.042-.205c.029-.139.054-.268.082-.361.301-1.002.877-1.726 1.71-2.15.565-.286 1.17-.4 1.725-.425 2.587.755 5.36 1.975 7.446 4.316zm-11.396-5.251l.259.054c.466.097.963.2 1.48.316l-.033.013c-1.116.568-1.88 1.515-2.271 2.817-.035.117-.07.279-.106.453-.03.145-.078.379-.127.538l-.053.017c-3.501 1.096-5.361 3.207-5.528 6.275-.053.975.266 2.05.523 2.914.045.153.09.303.13.446-.899.007-2.201.213-2.693.297-.524-1.986.978-4.776-.297-3.401-.877.945-1.006 1.976-.949 2.77-.785-.796-1.47-1.964-1.606-3.161-.142-1.25-.374-2.288 1.342-3.166.039-.02.082-.03.123-.049.976-.45 2.182-.777 3.561-1.208.212-.034 1.207-1.572 3.516-1.756.31-.025-.69-.347-.995-.404-1.208-.221-1.962.374-2.54.862-.018-.061-.046-.133-.04-.22.14-2.514 1.768-2.968 1.6-3.224-.168-.256-1.071.078-1.333.244-1.484.93-1.065 2.42-1.347 3.458-.174.64-1.806.793-2.703.79-1.412-.007-2.928-1.524-5.638-.922 3.598-2.872 9.473-6.055 15.725-4.753zm-14.629 17.562c-.543-.003-1.104-.004-1.688-.131-1.256-.273-3.207-1.58-3.43-4.058-.215-2.402-.037-4.112.531-5.084.227-.39.624-1.2 1.54-1.81 1.145-.76 4.103-1.4 6.48.037-3.051 1.369-4.407 2.749-4.596 6.62-.038.798.204 1.276.222.972.162-2.762 1.543-4.73 3.484-5.9a4.51 4.51 0 0 0-.303 2.261c.203 1.786 1.308 3.387 2.471 4.306-1.157.67-2.671 1.779-3.275 2.726-.034.053-.056.103-.084.155-.425-.088-.88-.093-1.352-.094zm6.053 6.828c-1.47-.566-2.478-2.053-2.995-4.418-.013-.06-.026-.135-.041-.219-.097-.544-.22-1.209-.657-1.613.01-.017.015-.03.027-.048.657-1.043 2.82-2.384 3.604-2.746a.585.585 0 0 0 .095-.042.803.803 0 0 1 .136-.047c.835-.154 2.187-.32 2.824-.315-.05.388-.174.877-.295 1.353-.056.219-.112.44-.164.66-.64.395-2.344.86-2.243 3.652.037 1.037.573 1.654.573 1.35.009-2.644.872-3.305 1.46-3.35 0 .262.01.581.04.938a.545.545 0 0 0 .01.127c.127 1.316.541 3.07 1.765 4.238-.852.523-2.61 1.068-4.139.48zm6.447.192c.44-.257 1.01-.5 1.656-.722.145.338.407.664.666.982.14.174.35.431.46.617-.547.23-.975.426-1.3.612l-.37-.378c-.415-.426-.782-.802-1.112-1.111zm11.461.98c-1.027-.54-2.598-1.517-3.108-2.13.465.135 1.175.448 1.571.621.404.178.751.331 1.02.418.427.14.929.265 1.434.348-.408.421-.678.634-.917.743zm1.803-1.754c-.56-.024-1.276-.158-1.964-.381-.214-.07-.554-.22-.914-.378a22.32 22.32 0 0 0-1.202-.498c1.316-.048 2.528.01 3.451.213.487.107.83.24 1.054.369-.06.137-.168.34-.425.675zm-6.208-1.097c.016.258.018.419-.664.87-.338.223-.68.425-1.014.61l-.006.004c-.507.281-.995.522-1.42.73-.05.026-.099.05-.147.073-.151-.288-.378-.567-.6-.84-.145-.178-.36-.444-.47-.632a28.984 28.984 0 0 1 4.32-.815zm-1.243 3.542a1.182 1.182 0 0 0-.196.239 13.073 13.073 0 0 1-1.15-.586c.283-.14.594-.294.922-.464.162.225.378.445.617.65-.066.05-.132.1-.193.16zm.769 5.351c-.959-1.127-3.294-3.847-4.237-4.738.317-.156.689-.314.945-.422.598.488 1.682.979 2.395 1.243.21.685.654 1.744 1.493 3.468-.215.173-.424.33-.596.45zm1.896-5.886c-.4-.03-.805-.056-1.19-.034-.365-.254-.725-.55-.922-.781.217-.128.436-.264.656-.41.195-.128.358-.25.494-.37.484.581 1.288 1.156 2.072 1.636-.35.014-.735-.013-1.11-.04zm6.988-3.915c-.14.046-.274.09-.402.135-.47-.4-1.151-.7-2.034-.893-3.943-.866-11.507.354-14.33 2.263-.886-.701-1.322-1.807-1.526-2.83.814.203 1.928.154 3.115-.669.254-.175.875-1.167.636-.973-.781.635-3.107 1.86-3.906.41-.34-.617.254-2.404.325-2.685.16-.628.257-1.022.508-1.534.221-.45 1.388-1.29 1.484-1.36.85-.611 2.696-1.68 3.64-2.057.995-.396 1.928-.394 2.773.008 1.011.482 1.72 1.435 2.115 2.125-1.1-.211-2.87-.286-3.934.883-.412.453-.622 1.454-.467 1.19.649-1.101 3.21-1.18 4.224-.985.098.019.195.038.29.054-.053.269-.086.588-.136.96-.215 1.573-2.06 3.35-3.68 3.42-.31.013.744.36 1.509.315 1.647-.097 2.289-1.06 2.704-1.769 2.827 1.63 6.415 1.54 10.258-.24-.133 1.452-.518 2.542-1.143 3.186-.543.559-1.33.818-2.023 1.046z"/>
    </g>
    <path d="M76 40.704v-6.315C76 30.325 72.675 27 68.611 27H43.39C39.325 27 36 30.325 36 34.389v53.904c0 4.064 3.325 7.389 7.389 7.389H68.61c4.064 0 7.389-3.325 7.389-7.389V40.704zm-16.826 51.87h-7.113a1.911 1.911 0 1 1 0-3.821h7.113a1.911 1.911 0 1 1 0 3.822zm12.905-8.846a1.902 1.902 0 0 1-1.897 1.897H41.817a1.902 1.902 0 0 1-1.897-1.897V38.953c0-1.043.854-1.896 1.897-1.896h28.365c1.043 0 1.897.853 1.897 1.896V83.728zM64.757 60.69c-.287-.908-.731-1.234-1.685-1.234h-.442v-1.154h-.025c.01-1.054.06-2.097-.016-3.13-.204-2.77-2.335-5.175-5.046-5.79-.368-.084-.743-.134-1.115-.2h-.855c-.193.032-.386.067-.58.096-3.183.464-5.626 3.274-5.634 6.484-.002.71-.002 1.42 0 2.13h-.002v1.566h-.427c-.955 0-1.4.326-1.686 1.234-.004.013-.02.023-.031.034V72.22c.035.102.066.206.105.307.183.47.523.771 1.004.916.058.017.115.04.173.06h15.01c.117-.04.237-.075.35-.123.447-.19.733-.523.871-.987.017-.059.042-.115.062-.172V60.726c-.01-.014-.027-.024-.031-.037zm-7.775 6.347c-.133.097-.17.195-.17.35.005.707.004 1.414.004 2.12v.004a.817.817 0 0 1-1.633 0v-.004c-.001-.709-.001-1.418.002-2.126 0-.144-.03-.24-.157-.334a1.61 1.61 0 0 1-.532-1.987c.312-.692 1.072-1.095 1.79-.95.796.16 1.352.804 1.36 1.601.006.55-.219 1.003-.664 1.326zm2.832-8.735v1.154h-7.64v-.89a.357.357 0 0 0 .012-.124c-.002-.578-.008-1.156 0-1.734.007-.498-.015-1.002.057-1.491.283-1.939 2.06-3.322 4.053-3.19 1.91.128 3.474 1.761 3.512 3.684.017.864.005 1.727.006 2.59zM629.031 134.842l-3.773-.63a15.587 15.587 0 0 0-1.692-4.078l2.217-3.124a1.45 1.45 0 0 0-.154-1.86l-1.333-1.331-1.332-1.332a1.448 1.448 0 0 0-1.86-.152l-3.122 2.22a14.766 14.766 0 0 0-4.183-1.705l-.634-3.738a1.448 1.448 0 0 0-1.434-1.21h-1.895l-1.894.002c-.7 0-1.314.512-1.433 1.213l-.646 3.807c-1.45.376-2.816.974-4.062 1.709l-3.073-2.234a1.45 1.45 0 0 0-1.86.154l-1.331 1.333-1.331 1.332a1.448 1.448 0 0 0-.153 1.86l2.238 3.14a15.493 15.493 0 0 0-1.654 4.08l-3.738.634c-.7.12-1.211.717-1.21 1.434v1.894l.002 1.895c0 .7.512 1.314 1.213 1.433l3.807.646c.376 1.45.974 2.816 1.71 4.062l-2.2 3.09a1.45 1.45 0 0 0 .154 1.86l1.332 1.331 1.332 1.331c.495.495 1.28.562 1.86.152l3.14-2.237a15.607 15.607 0 0 0 3.978 1.637l.634 3.771c.119.7.718 1.212 1.434 1.211l1.895-.001 1.894-.001c.7 0 1.314-.512 1.433-1.213l.63-3.773c1.45-.376 2.815-.94 4.078-1.692l3.124 2.217a1.45 1.45 0 0 0 1.86-.155l1.331-1.332 1.332-1.332c.495-.495.562-1.28.152-1.86l-2.22-3.123a15.575 15.575 0 0 0 1.687-4.08l3.772-.634c.7-.12 1.212-.718 1.21-1.434v-1.895l-.002-1.894a1.508 1.508 0 0 0-1.23-1.398zm-27.227 3.333a8.304 8.304 0 0 1 8.3-8.309 8.304 8.304 0 0 1 8.31 8.301 8.305 8.305 0 0 1-16.61.008zm58.168 25.71v-52.348c0-4.01-3.262-7.271-7.271-7.271h-85.454c-4.01 0-7.27 3.262-7.27 7.27v53.624l.001.09v9.726c0 .038-.003.076-.003.115v.533c0 .039.002.076.003.115v.136h.003a6.405 6.405 0 0 0 6.398 6.155h32.443c-.058 1.438-.858 7.963-10.605 9.189h.312a2.787 2.787 0 0 0 0 5.574h42.734a2.787 2.787 0 0 0 0-5.574h.467c-9.747-1.226-10.549-7.751-10.606-9.19h32.443a6.404 6.404 0 0 0 6.399-6.154h.009v-11.992l-.003.003zm-49.997 14.529a3.556 3.556 0 1 1 0-7.113 3.556 3.556 0 0 1 0 7.113zm44-13.255c0 .703-.571 1.274-1.274 1.274h-85.454a1.275 1.275 0 0 1-1.274-1.274v-53.622c0-.703.571-1.274 1.274-1.274h85.454c.703 0 1.274.57 1.274 1.274v53.622zM382.781 154.908a8.783 8.783 0 0 0 8.137-5.48h2.441c.177 0 .347-.07.472-.196l1.538-1.538a.251.251 0 0 1 .359 0l1.364 1.364c.34.339.89.339 1.23 0l1.364-1.364a.251.251 0 0 1 .36 0l1.363 1.364c.34.339.89.339 1.23 0l1.364-1.364a.251.251 0 0 1 .36 0l1.538 1.538a.661.661 0 0 0 .466.195h2.051a.57.57 0 0 0 .4-.164l2.871-2.871a.385.385 0 0 0 0-.544l-2.871-2.871a.564.564 0 0 0-.4-.164h-17.5a8.783 8.783 0 1 0-8.137 12.095zm-3.999-10.706a1.918 1.918 0 1 1 .01 3.836 1.918 1.918 0 0 1-.01-3.836zM424 130.051v25.226a7.132 7.132 0 0 1-5.825 7.004l-24.38 3.984a2.05 2.05 0 0 1-1.605-.764 2.138 2.138 0 0 1-.456-1.364V153.95a.57.57 0 0 1 .569-.569h2.989a.57.57 0 0 1 .57.57v6.927l15.043-7.445a2.05 2.05 0 0 1 2.963 1.856 3 3 0 0 0 3.272 2.974 3.076 3.076 0 0 0 2.717-3.102v-23.048h-24.001v6.153a.57.57 0 0 1-.57.57h-2.988a.57.57 0 0 1-.57-.57v-8.214A2.05 2.05 0 0 1 393.78 128h28.16a2.05 2.05 0 0 1 2.061 2.051z" fill="#FFF" fill-rule="nonzero"/>
    <path class="connector" d="M265.5 144.5h100" stroke-width="3" stroke-linecap="square"/>
    <path class="connector" d="M433.5 144.5h100M522.7 147.5l10.8-3-10.8-3M56.537 108.723s-1.5 22.367 17.5 28c19 5.632 42.455 5.41 42.455 5.41" stroke-width="3" stroke-linecap="round"/>
    <path class="connector" d="M105.692 145.133l10.8-3-10.8-3" stroke-width="3" stroke-linecap="round"/>
    <text class="caption-1" transform="translate(-126 -221)">
      <tspan x="226" y="275">Enter one-time password (TOTP)</tspan> <tspan x="226" y="294">into the Nerv Dashboard website</tspan>
    </text>
    <text class="caption-2" transform="translate(-126 -221)">
      <tspan x="434.337" y="423">Command and TOTP sent to the</tspan> <tspan x="428.382" y="442">Nerv App on your mining machine</tspan>
    </text>
    <text class="caption-3" transform="translate(-126 -221)">
      <tspan x="560.505" y="284">Nerv App confirms the TOTP matches</tspan> <tspan x="515.355" y="303">your personal secret and executes command</tspan>
    </text>
  </g>
</svg>
