<svg viewBox="0 0 100 91" xmlns="http://www.w3.org/2000/svg">
  <path d="M99.973 45.03c-.23-6.845-1.882-10.201-10.207-24.282C81.266 6.371 65.254 3.006 55.687.997L55.043.86C28.99-4.636 5.744 17.747 2.153 23.96-.39 28.363-.151 34.888.253 39.41c.77 8.65 7.649 13.242 12.085 14.216 1.935.425 3.734.432 5.18.438 1.05.003 2.225.007 2.756.222.15.41.296 1.24.363 1.625.049.275.094.525.137.723v.001c2.03 9.377 6.69 12.995 10.242 14.38 5.359 2.087 10.834.374 13.776-1.23.97.815 2.567 2.472 3.513 3.453 1.479 1.532 2.347 2.423 2.997 2.882 1.372 1.067 10.494 11.815 11.468 13.018.43.533 1.053.857 1.753.914.09.006.187.015.302.015.771 0 2.252-.37 6.188-3.86a2.208 2.208 0 0 0 .524-2.628c-1.554-3.177-3.257-6.954-4.015-9.012.667-.004 1.515.056 2.117.102 1.364.101 2.91.216 4.415.023.613-.079 1.144-.09 1.658-.103 2.566-.06 4.378-.373 7.901-4.23 2.536-2.777 3.237-4.16 3.659-5.218.368-.175 1.024-.394 1.615-.59 2.009-.67 4.76-1.586 6.884-3.8 3.033-3.163 4.447-8.453 4.203-15.722zm-4.502.148c.014.444.009.86.01 1.287-9.355 4.762-21.975 4.288-24.027 1.06-.255-.402-.455-.935-.404-1.81.22-3.868 4.927-5.447 6.152-12.028.764-4.108 8.921-1.266 9.438-1.84.282-.313-1.378-1.45-2.111-1.705-2.486-.862-5.19-.395-7.138.396-.001-.1-.005-.2-.008-.3-.128-3.827 1.723-6.18 3.3-7.48 1.29-1.066 2.707-1.68 3.768-1.946a29.4 29.4 0 0 1 1.43 2.186c7.959 13.468 9.392 16.333 9.59 22.18zM82.594 18.49a12.814 12.814 0 0 0-3.719 2.13c-2.057 1.697-4.474 4.76-4.31 9.709a16.953 16.953 0 0 1-.08 2.41c-.395 3.6-2 5.207-3.295 6.4-1.146-2.184-3.39-5.41-6.809-7.056-2.86-1.377-5.964-1.41-9.224-.095-2.608 1.05-7.444 3.888-9.709 5.538-.279.203-.616.48-.989.789-.363.3-1.155.953-1.88 1.433-.122-.456-.264-.938-.411-1.441-.582-1.981-1.307-4.448-1.2-6.444.526-9.767 9.063-12.47 11.868-13.358.282-.089.516-.162.714-.243.473-.01 1.84.007 4.998.364C63.047 21.23 64.1 27.54 64.1 27.54c.19-.166 1.836-1.738.876-5.448-.45-1.737-2.152-3.503-3.47-4.66 2.104-2.096 7.172-2.745 10.89-.848.69.352-.476-1.38-1.09-1.85-.29-.221-2.16-2.222-8.479-.897-1.27.266-3.179 1.419-4.093 2.007a66.68 66.68 0 0 0-3.654-.324c.038-.173.072-.347.107-.518.072-.352.137-.677.206-.913.753-2.534 2.19-4.362 4.275-5.433 1.413-.726 2.924-1.012 4.313-1.076 6.467 1.907 13.398 4.993 18.613 10.909zM54.104 5.217l.648.136c1.166.245 2.407.506 3.699.799-.026.013-.054.02-.08.034-2.792 1.435-4.703 3.829-5.68 7.12-.087.297-.173.705-.263 1.146-.074.365-.196.957-.318 1.36-.042.014-.086.026-.133.042-8.753 2.77-13.403 8.107-13.82 15.861-.132 2.467.666 5.184 1.307 7.368.114.386.225.766.325 1.126-2.245.018-5.502.539-6.73.75-1.31-5.019 2.443-12.071-.744-8.597-2.192 2.389-2.516 4.996-2.372 7.004-1.964-2.013-3.673-4.966-4.015-7.992-.356-3.158-.937-5.782 3.354-8.003.097-.05.206-.076.308-.123 2.44-1.137 5.455-1.963 8.903-3.054.53-.085 3.017-3.974 8.789-4.438.774-.063-1.723-.878-2.487-1.021-3.02-.56-4.906.944-6.352 2.178-.043-.154-.112-.337-.1-.555.352-6.356 4.423-7.503 4.003-8.15-.42-.647-2.68.198-3.334.615-3.71 2.352-2.662 6.118-3.367 8.742-.435 1.616-4.515 2.006-6.757 1.996-3.53-.017-7.32-3.85-14.095-2.329 8.994-7.26 23.682-15.305 39.311-12.015zM17.533 49.61c-1.357-.006-2.76-.01-4.22-.33-3.14-.691-8.017-3.993-8.575-10.258-.54-6.07-.093-10.395 1.327-12.852.569-.983 1.56-3.034 3.85-4.573 2.862-1.923 10.259-3.542 16.198.093-7.626 3.46-11.015 6.947-11.487 16.734-.097 2.017.51 3.223.554 2.456.404-6.982 3.857-11.957 8.709-14.914-.86 2.079-.94 4.1-.757 5.717.51 4.512 3.27 8.56 6.178 10.882-2.892 1.695-6.678 4.497-8.188 6.891-.085.134-.139.262-.21.392-1.062-.221-2.2-.234-3.38-.238zm15.133 17.26c-3.676-1.432-6.195-5.19-7.489-11.167-.032-.153-.065-.343-.102-.554-.241-1.375-.549-3.057-1.643-4.079.023-.042.039-.076.067-.121 1.644-2.635 7.052-6.026 9.012-6.942a1.39 1.39 0 0 0 .236-.105c.142-.062.257-.102.34-.12 2.087-.387 5.47-.808 7.06-.794-.125.98-.434 2.217-.737 3.42-.139.553-.28 1.112-.41 1.67-1.602.998-5.86 2.172-5.607 9.23.093 2.621 1.431 4.18 1.433 3.41.022-6.682 2.18-8.353 3.649-8.466 0 .661.024 1.47.098 2.37-.003.109.007.215.028.321.315 3.327 1.353 7.763 4.411 10.714-2.13 1.322-6.526 2.7-10.346 1.213zm16.117.485c1.1-.65 2.524-1.262 4.14-1.826.362.855 1.017 1.679 1.664 2.484.353.439.875 1.089 1.152 1.558-1.368.582-2.44 1.078-3.25 1.548a170.14 170.14 0 0 1-.924-.955c-1.041-1.078-1.957-2.028-2.782-2.81zm28.652 2.476c-2.567-1.364-6.496-3.833-7.77-5.38 1.163.338 2.939 1.129 3.927 1.567 1.01.45 1.879.837 2.55 1.057 1.069.352 2.322.67 3.585.879-1.02 1.066-1.695 1.603-2.292 1.877zm4.507-4.433c-1.4-.059-3.19-.398-4.91-.963-.534-.177-1.384-.555-2.284-.955-1.13-.502-2.118-.927-3.006-1.26 3.29-.12 6.321.029 8.629.54 1.217.27 2.074.606 2.634.932-.15.346-.42.86-1.063 1.706zm-15.52-2.773c.04.653.045 1.06-1.66 2.198-.846.565-1.7 1.077-2.535 1.545l-.016.01a78.845 78.845 0 0 1-3.548 1.845c-.124.064-.247.124-.367.184-.379-.727-.946-1.433-1.503-2.126-.361-.449-.9-1.12-1.17-1.595 3.268-.912 7.052-1.63 10.8-2.06zm-3.106 8.954c-.186.191-.36.373-.49.604a32.547 32.547 0 0 1-2.877-1.482c.71-.354 1.486-.742 2.305-1.171.406.569.947 1.124 1.544 1.644-.165.126-.331.25-.482.405zm1.921 13.527c-2.396-2.85-8.234-9.725-10.591-11.978a46.34 46.34 0 0 1 2.362-1.066c1.495 1.234 4.204 2.474 5.986 3.143.525 1.73 1.636 4.406 3.733 8.766-.538.436-1.06.832-1.49 1.135zm4.74-14.878c-1-.075-2.01-.143-2.974-.088-.913-.64-1.812-1.389-2.306-1.974a38.961 38.961 0 0 0 1.64-1.034c.487-.325.895-.636 1.236-.937 1.21 1.47 3.219 2.923 5.18 4.135-.876.036-1.837-.032-2.776-.102zm17.47-9.898c-.35.116-.684.228-1.004.343-1.177-1.011-2.878-1.769-5.085-2.259-9.86-2.189-28.769.895-35.824 5.721-2.215-1.773-3.307-4.568-3.816-7.153 2.035.511 4.82.389 7.788-1.691.634-.444 2.186-2.951 1.589-2.46-1.953 1.606-7.768 4.7-9.765 1.036-.852-1.56.634-6.077.813-6.787.399-1.588.64-2.584 1.27-3.878.552-1.138 3.469-3.26 3.71-3.435 2.123-1.547 6.739-4.25 9.1-5.202 2.487-1.001 4.82-.996 6.93.021 2.53 1.217 4.303 3.627 5.29 5.37-2.75-.533-7.177-.722-9.835 2.232-1.03 1.145-1.555 3.677-1.167 3.01 1.62-2.785 8.026-2.985 10.56-2.49.244.047.486.094.724.136-.132.679-.215 1.486-.341 2.426-.536 3.976-5.147 8.466-9.2 8.644-.776.035 1.86.909 3.773.796 4.117-.243 5.722-2.678 6.76-4.47 7.067 4.12 16.04 3.894 25.644-.609-.332 3.673-1.294 6.427-2.857 8.055-1.357 1.412-3.322 2.067-5.056 2.644z" fill="#FFF"/>
</svg>
