<?xml version="1.0" encoding="UTF-8" standalone="no"?><!DOCTYPE svg PUBLIC "-//W3C//DTD SVG 1.1//EN" "http://www.w3.org/Graphics/SVG/1.1/DTD/svg11.dtd"><svg width="100%" height="100%" viewBox="0 0 805 805" version="1.1" xmlns="http://www.w3.org/2000/svg" xmlns:xlink="http://www.w3.org/1999/xlink" xml:space="preserve" style="fill-rule:evenodd;clip-rule:evenodd;stroke-linejoin:round;stroke-miterlimit:1.41421;"><path d="M339.413,181.332c-5.097,0 -9.237,-4.144 -9.237,-9.237c0,-5.094 4.14,-9.238 9.237,-9.238c5.091,0 9.238,4.144 9.238,9.238c0,5.093 -4.147,9.237 -9.238,9.237Zm-179.137,-62.937c-3.603,3.603 -9.463,3.603 -13.063,0c-3.603,-3.604 -3.603,-9.463 -0.003,-13.063c1.8,-1.803 4.169,-2.703 6.535,-2.703c2.362,0 4.731,0.9 6.531,2.703c3.603,3.6 3.603,9.459 0,13.063Zm86.925,-76.582c0,-5.093 4.143,-9.237 9.237,-9.237c5.094,0 9.238,4.144 9.238,9.237c0,5.094 -4.144,9.241 -9.238,9.241c-5.094,0 -9.237,-4.147 -9.237,-9.241Zm96.403,114.144l0,-32.637l-72.894,-72.894c1.525,-2.516 2.419,-5.46 2.419,-8.613c0,-9.203 -7.488,-16.69 -16.691,-16.69c-9.203,0 -16.69,7.487 -16.69,16.69c0,9.206 7.487,16.694 16.69,16.694c3.357,0 6.475,-1.006 9.094,-2.716l70.619,70.619l0,29.316c-6.653,1.325 -11.888,6.615 -13.135,13.297l-50.556,0l-60.772,-60.775l-41.668,0c-0.663,-3.003 -2.144,-5.86 -4.475,-8.188c-6.507,-6.506 -17.097,-6.506 -23.604,0c-6.509,6.506 -6.509,17.097 0,23.606c3.254,3.254 7.528,4.882 11.804,4.882c4.271,0 8.546,-1.628 11.8,-4.882l0.003,0c2.271,-2.271 3.731,-5.043 4.415,-7.962l38.635,0l60.775,60.772l53.95,0c1.931,7.081 8.403,12.309 16.09,12.309c9.203,0 16.691,-7.487 16.691,-16.69c0,-7.757 -5.322,-14.269 -12.5,-16.138Z" style="fill-rule:nonzero;"/></svg>