<?xml version="1.0" encoding="UTF-8" standalone="no"?><!DOCTYPE svg PUBLIC "-//W3C//DTD SVG 1.1//EN" "http://www.w3.org/Graphics/SVG/1.1/DTD/svg11.dtd"><svg width="100%" height="100%" viewBox="0 0 805 805" version="1.1" xmlns="http://www.w3.org/2000/svg" xmlns:xlink="http://www.w3.org/1999/xlink" xml:space="preserve" style="fill-rule:evenodd;clip-rule:evenodd;stroke-linejoin:round;stroke-miterlimit:1.41421;"><path d="M657.373,118.395c-3.6,3.603 -9.463,3.603 -13.066,0c-3.6,-3.604 -3.6,-9.463 0,-13.063c1.803,-1.803 4.169,-2.703 6.531,-2.703c2.369,0 4.732,0.9 6.535,2.703c3.603,3.6 3.603,9.459 0,13.063Zm-195.097,62.937c-5.094,0 -9.238,-4.144 -9.238,-9.237c0,-5.094 4.144,-9.238 9.238,-9.238c5.094,0 9.24,4.144 9.24,9.238c0,5.093 -4.146,9.237 -9.24,9.237Zm83.44,-148.756c5.094,0 9.238,4.144 9.238,9.237c0,5.094 -4.144,9.241 -9.238,9.241c-5.093,0 -9.237,-4.147 -9.237,-9.241c0,-5.093 4.144,-9.237 9.237,-9.237Zm116.925,67.484c-6.506,-6.506 -17.096,-6.506 -23.606,0c-2.328,2.328 -3.809,5.185 -4.472,8.188l-41.668,0l-60.772,60.775l-53.394,0l0,0.356c-1.1,-6.688 -6.178,-12.041 -12.725,-13.544l0,-29.425l70.619,-70.619c2.618,1.71 5.74,2.716 9.093,2.716c9.204,0 16.691,-7.488 16.691,-16.694c0,-9.203 -7.487,-16.69 -16.691,-16.69c-9.203,0 -16.69,7.487 -16.69,16.69c0,3.153 0.894,6.097 2.419,8.613l-72.894,72.894l0,32.515c-7.413,1.7 -12.966,8.338 -12.966,16.26c0,9.203 7.488,16.69 16.691,16.69c8.278,0 15.15,-6.062 16.453,-13.975l0,1.666l56.481,0l60.775,-60.772l38.635,0c0.684,2.919 2.143,5.691 4.415,7.962c3.256,3.254 7.531,4.882 11.803,4.882c4.278,0 8.55,-1.628 11.803,-4.882c6.51,-6.509 6.51,-17.1 0,-23.606Z" style="fill-rule:nonzero;"/></svg>