<?xml version="1.0" encoding="UTF-8" standalone="no"?><!DOCTYPE svg PUBLIC "-//W3C//DTD SVG 1.1//EN" "http://www.w3.org/Graphics/SVG/1.1/DTD/svg11.dtd"><svg width="100%" height="100%" viewBox="0 0 805 805" version="1.1" xmlns="http://www.w3.org/2000/svg" xmlns:xlink="http://www.w3.org/1999/xlink" xml:space="preserve" style="fill-rule:evenodd;clip-rule:evenodd;stroke-linejoin:round;stroke-miterlimit:1.41421;"><path d="M438.626,23.216c-3.603,3.6 -9.463,3.604 -13.066,0c-3.6,-3.603 -3.6,-9.462 0,-13.065c1.803,-1.8 4.166,-2.7 6.531,-2.7c2.366,0 4.732,0.9 6.535,2.7c1.744,1.747 2.706,4.065 2.706,6.534c0,2.466 -0.962,4.788 -2.706,6.531Zm-43.566,155.41c-3.603,-3.603 -3.603,-9.463 0,-13.063c1.791,-1.793 4.141,-2.687 6.494,-2.7c2.353,0.013 4.703,0.907 6.494,2.7c3.603,3.6 3.603,9.46 0,13.063c-1.791,1.79 -4.141,2.687 -6.494,2.697c-2.353,-0.01 -4.703,-0.907 -6.494,-2.697Zm-33.281,-161.941c0,-2.469 0.959,-4.787 2.706,-6.534c1.8,-1.8 4.166,-2.7 6.531,-2.7c2.366,0 4.732,0.9 6.532,2.7c3.603,3.603 3.603,9.462 0,13.065c-3.6,3.604 -9.463,3.6 -13.063,0c-1.747,-1.743 -2.706,-4.065 -2.706,-6.531Zm87.006,0c0,-4.459 -1.737,-8.653 -4.891,-11.803c-6.506,-6.509 -17.096,-6.509 -23.606,0c-6.506,6.506 -6.506,17.097 0,23.606c2.41,2.407 5.378,3.919 8.491,4.544l0,38.509l-27.225,27.222l-27.225,-27.222l0,-38.509c3.116,-0.625 6.081,-2.137 8.491,-4.544c6.506,-6.509 6.506,-17.1 0,-23.606c-6.51,-6.509 -17.1,-6.509 -23.607,0c-3.153,3.15 -4.887,7.344 -4.887,11.803c0,4.456 1.734,8.65 4.887,11.803c2.194,2.191 4.853,3.628 7.663,4.344l0,41.794l30.609,30.609l0,50.688c-2.85,0.703 -5.55,2.147 -7.772,4.368c-6.509,6.507 -6.509,17.097 0,23.607c3.253,3.253 7.528,4.881 11.803,4.881l0.038,-0.003l0.041,0.003c4.271,0 8.546,-1.628 11.8,-4.881c6.509,-6.51 6.509,-17.1 0,-23.607c-2.219,-2.221 -4.922,-3.665 -7.769,-4.368l0,-50.688l30.606,-30.609l0,-41.794c2.809,-0.716 5.472,-2.153 7.662,-4.344c3.154,-3.153 4.891,-7.347 4.891,-11.803Z" style="fill-rule:nonzero;"/></svg>