<?xml version="1.0" encoding="UTF-8" standalone="no"?><!DOCTYPE svg PUBLIC "-//W3C//DTD SVG 1.1//EN" "http://www.w3.org/Graphics/SVG/1.1/DTD/svg11.dtd"><svg width="100%" height="100%" viewBox="0 0 805 805" version="1.1" xmlns="http://www.w3.org/2000/svg" xmlns:xlink="http://www.w3.org/1999/xlink" xml:space="preserve" style="fill-rule:evenodd;clip-rule:evenodd;stroke-linejoin:round;stroke-miterlimit:1.41421;"><path d="M657.373,699.251c-1.803,1.803 -4.166,2.703 -6.535,2.703c-2.362,0 -4.728,-0.9 -6.531,-2.703c-3.6,-3.6 -3.6,-9.463 0,-13.063c3.603,-3.606 9.466,-3.603 13.066,0c3.603,3.6 3.603,9.463 0,13.063Zm-195.097,-57.525c-5.094,0 -9.238,-4.144 -9.238,-9.238c0,-5.093 4.144,-9.237 9.238,-9.237c5.094,0 9.24,4.144 9.24,9.237c0,5.094 -4.146,9.238 -9.24,9.238Zm92.678,121.044c0,5.09 -4.144,9.237 -9.238,9.237c-5.093,0 -9.237,-4.147 -9.237,-9.237c0,-5.094 4.144,-9.241 9.237,-9.241c5.094,0 9.238,4.147 9.238,9.241Zm107.687,-81.854c-3.253,-3.256 -7.525,-4.878 -11.803,-4.878c-4.272,0 -8.547,1.625 -11.803,4.878c-2.272,2.272 -3.731,5.044 -4.415,7.966l-38.635,0l-60.775,-60.775l-56.481,0l0,1.669c-1.303,-7.916 -8.175,-13.981 -16.453,-13.981c-9.203,0 -16.691,7.49 -16.691,16.693c0,7.922 5.553,14.557 12.966,16.257l0,32.518l72.894,72.894c-1.525,2.516 -2.419,5.459 -2.419,8.613c0,9.203 7.487,16.69 16.69,16.69c9.204,0 16.691,-7.487 16.691,-16.69c0,-9.207 -7.487,-16.694 -16.691,-16.694c-3.353,0 -6.475,1.003 -9.093,2.715l-70.619,-70.618l0,-29.428c6.547,-1.5 11.625,-6.854 12.725,-13.544l0,0.359l53.394,0l60.772,60.775l41.668,0c0.663,3.003 2.144,5.859 4.472,8.188c6.51,6.509 17.1,6.506 23.606,0c6.51,-6.507 6.51,-17.097 0,-23.607Z" style="fill-rule:nonzero;"/></svg>