<?xml version="1.0" encoding="UTF-8" standalone="no"?><!DOCTYPE svg PUBLIC "-//W3C//DTD SVG 1.1//EN" "http://www.w3.org/Graphics/SVG/1.1/DTD/svg11.dtd"><svg width="100%" height="100%" viewBox="0 0 805 805" version="1.1" xmlns="http://www.w3.org/2000/svg" xmlns:xlink="http://www.w3.org/1999/xlink" xml:space="preserve" style="fill-rule:evenodd;clip-rule:evenodd;stroke-linejoin:round;stroke-miterlimit:1.41421;"><path d="M339.413,641.726c-5.097,0 -9.237,-4.144 -9.237,-9.238c0,-5.093 4.14,-9.237 9.237,-9.237c5.091,0 9.238,4.144 9.238,9.237c0,5.094 -4.147,9.238 -9.238,9.238Zm-82.975,130.281c-5.094,0 -9.237,-4.147 -9.237,-9.237c0,-5.094 4.143,-9.241 9.237,-9.241c5.094,0 9.238,4.147 9.238,9.241c0,5.09 -4.144,9.237 -9.238,9.237Zm-96.162,-72.756c-1.8,1.803 -4.169,2.703 -6.531,2.703c-2.366,0 -4.735,-0.9 -6.535,-2.703c-3.6,-3.6 -3.6,-9.463 0.003,-13.063c3.6,-3.603 9.46,-3.606 13.063,0c3.603,3.6 3.603,9.463 0,13.063Zm195.828,-66.763c0,-9.203 -7.488,-16.693 -16.691,-16.693c-7.687,0 -14.159,5.231 -16.09,12.312l-53.95,0l-60.775,60.775l-38.635,0c-0.684,-2.922 -2.144,-5.694 -4.415,-7.966l-0.003,0c-3.254,-3.253 -7.529,-4.878 -11.8,-4.878c-4.276,0 -8.55,1.622 -11.804,4.878c-6.509,6.51 -6.509,17.1 0,23.607c6.507,6.506 17.097,6.509 23.604,0c2.331,-2.329 3.812,-5.185 4.475,-8.188l41.668,0l60.772,-60.775l50.556,0c1.247,6.681 6.482,11.975 13.135,13.294l0,29.319l-70.619,70.618c-2.619,-1.712 -5.737,-2.715 -9.094,-2.715c-9.203,0 -16.69,7.487 -16.69,16.694c0,9.203 7.487,16.69 16.69,16.69c9.203,0 16.691,-7.487 16.691,-16.69c0,-3.154 -0.894,-6.097 -2.419,-8.613l72.894,-72.894l0,-32.637c7.178,-1.869 12.5,-8.381 12.5,-16.138Z" style="fill-rule:nonzero;"/></svg>