<?xml version="1.0" encoding="UTF-8" standalone="no"?><!DOCTYPE svg PUBLIC "-//W3C//DTD SVG 1.1//EN" "http://www.w3.org/Graphics/SVG/1.1/DTD/svg11.dtd"><svg width="100%" height="100%" viewBox="0 0 805 805" version="1.1" xmlns="http://www.w3.org/2000/svg" xmlns:xlink="http://www.w3.org/1999/xlink" xml:space="preserve" style="fill-rule:evenodd;clip-rule:evenodd;stroke-linejoin:round;stroke-miterlimit:1.41421;"><path d="M762.77,265.676c-5.094,0 -9.241,-4.144 -9.241,-9.238c0,-5.094 4.147,-9.237 9.241,-9.237c5.09,0 9.237,4.143 9.237,9.237c0,5.094 -4.147,9.238 -9.237,9.238Zm-130.282,82.972c-5.094,0 -9.237,-4.144 -9.237,-9.238c0,-5.091 4.143,-9.237 9.237,-9.237c5.094,0 9.238,4.146 9.238,9.237c0,5.094 -4.144,9.238 -9.238,9.238Zm53.7,-201.435c3.6,-3.603 9.463,-3.603 13.066,-0.003c1.8,1.803 2.7,4.169 2.7,6.535c0,2.362 -0.9,4.731 -2.7,6.531c-3.603,3.603 -9.466,3.603 -13.066,0c-3.603,-3.603 -3.603,-9.466 0,-13.063Zm76.582,92.531c-9.21,0 -16.694,7.491 -16.694,16.694c0,3.353 1.003,6.475 2.715,9.094l-70.618,70.619l-29.316,0c-1.325,-6.653 -6.616,-11.885 -13.294,-13.135l0,-50.556l60.772,-60.775l0,-41.665c3,-0.663 5.856,-2.144 8.188,-4.472c6.509,-6.51 6.506,-17.1 0,-23.607c-6.507,-6.509 -17.097,-6.509 -23.607,0c-3.256,3.254 -4.881,7.528 -4.881,11.804c0,4.275 1.628,8.546 4.881,11.803c2.272,2.271 5.047,3.731 7.966,4.415l0,38.635l-60.775,60.775l0,53.95c-7.081,1.931 -12.309,8.403 -12.309,16.087c0,9.206 7.487,16.694 16.69,16.694c7.753,0 14.272,-5.322 16.138,-12.5l32.634,0l72.894,-72.894c2.522,1.525 5.459,2.419 8.616,2.419c9.2,0 16.687,-7.488 16.687,-16.691c0,-9.203 -7.487,-16.694 -16.687,-16.694Z" style="fill-rule:nonzero;"/></svg>