<?xml version="1.0" encoding="UTF-8" standalone="no"?><!DOCTYPE svg PUBLIC "-//W3C//DTD SVG 1.1//EN" "http://www.w3.org/Graphics/SVG/1.1/DTD/svg11.dtd"><svg width="100%" height="100%" viewBox="0 0 805 805" version="1.1" xmlns="http://www.w3.org/2000/svg" xmlns:xlink="http://www.w3.org/1999/xlink" xml:space="preserve" style="fill-rule:evenodd;clip-rule:evenodd;stroke-linejoin:round;stroke-miterlimit:1.41421;"><path d="M762.77,554.957c-5.094,0 -9.241,-4.147 -9.241,-9.241c0,-5.09 4.147,-9.237 9.241,-9.237c5.09,0 9.237,4.147 9.237,9.237c0,5.094 -4.147,9.241 -9.237,9.241Zm-130.282,-83.444c-5.094,0 -9.237,-4.143 -9.237,-9.237c0,-5.094 4.143,-9.238 9.237,-9.238c5.094,0 9.238,4.144 9.238,9.238c0,5.094 -4.144,9.237 -9.238,9.237Zm69.466,179.325c0,2.366 -0.9,4.735 -2.7,6.535c-3.603,3.6 -9.466,3.6 -13.066,0c-3.603,-3.6 -3.603,-9.463 0,-13.066c3.6,-3.603 9.463,-3.603 13.066,0c1.8,1.8 2.7,4.166 2.7,6.531Zm60.816,-121.812c-3.157,0 -6.094,0.894 -8.616,2.419l-72.894,-72.894l-32.516,0c-1.699,-7.413 -8.334,-12.966 -16.256,-12.966c-9.203,0 -16.69,7.488 -16.69,16.691c0,8.278 6.062,15.15 13.978,16.453l-1.669,0l0,56.481l60.775,60.772l0,38.638c-2.919,0.684 -5.694,2.143 -7.966,4.415l0,0.003c-3.253,3.253 -4.881,7.528 -4.881,11.8c0,4.275 1.625,8.55 4.881,11.807c6.51,6.506 17.1,6.506 23.607,0c6.506,-6.513 6.509,-17.1 0,-23.607c-2.332,-2.331 -5.188,-3.812 -8.188,-4.475l0,-41.668l-60.772,-60.772l0,-53.394l-0.359,0c6.687,-1.103 12.041,-6.181 13.54,-12.725l29.429,0l70.618,70.616c-1.712,2.621 -2.715,5.74 -2.715,9.096c0,9.204 7.484,16.691 16.694,16.691c9.2,0 16.687,-7.487 16.687,-16.691c0,-9.203 -7.487,-16.69 -16.687,-16.69Z" style="fill-rule:nonzero;"/></svg>