<svg viewBox="0 0 900 350" xmlns="http://www.w3.org/2000/svg">
  <g transform="translate(-67 -139)" fill="none" fill-rule="evenodd">

    <g class="nerv-app">
      <g class="nerv-app-icon">
        <path d="M227.494 256h-80.092C141.68 256 137 260.68 137 266.402v68.963c0 5.72 4.68 10.401 10.402 10.401h80.196c5.721 0 10.402-4.68 10.402-10.401v-69.067c-.104-5.721-4.68-10.298-10.506-10.298zm-42.334 9.05a4.44 4.44 0 0 1 4.472 4.472 4.44 4.44 0 0 1-4.472 4.473 4.44 4.44 0 0 1-4.473-4.473 4.44 4.44 0 0 1 4.473-4.473zm-15.187 0a4.44 4.44 0 0 1 4.473 4.472 4.44 4.44 0 0 1-4.473 4.473 4.44 4.44 0 0 1-4.472-4.473c0-2.496 2.08-4.473 4.472-4.473zm-15.082 0a4.44 4.44 0 0 1 4.473 4.472 4.44 4.44 0 0 1-4.473 4.473 4.44 4.44 0 0 1-4.473-4.473 4.44 4.44 0 0 1 4.473-4.473zm69.587 67.194h-74.06v-49.2h74.06v49.2z" fill-rule="nonzero"/>
      </g>
      <g class="nerv-app-monitor">
        <path d="M246.5 447c16.854 0 30.5-13.71 30.5-30.5 0-16.854-13.646-30.5-30.5-30.5S216 399.646 216 416.5s13.646 30.5 30.5 30.5zm0-53.957c12.955 0 23.457 10.502 23.457 23.457s-10.502 23.457-23.457 23.457-23.457-10.502-23.457-23.457 10.502-23.457 23.457-23.457zm12.137 17.923c-.44-.943 0-2.075.943-2.515.944-.44 2.076 0 2.516.943.44.943 0 2.075-.943 2.515-.19.063-.378.126-.504.126-.817.126-1.635-.314-2.012-1.069zm-2.075 14.338c.692-.817 1.886-.88 2.704-.189.818.692.88 1.887.189 2.705-.315.377-.755.566-1.195.628a1.953 1.953 0 0 1-1.51-.44c-.817-.692-.88-1.886-.188-2.704zm5.282-8.49c1.07.126 1.761 1.132 1.635 2.139a1.934 1.934 0 0 1-1.635 1.635h-.566c-1.069-.126-1.76-1.132-1.635-2.139.252-1.069 1.195-1.76 2.201-1.635z" fill-rule="nonzero"/>
        <path d="M242.538 413.922c-1.383 2.2-.754 5.093 1.447 6.54 2.2 1.383 5.093.754 6.54-1.447.817-1.32.943-2.83.44-4.213l5.66-10.565c.44-.88.188-1.95-.63-2.515-.817-.566-1.949-.315-2.577.44l-7.295 9.622c-1.384.062-2.767.817-3.585 2.138z"/>
        <path d="M247.506 414.865a1.92 1.92 0 0 1 .566 2.641 1.92 1.92 0 0 1-2.641.566 1.92 1.92 0 0 1-.566-2.641 1.92 1.92 0 0 1 2.641-.566zM231.722 425.367a17.981 17.981 0 0 1-2.013-4.654 16.947 16.947 0 0 1-.566-5.03c.063-1.698.378-3.396.944-5.031.251-.818.628-1.573 1.006-2.39l.251-.503.063-.126.126-.189.189-.251c.188-.378.44-.692.691-1.07 1.007-1.383 2.201-2.64 3.585-3.647a15.828 15.828 0 0 1 4.528-2.452c1.635-.566 3.333-.944 5.03-1.07 1.699-.125 3.46.064 5.157.44.378.064.755.19 1.132.315a5.027 5.027 0 0 0-.817.818l-2.516 3.396c-.88-.126-1.76-.252-2.64-.189-1.259.063-2.516.252-3.711.692-1.195.44-2.327 1.006-3.333 1.76-1.006.755-1.95 1.636-2.704 2.642l-.566.754-.126.19-.063.062s.063-.063 0-.063l-.063.126-.251.503c-.252.503-.566 1.07-.755 1.698-.44 1.195-.692 2.453-.818 3.773-.062 1.258.063 2.578.315 3.836.314 1.258.755 2.453 1.446 3.585.566.943 1.006 1.509 1.761 2.327.755.691.818 1.949.126 2.704-.315.377-.755.566-1.195.629a1.953 1.953 0 0 1-1.51-.44c-1.068-.881-1.949-1.95-2.703-3.145z"/>
      </g>
      <g class="nerv-app-miner">
        <path d="M126.5 446c16.854 0 30.5-13.71 30.5-30.5 0-16.854-13.646-30.5-30.5-30.5S96 398.646 96 415.5s13.646 30.5 30.5 30.5zm0-53.957c12.955 0 23.457 10.502 23.457 23.457s-10.502 23.457-23.457 23.457-23.457-10.502-23.457-23.457 10.502-23.457 23.457-23.457z" fill-rule="nonzero"/>
        <path d="M124.806 434.144c-.66 0-1.26-.54-1.26-1.26v-2.82c-1.98-.36-3.78-1.14-5.4-2.22l-1.98 1.98c-.48.48-1.26.48-1.74 0l-2.399-2.4c-.48-.48-.48-1.26 0-1.74l1.98-1.979c-1.08-1.62-1.86-3.42-2.22-5.4h-2.82c-.66 0-1.26-.54-1.26-1.26v-3.36c0-.66.54-1.259 1.26-1.259h2.82c.36-1.98 1.14-3.78 2.22-5.4l-1.92-1.86c-.48-.48-.48-1.26 0-1.74l2.4-2.399c.48-.48 1.26-.48 1.74 0l1.98 1.98c1.62-1.08 3.42-1.86 5.399-2.22v-2.82c0-.66.54-1.26 1.26-1.26h3.36c.66 0 1.26.54 1.26 1.26v2.82c1.98.36 3.78 1.14 5.399 2.22l1.98-1.98c.48-.48 1.26-.48 1.74 0l2.4 2.4c.48.48.48 1.26 0 1.74l-1.98 1.98c1.08 1.62 1.86 3.42 2.22 5.399h2.82c.66 0 1.26.54 1.26 1.26v3.3c0 .66-.54 1.26-1.26 1.26h-2.82c-.36 1.98-1.14 3.78-2.22 5.399l1.98 1.98c.48.48.48 1.26 0 1.74l-2.4 2.4c-.48.48-1.26.48-1.74 0l-1.98-1.98c-1.62 1.08-3.42 1.86-5.4 2.22v2.82c0 .66-.54 1.26-1.26 1.26h-3.42v-.06zm-.099-11.852c.629.126.629.126.629.754v.88c0 .378.189.567.566.63h1.32c.378 0 .566-.189.566-.566v-1.195c0-.44.19-.629.566-.755.944-.251 1.698-.754 2.327-1.446 1.698-2.013 1.006-4.968-1.32-6.289-.755-.44-1.51-.692-2.327-1.069-.44-.189-.88-.377-1.258-.692-.755-.629-.629-1.572.252-1.95.251-.125.503-.125.754-.188a5.69 5.69 0 0 1 2.893.566c.44.252.629.126.755-.314.188-.503.314-1.006.44-1.51.126-.314 0-.566-.377-.691a8.784 8.784 0 0 0-1.824-.566c-.818-.126-.818-.126-.818-.944 0-1.194 0-1.194-1.195-1.194h-.503c-.566 0-.628.125-.691.691v.755c0 .755 0 .755-.692 1.006-1.698.629-2.767 1.824-2.893 3.648-.126 1.635.755 2.767 2.138 3.584.818.503 1.761.818 2.641 1.195.378.126.692.314.944.566.88.692.692 1.887-.315 2.327a3.215 3.215 0 0 1-1.698.251 9.334 9.334 0 0 1-2.578-.754c-.503-.252-.629-.189-.755.314-.125.44-.251.88-.377 1.384-.189.628-.126.754.503 1.006.755.251 1.51.44 2.327.566z"/>
      </g>
    </g>

    <g class="nerv-api">
      <g class="nerv-api-icon" fill-rule="nonzero">
        <path d="M566.973 314.03c-.23-6.845-1.882-10.201-10.207-24.282-8.5-14.377-24.512-17.742-34.079-19.751l-.644-.136c-26.053-5.497-49.299 16.886-52.89 23.099-2.544 4.403-2.305 10.928-1.901 15.451.77 8.65 7.649 13.242 12.085 14.216 1.935.425 3.734.432 5.18.438 1.05.003 2.225.007 2.756.222.15.41.296 1.24.363 1.625.049.275.094.525.137.723v.001c2.03 9.377 6.69 12.995 10.242 14.38 5.359 2.087 10.834.374 13.776-1.23.97.815 2.567 2.472 3.513 3.453 1.479 1.532 2.347 2.423 2.997 2.882 1.372 1.067 10.494 11.815 11.468 13.018.43.533 1.053.857 1.753.914.09.006.187.015.302.015.771 0 2.252-.37 6.188-3.86a2.208 2.208 0 0 0 .524-2.628c-1.554-3.177-3.257-6.954-4.015-9.012.667-.004 1.515.056 2.117.102 1.364.101 2.91.216 4.415.023.613-.079 1.144-.09 1.658-.103 2.566-.06 4.378-.373 7.901-4.23 2.536-2.777 3.237-4.16 3.659-5.218.368-.175 1.024-.394 1.615-.59 2.009-.67 4.76-1.586 6.884-3.8 3.033-3.163 4.447-8.453 4.203-15.722zm-4.502.148c.014.444.009.86.01 1.287-9.355 4.762-21.975 4.288-24.027 1.06-.255-.402-.455-.935-.404-1.81.22-3.868 4.927-5.447 6.152-12.028.764-4.108 8.921-1.266 9.438-1.84.282-.313-1.378-1.45-2.111-1.705-2.486-.862-5.19-.395-7.138.396-.001-.1-.005-.2-.008-.3-.128-3.827 1.723-6.18 3.3-7.48 1.29-1.066 2.707-1.68 3.768-1.946a29.4 29.4 0 0 1 1.43 2.186c7.959 13.468 9.392 16.333 9.59 22.18zm-12.877-26.688a12.814 12.814 0 0 0-3.719 2.13c-2.057 1.697-4.474 4.76-4.31 9.709a16.953 16.953 0 0 1-.08 2.41c-.395 3.6-2 5.207-3.295 6.4-1.146-2.184-3.39-5.41-6.809-7.056-2.86-1.377-5.964-1.41-9.224-.095-2.608 1.05-7.444 3.888-9.709 5.538-.279.203-.616.48-.989.789-.363.3-1.155.953-1.88 1.433-.122-.456-.264-.938-.411-1.441-.582-1.981-1.307-4.448-1.2-6.444.526-9.767 9.063-12.47 11.868-13.358.282-.089.516-.162.714-.243.473-.01 1.84.007 4.998.364 4.499 2.605 5.552 8.915 5.552 8.915.19-.166 1.836-1.738.876-5.448-.45-1.737-2.152-3.503-3.47-4.66 2.104-2.096 7.172-2.745 10.89-.848.69.352-.476-1.38-1.09-1.85-.29-.221-2.16-2.222-8.479-.897-1.27.266-3.179 1.419-4.093 2.007a66.68 66.68 0 0 0-3.654-.324c.038-.173.072-.347.107-.518.072-.352.137-.677.206-.913.753-2.534 2.19-4.362 4.275-5.433 1.413-.726 2.924-1.012 4.313-1.076 6.467 1.907 13.398 4.993 18.613 10.909zm-28.49-13.273l.648.136c1.166.245 2.407.506 3.699.799-.026.013-.054.02-.08.034-2.792 1.435-4.703 3.829-5.68 7.12-.087.297-.173.705-.263 1.146-.074.365-.196.957-.318 1.36-.042.014-.086.026-.133.042-8.753 2.77-13.403 8.107-13.82 15.861-.132 2.467.666 5.184 1.307 7.368.114.386.225.766.325 1.126-2.245.018-5.502.539-6.73.75-1.31-5.019 2.443-12.071-.744-8.597-2.192 2.389-2.516 4.996-2.372 7.004-1.964-2.013-3.673-4.966-4.015-7.992-.356-3.158-.937-5.782 3.354-8.003.097-.05.206-.076.308-.123 2.44-1.137 5.455-1.963 8.903-3.054.53-.085 3.017-3.974 8.789-4.438.774-.063-1.723-.878-2.487-1.021-3.02-.56-4.906.944-6.352 2.178-.043-.154-.112-.337-.1-.555.352-6.356 4.423-7.503 4.003-8.15-.42-.647-2.68.198-3.334.615-3.71 2.352-2.662 6.118-3.367 8.742-.435 1.616-4.515 2.006-6.757 1.996-3.53-.017-7.32-3.85-14.095-2.329 8.994-7.26 23.682-15.305 39.311-12.015zm-36.571 44.392c-1.357-.006-2.76-.01-4.22-.33-3.14-.691-8.017-3.993-8.575-10.258-.54-6.07-.093-10.395 1.327-12.852.569-.983 1.56-3.034 3.85-4.573 2.862-1.923 10.259-3.542 16.198.093-7.626 3.46-11.015 6.947-11.487 16.734-.097 2.017.51 3.223.554 2.456.404-6.982 3.857-11.957 8.709-14.914-.86 2.079-.94 4.1-.757 5.717.51 4.512 3.27 8.56 6.178 10.882-2.892 1.695-6.678 4.497-8.188 6.891-.085.134-.139.262-.21.392-1.062-.221-2.2-.234-3.38-.238zm15.133 17.261c-3.676-1.432-6.195-5.19-7.489-11.167-.032-.153-.065-.343-.102-.554-.241-1.375-.549-3.057-1.643-4.079.023-.042.039-.076.067-.121 1.644-2.635 7.052-6.026 9.012-6.942.082-.027.162-.064.236-.105.142-.062.257-.102.34-.12 2.087-.387 5.47-.808 7.06-.794-.125.98-.434 2.217-.737 3.42-.139.553-.28 1.112-.41 1.67-1.602.998-5.86 2.172-5.607 9.23.093 2.621 1.431 4.18 1.433 3.41.022-6.682 2.18-8.353 3.649-8.466 0 .661.024 1.47.098 2.37-.003.109.007.215.028.321.315 3.327 1.353 7.763 4.411 10.714-2.13 1.322-6.526 2.7-10.346 1.213zm16.117.485c1.1-.65 2.524-1.262 4.14-1.826.362.855 1.017 1.679 1.664 2.484.353.439.875 1.089 1.152 1.558-1.368.582-2.44 1.078-3.25 1.548-.315-.323-.638-.657-.924-.955-1.041-1.078-1.957-2.028-2.782-2.81zm28.652 2.476c-2.567-1.364-6.496-3.833-7.77-5.38 1.163.338 2.939 1.129 3.927 1.567 1.01.45 1.879.837 2.55 1.057 1.069.352 2.322.67 3.585.879-1.02 1.066-1.695 1.603-2.292 1.877zm4.507-4.433c-1.4-.059-3.19-.398-4.91-.963-.534-.177-1.384-.555-2.284-.955-1.13-.502-2.118-.927-3.006-1.26 3.29-.12 6.321.029 8.629.54 1.217.27 2.074.606 2.634.932-.15.346-.42.86-1.063 1.706zm-15.52-2.773c.04.653.045 1.06-1.66 2.198-.846.565-1.7 1.077-2.535 1.545l-.016.01a78.845 78.845 0 0 1-3.548 1.845c-.124.064-.247.124-.367.184-.379-.727-.946-1.433-1.503-2.126-.361-.449-.9-1.12-1.17-1.595 3.268-.912 7.052-1.63 10.8-2.06zm-3.106 8.954c-.186.191-.36.373-.49.604a32.547 32.547 0 0 1-2.877-1.482c.71-.354 1.486-.742 2.305-1.171.406.569.947 1.124 1.544 1.644-.165.126-.331.25-.482.405zm1.921 13.527c-2.396-2.85-8.234-9.725-10.591-11.978.793-.393 1.72-.794 2.362-1.066 1.495 1.234 4.204 2.474 5.986 3.143.525 1.73 1.636 4.406 3.733 8.766-.538.436-1.06.832-1.49 1.135zm4.74-14.878c-1-.075-2.01-.143-2.974-.088-.913-.64-1.812-1.389-2.306-1.974a38.961 38.961 0 0 0 1.64-1.034c.487-.325.895-.636 1.236-.937 1.21 1.47 3.219 2.923 5.18 4.135-.876.036-1.837-.032-2.776-.102zm17.47-9.898c-.35.116-.684.228-1.004.343-1.177-1.011-2.878-1.769-5.085-2.259-9.86-2.189-28.769.895-35.824 5.721-2.215-1.773-3.307-4.568-3.816-7.153 2.035.511 4.82.389 7.788-1.691.634-.444 2.186-2.951 1.589-2.46-1.953 1.606-7.768 4.7-9.765 1.036-.852-1.56.634-6.077.813-6.787.399-1.588.64-2.584 1.27-3.878.552-1.138 3.469-3.26 3.71-3.435 2.123-1.547 6.739-4.25 9.1-5.202 2.487-1.001 4.82-.996 6.93.021 2.53 1.217 4.303 3.627 5.29 5.37-2.75-.533-7.177-.722-9.835 2.232-1.03 1.145-1.555 3.677-1.167 3.01 1.62-2.785 8.026-2.985 10.56-2.49.244.047.486.094.724.136-.132.679-.215 1.486-.341 2.426-.536 3.976-5.147 8.466-9.2 8.644-.776.035 1.86.909 3.773.796 4.117-.243 5.722-2.678 6.76-4.47 7.067 4.12 16.04 3.894 25.644-.609-.332 3.673-1.294 6.427-2.857 8.055-1.357 1.412-3.322 2.067-5.056 2.644z"/>
      </g>
      <ellipse class="nerv-api-circle" stroke-width="6" cx="518" cy="316" rx="99" ry="99"/>
    </g>

    <g class="nerv-dashboard">
      <g class="nerv-dashboard-icon" fill-rule="nonzero">
        <path d="M913.192 288.578c-1.647 5.334-6.618 9.208-12.492 9.208-7.22 0-13.072-5.852-13.072-13.072 0-7.22 5.852-13.072 13.072-13.072v13.072l12.492 3.864zm2.005-1.425c.376-1.222.58-2.519.58-3.865 0-7.22-5.852-13.072-13.072-13.072v13.072l12.492 3.865zM929 320.212v12.112h-.009a6.466 6.466 0 0 1-6.463 6.215h-32.766c.057 1.452.867 8.043 10.712 9.278h-.469a2.817 2.817 0 0 1 2.815 2.816 2.817 2.817 0 0 1-2.815 2.815H856.84a2.817 2.817 0 0 1-2.815-2.815 2.817 2.817 0 0 1 2.815-2.816h-.314c9.845-1.24 10.655-7.826 10.712-9.278h-32.766a6.469 6.469 0 0 1-6.463-6.215h-.005v-.137c0-.04-.004-.076-.004-.116v-.54c0-.04.004-.075.004-.115v-9.823c0-.03-.004-.062-.004-.088v-54.161a7.351 7.351 0 0 1 7.344-7.344h86.303a7.351 7.351 0 0 1 7.344 7.344v52.868H929zm-46.91 11.084a3.59 3.59 0 1 0-7.18 0 3.59 3.59 0 0 0 7.18 0zm40.85-63.953c0-.708-.58-1.288-1.289-1.288h-86.303a1.29 1.29 0 0 0-1.288 1.288v54.156c0 .709.58 1.288 1.288 1.288h86.303a1.29 1.29 0 0 0 1.288-1.288v-54.156zm-77.065 34.306a.98.98 0 0 0-.983-.982h-5.37a.98.98 0 0 0-.982.982v15.49a.98.98 0 0 0 .982.982h5.37a.98.98 0 0 0 .983-.982v-15.49zm11.407-11.301a.98.98 0 0 0-.983-.983h-5.37a.98.98 0 0 0-.982.983v26.791a.98.98 0 0 0 .982.983h5.37a.98.98 0 0 0 .983-.983v-26.791zm11.407-11.917a.98.98 0 0 0-.983-.983h-5.37a.98.98 0 0 0-.982.983v38.702a.98.98 0 0 0 .983.983h5.37a.98.98 0 0 0 .982-.983v-38.702zm11.407 10.319a.98.98 0 0 0-.983-.983h-5.37a.98.98 0 0 0-.982.983v28.388a.98.98 0 0 0 .983.983h5.37a.98.98 0 0 0 .982-.983V288.75zm35.945 13.448h-29.605v3.001h29.6l.005-3.001zm0 6.056h-29.605v3h29.6l.005-3zm-8.539 6.117h-21.067v3.002h21.067v-3.002z"/>
      </g>
      <g class="nerv-dashboard-reports">
        <path d="M886.929 424.814l-27.595 4.506a2.334 2.334 0 0 1-2.334-2.334v-38.652a2.334 2.334 0 0 1 2.334-2.334H870.6a7.02 7.02 0 0 0-.901 3.465v1.208h-8.03v32.55l17.033-8.425a2.334 2.334 0 0 1 3.352 2.09 3.388 3.388 0 0 0 6.759 0v-6.209h4.713v6.21a8.075 8.075 0 0 1-6.596 7.925zM899 403.604a3.465 3.465 0 0 1-3.465 3.466h-9.548l-.023.031-4.47 4.466a.703.703 0 0 1-1.198-.496v-3.997h-3.528a3.465 3.465 0 0 1-3.465-3.47v-14.139a3.465 3.465 0 0 1 3.465-3.465h18.762a3.465 3.465 0 0 1 3.465 3.465l.005 14.14zm-9.354-5.645a3.154 3.154 0 0 0-1.604-2.168c-.46-.243-.932-.46-1.415-.648l-.19-.1a3.316 3.316 0 0 1-.82-.45.604.604 0 0 1-.257-.545.622.622 0 0 1 .402-.451c.143-.058.295-.09.45-.095a3.83 3.83 0 0 1 1.906.379c.613.297.735-.149.798-.338.063-.19.153-.505.225-.757l.086-.297a.559.559 0 0 0-.347-.721 5.258 5.258 0 0 0-1.312-.392c-.41-.063-.41-.063-.41-.478 0-.865-.067-1.005-.9-1.005h-.451c-.487 0-.631.162-.645.649v.518c0 .365 0 .365-.365.496a2.897 2.897 0 0 0-2.109 2.703c-.067 1.113.451 1.974 1.55 2.64.41.233.839.431 1.28.596.19.076.379.153.563.234.222.091.43.213.618.36a.762.762 0 0 1 .31.667.752.752 0 0 1-.472.577c-.337.142-.706.19-1.068.14a4.957 4.957 0 0 1-1.713-.514.811.811 0 0 0-.37-.117c-.297 0-.391.302-.45.45-.099.311-.184.622-.27.938-.14.509-.05.703.428.937a5.92 5.92 0 0 0 1.663.487c.09.01.18.03.266.058.01.096.01.193 0 .289v.612a.554.554 0 0 0 .58.604h.902a.536.536 0 0 0 .563-.581v-.847c0-.19.045-.252.239-.307a3.226 3.226 0 0 0 1.676-1.072c.577-.676.82-1.576.663-2.451z" fill-rule="nonzero"/>
      </g>
      <g class="nerv-dashboard-notifications">
        <path d="M888.578 176h-19.156a5.728 5.728 0 0 0-5.616 5.802v36.37a5.728 5.728 0 0 0 5.616 5.802h19.156a5.728 5.728 0 0 0 5.616-5.802v-36.364a5.728 5.728 0 0 0-5.616-5.808zm-7.978 45.44h-3.225a1.406 1.406 0 1 1 0-2.81h3.22a1.406 1.406 0 0 1 0 2.81h.005zm9.269-5.715a.365.365 0 0 1-.365.365h-21.02a.365.365 0 0 1-.365-.365V184.28a.365.365 0 0 1 .364-.358h21.009a.365.365 0 0 1 .365.364l.012 31.44zm-12.735-12.105l-.328-12.568a.618.618 0 0 1 .618-.655h3.09a.618.618 0 0 1 .618.655l-.29 12.568a.562.562 0 0 1-.563.55h-2.577a.562.562 0 0 1-.568-.55zm4.029 3.399v1.619a.958.958 0 0 1-.94.933h-2.471a.958.958 0 0 1-.946-.933v-1.613c0-.524.422-.951.946-.958h2.471a.958.958 0 0 1 .946.958l-.006-.006z" fill-rule="nonzero"/>
        <path d="M900.46 195.044a9.337 9.337 0 0 1 0 9.886 1.73 1.73 0 0 1-2.682.266l-.099-.099a1.705 1.705 0 0 1-.21-2.113 5.759 5.759 0 0 0 0-5.994 1.705 1.705 0 0 1 .21-2.113l.1-.099a1.73 1.73 0 0 1 2.68.266z"/>
        <path d="M905.496 189.847a16.467 16.467 0 0 1 0 20.31 1.749 1.749 0 0 1-2.602.143l-.055-.056a1.736 1.736 0 0 1-.142-2.304 12.84 12.84 0 0 0 0-15.893 1.736 1.736 0 0 1 .123-2.28l.05-.05a1.749 1.749 0 0 1 2.626.118v.012z"/>
        <g>
          <path d="M860.512 197.015a5.759 5.759 0 0 0 0 5.994c.43.667.344 1.543-.21 2.113l-.099.099a1.73 1.73 0 0 1-2.688-.29 9.337 9.337 0 0 1 0-9.887 1.73 1.73 0 0 1 2.682-.266l.099.099c.56.572.647 1.456.21 2.126l.006.012z"/>
          <path d="M855.155 189.742c.625.621.687 1.612.142 2.305a12.84 12.84 0 0 0 0 15.893 1.736 1.736 0 0 1-.123 2.28l-.05.049a1.749 1.749 0 0 1-2.62-.124 16.467 16.467 0 0 1 0-20.31 1.749 1.749 0 0 1 2.602-.142l.049.05z"/>
        </g>
      </g>
    </g>

    <g class="connectors">
      <g stroke-width="3" stroke-linecap="square">
        <path d="M145.52 382.5l24.96-26M230.48 382.5l-24.96-26"/>
      </g>
      <g stroke-width="3" stroke-linecap="round">
        <path d="M651 332.745s77.153.839 91.453 29.966c22.361 45.547 70.861 40.047 70.861 40.047"/>
        <path d="M802.514 405.758l10.8-3-10.8-3"/>
      </g>
      <g stroke-width="3" stroke-linecap="round">
        <path d="M651 270.255s77.153-.839 91.453-29.966c22.361-45.547 70.861-40.047 70.861-40.047"/>
        <path d="M802.514 197.242l10.8 3-10.8 3"/>
      </g>
      <g stroke-width="3" stroke-linecap="round">
        <path d="M257 303h130M376.2 306l10.8-3-10.8-3"/>
      </g>
      <g stroke-width="3" stroke-linecap="round">
        <path d="M651 302h130M770.2 305l10.8-3-10.8-3"/>
      </g>
    </g>
  </g>
</svg>
