<?xml version="1.0" encoding="UTF-8" standalone="no"?>
<svg width="700px" height="250px" viewBox="0 0 700 250" version="1.1" xmlns="http://www.w3.org/2000/svg" xmlns:xlink="http://www.w3.org/1999/xlink">
    <!-- Generator: Sketch 46 (44423) - http://www.bohemiancoding.com/sketch -->
    <title>Desktop</title>
    <desc>Created with Sketch.</desc>
    <defs></defs>
    <g id="Remote-Control" stroke="none" stroke-width="1" fill="none" fill-rule="evenodd">
        <g id="Desktop" transform="translate(-126.000000, -221.000000)">
            <g id="Group" transform="translate(265.000000, 325.000000)" fill-rule="nonzero" fill="#FFFFFF">
                <path d="M100.789261,60.5677791 L100.789261,8.22039185 C100.789261,4.21153065 97.5279154,0.949 93.5178695,0.949 L8.06539185,0.949 C4.05653065,0.949 0.794,4.210346 0.794,8.22039185 L0.794,61.8412796 C0.794,61.8708959 0.796369303,61.9005122 0.796369303,61.9301285 L0.796369303,71.6561186 C0.795184652,71.6940274 0.794,71.7319363 0.794,71.7710298 L0.794,72.3053077 C0.794,72.3432165 0.796369303,72.3811254 0.796369303,72.4202189 L0.796369303,72.5564538 L0.80110791,72.5564538 C0.932604243,75.9777278 3.74615192,78.7107192 7.20059614,78.7107192 L39.6422817,78.7107192 C39.5842337,80.1488863 38.7834092,86.6739476 29.0372801,87.8988774 L29.3500281,87.8988774 C27.8111656,87.8988774 26.5625428,89.1463156 26.5625428,90.6863627 C26.5625428,92.2252252 27.809981,93.4738481 29.3500281,93.4738481 L72.0815979,93.4738481 C73.6204604,93.4738481 74.8678986,92.2264099 74.8678986,90.6863627 C74.8678986,89.1475002 73.6204604,87.8988774 72.0815979,87.8988774 L72.5483506,87.8988774 C62.8022215,86.6739476 62.0002123,80.1488863 61.943349,78.7107192 L94.3850346,78.7107192 C97.8382941,78.7107192 100.651842,75.9777278 100.784523,72.5564538 L100.794,72.5564538 L100.794,60.5654098 L100.789261,60.5677791 Z M50.7934077,75.0951623 C48.8292552,75.0951623 47.2370834,73.5029905 47.2370834,71.5388381 C47.2370834,69.5746856 48.8292552,67.9825138 50.7934077,67.9825138 C52.7575601,67.9825138 54.3497319,69.5746856 54.3497319,71.5388381 C54.3497319,73.5029905 52.7575601,75.0951623 50.7934077,75.0951623 Z M94.7925547,61.8412796 C94.7925547,62.5437781 94.220368,63.1159648 93.5178695,63.1159648 L8.06539185,63.1159648 C7.36289342,63.1159648 6.79070667,62.5449627 6.79070667,61.8412796 L6.79070667,8.22039185 C6.79070667,7.51789342 7.36289342,6.94570667 8.06539185,6.94570667 L93.5178695,6.94570667 C94.220368,6.94570667 94.7925547,7.51670877 94.7925547,8.22039185 L94.7925547,61.8412796 L94.7925547,61.8412796 Z" id="Shape"></path>
                <g id="Brain" transform="translate(30.000000, 17.000000)">
                    <path d="M39.989193,17.8139486 C39.896847,15.106286 39.2364602,13.7784476 35.906597,8.20804644 C32.5064607,2.52045715 26.1016995,1.18909427 22.2749695,0.394329658 L22.0173015,0.340581719 C11.5961631,-1.83400703 2.2975922,7.02074566 0.861498597,9.47861248 C-0.156560227,11.2205744 -0.0606104347,13.8017971 0.100657291,15.5913392 C0.408777749,19.0131444 3.16023938,20.8295604 4.93463483,21.2150477 C5.70899019,21.3833404 6.4283884,21.3859838 7.00678996,21.3881866 C7.42707708,21.3895082 7.89691573,21.3912705 8.10908639,21.4762979 C8.16899871,21.6384229 8.22755961,21.9670783 8.25458772,22.1190704 C8.27395787,22.227888 8.29197661,22.3265727 8.30909441,22.4049918 C8.30909441,22.4049918 8.30909441,22.4049918 8.30909441,22.4054324 C9.12083866,26.1149213 10.9848773,27.5462906 12.4061055,28.0939028 C14.5494346,28.9199469 16.7396125,28.2423705 17.9162362,27.6079686 C18.3045401,27.9300156 18.9433044,28.5855643 19.321698,28.9736949 C19.9131631,29.5799011 20.2604743,29.9323466 20.5203947,30.1138561 C21.0690653,30.5359096 24.7178602,34.787724 25.1075155,35.263966 C25.2795944,35.4745522 25.5287035,35.6027542 25.8088949,35.6252226 C25.844482,35.627866 25.8836727,35.6313904 25.9296205,35.6313904 C26.2381914,35.6313904 26.8305575,35.4851255 28.4049449,34.1044203 C28.704056,33.8418484 28.789645,33.4180327 28.6144128,33.0647061 C27.9927663,31.8077973 27.3116579,30.3134283 27.0084926,29.4992792 C27.2751699,29.4979576 27.6143727,29.5217476 27.8553734,29.5398105 C28.4008907,29.5799011 29.019384,29.6252785 29.6212099,29.5490622 C29.8662648,29.5177826 30.0788859,29.5129365 30.2842995,29.5080904 C31.3109173,29.4847409 32.0357211,29.3605038 33.4447866,27.8348554 C34.4592417,26.7361065 34.7394331,26.1893754 34.9083588,25.7704058 C35.055662,25.7012384 35.3178346,25.6144487 35.5543306,25.5369107 C36.3579664,25.272136 37.458461,24.9095577 38.3080446,24.0337306 C39.5211563,22.7825491 40.0869447,20.6899039 39.989193,17.8139486 Z M38.18822,17.8725427 C38.194076,18.0483249 38.1918237,18.2130931 38.1927246,18.3818264 C34.4502323,20.2656476 29.4022822,20.0779704 28.5815286,18.800796 C28.4797227,18.6421955 28.3995393,18.4311688 28.4198104,18.0848911 C28.5081022,16.5548371 30.3906101,15.9301274 30.8807199,13.3268768 C31.186588,11.7016625 34.4493314,12.8259636 34.6560964,12.5986363 C34.7687135,12.4748398 34.1047229,12.0250312 33.811468,11.9241437 C32.817284,11.5831527 31.7357091,11.7681866 30.9563986,12.080982 C30.9559481,12.0417724 30.9545967,12.0021223 30.9532453,11.9620316 C30.9018919,10.4482782 31.6424621,9.51738149 32.273118,9.00281105 C32.7893549,8.58163868 33.3560443,8.33889184 33.7803856,8.23315819 C33.9799432,8.50850623 34.1713923,8.79530876 34.3520302,9.09797134 C37.5359416,14.4260662 38.109388,15.5596191 38.18822,17.8725427 Z M33.0375631,7.3145971 C32.5479038,7.49258207 32.0280631,7.76704901 31.5501161,8.1573824 C30.7271101,8.82879109 29.7604047,10.0403225 29.8261731,11.9981573 C29.8374348,12.3276938 29.8275245,12.6255103 29.8000459,12.8955716 C29.7973431,12.914075 29.7950908,12.933019 29.7941898,12.9519629 C29.6360754,14.3758427 28.9937073,15.0115663 28.476119,15.4834027 C28.017542,14.6194707 27.1202088,13.3431774 25.7525864,12.6920343 C24.6083964,12.147506 23.3669052,12.1342893 22.0627988,12.654587 C21.0195138,13.0700321 19.085202,14.1925711 18.1793098,14.8454764 C18.0675937,14.9256577 17.9329036,15.0353564 17.7837985,15.1573906 C17.6382972,15.276341 17.3216178,15.5345073 17.0319666,15.7243873 C16.9828655,15.5441996 16.9261065,15.3534384 16.8670951,15.1543067 C16.6342029,14.3705561 16.3445516,13.3947226 16.3873461,12.6052446 C16.5977149,8.74112027 20.0122662,7.67232928 21.1343833,7.32076489 C21.2470004,7.28552034 21.3406978,7.25644359 21.4199803,7.22472349 C21.6091771,7.22075848 22.1560458,7.22736683 23.4191595,7.36834503 C25.2187812,8.39924813 25.6399692,10.8954434 25.6399692,10.8954434 C25.7160984,10.8298004 26.3742329,10.2077341 25.9904337,8.74023915 C25.8106968,8.05297042 25.1295884,7.35424721 24.6025403,6.89650862 C25.4440154,6.06738057 27.4711237,5.81053591 28.9585707,6.56124483 C29.2347079,6.70046081 28.7680226,6.01539486 28.5220668,5.8290393 C28.4067468,5.74180904 27.6580682,4.95012833 25.1309398,5.47439102 C24.6228114,5.57968411 23.8592672,6.03566048 23.4934868,6.26827451 C22.8488664,6.1969043 22.3763249,6.15901641 22.032167,6.14007246 C22.0470324,6.07178614 22.060997,6.00305927 22.0749615,5.93521351 C22.1037915,5.79599754 22.1294682,5.66735493 22.1573972,5.57395687 C22.4583102,4.57168997 23.0335585,3.84829558 23.8673757,3.42492042 C24.4322632,3.13767734 25.0367919,3.02445422 25.5922196,2.99890192 C28.1792602,3.75357585 30.9514434,4.97435896 33.0375631,7.3145971 Z M21.6416108,2.06404023 L21.9006302,2.11778816 C22.3673156,2.21471068 22.8637318,2.31780099 23.3804192,2.43366745 C23.3700584,2.43895413 23.3587967,2.44203803 23.348436,2.44732471 C22.2317245,3.01476197 21.4672795,3.96195926 21.0767233,5.26424539 C21.0415867,5.38143352 21.0073511,5.54267733 20.9713137,5.71713786 C20.9415827,5.86164051 20.8929321,6.09601677 20.8438311,6.25549836 C20.8271637,6.26078504 20.8095955,6.26563117 20.7906758,6.27179897 C17.2896346,7.36790448 15.4296501,9.47905304 15.2629767,12.5466506 C15.2098215,13.5224841 15.5292036,14.5974428 15.7855202,15.4613749 C15.8310175,15.6142481 15.8756139,15.764478 15.9157056,15.9067779 C15.0174714,15.9138268 13.7147165,16.1200074 13.2232553,16.2037132 C12.6993605,14.2181234 14.200772,11.4280767 12.9259461,12.8026141 C12.0493344,13.7476086 11.9195995,14.7789523 11.9772595,15.5732763 C11.1916424,14.77719 10.5078312,13.6088332 10.3713392,12.4118402 C10.2289912,11.1624209 9.99654943,10.1244689 11.7128344,9.24555789 C11.7515747,9.22573283 11.7952702,9.21560002 11.8358123,9.19709663 C12.8119776,8.74728806 14.0178818,8.42039486 15.3972164,7.98864912 C15.609387,7.9551668 16.6040215,6.41674218 18.9126726,6.23302996 C19.2225949,6.20835878 18.2234558,5.88587114 17.9180381,5.8290393 C16.7103321,5.60787975 15.9557973,6.20263154 15.3773957,6.69076856 C15.3598275,6.62997171 15.3323489,6.55772038 15.337304,6.47137123 C15.4778502,3.95667257 17.1062939,3.50289899 16.9382691,3.24693544 C16.7702444,2.9909719 15.8666045,3.32535457 15.6048823,3.4905634 C14.1210391,4.42101952 14.5399748,5.91054233 14.2579815,6.94893489 C14.0841007,7.58818292 12.4520533,7.74237782 11.5551705,7.73841281 C10.1429517,7.73180446 8.62712518,6.21496713 5.91710664,6.81720838 C9.5149986,3.94521809 15.3900089,0.762194651 21.6416108,2.06404023 Z M7.01309652,19.6255185 C6.47028197,19.6233157 5.90944868,19.6215535 5.32519103,19.4946731 C4.06883436,19.2215278 2.11830573,17.9152767 1.89532382,15.4367037 C1.6795494,13.0352282 1.85793493,11.3245458 2.42597572,10.3526773 C2.65346232,9.9636656 3.0498746,9.15215983 3.96612754,8.54331023 C5.11076802,7.78290906 8.06944517,7.14233936 10.4452161,8.58031701 C7.39464334,9.94868667 6.03918361,11.3285108 5.8504373,15.2001247 C5.81169701,15.9984137 6.05404907,16.4755368 6.07206781,16.1719931 C6.233786,13.4097015 7.61492244,11.4417339 9.55554077,10.2720554 C9.2118333,11.0941346 9.17985003,11.8937453 9.25282593,12.5334339 C9.4564377,14.3185703 10.5609865,15.9199946 11.7240962,16.8385557 C10.567293,17.5090832 9.05281791,18.6175244 8.44873965,19.5647216 C8.41495451,19.6175885 8.39333202,19.6682525 8.36495251,19.7197977 C7.9401607,19.6321268 7.48473704,19.6272807 7.01309652,19.6255185 Z M13.0664923,26.4541501 C11.5961631,25.887594 10.5884651,24.401155 10.0708767,22.0362457 L10.0708767,22.0366863 C10.0578132,21.9758894 10.0447496,21.9005542 10.0298841,21.817289 C9.93348384,21.2732012 9.81050594,20.6079603 9.37265055,20.2035291 C9.38211039,20.186788 9.38841695,20.1735712 9.39967866,20.1555084 C10.0573627,19.1131508 12.2205124,17.7716551 13.0043277,17.4095174 C13.0372119,17.3985035 13.0691951,17.3839651 13.098926,17.3676645 C13.1556851,17.3434339 13.2016329,17.3275738 13.2345171,17.3205249 C14.0696857,17.1672111 15.4224426,17.0006806 16.0585041,17.0064079 C16.0089526,17.3940979 15.8850737,17.883116 15.7638977,18.359358 C15.7084901,18.5778742 15.6521815,18.7990338 15.6003777,19.0197528 C14.959361,19.4144917 13.2561395,19.8792793 13.3570445,22.6710882 C13.3944334,23.7081591 13.92959,24.3249387 13.9304909,24.0205139 C13.9390498,21.3767321 14.8021475,20.7158968 15.3900089,20.67096 C15.3900089,20.9326507 15.3994687,21.252495 15.4291996,21.6089056 C15.4278482,21.6516396 15.4319024,21.693933 15.4404613,21.7357859 C15.5665925,23.0517293 15.981474,24.8069079 17.2049465,25.9743837 C16.3526601,26.4973247 14.5944815,27.0422935 13.0664923,26.4541501 Z M19.5131471,26.6457923 C19.9532548,26.3885071 20.522647,26.1466414 21.1690693,25.9237196 C21.3141202,26.2616267 21.5758424,26.5876388 21.8348618,26.9061615 C21.9758584,27.0797409 22.1848758,27.3370261 22.2956911,27.5225005 C21.7483718,27.7529118 21.3199763,27.9489596 20.995639,28.1348746 C20.8695078,28.0071131 20.7402233,27.874946 20.6258043,27.7573173 C20.2095714,27.3308583 19.8433405,26.9550633 19.5131471,26.6457923 Z M30.9739668,27.6255908 C29.9473491,27.0859087 28.3756645,26.1091941 27.8657341,25.49682 C28.3310681,25.6307493 29.0414569,25.9435447 29.4369683,26.1171241 C29.8405881,26.2946685 30.1883498,26.4479823 30.456829,26.5352126 C30.8843236,26.6744285 31.385695,26.7999872 31.8906702,26.8828119 C31.4829962,27.3044249 31.2127151,27.5172138 30.9739668,27.6255908 Z M32.7767418,25.8717339 C32.2168094,25.8483844 31.5005645,25.7144551 30.8131496,25.4906522 C30.599177,25.4206037 30.2590733,25.2712549 29.899149,25.113095 C29.4473291,24.9144038 29.0518177,24.7461111 28.6968485,24.6148251 C30.0131175,24.5668044 31.2253283,24.6258391 32.1483382,24.8284952 C32.6352947,24.93511 32.9781012,25.0677176 33.2019841,25.1968008 C33.1416213,25.333814 33.0339593,25.5373512 32.7767418,25.8717339 Z M26.5688353,24.7747473 C26.5850522,25.0329136 26.586854,25.1937169 25.9048447,25.6444066 C25.5665429,25.8677689 25.2246373,26.0704251 24.8908401,26.2554589 C24.8885878,26.2567806 24.8863354,26.2581023 24.8845336,26.259424 C24.3777565,26.5404992 23.8898991,26.7806027 23.4651073,26.9894267 C23.4155558,27.0145384 23.3664547,27.0383285 23.3182546,27.0621186 C23.1668972,26.7744349 22.939861,26.4951219 22.7173296,26.2210955 C22.5727292,26.0435511 22.3574052,25.7778953 22.2488423,25.5902181 C23.5565524,25.229402 25.0701266,24.9452428 26.5688353,24.7747473 Z M25.3264432,28.3168246 C25.2521159,28.3926004 25.1822932,28.4644111 25.1300389,28.556047 C24.7363294,28.3811459 24.3133395,28.1617486 23.9795423,27.9696658 C24.2633375,27.8295687 24.5741608,27.6762549 24.9016514,27.5061999 C25.06382,27.7313245 25.2804954,27.9511624 25.5192437,28.1569024 C25.4530248,28.2066854 25.3868059,28.2555872 25.3264432,28.3168246 Z M26.0949424,33.668269 C25.1363455,32.5408839 22.8011167,29.8208858 21.8582861,28.9296392 C22.175416,28.7741226 22.546602,28.6155221 22.8033691,28.5080263 C23.4011408,28.9961633 24.484968,29.4869436 25.1976092,29.7512778 C25.4075275,30.4359032 25.8521399,31.4945613 26.6909123,33.2193415 C26.4755883,33.3915993 26.2670214,33.5484375 26.0949424,33.668269 Z M27.9909644,27.7824291 C27.5909483,27.7529118 27.1864276,27.7260378 26.8012771,27.7476251 C26.4359471,27.4943049 26.0764732,27.1982507 25.8787176,26.9669583 C26.0958434,26.8387563 26.3152215,26.7026242 26.5350502,26.557681 C26.7296526,26.4290384 26.8927222,26.306123 27.0292141,26.1871726 C27.5134678,26.7682672 28.3166531,27.3431939 29.1013693,27.8229603 C28.7509048,27.8370581 28.3662046,27.8101842 27.9909644,27.7824291 Z M34.9790823,23.8667596 C34.8389866,23.9125775 34.7051975,23.9570737 34.5772644,24.0024511 C34.1065248,23.6024254 33.4258669,23.3028468 32.5433991,23.1090017 C28.5995473,22.2428669 21.0357306,23.4627689 18.2135455,25.3721424 C17.3274739,24.6707759 16.8909699,23.5649781 16.6873582,22.5424456 C17.5013547,22.7446612 18.6153634,22.6961999 19.8023479,21.8732397 C20.0559616,21.697898 20.6767072,20.705764 20.4379589,20.9000495 C19.6568466,21.5353326 17.3306272,22.7591996 16.5319465,21.310208 C16.1913923,20.6925472 16.7855603,18.9060891 16.8571848,18.6250138 C17.0166506,17.9967797 17.1135014,17.6029219 17.3648628,17.0909948 C17.5860428,16.6407456 18.7527563,15.8014848 18.8491565,15.7318768 C19.6982897,15.1199433 21.5447601,14.0507118 22.4893925,13.6740356 C23.484027,13.277975 24.4173977,13.2801778 25.2615757,13.6824062 C26.273328,14.1639349 26.9823654,15.1173 27.3774263,15.8067715 C26.2773822,15.5957447 24.5065905,15.5212906 23.4430343,16.6896475 C23.0308557,17.1425399 22.8213878,18.1443663 22.976349,17.8804727 C23.6245732,16.7786399 26.186838,16.6997803 27.2003922,16.8953875 C27.2981438,16.9138909 27.3949945,16.9328349 27.4900434,16.9491355 C27.4373386,17.2178752 27.4040039,17.5372789 27.3535514,17.9091089 C27.1391284,19.4818969 25.2949104,21.2582223 23.6736742,21.3287114 C23.3633014,21.3423686 24.4178482,21.6882058 25.1827437,21.6437095 C26.8296566,21.5472276 27.4715742,20.5841703 27.8869062,19.8753142 C30.713596,21.5053747 34.3024786,21.4155011 38.1445245,19.6343296 C38.0116363,21.0872862 37.6269362,22.1767834 37.0016859,22.8208775 C36.4588714,23.3795036 35.6728038,23.6385511 34.9790823,23.8667596 Z" id="Shape"></path>
                </g>
            </g>
            <path d="M202,261.703562 L202,255.38874 C202,251.325163 198.674837,248 194.61126,248 L169.38874,248 C165.325163,248 162,251.325163 162,255.38874 L162,309.292991 C162,313.356568 165.325163,316.681731 169.38874,316.681731 L194.61126,316.681731 C198.674837,316.681731 202,313.356568 202,309.292991 L202,294.260437 L202,294.260437 L202,261.703562 L202,261.703562 Z M185.174263,313.574876 L178.060513,313.574876 C177.004979,313.574876 176.149368,312.719265 176.149368,311.66373 C176.149368,310.608196 177.004979,309.752585 178.060513,309.752585 L185.174263,309.752585 C186.229797,309.752585 187.085408,310.608196 187.085408,311.66373 C187.085408,312.719265 186.229797,313.574876 185.174263,313.574876 Z M198.078897,304.728457 C198.078897,305.771735 197.225584,306.625048 196.18154,306.625048 L167.816928,306.625048 C166.77365,306.625048 165.920337,305.771735 165.920337,304.728457 L165.920337,259.953275 C165.920337,258.909996 166.77365,258.056683 167.816928,258.056683 L196.18154,258.056683 C197.224818,258.056683 198.078897,258.909996 198.078897,259.953275 L198.078897,260.283416 L198.078897,261.702796 L198.078897,294.205285 L198.078897,297.974722 L198.078897,304.728457 Z M190.756798,281.689008 C190.469552,280.780544 190.026044,280.454998 189.07162,280.454998 L188.63041,280.454998 L188.63041,279.300651 L188.605132,279.300651 C188.61509,278.246649 188.665645,277.204136 188.589046,276.170816 C188.384527,273.400996 186.254309,270.995787 183.542704,270.380697 C183.175029,270.297204 182.799694,270.246649 182.428188,270.18154 L181.573344,270.18154 C181.380314,270.212945 181.187285,270.248181 180.993489,270.276522 C177.810034,270.740712 175.367292,273.55113 175.358866,276.760628 C175.357334,277.470701 175.357334,278.18154 175.3581,278.891612 L175.357334,278.891612 L175.357334,280.45653 L174.929912,280.45653 C173.974722,280.45653 173.529682,280.782842 173.243968,281.69054 C173.240138,281.703562 173.223286,281.71352 173.212562,281.72501 L173.212562,293.220222 C173.247798,293.322099 173.279203,293.425507 173.318269,293.526618 C173.50134,293.996936 173.840674,294.29797 174.321716,294.442742 C174.379931,294.46036 174.43738,294.48334 174.49483,294.503255 L189.50517,294.503255 C189.622367,294.462658 189.741861,294.428188 189.855228,294.379931 C190.3018,294.189966 190.58828,293.85676 190.726159,293.39257 C190.74301,293.334355 190.767522,293.278437 190.788204,293.220988 L190.788204,281.725776 C190.77748,281.711988 190.760628,281.70203 190.756798,281.689008 Z M182.981999,288.036002 C182.848717,288.133282 182.811183,288.231329 182.811949,288.386825 C182.816545,289.093068 182.815779,289.800077 182.815779,290.506319 L182.815779,290.510149 C182.815779,290.960552 182.450402,291.326695 181.999234,291.326695 C181.548832,291.326695 181.182689,290.961318 181.182689,290.510149 L181.182689,290.505553 C181.181923,289.797013 181.181923,289.088472 181.184987,288.379931 C181.185753,288.235925 181.154347,288.13941 181.027959,288.045959 C180.386059,287.573344 180.176944,286.766756 180.496362,286.058981 C180.808119,285.367292 181.567982,284.964381 182.285714,285.108388 C183.081578,285.269245 183.638453,285.912677 183.646113,286.710073 C183.652241,287.260054 183.427039,287.712754 182.981999,288.036002 Z M185.813864,279.300651 L185.813864,279.300651 L185.813864,279.331291 L185.813864,279.34661 L185.813864,279.622367 L185.813864,280.454998 L178.173114,280.454998 L178.173114,279.564152 C178.18537,279.530448 178.186902,279.488319 178.186136,279.440827 C178.183838,278.863271 178.17771,278.284948 178.186136,277.707392 C178.193029,277.209498 178.170816,276.705477 178.242819,276.216009 C178.526235,274.277288 180.303332,272.89391 182.296438,273.026427 C184.206051,273.153581 185.770203,274.787438 185.807736,276.710073 C185.824588,277.57411 185.813098,278.43738 185.813864,279.300651 Z" id="Shape" fill="#FFFFFF" fill-rule="nonzero"></path>
            <g id="Mining-Machine" transform="translate(685.000000, 325.000000)" fill-rule="nonzero" fill="#FFFFFF">
                <path d="M70.0312181,30.8418092 L66.2583617,30.2126212 C65.882439,28.7623089 65.3179869,27.3971755 64.5661414,26.1342567 L66.7830636,23.0098955 C67.1919222,22.4295434 67.1237791,21.6436263 66.6286059,21.1495889 L65.2964083,19.818527 L63.9642107,18.4874651 C63.4690375,17.9922919 62.6842561,17.9252845 62.103904,18.3352788 L58.9818143,20.5544725 C57.700724,19.7867269 56.301519,19.2075105 54.7989637,18.8497592 L54.1652328,15.1121102 C54.0459824,14.4125077 53.4474588,13.9002987 52.7308206,13.9014344 L50.8364424,13.9025701 L48.9420642,13.9037058 C48.2424617,13.9037058 47.628038,14.4159148 47.5087876,15.116653 L46.8625639,18.9235809 C45.4122516,19.2995037 44.0471181,19.8980273 42.8012351,20.632837 L39.7279813,18.398879 C39.1476292,17.9900204 38.3617121,18.0581635 37.8676746,18.5533367 L36.5366127,19.8855344 L35.2055508,21.217732 C34.7103776,21.7129052 34.6433702,22.4976865 35.0533646,23.0780386 L37.2907297,26.2171641 C36.5570557,27.4800829 35.9948751,28.8463521 35.6371238,30.2978001 L31.8994747,30.9315309 C31.1998722,31.0519171 30.6876633,31.6493049 30.688799,32.3659432 L30.6899347,34.2603214 L30.6910704,36.1546996 C30.6910704,36.8543021 31.2032794,37.4687257 31.9040176,37.5879761 L35.7109455,38.2341999 C36.0868683,39.6845122 36.6853918,41.0496457 37.4202016,42.2955287 L35.2203152,45.3858183 C34.8114566,45.9661704 34.8795997,46.7520875 35.3747729,47.2461249 L36.7069705,48.5771868 L38.0391681,49.9082487 C38.5343413,50.4034219 39.3191227,50.4704293 39.8994747,50.060435 L43.0386002,47.8230698 C44.2674475,48.5397081 45.6166809,49.1018887 47.0170216,49.45964 L47.6507524,53.2313606 C47.7700028,53.9309631 48.3685264,54.4431721 49.0851647,54.4420363 L50.9795429,54.4409006 L52.8739211,54.4397649 C53.5735236,54.4397649 54.1879472,53.9275559 54.3071976,53.2268177 L54.9363856,49.4539614 C56.3866979,49.0780386 57.7518313,48.5135866 59.0147501,47.7617411 L62.1391113,49.9786633 C62.7194634,50.3875219 63.5042447,50.3193788 63.9994179,49.8242056 L65.3304798,48.492008 L66.6615417,47.1598103 C67.1567149,46.6646371 67.2237223,45.8798558 66.813728,45.2995037 L64.5933986,42.177414 C65.3441085,40.9144952 65.906289,39.548226 66.2810761,38.096778 L70.0527967,37.4630471 C70.7523992,37.3437967 71.2646082,36.7452731 71.2634725,36.0286349 L71.2623367,34.1342567 L71.261201,32.2398785 C71.2259938,31.5573118 70.7137848,30.9610596 70.0312181,30.8418092 Z M42.8035065,34.1751425 C42.8012351,29.5879761 46.5173055,25.8684986 51.1044719,25.8662271 C55.6916383,25.8639557 59.4111158,29.5800261 59.4133873,34.1671925 C59.4156587,38.7543589 55.6995883,42.4738365 51.1124219,42.4761079 C46.5263913,42.4783793 42.805778,38.7623089 42.8035065,34.1751425 Z M100.971593,59.8855344 L100.971593,7.53686882 C100.971593,3.52778308 97.7098098,0.266 93.700724,0.266 L8.24700454,0.266 C4.2379188,0.266 0.976135718,3.52778308 0.976135718,7.53686882 L0.976135718,61.1598103 C0.976135718,61.189339 0.978407155,61.2188677 0.978407155,61.2495321 L0.978407155,70.975824 C0.977271437,71.0144384 0.975,71.0519171 0.975,71.0905315 L0.975,71.6243191 C0.975,71.6629336 0.977271437,71.7004123 0.978407155,71.7390267 L0.978407155,71.8753129 L0.980678592,71.8753129 C1.11242192,75.2960965 3.92673197,78.0297706 7.37931573,78.0297706 L39.8222459,78.0297706 C39.7643242,79.46759 38.9636428,85.9934276 29.216908,87.2188677 L29.5292306,87.2188677 C27.9903322,87.2188677 26.7421777,88.4670221 26.7421777,90.0059205 C26.7421777,91.5448189 27.9903322,92.7929733 29.5292306,92.7929733 L72.2629046,92.7929733 C73.801803,92.7929733 75.0499574,91.5448189 75.0499574,90.0059205 C75.0499574,88.4670221 73.801803,87.2188677 72.2629046,87.2188677 L72.7296848,87.2188677 C62.98295,85.9934276 62.1811329,79.46759 62.124347,78.0297706 L94.5672771,78.0297706 C98.0209966,78.0297706 100.834171,75.2960965 100.965914,71.8753129 L100.975,71.8753129 L100.975,59.8832629 L100.971593,59.8855344 Z M50.975,74.4136434 C49.011343,74.4136434 47.4190659,72.8213663 47.4190659,70.8577093 C47.4190659,68.8940522 49.011343,67.3017751 50.975,67.3017751 C52.938657,67.3017751 54.5309341,68.8940522 54.5309341,70.8577093 C54.5309341,72.8213663 52.938657,74.4136434 50.975,74.4136434 Z M94.975,61.1586746 C94.975,61.8616843 94.4037337,62.4329506 93.700724,62.4329506 L8.24700454,62.4329506 C7.54399489,62.4329506 6.97272856,61.8616843 6.97272856,61.1586746 L6.97272856,7.53686882 C6.97272856,6.83385917 7.54399489,6.26259284 8.24700454,6.26259284 L93.700724,6.26259284 C94.4037337,6.26259284 94.975,6.83385917 94.975,7.53686882 L94.975,61.1586746 L94.975,61.1586746 Z" id="Shape"></path>
            </g>
            <path d="M508.78134,375.908289 C512.356441,375.907589 515.574369,373.74 516.918423,370.427166 L519.359036,370.427166 C519.536008,370.427942 519.70591,370.357765 519.830751,370.232327 L521.368952,368.694126 C521.416207,368.645896 521.480887,368.618718 521.548409,368.618718 C521.61593,368.618718 521.68061,368.645896 521.727865,368.694126 L523.091737,370.057998 C523.431891,370.396976 523.982144,370.396976 524.322298,370.057998 L525.686169,368.694126 C525.733425,368.645896 525.798104,368.618718 525.865626,368.618718 C525.933148,368.618718 525.997827,368.645896 526.045083,368.694126 L527.408954,370.057998 C527.749108,370.396976 528.299361,370.396976 528.639515,370.057998 L530.003387,368.694126 C530.050642,368.645896 530.115322,368.618718 530.182844,368.618718 C530.250365,368.618718 530.315045,368.645896 530.3623,368.694126 L531.900501,370.232327 C532.024089,370.356504 532.191894,370.426577 532.367089,370.427166 L534.418024,370.427166 C534.567725,370.4272 534.711412,370.368252 534.817956,370.263091 L537.689265,367.391783 C537.839215,367.241645 537.839215,366.998422 537.689265,366.848285 L534.817956,363.976976 C534.711727,363.87134 534.567835,363.812307 534.418024,363.812901 L516.918423,363.812901 C515.253816,359.724765 510.813688,357.507125 506.545396,358.632051 C502.277104,359.756976 499.506757,363.874966 500.07331,368.252498 C500.639864,372.630031 504.367297,375.907058 508.78134,375.908289 L508.78134,375.908289 Z M504.782017,365.20241 C505.559944,365.200374 506.26202,365.668519 506.55921,366.387443 C506.8564,367.106368 506.68981,367.933602 506.137514,368.481456 C505.585218,369.02931 504.756666,369.189214 504.040164,368.886228 C503.323663,368.583242 502.861203,367.877409 502.869521,367.099524 C502.880738,366.050463 503.732899,365.205155 504.782017,365.20241 L504.782017,365.20241 Z M550,351.05096 L550,376.277457 C549.996479,379.70943 547.549159,382.652247 544.175345,383.281399 L519.794859,387.26534 C519.171615,387.267756 518.581087,386.986642 518.190003,386.501366 C517.884967,386.113075 517.72373,385.631173 517.73367,385.137495 L517.73367,374.949477 C517.73367,374.635153 517.98848,374.380342 518.302804,374.380342 L521.292042,374.380342 C521.606366,374.380342 521.861176,374.635153 521.861176,374.949477 L521.861176,381.876509 L536.904782,374.431616 C537.543627,374.114126 538.301556,374.151411 538.906155,374.53007 C539.510754,374.908729 539.875154,375.574356 539.868383,376.287712 C539.872109,377.128166 540.228277,377.928501 540.850168,378.493857 C541.47206,379.059213 542.302619,379.33772 543.139623,379.261567 C544.707019,379.07763 545.881019,377.737499 545.857112,376.159528 L545.857112,353.11215 L521.856049,353.11215 L521.856049,359.264954 C521.856049,359.579278 521.601239,359.834088 521.286914,359.834088 L518.297677,359.834088 C517.983353,359.834088 517.728543,359.579278 517.728543,359.264954 L517.728543,351.05096 C517.728543,349.91826 518.646777,349.000026 519.779477,349.000026 L547.938811,349.000026 C548.484527,348.997297 549.008828,349.212172 549.395674,349.597093 C549.78252,349.982014 550.000007,350.505237 550,351.05096 L550,351.05096 Z" id="Shape" fill="#FFFFFF" fill-rule="nonzero"></path>
            <path d="M391.5,365.5 L491.5,365.5" id="Line" stroke="#FFFFFF" stroke-width="3" stroke-linecap="square"></path>
            <path d="M559.5,365.5 L659.5,365.5" id="Line" stroke="#FFFFFF" stroke-width="3" stroke-linecap="round"></path>
            <path id="Line-decoration-1" d="M648.7,368.5 L659.5,365.5 L648.7,362.5" stroke="#FFFFFF" stroke-width="3" stroke-linecap="round"></path>
            <path d="M182.537109,329.722656 C182.537109,329.722656 181.037109,352.089844 200.037109,357.722656 C219.037109,363.355469 242.492188,363.132812 242.492188,363.132812" id="Line" stroke="#FFFFFF" stroke-width="3" stroke-linecap="round"></path>
            <path id="Line-decoration-1" d="M231.692188,366.132812 L242.492188,363.132812 L231.692188,360.132812" stroke="#FFFFFF" stroke-width="3" stroke-linecap="round"></path>
            <text id="Command-and-TOTP-sen" font-family="SourceSansPro-Light, Source Sans Pro" font-size="15" font-weight="300" fill="#FFFFFF">
                <tspan x="434.3375" y="423">Command and TOTP sent to the</tspan>
                <tspan x="428.3825" y="442">Nerv App on your mining machine</tspan>
            </text>
            <text id="Nerv-App-confirms-th" font-family="SourceSansPro-Light, Source Sans Pro" font-size="15" font-weight="300" fill="#FFFFFF">
                <tspan x="560.505" y="284">Nerv App confirms the TOTP matches</tspan>
                <tspan x="515.355" y="303">your personal secret and executes command</tspan>
            </text>
            <text id="Enter-one-time-passw" font-family="SourceSansPro-Light, Source Sans Pro" font-size="15" font-weight="300" fill="#FFFFFF">
                <tspan x="226" y="275">Enter one-time password (TOTP)</tspan>
                <tspan x="226" y="294">into Nerv Dashboard website</tspan>
            </text>
        </g>
    </g>
</svg>