<?xml version="1.0" encoding="UTF-8" standalone="no"?><!DOCTYPE svg PUBLIC "-//W3C//DTD SVG 1.1//EN" "http://www.w3.org/Graphics/SVG/1.1/DTD/svg11.dtd"><svg width="100%" height="100%" viewBox="0 0 1240 1103" version="1.1" xmlns="http://www.w3.org/2000/svg" xmlns:xlink="http://www.w3.org/1999/xlink" xml:space="preserve" style="fill-rule:evenodd;clip-rule:evenodd;stroke-linejoin:round;stroke-miterlimit:1.41421;"><g id="Layer6"><path d="M619.534,1059.53c23.338,0 47.625,5.563 71.119,10.938c35.531,8.137 69.094,15.815 99.553,5.925c32.013,-10.394 56.053,-38.185 79.303,-65.06c15.266,-17.643 31.05,-35.887 48.869,-48.853c18.119,-13.19 40.569,-22.718 62.272,-31.931c32.516,-13.8 66.134,-28.072 85.628,-54.853c19.259,-26.466 22.494,-62.703 25.622,-97.75c2.109,-23.631 4.291,-48.069 11.309,-69.678c6.654,-20.5 18.963,-40.847 30.866,-60.528c18.5,-30.588 37.631,-62.219 37.631,-96.632c0,-34.412 -19.131,-66.04 -37.631,-96.631c-11.903,-19.681 -24.212,-40.031 -30.866,-60.531c-7.018,-21.609 -9.2,-46.044 -11.309,-69.675c-3.128,-35.047 -6.363,-71.284 -25.622,-97.75c-19.494,-26.781 -53.112,-41.053 -85.628,-54.853c-21.706,-9.213 -44.153,-18.741 -62.272,-31.928c-17.819,-12.969 -33.6,-31.213 -48.865,-48.857c-23.254,-26.875 -47.294,-54.665 -79.307,-65.059c-30.465,-9.894 -64.025,-2.209 -99.553,5.925c-23.49,5.378 -47.781,10.938 -71.119,10.938c-23.337,0 -47.628,-5.56 -71.118,-10.938c-35.529,-8.131 -69.088,-15.812 -99.553,-5.925c-32.013,10.394 -56.057,38.184 -79.307,65.063c-15.265,17.643 -31.047,35.884 -48.862,48.853c-18.122,13.187 -40.569,22.712 -62.272,31.928c-32.516,13.8 -66.138,28.072 -85.631,54.853c-19.26,26.466 -22.497,62.703 -25.625,97.75c-2.107,23.631 -4.291,48.066 -11.307,69.675c-6.656,20.503 -18.962,40.853 -30.865,60.534c-18.503,30.588 -37.632,62.216 -37.632,96.628c0,34.413 19.129,66.041 37.629,96.632c11.903,19.681 24.212,40.028 30.868,60.531c7.016,21.609 9.2,46.044 11.307,69.678c3.128,35.044 6.365,71.281 25.625,97.747c19.49,26.781 53.112,41.053 85.625,54.853c21.709,9.213 44.156,18.741 62.278,31.931c17.815,12.966 33.6,31.21 48.865,48.853c23.25,26.875 47.294,54.669 79.304,65.06c30.462,9.89 64.024,2.212 99.556,-5.925c23.49,-5.375 47.778,-10.938 71.115,-10.938Zm139.035,24.585c-22.322,0 -45.725,-5.36 -68.616,-10.6c-23.322,-5.338 -47.434,-10.86 -70.419,-10.86c-22.981,0 -47.097,5.522 -70.418,10.86c-34.385,7.868 -69.938,16.009 -101.219,5.85c-32.838,-10.663 -57.172,-38.788 -80.703,-65.985c-15.147,-17.512 -30.813,-35.618 -48.341,-48.375c-17.831,-12.978 -40.112,-22.434 -61.659,-31.578c-32.903,-13.969 -66.931,-28.409 -86.928,-55.894c-19.772,-27.162 -23.044,-63.84 -26.213,-99.306c-2.094,-23.459 -4.256,-47.719 -11.165,-68.99c-6.544,-20.16 -18.213,-39.454 -30.569,-59.882c-18.722,-30.956 -38.082,-62.962 -38.082,-98.247c0,-35.284 19.36,-67.29 38.082,-98.246c12.356,-20.429 24.025,-39.722 30.569,-59.879c6.909,-21.275 9.071,-45.531 11.165,-68.99c3.169,-35.469 6.441,-72.147 26.213,-99.313c20,-27.481 54.028,-41.925 86.931,-55.89c21.547,-9.147 43.825,-18.6 61.656,-31.578c17.525,-12.754 33.191,-30.863 48.341,-48.372c23.531,-27.197 47.862,-55.325 80.703,-65.988c31.284,-10.156 66.837,-2.019 101.216,5.853c23.321,5.338 47.437,10.857 70.421,10.857c22.985,0 47.1,-5.519 70.422,-10.857c34.378,-7.872 69.932,-16.012 101.216,-5.853c32.837,10.663 57.172,38.791 80.703,65.988c15.15,17.509 30.816,35.615 48.341,48.372c17.831,12.978 40.112,22.434 61.656,31.581c32.906,13.965 66.931,28.409 86.931,55.887c19.769,27.166 23.044,63.844 26.213,99.313c2.09,23.459 4.256,47.715 11.165,68.99c6.544,20.157 18.213,39.447 30.566,59.879c18.725,30.953 38.084,62.962 38.084,98.246c0,35.285 -19.359,67.294 -38.084,98.247c-12.353,20.428 -24.022,39.722 -30.566,59.878c-6.909,21.272 -9.075,45.532 -11.165,68.991c-3.169,35.469 -6.444,72.147 -26.213,99.309c-20,27.485 -54.025,41.925 -86.931,55.891c-21.544,9.147 -43.825,18.603 -61.656,31.581c-17.528,12.757 -33.194,30.863 -48.344,48.375c-23.531,27.197 -47.863,55.322 -80.7,65.985c-10.459,3.397 -21.394,4.75 -32.603,4.75Z" style="fill-rule:nonzero;"/></g></svg>