<?xml version="1.0" encoding="UTF-8" standalone="no"?><!DOCTYPE svg PUBLIC "-//W3C//DTD SVG 1.1//EN" "http://www.w3.org/Graphics/SVG/1.1/DTD/svg11.dtd"><svg width="100%" height="100%" viewBox="0 0 1968 1528" version="1.1" xmlns="http://www.w3.org/2000/svg" xmlns:xlink="http://www.w3.org/1999/xlink" xml:space="preserve" style="fill-rule:evenodd;clip-rule:evenodd;stroke-linejoin:round;stroke-miterlimit:1.41421;"><g id="Layer4"><path d="M1460.72,1517.68l2.725,4.838l4.837,-2.728l-2.725,-4.838l-4.837,2.728Zm1.537,9.091l-5.793,-10.281l10.281,-5.794l5.793,10.284l-10.281,5.791Z" style="fill-rule:nonzero;"/><path d="M1561.55,1186.37l19.959,17.109l17.107,-19.959l-19.957,-17.107l-17.109,19.957Zm20.297,21.515l-24.703,-21.172l21.175,-24.706l24.706,21.172l-21.178,24.706Z" style="fill-rule:nonzero;"/><path d="M1626.67,1089.03l29.462,17.425l17.422,-29.462l-29.459,-17.428l-17.425,29.465Zm30.559,21.703l-34.841,-20.606l20.607,-34.84l34.843,20.609l-20.609,34.837Z" style="fill-rule:nonzero;"/><path d="M1729.37,1289.32l-4.516,-1.691l1.697,-4.522l4.519,1.7l-1.7,4.513Z" style="fill-rule:nonzero;"/><path d="M1804.75,1079.05l36.253,6.784l6.788,-36.25l-36.254,-6.787l-6.787,36.253Zm38.75,10.428l-42.397,-7.934l7.937,-42.391l42.397,7.935l-7.937,42.39Z" style="fill-rule:nonzero;"/><path d="M1942.93,805.144l21.241,0.225l0.222,-21.238l-21.241,-0.228l-0.222,21.241Zm24.331,3.381l-27.49,-0.287l0.29,-27.488l27.491,0.284l-0.291,27.491Z" style="fill-rule:nonzero;"/><path d="M1742.36,838.122l5.653,34.153l34.157,-5.656l-5.653,-34.15l-34.157,5.653Zm3.081,37.747l-6.671,-40.322l40.318,-6.672l6.672,40.319l-40.319,6.675Z" style="fill-rule:nonzero;"/><path d="M1769.85,321.491l-1.619,-4.6l4.6,-1.619l1.619,4.6l-4.6,1.619Z" style="fill-rule:nonzero;"/><path d="M1732.07,560.588l5.7,10.118l10.115,-5.7l-5.7,-10.119l-10.115,5.701Zm4.509,14.375l-8.769,-15.563l15.566,-8.769l8.766,15.563l-15.563,8.769Z" style="fill-rule:nonzero;"/><path d="M1716.3,319.331l14.053,17.113l17.113,-14.056l-14.054,-17.11l-17.112,14.053Zm13.625,21.51l-18.022,-21.941l21.938,-18.022l18.021,21.941l-21.937,18.022Z" style="fill-rule:nonzero;"/><path d="M1614.94,284.263l0.931,0.796l0.8,-0.931l-0.934,-0.8l-0.797,0.935Zm1.269,5.203l-5.679,-4.866l4.869,-5.678l5.678,4.869l-4.868,5.675Z" style="fill-rule:nonzero;"/><path d="M1430.17,161.656l5.259,3.11l3.112,-5.26l-5.262,-3.112l-3.109,5.262Zm6.359,7.391l-10.641,-6.294l6.294,-10.644l10.641,6.297l-6.294,10.641Z" style="fill-rule:nonzero;"/><path d="M1166.18,27.591l3.328,0.622l0.625,-3.329l-3.331,-0.625l-0.622,3.332Zm5.825,4.268l-9.472,-1.771l1.772,-9.475l9.475,1.775l-1.775,9.471Z" style="fill-rule:nonzero;"/><path d="M1134.03,5.084l-5.028,-0.053l0.053,-5.031l5.031,0.053l-0.056,5.031Z" style="fill-rule:nonzero;"/><path d="M677.394,62.35l2.178,13.156l13.153,-2.178l-2.178,-13.153l-13.153,2.175Zm-0.397,16.747l-3.194,-19.319l19.319,-3.2l3.197,19.322l-19.322,3.197Z" style="fill-rule:nonzero;"/><path d="M634.425,101.569l1.75,3.106l3.106,-1.75l-1.75,-3.106l-3.106,1.75Zm0.562,7.362l-4.818,-8.553l8.553,-4.815l4.815,8.553l-8.55,4.815Z" style="fill-rule:nonzero;"/><path d="M343.634,155.309l22.719,27.663l27.666,-22.719l-22.722,-27.665l-27.663,22.721Zm22.291,32.063l-26.691,-32.494l32.494,-26.687l26.688,32.493l-32.491,26.688Z" style="fill-rule:nonzero;"/><path d="M420.988,317.925l21.078,18.069l18.068,-21.078l-21.078,-18.072l-18.068,21.081Zm21.418,22.475l-25.825,-22.138l22.135,-25.824l25.828,22.137l-22.138,25.825Z" style="fill-rule:nonzero;"/><path d="M4.281,408.075l4.119,2.434l2.438,-4.115l-4.119,-2.438l-2.438,4.119Zm5.219,6.719l-9.5,-5.619l5.619,-9.5l9.5,5.619l-5.619,9.5Z" style="fill-rule:nonzero;"/><path d="M315.778,610.847l9.119,3.428l3.425,-9.119l-9.116,-3.428l-3.428,9.119Zm10.944,7.453l-14.969,-5.628l5.628,-14.969l14.966,5.628l-5.625,14.969Z" style="fill-rule:nonzero;"/><path d="M42.872,838.819l28.278,5.294l5.294,-28.282l-28.278,-5.293l-5.294,28.281Zm30.775,8.937l-34.422,-6.443l6.444,-34.419l34.422,6.44l-6.444,34.422Z" style="fill-rule:nonzero;"/><path d="M197.944,782.231l5.406,0.06l0.056,-5.407l-5.406,-0.059l-0.056,5.406Zm8.497,3.213l-11.657,-0.116l0.122,-11.659l11.66,0.125l-0.125,11.65Z" style="fill-rule:nonzero;"/><path d="M228.997,923.756l2.722,16.453l16.453,-2.721l-2.722,-16.454l-16.453,2.722Zm0.15,20.047l-3.744,-22.622l22.619,-3.74l3.744,22.615l-22.619,3.747Z" style="fill-rule:nonzero;"/><path d="M134.141,887.191l6,17.04l17.04,-6l-6,-17.043l-17.04,6.003Zm4.09,21.028l-8.078,-22.938l22.938,-8.078l8.078,22.941l-22.938,8.075Z" style="fill-rule:nonzero;"/><path d="M392.312,1276.34l3.038,5.387l5.384,-3.037l-3.034,-5.385l-5.388,3.035Zm1.847,9.64l-6.103,-10.828l10.835,-6.109l6.1,10.837l-10.832,6.1Z" style="fill-rule:nonzero;"/><path d="M393.006,1255.68l17.45,21.247l21.25,-17.453l-17.453,-21.247l-21.247,17.453Zm17.022,25.647l-21.419,-26.081l26.075,-21.419l21.419,26.081l-26.075,21.419Z" style="fill-rule:nonzero;"/><path d="M466.919,1353.59l21.1,18.087l18.087,-21.103l-21.1,-18.087l-18.087,21.103Zm21.44,22.494l-25.847,-22.154l22.157,-25.85l25.847,22.16l-22.157,25.844Z" style="fill-rule:nonzero;"/><path d="M357.584,1388.78l1.069,0.634l0.635,-1.071l-1.072,-0.635l-0.632,1.072Zm2.169,4.913l-6.453,-3.816l3.819,-6.447l6.453,3.816l-3.819,6.447Z" style="fill-rule:nonzero;"/><path d="M776.094,1481.13l11.559,2.163l2.166,-11.563l-11.563,-2.165l-2.162,11.565Zm14.056,5.807l-17.703,-3.313l3.312,-17.703l17.707,3.312l-3.316,17.704Z" style="fill-rule:nonzero;"/><path d="M852.444,1524.15l17.931,0.194l0.188,-17.938l-17.932,-0.19l-0.187,17.934Zm21.025,3.347l-24.185,-0.253l0.254,-24.184l24.184,0.253l-0.253,24.184Z" style="fill-rule:nonzero;"/></g></svg>