<?xml version="1.0" encoding="UTF-8" standalone="no"?><!DOCTYPE svg PUBLIC "-//W3C//DTD SVG 1.1//EN" "http://www.w3.org/Graphics/SVG/1.1/DTD/svg11.dtd"><svg width="100%" height="100%" viewBox="0 0 755 755" version="1.1" xmlns="http://www.w3.org/2000/svg" xmlns:xlink="http://www.w3.org/1999/xlink" xml:space="preserve" style="fill-rule:evenodd;clip-rule:evenodd;stroke-linejoin:round;stroke-miterlimit:1.41421;"><path d="M314.291,156.209c-5.097,0 -9.238,-4.143 -9.238,-9.237c0,-5.094 4.141,-9.238 9.238,-9.238c5.09,0 9.237,4.144 9.237,9.238c0,5.094 -4.147,9.237 -9.237,9.237Zm-179.138,-62.937c-3.603,3.603 -9.462,3.603 -13.062,0c-3.604,-3.603 -3.604,-9.463 -0.004,-13.063c1.801,-1.803 4.169,-2.703 6.535,-2.703c2.362,0 4.731,0.9 6.531,2.703c3.603,3.6 3.603,9.46 0,13.063Zm86.925,-76.581c0,-5.094 4.144,-9.238 9.238,-9.238c5.093,0 9.237,4.144 9.237,9.238c0,5.093 -4.144,9.24 -9.237,9.24c-5.094,0 -9.238,-4.147 -9.238,-9.24Zm96.403,114.143l0,-32.637l-72.893,-72.894c1.524,-2.516 2.418,-5.459 2.418,-8.612c0,-9.204 -7.487,-16.691 -16.69,-16.691c-9.204,0 -16.691,7.487 -16.691,16.691c0,9.206 7.487,16.693 16.691,16.693c3.356,0 6.475,-1.006 9.093,-2.715l70.619,70.618l0,29.316c-6.653,1.325 -11.887,6.616 -13.134,13.297l-50.556,0l-60.772,-60.775l-41.669,0c-0.663,-3.003 -2.144,-5.859 -4.475,-8.187c-6.506,-6.507 -17.097,-6.507 -23.603,0c-6.51,6.506 -6.51,17.096 0,23.606c3.253,3.253 7.528,4.881 11.803,4.881c4.272,0 8.547,-1.628 11.8,-4.881l0.003,0c2.272,-2.272 3.731,-5.044 4.416,-7.963l38.634,0l60.775,60.772l53.95,0c1.931,7.081 8.403,12.31 16.091,12.31c9.203,0 16.69,-7.488 16.69,-16.691c0,-7.756 -5.322,-14.269 -12.5,-16.138Z" style="fill-rule:nonzero;"/><path d="M632.25,93.272c-3.6,3.603 -9.463,3.603 -13.066,0c-3.6,-3.603 -3.6,-9.463 0,-13.063c1.804,-1.803 4.169,-2.703 6.532,-2.703c2.368,0 4.731,0.9 6.534,2.703c3.603,3.6 3.603,9.46 0,13.063Zm-195.097,62.937c-5.094,0 -9.237,-4.143 -9.237,-9.237c0,-5.094 4.143,-9.238 9.237,-9.238c5.094,0 9.241,4.144 9.241,9.238c0,5.094 -4.147,9.237 -9.241,9.237Zm83.441,-148.756c5.094,0 9.237,4.144 9.237,9.238c0,5.093 -4.143,9.24 -9.237,9.24c-5.094,0 -9.238,-4.147 -9.238,-9.24c0,-5.094 4.144,-9.238 9.238,-9.238Zm116.925,67.485c-6.506,-6.507 -17.097,-6.507 -23.607,0c-2.328,2.328 -3.809,5.184 -4.471,8.187l-41.669,0l-60.772,60.775l-53.394,0l0,0.356c-1.1,-6.687 -6.178,-12.04 -12.725,-13.543l0,-29.426l70.619,-70.618c2.619,1.709 5.741,2.715 9.094,2.715c9.203,0 16.69,-7.487 16.69,-16.693c0,-9.204 -7.487,-16.691 -16.69,-16.691c-9.203,0 -16.691,7.487 -16.691,16.691c0,3.153 0.894,6.096 2.419,8.612l-72.894,72.894l0,32.516c-7.412,1.7 -12.965,8.337 -12.965,16.259c0,9.203 7.487,16.691 16.69,16.691c8.278,0 15.15,-6.063 16.453,-13.976l0,1.666l56.481,0l60.775,-60.772l38.635,0c0.684,2.919 2.144,5.691 4.415,7.963c3.257,3.253 7.532,4.881 11.804,4.881c4.278,0 8.55,-1.628 11.803,-4.881c6.509,-6.51 6.509,-17.1 0,-23.606Z" style="fill-rule:nonzero;"/><path d="M314.291,616.603c-5.097,0 -9.238,-4.144 -9.238,-9.237c0,-5.094 4.141,-9.238 9.238,-9.238c5.09,0 9.237,4.144 9.237,9.238c0,5.093 -4.147,9.237 -9.237,9.237Zm-82.975,130.281c-5.094,0 -9.238,-4.147 -9.238,-9.237c0,-5.094 4.144,-9.241 9.238,-9.241c5.093,0 9.237,4.147 9.237,9.241c0,5.09 -4.144,9.237 -9.237,9.237Zm-96.163,-72.756c-1.8,1.803 -4.169,2.703 -6.531,2.703c-2.366,0 -4.734,-0.9 -6.535,-2.703c-3.6,-3.6 -3.6,-9.462 0.004,-13.062c3.6,-3.603 9.459,-3.607 13.062,0c3.603,3.6 3.603,9.462 0,13.062Zm195.828,-66.762c0,-9.203 -7.487,-16.694 -16.69,-16.694c-7.688,0 -14.16,5.231 -16.091,12.312l-53.95,0l-60.775,60.775l-38.634,0c-0.685,-2.921 -2.144,-5.693 -4.416,-7.965l-0.003,0c-3.253,-3.253 -7.528,-4.878 -11.8,-4.878c-4.275,0 -8.55,1.621 -11.803,4.878c-6.51,6.509 -6.51,17.1 0,23.606c6.506,6.506 17.097,6.509 23.603,0c2.331,-2.328 3.812,-5.184 4.475,-8.188l41.669,0l60.772,-60.775l50.556,0c1.247,6.682 6.481,11.975 13.134,13.294l0,29.319l-70.619,70.619c-2.618,-1.713 -5.737,-2.716 -9.093,-2.716c-9.204,0 -16.691,7.488 -16.691,16.694c0,9.203 7.487,16.691 16.691,16.691c9.203,0 16.69,-7.488 16.69,-16.691c0,-3.153 -0.894,-6.097 -2.418,-8.613l72.893,-72.893l0,-32.638c7.178,-1.869 12.5,-8.381 12.5,-16.137Z" style="fill-rule:nonzero;"/><path d="M632.25,674.128c-1.803,1.803 -4.166,2.703 -6.534,2.703c-2.363,0 -4.728,-0.9 -6.532,-2.703c-3.6,-3.6 -3.6,-9.462 0,-13.062c3.603,-3.607 9.466,-3.603 13.066,0c3.603,3.6 3.603,9.462 0,13.062Zm-195.097,-57.525c-5.094,0 -9.237,-4.144 -9.237,-9.237c0,-5.094 4.143,-9.238 9.237,-9.238c5.094,0 9.241,4.144 9.241,9.238c0,5.093 -4.147,9.237 -9.241,9.237Zm92.678,121.044c0,5.09 -4.143,9.237 -9.237,9.237c-5.094,0 -9.238,-4.147 -9.238,-9.237c0,-5.094 4.144,-9.241 9.238,-9.241c5.094,0 9.237,4.147 9.237,9.241Zm107.688,-81.853c-3.253,-3.257 -7.525,-4.878 -11.803,-4.878c-4.272,0 -8.547,1.625 -11.804,4.878c-2.271,2.272 -3.731,5.044 -4.415,7.965l-38.635,0l-60.775,-60.775l-56.481,0l0,1.669c-1.303,-7.916 -8.175,-13.981 -16.453,-13.981c-9.203,0 -16.69,7.491 -16.69,16.694c0,7.921 5.553,14.556 12.965,16.256l0,32.519l72.894,72.893c-1.525,2.516 -2.419,5.46 -2.419,8.613c0,9.203 7.488,16.691 16.691,16.691c9.203,0 16.69,-7.488 16.69,-16.691c0,-9.206 -7.487,-16.694 -16.69,-16.694c-3.353,0 -6.475,1.003 -9.094,2.716l-70.619,-70.619l0,-29.428c6.547,-1.5 11.625,-6.853 12.725,-13.544l0,0.359l53.394,0l60.772,60.775l41.669,0c0.662,3.004 2.143,5.86 4.471,8.188c6.51,6.509 17.101,6.506 23.607,0c6.509,-6.506 6.509,-17.097 0,-23.606Z" style="fill-rule:nonzero;"/><path d="M737.647,240.553c-5.094,0 -9.241,-4.144 -9.241,-9.237c0,-5.094 4.147,-9.238 9.241,-9.238c5.09,0 9.237,4.144 9.237,9.238c0,5.093 -4.147,9.237 -9.237,9.237Zm-130.281,82.972c-5.094,0 -9.238,-4.144 -9.238,-9.238c0,-5.09 4.144,-9.237 9.238,-9.237c5.093,0 9.237,4.147 9.237,9.237c0,5.094 -4.144,9.238 -9.237,9.238Zm53.7,-201.434c3.6,-3.604 9.462,-3.604 13.065,-0.004c1.8,1.804 2.7,4.169 2.7,6.535c0,2.362 -0.9,4.731 -2.7,6.531c-3.603,3.603 -9.465,3.603 -13.065,0c-3.603,-3.603 -3.603,-9.465 0,-13.062Zm76.581,92.531c-9.209,0 -16.694,7.49 -16.694,16.694c0,3.353 1.003,6.475 2.716,9.093l-70.619,70.619l-29.316,0c-1.325,-6.653 -6.615,-11.884 -13.293,-13.134l0,-50.556l60.771,-60.775l0,-41.666c3,-0.663 5.857,-2.144 8.188,-4.472c6.509,-6.509 6.506,-17.1 0,-23.606c-6.506,-6.51 -17.097,-6.51 -23.606,0c-3.256,3.253 -4.882,7.528 -4.882,11.803c0,4.275 1.629,8.547 4.882,11.803c2.272,2.272 5.047,3.731 7.965,4.416l0,38.634l-60.775,60.775l0,53.95c-7.081,1.931 -12.309,8.403 -12.309,16.087c0,9.207 7.487,16.694 16.691,16.694c7.753,0 14.272,-5.322 16.137,-12.5l32.634,0l72.894,-72.893c2.522,1.524 5.46,2.418 8.616,2.418c9.2,0 16.687,-7.487 16.687,-16.69c0,-9.204 -7.487,-16.694 -16.687,-16.694Z" style="fill-rule:nonzero;"/><path d="M737.647,529.834c-5.094,0 -9.241,-4.146 -9.241,-9.24c0,-5.091 4.147,-9.238 9.241,-9.238c5.09,0 9.237,4.147 9.237,9.238c0,5.094 -4.147,9.24 -9.237,9.24Zm-130.281,-83.443c-5.094,0 -9.238,-4.144 -9.238,-9.238c0,-5.094 4.144,-9.237 9.238,-9.237c5.093,0 9.237,4.143 9.237,9.237c0,5.094 -4.144,9.238 -9.237,9.238Zm69.465,179.325c0,2.365 -0.9,4.734 -2.7,6.534c-3.603,3.6 -9.465,3.6 -13.065,0c-3.603,-3.6 -3.603,-9.462 0,-13.066c3.6,-3.603 9.462,-3.603 13.065,0c1.8,1.8 2.7,4.166 2.7,6.532Zm60.816,-121.813c-3.156,0 -6.094,0.894 -8.616,2.419l-72.894,-72.894l-32.515,0c-1.7,-7.412 -8.335,-12.965 -16.256,-12.965c-9.204,0 -16.691,7.487 -16.691,16.69c0,8.278 6.062,15.15 13.978,16.453l-1.669,0l0,56.481l60.775,60.772l0,38.638c-2.918,0.684 -5.693,2.144 -7.965,4.415l0,0.004c-3.253,3.253 -4.882,7.528 -4.882,11.8c0,4.275 1.626,8.55 4.882,11.806c6.509,6.506 17.1,6.506 23.606,0c6.506,-6.513 6.509,-17.1 0,-23.606c-2.331,-2.332 -5.188,-3.813 -8.188,-4.475l0,-41.669l-60.771,-60.772l0,-53.394l-0.36,0c6.688,-1.103 12.041,-6.181 13.541,-12.725l29.428,0l70.619,70.616c-1.713,2.622 -2.716,5.741 -2.716,9.097c0,9.203 7.485,16.69 16.694,16.69c9.2,0 16.687,-7.487 16.687,-16.69c0,-9.203 -7.487,-16.691 -16.687,-16.691Z" style="fill-rule:nonzero;"/><path d="M146.972,323.525c-5.094,0 -9.238,-4.144 -9.238,-9.238c0,-5.09 4.144,-9.237 9.238,-9.237c5.094,0 9.237,4.147 9.237,9.237c0,5.094 -4.143,9.238 -9.237,9.238Zm-139.519,-92.209c0,-5.094 4.144,-9.238 9.238,-9.238c5.097,0 9.24,4.144 9.24,9.238c0,5.093 -4.143,9.237 -9.24,9.237c-5.094,0 -9.238,-4.144 -9.238,-9.237Zm70.056,-102.694c0,-2.366 0.897,-4.731 2.7,-6.535c3.6,-3.6 9.463,-3.6 13.066,0.004c3.6,3.597 3.6,9.459 -0.003,13.062c-3.6,3.603 -9.463,3.603 -13.063,0c-1.803,-1.8 -2.7,-4.169 -2.7,-6.531Zm73.844,169.578l0,-53.95l-60.775,-60.775l0,-38.634c2.922,-0.685 5.694,-2.144 7.966,-4.416l0.003,0c3.25,-3.256 4.878,-7.528 4.878,-11.803c0,-4.275 -1.625,-8.55 -4.881,-11.803c-6.51,-6.51 -17.1,-6.51 -23.606,0c-6.507,6.506 -6.507,17.097 0,23.606c2.328,2.328 5.184,3.809 8.187,4.472l0,41.666l60.775,60.775l0,50.556c-6.681,1.25 -11.972,6.481 -13.297,13.134l-29.316,0l-70.618,-70.619c1.712,-2.618 2.715,-5.74 2.715,-9.093c0,-9.204 -7.49,-16.694 -16.693,-16.694c-9.204,0 -16.691,7.49 -16.691,16.694c0,9.203 7.487,16.69 16.691,16.69c3.153,0 6.096,-0.894 8.615,-2.418l72.894,72.893l32.634,0c1.866,7.178 8.385,12.5 16.138,12.5c9.203,0 16.691,-7.487 16.691,-16.694c0,-7.684 -5.229,-14.156 -12.31,-16.087Z" style="fill-rule:nonzero;"/><path d="M146.972,446.391c-5.094,0 -9.238,-4.144 -9.238,-9.238c0,-5.094 4.144,-9.237 9.238,-9.237c5.094,0 9.237,4.143 9.237,9.237c0,5.094 -4.143,9.238 -9.237,9.238Zm-53.697,185.859c-3.603,3.6 -9.466,3.6 -13.066,0c-1.803,-1.8 -2.7,-4.169 -2.7,-6.534c0,-2.366 0.897,-4.732 2.7,-6.532c3.6,-3.603 9.463,-3.603 13.063,0c3.603,3.604 3.603,9.466 0.003,13.066Zm-76.584,-102.416c-5.094,0 -9.238,-4.146 -9.238,-9.24c0,-5.091 4.144,-9.238 9.238,-9.238c5.097,0 9.24,4.147 9.24,9.238c0,5.094 -4.143,9.24 -9.24,9.24Zm146.972,-92.681c0,-9.203 -7.488,-16.69 -16.691,-16.69c-7.922,0 -14.559,5.553 -16.259,12.965l-32.513,0l-72.894,72.894c-2.519,-1.525 -5.462,-2.419 -8.615,-2.419c-9.204,0 -16.691,7.488 -16.691,16.691c0,9.203 7.487,16.69 16.691,16.69c9.203,0 16.693,-7.487 16.693,-16.69c0,-3.356 -1.003,-6.475 -2.715,-9.097l70.618,-70.616l29.426,0c1.503,6.544 6.856,11.622 13.543,12.725l-0.356,0l0,53.394l-60.775,60.772l0,41.669c-3.003,0.662 -5.859,2.143 -8.187,4.475c-6.507,6.506 -6.507,17.093 0,23.606c6.506,6.506 17.096,6.506 23.606,0c3.256,-3.256 4.881,-7.531 4.881,-11.806c0,-4.272 -1.628,-8.547 -4.878,-11.8l-0.003,-0.004c-2.272,-2.271 -5.044,-3.731 -7.966,-4.415l0,-38.638l60.775,-60.772l0,-56.481l-1.669,0c7.916,-1.303 13.979,-8.175 13.979,-16.453Z" style="fill-rule:nonzero;"/></svg>