<?xml version="1.0" encoding="UTF-8" standalone="no"?><!DOCTYPE svg PUBLIC "-//W3C//DTD SVG 1.1//EN" "http://www.w3.org/Graphics/SVG/1.1/DTD/svg11.dtd"><svg width="100%" height="100%" viewBox="0 0 805 805" version="1.1" xmlns="http://www.w3.org/2000/svg" xmlns:xlink="http://www.w3.org/1999/xlink" xml:space="preserve" style="fill-rule:evenodd;clip-rule:evenodd;stroke-linejoin:round;stroke-miterlimit:1.41421;"><path d="M438.626,23.216c-3.603,3.6 -9.463,3.604 -13.066,0c-3.6,-3.603 -3.6,-9.462 0,-13.065c1.803,-1.8 4.166,-2.7 6.531,-2.7c2.366,0 4.732,0.9 6.535,2.7c1.744,1.747 2.706,4.065 2.706,6.534c0,2.466 -0.962,4.788 -2.706,6.531Zm-43.566,155.41c-3.603,-3.603 -3.603,-9.463 0,-13.063c1.791,-1.793 4.141,-2.687 6.494,-2.7c2.353,0.013 4.703,0.907 6.494,2.7c3.603,3.6 3.603,9.46 0,13.063c-1.791,1.79 -4.141,2.687 -6.494,2.697c-2.353,-0.01 -4.703,-0.907 -6.494,-2.697Zm-33.281,-161.941c0,-2.469 0.959,-4.787 2.706,-6.534c1.8,-1.8 4.166,-2.7 6.531,-2.7c2.366,0 4.732,0.9 6.532,2.7c3.603,3.603 3.603,9.462 0,13.065c-3.6,3.604 -9.463,3.6 -13.063,0c-1.747,-1.743 -2.706,-4.065 -2.706,-6.531Zm87.006,0c0,-4.459 -1.737,-8.653 -4.891,-11.803c-6.506,-6.509 -17.096,-6.509 -23.606,0c-6.506,6.506 -6.506,17.097 0,23.606c2.41,2.407 5.378,3.919 8.491,4.544l0,38.509l-27.225,27.222l-27.225,-27.222l0,-38.509c3.116,-0.625 6.081,-2.137 8.491,-4.544c6.506,-6.509 6.506,-17.1 0,-23.606c-6.51,-6.509 -17.1,-6.509 -23.607,0c-3.153,3.15 -4.887,7.344 -4.887,11.803c0,4.456 1.734,8.65 4.887,11.803c2.194,2.191 4.853,3.628 7.663,4.344l0,41.794l30.609,30.609l0,50.688c-2.85,0.703 -5.55,2.147 -7.772,4.368c-6.509,6.507 -6.509,17.097 0,23.607c3.253,3.253 7.528,4.881 11.803,4.881l0.038,-0.003l0.041,0.003c4.271,0 8.546,-1.628 11.8,-4.881c6.509,-6.51 6.509,-17.1 0,-23.607c-2.219,-2.221 -4.922,-3.665 -7.769,-4.368l0,-50.688l30.606,-30.609l0,-41.794c2.809,-0.716 5.472,-2.153 7.662,-4.344c3.154,-3.153 4.891,-7.347 4.891,-11.803Z" style="fill-rule:nonzero;"/><path d="M439.288,794.429c-1.8,1.803 -4.165,2.703 -6.531,2.703c-2.366,0 -4.731,-0.9 -6.534,-2.703c-3.6,-3.6 -3.6,-9.459 0,-13.063c3.603,-3.603 9.462,-3.603 13.065,0c1.744,1.744 2.706,4.063 2.706,6.535c0,2.465 -0.962,4.784 -2.706,6.528Zm-31.162,-168.472c3.603,3.603 3.603,9.463 0,13.066c-1.725,1.725 -3.975,2.6 -6.241,2.668c-2.266,-0.068 -4.512,-0.943 -6.237,-2.668c-3.603,-3.603 -3.603,-9.463 0,-13.066c1.725,-1.725 3.971,-2.603 6.237,-2.672c2.266,0.069 4.516,0.947 6.241,2.672Zm-30.578,168.472c-1.8,1.803 -4.166,2.703 -6.532,2.703c-2.365,0 -4.731,-0.9 -6.531,-2.703c-1.747,-1.744 -2.706,-4.063 -2.706,-6.528c0,-2.472 0.959,-4.791 2.706,-6.535c3.6,-3.603 9.463,-3.603 13.063,0c3.603,3.604 3.603,9.463 0,13.063Zm67.012,-18.334c-2.197,-2.194 -4.856,-3.629 -7.665,-4.341l0,-41.797l-31.269,-31.272l0,-49.878c3.065,-0.644 5.981,-2.141 8.356,-4.516c6.506,-6.509 6.506,-17.097 0,-23.606c-3.253,-3.253 -7.528,-4.881 -11.803,-4.881l-0.294,0.016l-0.29,-0.016c-4.279,0 -8.551,1.628 -11.804,4.881c-6.509,6.509 -6.509,17.097 0,23.606c2.372,2.375 5.291,3.872 8.357,4.516l0,49.878l-31.272,31.272l0,41.797c-2.81,0.712 -5.469,2.147 -7.663,4.341c-3.153,3.153 -4.887,7.346 -4.887,11.806c0,4.456 1.734,8.647 4.887,11.803c6.507,6.506 17.097,6.506 23.607,-0.003c6.506,-6.506 6.506,-17.097 0,-23.606c-2.41,-2.407 -5.375,-3.919 -8.491,-4.544l0,-38.506l27.556,-27.56l27.556,27.56l0,38.506c-3.112,0.625 -6.081,2.137 -8.487,4.544l-0.003,0c-6.506,6.509 -6.506,17.1 0.003,23.606c6.506,6.509 17.1,6.509 23.606,0.003c3.15,-3.156 4.888,-7.347 4.888,-11.803c0,-4.46 -1.738,-8.653 -4.888,-11.806Z" style="fill-rule:nonzero;"/><path d="M794.432,438.629c-1.747,1.744 -4.066,2.7 -6.537,2.7c-2.466,0 -4.785,-0.956 -6.529,-2.7c-3.603,-3.603 -3.603,-9.466 0,-13.066c3.6,-3.603 9.463,-3.603 13.066,0c1.8,1.797 2.7,4.163 2.7,6.532c0,2.362 -0.9,4.731 -2.7,6.534Zm-155.413,-30.578c-3.599,3.6 -9.459,3.6 -13.062,-0.003c-1.791,-1.788 -2.687,-4.141 -2.697,-6.494c0.01,-2.353 0.906,-4.703 2.697,-6.494c3.603,-3.6 9.463,-3.6 13.062,0c1.794,1.791 2.688,4.141 2.697,6.494c-0.009,2.353 -0.903,4.706 -2.697,6.497Zm142.347,-43.566c1.744,-1.747 4.063,-2.706 6.529,-2.706c2.471,0 4.79,0.959 6.537,2.706c1.8,1.8 2.7,4.166 2.7,6.531c0,2.366 -0.9,4.732 -2.7,6.532c-3.603,3.603 -9.466,3.603 -13.066,0c-3.603,-3.6 -3.603,-9.463 0,-13.063Zm-5.271,55.806c-2.407,2.407 -3.922,5.372 -4.544,8.491l-38.506,0l-27.225,-27.228l27.225,-27.222l38.506,0c0.622,3.109 2.137,6.078 4.544,8.488c6.509,6.506 17.099,6.506 23.606,0c6.509,-6.51 6.509,-17.1 0.003,-23.607c-3.153,-3.153 -7.347,-4.89 -11.809,-4.89c-4.454,0 -8.65,1.737 -11.8,4.89c-2.197,2.194 -3.629,4.857 -4.344,7.663l-41.797,0l-30.606,30.606l-50.685,0c-0.706,-2.847 -2.15,-5.547 -4.368,-7.769c-6.51,-6.509 -17.101,-6.509 -23.61,0c-3.253,3.253 -4.881,7.528 -4.881,11.803l0.003,0.038l-0.003,0.037c0,4.279 1.628,8.554 4.881,11.807c6.509,6.506 17.1,6.506 23.61,0c2.218,-2.222 3.662,-4.922 4.368,-7.775l50.685,0l30.606,30.609l41.797,0c0.715,2.813 2.147,5.469 4.344,7.663c3.15,3.153 7.346,4.89 11.8,4.89c4.462,0 8.656,-1.737 11.809,-4.89c6.506,-6.507 6.506,-17.094 -0.003,-23.604c-6.507,-6.509 -17.097,-6.509 -23.606,0Z" style="fill-rule:nonzero;"/><path d="M178.626,408.126c-3.6,3.603 -9.463,3.603 -13.066,0c-1.722,-1.728 -2.6,-3.972 -2.672,-6.241c0.072,-2.265 0.95,-4.512 2.672,-6.237c3.603,-3.604 9.466,-3.604 13.066,0c1.725,1.725 2.6,3.972 2.672,6.237c-0.072,2.269 -0.947,4.513 -2.672,6.241Zm-155.41,31.162c-1.743,1.744 -4.065,2.707 -6.531,2.707c-2.469,0 -4.787,-0.963 -6.534,-2.707c-1.8,-1.8 -2.7,-4.162 -2.7,-6.534c0,-2.366 0.9,-4.728 2.7,-6.531c3.603,-3.597 9.462,-3.597 13.065,0c3.604,3.603 3.6,9.468 0,13.065Zm0,-61.74c-3.603,3.603 -9.462,3.603 -13.065,0c-1.8,-1.8 -2.7,-4.166 -2.7,-6.532c0,-2.365 0.9,-4.731 2.7,-6.531c1.747,-1.747 4.065,-2.706 6.534,-2.706c2.466,0 4.788,0.959 6.531,2.706c3.6,3.6 3.604,9.463 0,13.063Zm165.56,24.043c0,-4.275 -1.625,-8.546 -4.878,-11.8c-6.51,-6.509 -17.1,-6.509 -23.607,0c-2.375,2.372 -3.871,5.291 -4.512,8.357l-49.881,0l-31.269,-31.272l-41.797,0c-0.716,-2.806 -2.15,-5.469 -4.344,-7.663c-3.153,-3.153 -7.347,-4.89 -11.803,-4.89c-4.459,0 -8.65,1.737 -11.803,4.89c-6.509,6.507 -6.509,17.097 0,23.607c6.506,6.506 17.097,6.506 23.606,0c2.41,-2.41 3.919,-5.379 4.544,-8.488l38.506,0l27.556,27.553l-27.556,27.556l-38.506,0c-0.625,-3.112 -2.134,-6.081 -4.544,-8.487c-6.509,-6.506 -17.1,-6.506 -23.606,0c-6.509,6.509 -6.509,17.097 0,23.603c3.153,3.153 7.344,4.891 11.803,4.891c4.456,0 8.65,-1.738 11.803,-4.891c2.194,-2.194 3.628,-4.853 4.344,-7.662l41.797,0l31.269,-31.272l49.881,0c0.641,3.065 2.137,5.984 4.512,8.359c6.507,6.506 17.097,6.506 23.607,0c3.253,-3.253 4.878,-7.528 4.878,-11.803l-0.013,-0.294l0.013,-0.294Z" style="fill-rule:nonzero;"/></svg>