<?xml version="1.0" encoding="UTF-8" standalone="no"?><!DOCTYPE svg PUBLIC "-//W3C//DTD SVG 1.1//EN" "http://www.w3.org/Graphics/SVG/1.1/DTD/svg11.dtd"><svg width="100%" height="100%" viewBox="0 0 1378 1366" version="1.1" xmlns="http://www.w3.org/2000/svg" xmlns:xlink="http://www.w3.org/1999/xlink" xml:space="preserve" style="fill-rule:evenodd;clip-rule:evenodd;stroke-linejoin:round;stroke-miterlimit:1.41421;"><g id="Layer8"><path d="M263.219,258.153l-8.96,-8.922l-0.625,-0.625l-18.943,-18.862l2.056,-2.063l18.953,18.872l0.628,0.625l8.95,8.909l-2.059,2.066Z"/><path d="M270.931,293.953l-31.59,-29.337l-0.65,-0.603l-41.71,-38.735l1.981,-2.137l41.729,38.75l0.646,0.6l31.579,29.325l-1.985,2.137Z"/><path d="M253.788,305.459l-68.538,-59.328l1.903,-2.2l68.535,59.328l-1.9,2.2Z"/><path d="M235.903,316.875l-14.666,-11.825l-1.806,-1.456l-44.047,-35.513l1.832,-2.272l44.075,35.538l1.806,1.453l14.634,11.803l-1.828,2.272Z"/><path d="M219.2,329.762l-11.019,-8.268l-1.856,-1.391l-8.484,-6.366l-0.71,-0.531l-31.593,-23.706l1.749,-2.338l31.616,23.722l0.709,0.532l8.494,6.375l1.857,1.39l10.984,8.244l-1.747,2.337Z"/><path d="M215.084,351.903l-19.381,-13.509l-1.903,-1.328l-8.641,-6.025l-0.725,-0.503l-40.131,-27.979l1.669,-2.384l40.147,27.987l0.725,0.504l8.65,6.031l1.903,1.328l19.359,13.494l-1.672,2.384Z"/><path d="M219.153,378.562l-35.331,-22.843l-1.95,-1.26l-8.791,-5.681l-0.74,-0.481l-56.197,-36.328l1.581,-2.444l65.756,42.513l1.95,1.259l35.303,22.825l-1.581,2.44Z"/><path d="M200.503,390.184l-27.959,-16.718l-1.991,-1.191l-58.578,-35.031l1.491,-2.5l58.609,35.05l1.991,1.19l27.928,16.703l-1.491,2.497Z"/><path d="M190.916,407.616l-29.028,-16.013l-2.032,-1.119l-59.825,-32.997l1.406,-2.556l50.022,27.591l0.779,0.428l9.056,4.997l2.031,1.119l28.994,15.993l-1.403,2.557Z"/><path d="M157.412,412.916l-5.543,-2.81l-2.069,-1.05l-9.163,-4.644l-0.787,-0.4l-26.513,-13.443l1.313,-2.597l26.537,13.456l0.791,0.4l9.169,4.647l2.069,1.05l5.512,2.797l-1.316,2.594Z"/><path d="M134.65,425.319l-3.516,-1.628l-0.803,-0.375l-13.078,-6.066l1.225,-2.65l17.397,8.069l-1.225,2.65Z"/><path d="M177.303,466.497l-43.519,-18.369l-2.137,-0.9l-74.51,-31.45l1.129,-2.684l74.547,31.462l2.137,0.903l43.484,18.354l-1.131,2.684Z"/><path d="M159.472,480.466l-33.728,-12.866l-2.166,-0.825l-64.687,-24.678l1.04,-2.722l54.478,20.781l0.825,0.316l9.413,3.59l2.169,0.829l33.693,12.853l-1.037,2.722Z"/><path d="M134.087,492.725l-15.703,-5.372l-2.197,-0.75l-9.459,-3.237l-0.834,-0.285l-36.281,-12.409l0.943,-2.753l36.303,12.415l0.835,0.285l9.472,3.24l2.193,0.75l15.675,5.36l-0.947,2.756Z"/><path d="M118.503,509.416l-6.787,-2.06l-2.222,-0.675l-9.5,-2.881l-0.844,-0.256l-27.175,-8.247l0.847,-2.788l27.197,8.253l0.847,0.257l9.509,2.887l2.219,0.672l6.756,2.053l-0.847,2.785Z"/><path d="M147.322,538.641l-41.578,-11.05l-2.241,-0.597l-72.116,-19.163l0.75,-2.818l72.15,19.171l2.241,0.597l41.547,11.038l-0.753,2.822Z"/><path d="M126.772,554.044l-26.288,-6.013l-2.262,-0.518l-56.588,-12.944l0.644,-2.844l56.628,12.953l2.263,0.516l26.247,6.003l-0.644,2.847Z"/><path d="M144.478,577.975l-48.541,-9.331l-2.278,-0.438l-9.562,-1.837l-0.869,-0.166l-68.137,-13.097l0.55,-2.856l68.165,13.1l0.866,0.166l9.572,1.84l2.278,0.438l48.506,9.322l-0.55,2.859Z"/><path d="M89.691,589.041l-9.435,-1.475l-0.872,-0.138l-16.856,-2.634l0.453,-2.875l16.878,2.637l0.875,0.138l9.41,1.472l-0.453,2.875Z"/><path d="M108.522,612.675l-19.5,-2.353l-2.303,-0.278l-48.866,-5.894l0.347,-2.9l48.903,5.9l2.303,0.278l19.466,2.35l-0.35,2.897Z"/><path d="M98.187,632.316l-11.525,-0.985l-2.312,-0.197l-40.497,-3.459l0.244,-2.906l40.534,3.462l2.313,0.197l11.487,0.981l-0.244,2.907Z"/><path d="M133.016,654.828l-47.975,-2.415l-2.319,-0.116l-9.569,-0.485l-0.881,-0.043l-66.091,-3.328l0.147,-2.907l66.119,3.332l0.884,0.043l9.569,0.482l2.319,0.115l47.943,2.416l-0.146,2.906Z"/><path d="M131.666,674.284l-20.022,-0.309l-1.066,-0.016l-7.841,-0.121l-1.062,-0.016l-5.687,-0.088l-1.094,-0.015l-10.735,-0.166l-2.321,-0.034l-9.566,-0.147l-0.885,-0.016l-65.168,-1l0.04,-2.915l65.203,1.003l0.885,0.012l9.569,0.147l2.318,0.035l10.66,0.165l1.094,0.016l7.106,0.109l2.362,0.038l2.297,0.034l2.381,0.037l21.575,0.332l-0.043,2.915Z"/><path d="M0.053,696.356l-0.053,-2.915l81.678,-1.594l2.319,-0.044l11.344,-0.222l1.153,-0.022l11.706,-0.231l1.431,-0.025l0.841,-0.019l1.097,-0.022l26.387,-0.512l0.053,2.913l-53.987,1.053l-2.319,0.047l-9.562,0.184l-0.885,0.019l-71.203,1.39Z"/><path d="M41.203,718.25l-0.159,-2.909l41.14,-2.241l2.319,-0.122l13.913,-0.762l0.156,2.906l-13.944,0.759l-2.316,0.128l-41.109,2.241Z"/><path d="M36.534,741.45l-0.256,-2.906l36.728,-3.294l0.878,-0.078l9.557,-0.856l2.312,-0.207l20.447,-1.834l0.256,2.909l-20.475,1.835l-2.309,0.206l-47.138,4.225Z"/><path d="M26.622,765.778l-0.36,-2.897l48.754,-6.09l0.878,-0.11l9.55,-1.194l2.3,-0.287l32.99,-4.119l0.36,2.897l-33.016,4.122l-2.303,0.288l-9.553,1.193l-0.875,0.11l-48.725,6.087Z"/><path d="M26.45,789.45l-0.466,-2.872l62.207,-9.987l2.29,-0.366l36.556,-5.869l0.466,2.872l-36.587,5.872l-2.291,0.369l-9.55,1.534l-0.875,0.138l-51.75,8.309Z"/><path d="M28.919,812.891l-0.563,-2.857l63.322,-12.447l2.278,-0.446l38.228,-7.513l0.563,2.856l-38.256,7.519l-2.279,0.447l-63.293,12.441Z"/><path d="M21.769,838.722l-0.66,-2.841l64.419,-15.012l0.863,-0.2l9.512,-2.219l2.26,-0.525l50.281,-11.722l0.659,2.844l-50.306,11.722l-2.26,0.528l-74.768,17.425Z"/><path d="M30.641,861.159l-0.763,-2.815l60.638,-16.385l0.856,-0.231l9.491,-2.562l2.237,-0.607l47.059,-12.712l0.763,2.812l-47.085,12.722l-2.24,0.607l-9.497,2.565l-0.856,0.231l-60.603,16.375Z"/><path d="M87.044,868.75l-0.86,-2.784l10.057,-3.094l0.843,-0.263l8.713,-2.681l0.859,2.781l-8.747,2.694l-0.843,0.259l-10.022,3.088Z"/><path d="M52.784,903.959l-0.956,-2.75l61.119,-21.187l2.194,-0.763l38.406,-13.312l0.956,2.75l-38.431,13.325l-2.194,0.759l-61.094,21.178Z"/><path d="M86.175,916.328l-1.05,-2.722l34.941,-13.49l2.162,-0.838l12.856,-4.962l1.05,2.715l-12.878,4.975l-2.165,0.835l-34.916,13.487Z"/><path d="M70.666,947.547l-1.141,-2.681l48.247,-20.597l0.815,-0.347l9.297,-3.969l2.135,-0.912l36.906,-15.753l1.141,2.678l-36.925,15.762l-2.135,0.913l-9.303,3.972l-0.816,0.346l-48.221,20.588Z"/><path d="M99.203,960.169l-1.241,-2.647l28.419,-13.325l0.803,-0.375l9.213,-4.322l2.1,-0.984l17.625,-8.263l1.234,2.644l-17.637,8.272l-2.103,0.987l-9.222,4.322l-0.8,0.378l-28.391,13.313Z"/><path d="M82.231,994.481l-1.328,-2.59l64.7,-33.135l2.063,-1.056l44.522,-22.803l1.324,2.587l-44.537,22.813l-2.066,1.059l-64.678,33.125Z"/><path d="M88.375,1018.39l-1.416,-2.554l68.516,-38.165l2.028,-1.128l48.988,-27.288l1.412,2.547l-49,27.297l-2.028,1.128l-68.5,38.163Z"/><path d="M149.544,1009.58l-1.503,-2.494l8.331,-5.031l0.759,-0.456l8.885,-5.363l1.072,-0.647l1.503,2.494l-1.088,0.656l-8.894,5.366l-0.756,0.459l-8.309,5.016Z"/><path d="M116.981,1057.18l-1.59,-2.437l52.328,-34.138l0.74,-0.484l8.747,-5.71l1.944,-1.265l43.566,-28.425l1.59,2.437l-43.581,28.435l-1.944,1.265l-8.756,5.713l-0.741,0.484l-52.303,34.125Z"/><path d="M152.456,1061.48l-1.681,-2.378l38.259,-26.912l1.897,-1.335l20.644,-14.522l1.681,2.379l-20.662,14.534l-1.897,1.334l-8.61,6.056l-0.721,0.51l-28.91,20.334Z"/><path d="M189.316,1062.41l-1.76,-2.332l12.728,-9.634l1.76,2.331l-12.728,9.635Z"/><path d="M166.112,1109.6l-1.84,-2.266l41.315,-33.603l0.685,-0.556l8.275,-6.731l1.8,-1.463l33.925,-27.59l1.84,2.262l-33.934,27.6l-1.8,1.466l-50.266,40.881Z"/><path d="M190.991,1119.23l-1.913,-2.194l30.363,-26.506l0.665,-0.581l33.238,-29.016l1.912,2.191l-33.256,29.034l-0.666,0.582l-30.343,26.49Z"/><path d="M219.994,1123.83l-1.991,-2.128l15.863,-14.856l0.646,-0.603l18.926,-17.722l1.993,2.131l-18.944,17.737l-0.646,0.603l-15.847,14.838Z"/><path d="M245.584,1130.07l-2.065,-2.054l14.525,-14.59l2.068,2.056l-14.528,14.588Z"/><path d="M260.928,1145.94l-2.141,-1.985l15.188,-16.344l2.137,1.985l-15.184,16.344Z"/><path d="M278.609,1159.26l-2.209,-1.912l4.044,-4.672l0.581,-0.669l7.572,-8.747l2.209,1.913l-7.59,8.769l-0.582,0.668l-4.025,4.65Z"/><path d="M257.922,1219.97l-2.266,-1.822l41.36,-51.291l0.553,-0.687l44.997,-55.8l2.265,1.818l-45.018,55.828l-0.554,0.688l-41.337,51.266Z"/><path d="M284.816,1224.31l-2.341,-1.747l67.444,-89.893l2.337,1.753l-67.44,89.887Z"/><path d="M304.403,1237.55l-2.384,-1.672l63.456,-91.034l2.388,1.669l-63.46,91.037Z"/><path d="M335.984,1232.2l-2.44,-1.581l16.034,-24.806l0.478,-0.741l19.847,-30.697l2.444,1.581l-36.363,56.244Z"/><path d="M357.228,1241.22l-2.5,-1.497l13.263,-22.172l0.453,-0.759l17.056,-28.519l2.497,1.494l-17.066,28.54l-0.456,0.756l-13.247,22.157Z"/><path d="M378.941,1248.94l-2.557,-1.403l25.032,-45.365l2.553,1.403l-14.182,25.706l-0.428,0.772l-10.418,18.887Z"/><path d="M388.628,1279.8l-2.603,-1.325l44.044,-86.884l2.603,1.322l-44.044,86.887Z"/><path d="M412.503,1283.88l-2.64,-1.222l35.353,-76.218l2.643,1.215l-35.356,76.225Z"/><path d="M435.413,1289.17l-2.691,-1.137l12.781,-30.282l0.344,-0.815l16.131,-38.229l2.691,1.141l-16.138,38.238l-0.344,0.815l-12.774,30.269Z"/><path d="M465.116,1275.84l-2.722,-1.037l3.331,-8.731l0.316,-0.825l6.497,-17.022l2.721,1.04l-6.503,17.035l-0.315,0.825l-3.325,8.715Z"/><path d="M473.95,1318.57l-2.753,-0.947l31.684,-92.65l1.616,-4.728l2.756,0.943l-1.622,4.744l-31.681,92.638Z"/><path d="M494.384,1332.1l-2.784,-0.85l30.328,-99.95l3.284,-10.812l0.138,-0.46l2.787,0.85l-0.143,0.475l-3.282,10.813l-30.328,99.934Z"/><path d="M527.778,1298.8l-2.822,-0.75l3.035,-11.41l0.225,-0.856l5.468,-20.572l2.819,0.754l-5.469,20.578l-0.228,0.856l-3.028,11.4Z"/><path d="M546.866,1315.3l-2.85,-0.656l5.171,-22.631l0.197,-0.86l7.325,-32.044l2.853,0.654l-7.328,32.05l-0.196,0.862l-5.172,22.625Z"/><path d="M570.403,1312.96l-2.859,-0.549l8.075,-42.041l2.859,0.55l-4.878,25.406l-0.169,0.866l-3.028,15.768Z"/><path d="M593.281,1311.92l-2.887,-0.45l5.087,-32.619l2.891,0.453l-5.091,32.616Z"/><path d="M609.191,1365.86l-2.9,-0.346l7.471,-61.882l0.107,-0.884l6.037,-50.016l1.353,-11.212l1.288,-10.653l2.897,0.346l-1.288,10.669l-1.353,11.213l-13.612,112.765Z"/><path d="M634.272,1354.86l-2.906,-0.244l4.15,-48.634l0.075,-0.881l4.284,-50.175l0.734,-8.606l2.907,0.243l-0.735,8.622l-4.284,50.172l-0.075,0.881l-4.15,48.622Z"/><path d="M660.125,1310.36l-2.909,-0.147l0.134,-2.65l0.044,-0.884l0.647,-12.928l2.906,0.15l-0.647,12.931l-0.044,0.885l-0.131,2.643Z"/><path d="M681.747,1333.54l-2.916,-0.041l0.747,-48.478l0.016,-1.1l0.087,-5.591l0.016,-0.959l0.081,-5.388l2.916,0.041l-0.081,5.175l-0.066,4.331l-0.8,52.01Z"/><path d="M702.119,1360.18l-1.522,-78.206l-0.031,-1.475l-0.107,-5.519l-0.078,-3.962l-0.268,-13.788l-0.219,-11.29l-0.013,-0.625l2.913,-0.057l0.012,0.632l0.222,11.29l0.222,11.347l0.022,1.116l0.122,6.387l0.019,0.913l0.006,0.359l0.019,0.906l0.112,5.741l0.022,1.116l1.462,75.059l-2.915,0.056Z"/><path d="M723.403,1315.35l-0.416,-7.628l-0.046,-0.878l-0.991,-18.207l2.916,-0.146l0.99,18.2l0.047,0.878l0.416,7.631l-2.916,0.15Z"/><path d="M746.237,1321.96l-1.409,-15.715l-0.078,-0.878l-2.359,-26.347l2.897,-0.266l2.359,26.356l0.078,0.882l1.406,15.706l-2.894,0.262Z"/><path d="M769.716,1328.91l-7.666,-61.371l2.897,-0.36l4.447,35.581l0.109,0.879l3.113,24.909l-2.9,0.362Z"/><path d="M793.584,1333.91l-12.428,-77.372l2.875,-0.468l12.425,77.375l-2.872,0.465Z"/><path d="M816.031,1328.64l-6.172,-31.422l-0.171,-0.869l-8.269,-42.094l2.865,-0.553l14.613,74.384l-2.866,0.554Z"/><path d="M834.534,1306.62l-3.25,-13.934l-0.2,-0.866l-5.722,-24.553l2.841,-0.659l5.722,24.553l0.2,0.862l3.25,13.941l-2.841,0.656Z"/><path d="M856.325,1301.44l-3.791,-14.032l-0.231,-0.856l-6.637,-24.569l2.815,-0.762l6.641,24.572l0.231,0.853l3.791,14.031l-2.819,0.763Z"/><path d="M881.747,1307.86l-19.794,-64.249l2.785,-0.857l19.79,64.244l-2.781,0.862Z"/><path d="M901.55,1295.2l-18.141,-52.319l2.753,-0.956l18.141,52.319l-2.753,0.956Z"/><path d="M937.316,1324.93l-22.338,-57.828l-0.319,-0.825l-18.228,-47.193l-4.072,-10.544l-3.95,-10.228l2.719,-1.05l3.947,10.221l4.072,10.544l18.231,47.197l0.319,0.825l22.337,57.831l-2.718,1.05Z"/><path d="M955.303,1305.79l-20.028,-46.916l-0.347,-0.812l-19.875,-46.547l-4.4,-10.306l2.678,-1.141l4.397,10.297l19.875,46.55l0.347,0.812l20.031,46.919l-2.678,1.144Z"/><path d="M970.306,1282.04l-35.028,-74.713l2.647,-1.237l35.028,74.715l-2.647,1.235Z"/><path d="M987.247,1264.39l-29.919,-58.418l2.6,-1.319l29.916,58.419l-2.597,1.318Z"/><path d="M1014.23,1265.91l-20.028,-35.956l-0.431,-0.772l-25.106,-45.072l2.54,-1.422l45.569,81.801l-2.544,1.421Z"/><path d="M1022.83,1235.01l-9.706,-16.079l-0.456,-0.753l-15.016,-24.872l2.491,-1.5l15.009,24.857l0.456,0.756l9.716,16.09l-2.494,1.501Z"/><path d="M1065.2,1258.73l-73.141,-112.109l1.047,-0.679l1.397,-0.906l2.935,4.497l36.131,55.388l0.484,0.74l33.588,51.488l-2.441,1.581Z"/><path d="M1077.94,1235.09l-62.647,-89.075l2.381,-1.682l62.647,89.075l-2.381,1.682Z"/><path d="M1083.07,1202.79l-37.813,-49.962l2.335,-1.759l37.809,49.959l-2.331,1.762Z"/><path d="M1108.42,1197.85l-23.941,-29.438l-0.556,-0.684l-29.812,-36.653l2.259,-1.85l29.806,36.65l0.557,0.684l23.943,29.444l-2.256,1.847Z"/><path d="M1117.4,1172.88l-16.25,-18.619l-0.581,-0.665l-22.206,-25.441l2.193,-1.909l22.194,25.421l0.578,0.666l16.266,18.635l-2.194,1.912Z"/><path d="M1156.23,1181.08l-84.422,-90.147l2.119,-2.003l84.422,90.153l-2.119,1.997Z"/><path d="M1150.08,1141.33l-40.922,-40.753l2.056,-2.066l40.922,40.75l-2.056,2.069Z"/><path d="M1165.88,1125.03l-17.834,-16.562l-0.647,-0.604l-23.903,-22.2l1.99,-2.125l23.881,22.179l0.65,0.603l17.854,16.581l-1.991,2.128Z"/><path d="M1176.17,1103.92l-13.603,-11.775l-0.669,-0.581l-19.662,-17.022l1.909,-2.206l19.653,17.009l0.669,0.578l13.616,11.787l-1.913,2.21Z"/><path d="M1219.85,1110.27l-52.334,-42.2l-1.803,-1.457l-39.257,-31.659l1.828,-2.256l39.247,31.65l1.807,1.453l8.309,6.703l0.688,0.553l43.343,34.957l-1.828,2.256Z"/><path d="M1239.52,1095.3l-58.838,-44.141l-1.856,-1.39l-45.322,-34l1.75,-2.338l45.319,33.997l1.856,1.391l58.844,44.14l-1.753,2.341Z"/><path d="M1246.77,1071.09l-44.166,-30.785l-0.725,-0.503l-8.644,-6.025l-1.9,-1.325l-39.575,-27.584l1.669,-2.388l39.563,27.575l1.903,1.328l53.544,37.319l-1.669,2.388Z"/><path d="M1252.84,1046.78l-38.137,-24.653l-0.744,-0.481l-8.787,-5.681l-1.947,-1.26l-33.244,-21.487l1.575,-2.45l33.241,21.487l1.947,1.26l8.778,5.675l0.747,0.481l38.143,24.659l-1.572,2.45Z"/><path d="M1234.48,1008.54l-8.34,-4.99l-0.76,-0.453l-8.928,-5.338l-1.99,-1.19l-3.153,-1.885l1.49,-2.5l3.144,1.882l1.991,1.187l8.918,5.334l0.76,0.454l8.362,5l-1.494,2.499Z"/><path d="M1244.84,988.944l-17.75,-9.791l-2.031,-1.122l-2.39,-1.318l1.409,-2.547l2.375,1.312l2.031,1.119l17.766,9.8l-1.41,2.547Z"/><path d="M1286.17,985.087l-49.122,-24.893l-2.069,-1.05l-33.281,-16.866l1.316,-2.609l33.272,16.862l2.068,1.05l49.129,24.9l-1.313,2.606Z"/><path d="M1267.55,950.712l-11.147,-5.162l-0.803,-0.372l-9.256,-4.291l-2.104,-0.974l-4.878,-2.26l1.219,-2.644l4.869,2.257l2.103,0.975l9.247,4.284l0.803,0.372l11.166,5.175l-1.219,2.64Z"/><path d="M1278.81,931.353l-13.725,-5.791l-0.812,-0.343l-9.332,-3.938l-2.137,-0.903l-7.059,-2.978l1.137,-2.691l7.041,2.972l2.137,0.9l9.322,3.935l0.816,0.343l13.753,5.807l-1.141,2.687Z"/><path d="M1321.33,923.681l-58.487,-22.312l-2.169,-0.825l-41.178,-15.71l1.043,-2.721l41.157,15.7l2.165,0.828l58.51,22.318l-1.041,2.722Z"/><path d="M1311.72,895.472l-41.688,-14.259l-2.197,-0.75l-23.89,-8.172l0.943,-2.754l23.869,8.163l2.197,0.75l41.709,14.266l-0.943,2.756Z"/><path d="M1313.36,871.994l-26.522,-8.047l-0.843,-0.256l-9.491,-2.878l-2.222,-0.675l-18.556,-5.632l0.847,-2.784l18.534,5.622l2.222,0.675l36.878,11.187l-0.847,2.788Z"/><path d="M1317.9,849.687l-25.278,-6.721l-0.856,-0.229l-9.522,-2.531l-2.241,-0.597l-16.844,-4.478l0.75,-2.819l16.819,4.472l2.244,0.597l9.512,2.528l0.857,0.228l25.309,6.729l-0.75,2.821Z"/><path d="M1328.04,828.741l-40.782,-9.322l-2.259,-0.516l-21.478,-4.909l0.653,-2.853l21.453,4.906l2.262,0.516l9.538,2.181l0.862,0.197l30.404,6.95l-0.653,2.85Z"/><path d="M1309.77,801.966l-18.232,-3.504l-0.703,-0.134l0.541,-2.869l0.69,0.132l18.244,3.509l-0.54,2.866Z"/><path d="M1359.61,787.459l-64.537,-10.078l-2.294,-0.359l-44.25,-6.913l0.462,-2.881l44.213,6.906l2.294,0.357l64.572,10.087l-0.46,2.881Z"/><path d="M1341.19,761.425l-32.888,-3.969l-0.878,-0.106l-9.569,-1.156l-2.303,-0.278l-22.547,-2.722l0.347,-2.897l22.522,2.719l2.303,0.278l9.566,1.153l0.875,0.106l32.922,3.972l-0.35,2.9Z"/><path d="M1361.08,740.147l-50.734,-4.328l-0.879,-0.075l-9.574,-0.819l-2.313,-0.197l-39.919,-3.406l0.25,-2.897l39.888,3.403l2.312,0.197l9.572,0.819l0.881,0.075l50.769,4.331l-0.253,2.897Z"/><path d="M1370.3,717.088l-69.131,-3.482l-2.316,-0.115l-47.384,-2.385l0.14,-2.915l47.36,2.384l2.319,0.116l69.153,3.481l-0.141,2.916Z"/><path d="M1337.31,692.812l-35.612,-0.546l-2.322,-0.035l-10.878,-0.165l-1.384,-0.022l-1.122,-0.019l0,-0.078l0.015,-1.166l0.025,-1.668l13.36,0.206l2.318,0.034l35.644,0.547l-0.044,2.912Z"/><path d="M1259.76,671.741l-0.053,-2.916l39.353,-0.769l2.322,-0.047l9.582,-0.187l0.881,-0.016l51.647,-1.009l0.056,2.915l-51.613,1.007l-0.884,0.019l-9.581,0.187l-2.319,0.044l-39.391,0.772Z"/><path d="M1244.12,652.694l-0.15,-2.916l54.009,-2.94l2.319,-0.129l9.587,-0.522l0.882,-0.046l66.762,-3.635l0.15,2.913l-66.722,3.634l-0.881,0.047l-9.584,0.522l-2.319,0.128l-54.053,2.944Z"/><path d="M1245.19,633.162l-0.266,-2.896l51.228,-4.591l2.31,-0.209l74.871,-6.71l0.263,2.9l-74.841,6.706l-2.309,0.207l-51.256,4.593Z"/><path d="M1295.24,607.328l-0.363,-2.897l1.003,-0.125l22.778,-2.847l0.363,2.897l-22.741,2.844l-1.04,0.128Z"/><path d="M1290.13,586.609l-0.475,-2.881l0.61,-0.097l2.29,-0.368l25.082,-4.029l0.471,2.882l-14.59,2.343l-0.875,0.141l-9.588,1.541l-2.29,0.368l-0.635,0.1Z"/><path d="M1242.55,574.359l-0.553,-2.862l44.231,-8.694l2.278,-0.45l9.584,-1.884l0.869,-0.169l58.647,-11.528l0.553,2.862l-58.609,11.522l-0.869,0.172l-9.578,1.881l-2.275,0.447l-44.278,8.703Z"/><path d="M1237.8,555.316l-0.666,-2.847l44.322,-10.331l2.259,-0.529l9.576,-2.231l0.862,-0.2l59.087,-13.775l0.666,2.85l-69.491,16.197l-2.259,0.528l-44.356,10.338Z"/><path d="M1266.79,527.169l-0.763,-2.816l9.932,-2.684l2.24,-0.607l35.466,-9.584l0.762,2.816l-35.431,9.575l-2.238,0.606l-9.968,2.694Z"/><path d="M1237.08,514.528l-0.859,-2.784l33.54,-10.332l2.219,-0.684l59.356,-18.284l0.86,2.784l-48.963,15.081l-0.844,0.263l-9.515,2.931l-2.216,0.681l-33.578,10.344Z"/><path d="M1225.39,497.462l-0.957,-2.749l38.416,-13.319l2.194,-0.76l9.481,-3.287l0.834,-0.288l54.166,-18.775l0.956,2.75l-54.137,18.766l-0.838,0.291l-9.472,3.284l-2.19,0.759l-38.453,13.328Z"/><path d="M1224.35,476.697l-1.053,-2.722l31.953,-12.341l2.163,-0.834l9.425,-3.641l0.825,-0.318l47.984,-18.535l1.05,2.722l-47.956,18.522l-0.825,0.319l-9.416,3.637l-2.162,0.835l-31.988,12.356Z"/><path d="M1249.97,444.069l-1.15,-2.685l0.287,-0.121l24.597,-10.51l1.15,2.688l-24.562,10.49l-0.322,0.138Z"/><path d="M1207.72,440.431l-1.231,-2.637l31.524,-14.781l2.1,-0.985l58.113,-27.244l1.228,2.638l-58.069,27.225l-2.1,0.984l-31.565,14.8Z"/><path d="M1201.77,421.106l-1.328,-2.603l27.953,-14.316l2.065,-1.056l9.172,-4.7l0.788,-0.4l44.653,-22.868l1.325,2.603l-44.619,22.85l-0.784,0.403l-9.166,4.694l-2.065,1.059l-27.994,14.334Z"/><path d="M1189.71,404.903l-1.422,-2.54l29.85,-16.629l2.025,-1.128l9.06,-5.047l0.772,-0.428l46.703,-26.018l1.422,2.54l-46.682,26.006l-0.772,0.429l-9.05,5.043l-2.025,1.128l-29.881,16.644Z"/><path d="M1207.12,371.113l-1.504,-2.491l1.616,-0.975l1.988,-1.2l28.3,-17.085l1.5,2.494l-28.263,17.06l-1.984,1.2l-1.653,0.997Z"/><path d="M1201.64,349.566l-1.585,-2.444l19.857,-12.953l1.584,2.444l-19.856,12.953Z"/><path d="M1149.66,360.125l-1.681,-2.378l35.597,-25.038l1.897,-1.331l8.647,-6.084l0.722,-0.506l52.719,-37.079l1.678,2.382l-52.694,37.059l-0.722,0.506l-8.641,6.078l-1.896,1.332l-35.626,25.059Z"/><path d="M1140.84,342.278l-1.763,-2.328l31.775,-24.05l1.85,-1.4l8.491,-6.428l0.703,-0.531l48.913,-37.022l1.759,2.331l-48.885,37l-0.703,0.534l-8.481,6.419l-1.85,1.397l-31.809,24.078Z"/><path d="M1126.63,328.463l-1.837,-2.25l32.775,-26.654l1.797,-1.462l58.89,-47.894l1.841,2.25l-58.863,47.869l-1.8,1.462l-32.803,26.679Z"/><path d="M1125.33,303.6l-1.919,-2.203l68.182,-59.513l1.918,2.204l-68.181,59.512Z"/><path d="M1102.44,297.497l-2,-2.122l84.957,-79.566l2,2.122l-45.75,42.847l-0.647,0.606l-38.56,36.113Z"/><path d="M1107.06,264.997l-2.065,-2.056l18.847,-18.929l0.624,-0.624l26.11,-26.216l2.062,2.056l-26.087,26.197l-0.625,0.625l-18.866,18.947Z"/><path d="M1103.92,238.159l-2.131,-1.99l6.397,-6.888l0.599,-0.647l13.654,-14.7l2.131,1.991l-20.65,22.234Z"/><path d="M1060.05,256.516l-2.206,-1.903l76.172,-87.994l2.199,1.903l-76.165,87.994Z"/><path d="M1047.47,240.803l-2.266,-1.841l68.085,-84.443l2.265,1.837l-37.3,46.26l-0.553,0.687l-30.231,37.5Z"/><path d="M1036.45,222.509l-2.338,-1.75l24.238,-32.3l0.528,-0.706l31.203,-41.587l2.341,1.75l-31.194,41.575l-0.534,0.706l-24.244,32.312Z"/><path d="M1007.77,228.562l-2.388,-1.668l35.45,-50.853l0.507,-0.725l42.262,-60.628l2.385,1.668l-78.216,112.206Z"/><path d="M1001.66,202.484l-2.453,-1.572l54.51,-84.328l2.45,1.575l-54.507,84.325Z"/><path d="M981.903,196.666l-2.5,-1.494l57.216,-95.675l2.497,1.494l-57.213,95.675Z"/><path d="M965.266,185.959l-2.547,-1.409l23.165,-42l0.425,-0.775l29.338,-53.184l2.547,1.409l-29.325,53.166l-0.425,0.775l-23.178,42.018Z"/><path d="M945.809,180.609l-2.603,-1.303l23.628,-46.615l0.4,-0.788l29.522,-58.25l2.603,1.306l-29.518,58.241l-0.4,0.791l-23.632,46.618Z"/><path d="M943.041,139.953l-2.65,-1.228l20.103,-43.347l2.65,1.228l-20.103,43.347Z"/><path d="M923.231,133.241l-2.681,-1.132l20.084,-47.59l2.685,1.131l-20.088,47.591Z"/><path d="M895.769,146.925l-2.722,-1.041l14.759,-38.697l0.316,-0.824l19.719,-51.694l2.725,1.04l-19.713,51.675l-0.315,0.825l-14.769,38.716Z"/><path d="M876.053,142.813l-2.753,-0.944l14.291,-41.788l0.287,-0.837l18.885,-55.219l2.756,0.947l-18.878,55.197l-0.288,0.837l-14.3,41.807Z"/><path d="M863.891,114.425l-2.788,-0.847l16.531,-54.475l2.788,0.85l-16.531,54.472Z"/><path d="M840.569,121.628l-2.819,-0.75l21.481,-80.853l2.819,0.75l-21.481,80.853Z"/><path d="M827.753,86.938l-2.844,-0.647l0.75,-3.279l0.197,-0.859l4.085,-17.847l2.843,0.647l-4.081,17.835l-0.197,0.859l-0.753,3.291Z"/><path d="M806.556,84.431l-2.869,-0.54l0.985,-5.125l0.166,-0.869l3.84,-20.016l2.869,0.544l-3.841,20.009l-0.165,0.869l-0.985,5.128Z"/><path d="M785.3,82.931l-2.875,-0.453l4.769,-30.537l2.875,0.456l-4.769,30.534Z"/><path d="M761.609,102.753l-2.897,-0.35l9.197,-76.234l2.9,0.35l-9.2,76.234Z"/><path d="M740.85,106.694l-2.9,-0.257l3.078,-36.043l0.078,-0.882l4.416,-51.725l2.897,0.254l-4.416,51.709l-0.075,0.878l-3.078,36.066Z"/><path d="M719.947,121.544l-2.916,-0.138l0.103,-2.078l2.532,-50.259l0.043,-0.885l3.435,-68.184l2.912,0.141l-3.431,68.181l-0.044,0.884l-2.531,50.26l-0.103,2.078Z"/><path d="M700.928,85.397l-2.916,-0.044l0.263,-16.881l0.016,-0.881l0.509,-32.869l2.913,0.044l-0.785,50.631Z"/><path d="M677.716,111.059l-0.344,-17.609l-0.025,-1.181l-1.622,-83.06l2.916,-0.056l1.987,101.85l-2.912,0.056Z"/><path d="M656.637,90.184l-3.184,-58.393l2.906,-0.16l2.01,36.816l0.047,0.881l1.131,20.697l-2.91,0.159Z"/><path d="M635.997,91.478l-1.825,-20.378l-0.078,-0.878l-3.272,-36.516l2.906,-0.256l3.269,36.509l0.081,0.878l1.825,20.385l-2.906,0.256Z"/><path d="M613.253,76.203l-0.347,-2.766l-0.109,-0.874l-2.356,-18.844l2.897,-0.36l2.812,22.485l-2.897,0.359Z"/><path d="M596.828,108.222l-12.884,-80.297l2.878,-0.472l12.887,80.297l-2.881,0.472Z"/><path d="M581.034,132.95l-0.625,-3.169l-23.356,-118.865l2.856,-0.56l13.466,68.522l0.169,0.866l9.722,49.475l0.625,3.169l-2.857,0.562Z"/><path d="M563.334,143.056l-2.115,-9.09l-11.45,-49.141l-0.2,-0.859l-17.228,-73.944l2.847,-0.666l17.231,73.947l0.2,0.863l11.447,49.137l2.118,9.088l-2.85,0.665Z"/><path d="M544.594,147.672l-2.397,-8.863l-13.169,-48.743l-0.231,-0.853l-19.76,-73.122l2.819,-0.763l33.16,122.719l2.393,8.862l-2.815,0.763Z"/><path d="M514.681,116.15l-17.369,-56.403l2.785,-0.86l17.369,56.407l-2.785,0.856Z"/><path d="M495.313,123.322l-19.825,-57.163l2.75,-0.953l12.378,35.688l0.29,0.834l7.157,20.641l-2.75,0.953Z"/><path d="M476.787,132.656l-8.734,-22.615l-0.319,-0.825l-14.431,-37.366l2.722,-1.053l14.434,37.375l0.319,0.825l8.728,22.606l-2.719,1.053Z"/><path d="M468.841,166.372l-0.744,-1.741l-19.866,-46.534l-0.347,-0.813l-26.781,-62.718l2.688,-1.15l26.781,62.728l0.347,0.812l19.869,46.535l0.74,1.731l-2.687,1.15Z"/><path d="M451.216,174.878l-52.041,-111.012l2.637,-1.232l52.041,111.016l-2.637,1.228Z"/><path d="M437.047,190.091l-62.613,-122.235l2.597,-1.331l62.613,122.231l-2.597,1.335Z"/><path d="M410.184,181.509l-19.59,-35.165l-0.432,-0.775l-27.075,-48.603l2.547,-1.413l27.078,48.606l0.432,0.772l19.587,35.166l-2.547,1.412Z"/><path d="M390.016,186.797l-17.944,-29.722l-0.46,-0.756l-25.831,-42.785l2.494,-1.5l25.834,42.788l0.457,0.756l17.943,29.716l-2.493,1.503Z"/><path d="M368.112,190.191l-37.109,-56.894l2.434,-1.591l37.11,56.894l-2.435,1.591Z"/><path d="M338.722,184.044l-14.188,-20.169l2.378,-1.681l14.188,20.168l-2.378,1.682Z"/><path d="M329.372,206.916l-10.488,-13.86l-0.534,-0.703l-19.459,-25.706l2.331,-1.759l19.462,25.709l0.535,0.706l10.484,13.853l-2.331,1.76Z"/><path d="M312.463,219.091l-10.441,-12.838l-0.556,-0.684l-19.722,-24.25l2.259,-1.831l19.725,24.253l0.556,0.684l10.435,12.831l-2.256,1.835Z"/><path d="M305.375,242.669l-49.659,-56.885l2.203,-1.922l49.656,56.888l-2.2,1.919Z"/><path d="M279.553,244.897l-30.128,-32.169l2.128,-1.99l30.128,32.168l-2.128,1.991Z"/></g></svg>