<?xml version="1.0" encoding="UTF-8" standalone="no"?><!DOCTYPE svg PUBLIC "-//W3C//DTD SVG 1.1//EN" "http://www.w3.org/Graphics/SVG/1.1/DTD/svg11.dtd"><svg width="100%" height="100%" viewBox="0 0 783 790" version="1.1" xmlns="http://www.w3.org/2000/svg" xmlns:xlink="http://www.w3.org/1999/xlink" xml:space="preserve" style="fill-rule:evenodd;clip-rule:evenodd;stroke-linejoin:round;stroke-miterlimit:1.41421;"><g id="Layer13"><path d="M636.041,152.462l-1.182,-1.181l16.31,-16.306l1.178,1.181l-16.306,16.306Z"/><path d="M615.569,156.794l-1.222,-1.138l5.384,-5.772l4.666,-5.006l29.372,-31.497l1.222,1.138l-29.378,31.506l-4.669,5.003l-5.375,5.766Z"/><path d="M609.037,146.916l-1.259,-1.094l3.297,-3.797l4.491,-5.166l26.275,-30.222l1.256,1.094l-26.278,30.232l-4.491,5.165l-3.291,3.788Z"/><path d="M602.563,136.616l-1.304,-1.05l0.888,-1.097l4.306,-5.319l22.825,-28.187l1.303,1.05l-22.834,28.196l-4.306,5.319l-0.878,1.088Z"/><path d="M595.238,126.987l-1.338,-1.006l3.181,-4.222l19.944,-26.465l1.338,1.006l-19.954,26.475l-3.171,4.212Z"/><path d="M582.588,124.559l-1.366,-0.959l2.306,-3.294l3.925,-5.609l22.116,-31.578l1.365,0.959l-22.118,31.588l-3.928,5.606l-2.3,3.287Z"/><path d="M567.347,126.806l-1.397,-0.909l7.909,-12.181l3.729,-5.741l26.625,-40.997l1.4,0.909l-26.632,41.007l-3.728,5.74l-7.906,12.172Z"/><path d="M560.741,116.059l-1.428,-0.859l4.65,-7.737l3.528,-5.869l22.253,-37.035l1.428,0.857l-22.259,37.046l-3.529,5.869l-4.643,7.728Z"/><path d="M550.803,110.497l-1.459,-0.806l4.509,-8.138l3.319,-5.987l20.991,-37.869l1.462,0.806l-21,37.881l-3.319,5.991l-4.503,8.122Z"/><path d="M547.831,91.25l-1.484,-0.756l0.303,-0.597l12.547,-24.622l1.484,0.759l-12.553,24.632l-0.297,0.584Z"/><path d="M540.784,78.147l-1.515,-0.706l4.644,-9.953l1.515,0.706l-4.644,9.953Z"/><path d="M517.169,102.475l-1.535,-0.65l0.26,-0.616c0.515,0.222 1.015,0.441 1.531,0.666l-0.256,0.6Zm0.662,-1.559c-0.509,-0.225 -1.018,-0.447 -1.528,-0.666l6.063,-14.284l2.678,-6.303l19.784,-46.607l1.534,0.65l-19.79,46.619l-2.678,6.306l-6.063,14.285Z"/><path d="M509.209,92.194l-1.556,-0.6l22.097,-57.566l1.559,0.6l-15.775,41.091l-2.456,6.397l-3.869,10.078Z"/><path d="M502.241,77.584l-1.578,-0.543l12.706,-36.907l1.578,0.547l-12.706,36.903Z"/><path d="M492.716,68.581l-1.594,-0.487l8.141,-26.631l1.596,0.49l-8.143,26.628Z"/><path d="M475.963,85l-1.613,-0.434l17.781,-66.369l1.616,0.434l-17.784,66.369Z"/><path d="M467.181,73.15l-1.628,-0.375l11.253,-48.738l1.628,0.372l-11.253,48.741Z"/><path d="M453.463,83.209l-1.638,-0.318l0.313,-1.616c0.553,0.113 1.081,0.219 1.634,0.334l-0.309,1.6Zm0.515,-2.656c-0.544,-0.112 -1.09,-0.225 -1.634,-0.334l13.878,-71.41l1.634,0.322l-13.878,71.422Z"/><path d="M447.197,51.759l-1.647,-0.262l2.466,-15.553l1.646,0.262l-2.465,15.553Z"/><path d="M433.65,62.456l-1.659,-0.2l4.968,-40.468l1.66,0.203l-4.969,40.465Z"/><path d="M422.419,56.453l-1.666,-0.141l2.722,-31.115l1.666,0.141l-2.722,31.115Z"/><path d="M409.484,76.319l-1.665,-0.088l0.037,-0.737c0.563,0.034 1.103,0.068 1.666,0.106l-0.038,0.719Zm0.091,-1.756c-0.556,-0.038 -1.106,-0.072 -1.662,-0.107l3.715,-70.862l1.663,0.087l-3.716,70.882Z"/><path d="M398.347,75.466l-1.669,-0.028l0.006,-0.432c0.563,0.016 1.107,0.031 1.669,0.05l-0.006,0.41Zm0.025,-1.444c-0.556,-0.016 -1.116,-0.031 -1.669,-0.047l1.228,-70.387l1.669,0.028l-1.228,70.406Z"/><path d="M385.569,79.047l-0.072,-4.141c0.562,-0.006 1.106,-0.009 1.669,-0.009l0.072,4.122l-1.669,0.028Zm-0.088,-5.172l-1.29,-73.847l1.668,-0.028l1.291,73.866c-0.556,0.003 -1.112,0.006 -1.669,0.009Z"/><path d="M373.325,56.434l-1.722,-32.862l1.666,-0.091l1.722,32.863l-1.666,0.09Z"/><path d="M361.825,60.925l-3.506,-40.056l1.665,-0.144l3.507,40.056l-1.666,0.144Z"/><path d="M351.044,69.287l-6.644,-54.125l1.656,-0.203l6.647,54.125l-1.659,0.203Z"/><path d="M340.009,72.931l-9.168,-57.897l1.646,-0.262l9.169,57.897l-1.647,0.262Z"/><path d="M328.975,75.912l-11.566,-59.49l1.638,-0.319l11.566,59.494l-1.638,0.315Z"/><path d="M319.472,85.262l-0.663,-2.862c0.544,-0.119 1.091,-0.238 1.632,-0.353l0.656,2.841l-1.625,0.374Zm-0.903,-3.912l-15.944,-69.056l1.625,-0.375l15.95,69.078c-0.547,0.115 -1.088,0.234 -1.631,0.353Z"/><path d="M308.234,86.281l-0.343,-1.284c0.537,-0.141 1.078,-0.275 1.618,-0.413l0.338,1.263l-1.613,0.434Zm-0.625,-2.331l-17.847,-66.6l1.616,-0.434l17.85,66.625c-0.541,0.137 -1.078,0.272 -1.619,0.409Z"/><path d="M288.784,60.888l-3.434,-11.241l1.594,-0.488l3.434,11.238l-1.594,0.491Z"/><path d="M285.3,88.284l-20.078,-58.303l1.578,-0.543l20.075,58.303l-1.575,0.543Z"/><path d="M269.091,77.731l-10.991,-28.64l1.556,-0.597l10.994,28.637l-1.559,0.6Z"/><path d="M263.938,96.006l-23.704,-55.834l1.538,-0.65l23.7,55.834l-1.534,0.65Z"/><path d="M248.522,89.844l-15.55,-33.344l1.519,-0.706l15.55,33.343l-1.519,0.707Z"/><path d="M245.853,110.544l-1.065,-2.091c0.496,-0.247 0.996,-0.494 1.493,-0.737l1.057,2.075l-1.485,0.753Zm-1.528,-2.997l-30.984,-60.806l1.484,-0.76l30.994,60.825c-0.5,0.247 -0.994,0.494 -1.494,0.741Z"/><path d="M237.634,118.769l-2.84,-5.125c0.49,-0.263 0.981,-0.528 1.472,-0.791l2.831,5.109l-1.463,0.807Zm-3.321,-5.997l-34.672,-62.544l1.462,-0.806l34.678,62.556c-0.49,0.263 -0.981,0.528 -1.468,0.794Z"/><path d="M211.178,96.197l-6.562,-10.922l1.428,-0.856l6.562,10.922l-1.428,0.856Z"/><path d="M217.366,128.122l-1.982,-3.047c0.466,-0.297 0.944,-0.6 1.41,-0.894l1.968,3.035l-1.396,0.906Zm-2.5,-3.85l-37.478,-57.706l1.396,-0.907l37.488,57.719c-0.472,0.3 -0.938,0.594 -1.406,0.894Z"/><path d="M199.303,121.756l-24.422,-34.878l1.366,-0.956l24.425,34.875l-1.369,0.959Z"/><path d="M179.809,115.294l-5.503,-7.3l1.338,-1.007l5.503,7.3l-1.338,1.007Z"/><path d="M187.263,143.987l-39.957,-49.343l1.3,-1.05l39.956,49.34l-1.299,1.053Z"/><path d="M173.816,145.759l-32.057,-36.878l1.26,-1.09l32.056,36.875l-1.259,1.093Z"/><path d="M158.056,145.825l-18.962,-20.334l1.222,-1.141l18.959,20.337l-1.219,1.138Z"/><path d="M143.825,148.478l-8.337,-8.341l1.181,-1.181l8.337,8.341l-1.181,1.181Z"/><path d="M135.722,157.625l-9.347,-8.719l1.141,-1.218l9.343,8.715l-1.137,1.222Z"/><path d="M126.781,166.025l-8.053,-7.006l1.097,-1.263l8.056,7.003l-1.1,1.266Z"/><path d="M145.609,197.006l-5.915,-4.794c0.35,-0.424 0.706,-0.859 1.059,-1.284l5.903,4.781l-1.047,1.297Zm-6.615,-5.356l-55.01,-44.55l1.044,-1.297l55.031,44.563c-0.356,0.428 -0.712,0.853 -1.065,1.284Z"/><path d="M132.869,201.231l-0.207,-0.156c0.341,-0.441 0.679,-0.881 1.019,-1.325l0.191,0.144l-1.003,1.337Zm-0.935,-0.703l-50.471,-38.031l1.006,-1.338l50.487,38.044c-0.34,0.441 -0.681,0.881 -1.022,1.325Z"/><path d="M125.194,209.644l-51.338,-35.944l0.96,-1.366l51.35,35.957c-0.325,0.45 -0.65,0.9 -0.972,1.353Z"/><path d="M109.053,212.687l-32.172,-20.893l0.91,-1.397l32.172,20.894l-0.91,1.396Z"/><path d="M101.125,221.634l-29.431,-17.684l0.856,-1.428l29.434,17.684l-0.859,1.428Z"/><path d="M93.197,230.769l-25.953,-14.391l0.806,-1.462l25.956,14.39l-0.809,1.463Z"/><path d="M99.269,247.222l-49.716,-25.331l0.763,-1.491l49.712,25.331l-0.759,1.491Z"/><path d="M90.806,255.9l-43.615,-20.341l0.7,-1.512l43.615,20.34l-0.7,1.513Z"/><path d="M83.803,265.516l-39.672,-16.841l0.653,-1.537l39.672,16.837l-0.653,1.541Z"/><path d="M66.944,271.544l-15.21,-5.841l0.6,-1.559l15.21,5.843l-0.6,1.557Z"/><path d="M82.987,289.903l-55.734,-19.191l0.544,-1.578l55.734,19.191l-0.544,1.578Z"/><path d="M83.138,301.866l-2.044,-0.625c0.165,-0.535 0.328,-1.06 0.494,-1.594l2.037,0.625l-0.487,1.594Zm-3.076,-0.941l-60.587,-18.525l0.488,-1.594l60.593,18.525c-0.165,0.531 -0.331,1.063 -0.494,1.594Z"/><path d="M57.306,306.603l-18.797,-5.037l0.435,-1.616l18.797,5.038l-0.435,1.615Z"/><path d="M60.828,319.816l-31.794,-7.338l0.379,-1.631l31.793,7.337l-0.378,1.632Z"/><path d="M54.416,330.638l-24.069,-4.675l0.319,-1.638l24.068,4.678l-0.318,1.635Z"/><path d="M49.588,342.022l-18.676,-2.953l0.263,-1.656l18.675,2.953l-0.262,1.656Z"/><path d="M77.103,357.584l-7.822,-0.959c0.066,-0.55 0.138,-1.112 0.21,-1.659l7.815,0.959l-0.203,1.659Zm-8.872,-1.087l-68.231,-8.381l0.203,-1.66l68.235,8.382c-0.069,0.553 -0.138,1.103 -0.207,1.659Z"/><path d="M68.291,367.919l-0.197,-0.019c0.05,-0.559 0.097,-1.103 0.15,-1.662l0.19,0.015l-0.143,1.666Zm-1.241,-0.11l-60.775,-5.315l0.141,-1.666l60.784,5.319c-0.05,0.553 -0.1,1.109 -0.15,1.662Z"/><path d="M41.156,377.844l-9.428,-0.491l0.091,-1.662l9.425,0.49l-0.088,1.663Z"/><path d="M53.656,390.325l-35.234,-0.612l0.028,-1.669l35.234,0.612l-0.028,1.669Z"/><path d="M3.172,403.019l-0.028,-1.672l62.709,-1.091c0.006,0.556 0.013,1.116 0.025,1.669l-62.706,1.094Zm63.737,-1.11c-0.009,-0.553 -0.018,-1.118 -0.025,-1.668l2.053,-0.038l0.029,1.669l-2.057,0.037Z"/><path d="M28.878,415.259l-0.084,-1.668l15.303,-0.8l0.081,1.668l-15.3,0.8Z"/><path d="M25.128,428.322l-0.15,-1.656l24.603,-2.157l0.147,1.663l-24.6,2.15Z"/><path d="M21.178,441.762l-0.203,-1.659l35.156,-4.319l0.203,1.66l-35.156,4.318Z"/><path d="M18.347,455.412l-0.263,-1.646l44.332,-7.022l0.262,1.643l-44.331,7.025Z"/><path d="M21.384,468.269l-0.312,-1.638l42.622,-8.281l0.315,1.641l-42.625,8.278Z"/><path d="M34.034,478.881l-0.375,-1.628l22.55,-5.206l0.375,1.628l-22.55,5.206Z"/><path d="M37.038,491.353l-0.435,-1.612l22.613,-6.06l0.434,1.616l-22.612,6.056Z"/><path d="M33.384,505.888l-0.487,-1.594l36.822,-11.263l0.487,1.597l-36.822,11.26Z"/><path d="M40.669,517.228l-0.547,-1.578l29.991,-10.325l0.543,1.572l-29.987,10.331Z"/><path d="M23.65,537.659l-0.6,-1.559l63.947,-24.547c0.2,0.519 0.4,1.041 0.6,1.559l-63.947,24.547Zm64.941,-24.928c-0.204,-0.522 -0.4,-1.037 -0.6,-1.559l7.64,-2.934l0.6,1.559l-7.64,2.934Z"/><path d="M34.644,547.959l-0.65,-1.534l36.681,-15.569l6.303,-2.678l14.281,-6.059c0.216,0.509 0.435,1.022 0.654,1.531l-14.279,6.062l-6.306,2.675l-36.684,15.572Zm58.234,-24.718c-0.219,-0.507 -0.44,-1.025 -0.653,-1.535l1.722,-0.728l0.647,1.534l-1.716,0.729Z"/><path d="M48.281,556.563l-0.703,-1.516l28.041,-13.075l6.206,-2.897l8.584,-4.003l0.707,1.519l-8.582,4l-6.206,2.893l-28.047,13.079Z"/><path d="M58.422,566.262l-0.75,-1.49l23.278,-11.863l6.1,-3.109l4.112,-2.097l0.754,1.491l-4.107,2.09l-6.1,3.11l-23.287,11.868Z"/><path d="M57.578,581.684l-0.812,-1.459l29.897,-16.572l5.987,-3.319l11.022,-6.109l0.812,1.459l-11.021,6.11l-5.988,3.318l-29.897,16.572Z"/><path d="M75.309,586.613l-0.859,-1.429l18.3,-10.993l5.616,-3.375l0.859,1.428l-5.612,3.372l-18.304,10.997Z"/><path d="M61.722,610.831l-0.903,-1.406l38.384,-24.928l5.741,-3.728l13.103,-8.51c0.303,0.466 0.612,0.935 0.919,1.397l-13.11,8.51l-5.74,3.731l-38.394,24.934Zm58.037,-37.693c-0.309,-0.469 -0.609,-0.925 -0.915,-1.394l6.275,-4.075l0.903,1.403l-6.263,4.066Z"/><path d="M75.3,618.116l-0.956,-1.363l31.672,-22.178l5.606,-3.928l12.825,-8.978c0.322,0.453 0.644,0.906 0.966,1.359l-12.829,8.981l-5.606,3.928l-31.678,22.179Zm50.875,-35.622c-0.328,-0.46 -0.641,-0.897 -0.966,-1.36l0.225,-0.156l0.96,1.363l-0.219,0.153Z"/><path d="M93.844,621.066l-1.006,-1.338l20.34,-15.328l5.469,-4.119l2.853,-2.15l1.003,1.341l-2.844,2.144l-5.465,4.115l-20.35,15.335Z"/><path d="M96.691,635.553l-1.057,-1.3l25.053,-20.287l5.319,-4.307l7.938,-6.428l1.056,1.294l-7.937,6.428l-5.319,4.306l-25.053,20.294Z"/><path d="M111.022,640.688l-1.094,-1.26l18.6,-16.165l5.163,-4.491l1.9,-1.65l1.093,1.256l-1.893,1.647l-5.163,4.487l-18.606,16.176Z"/><path d="M106.322,662.869l-1.144,-1.216l31.51,-29.384l5.006,-4.666l11.519,-10.744c0.381,0.404 0.765,0.81 1.146,1.213l-11.521,10.744l-5.004,4.668l-31.512,29.385Zm48.684,-45.397c-0.384,-0.406 -0.765,-0.806 -1.147,-1.216l3.057,-2.847l1.14,1.216l-3.05,2.847Z"/><path d="M129.141,659.363l-1.182,-1.182l17.2,-17.2l4.841,-4.837l1.35,-1.353l1.181,1.178l-1.343,1.347l-4.841,4.837l-17.206,17.21Z"/><path d="M138.494,668.391l-1.219,-1.144l16.659,-17.859l4.666,-5.007l1.275,-1.365l1.216,1.143l-1.26,1.353l-4.668,5.007l-16.669,17.872Z"/><path d="M150.616,674.269l-1.263,-1.094l13.647,-15.7l3.219,-3.703l1.262,1.097l-3.212,3.697l-13.653,15.703Z"/><path d="M146.953,699.231l-1.291,-1.05l26.682,-32.943l4.306,-5.316l9.884,-12.209c0.438,0.353 0.863,0.693 1.3,1.04l-9.881,12.206l-4.309,5.316l-26.691,32.956Zm41.45,-51.178c-0.428,-0.344 -0.872,-0.697 -1.3,-1.04l1.809,-2.232l1.291,1.05l-1.8,2.222Z"/><path d="M155.556,710.469l-1.34,-1.007l27.731,-36.803l4.116,-5.465l9.434,-12.522c0.447,0.334 0.897,0.666 1.344,1l-9.432,12.519l-4.118,5.465l-27.735,36.813Zm41.838,-55.531c-0.447,-0.332 -0.897,-0.666 -1.344,-1.001l3.844,-5.099l1.337,1.006l-3.837,5.094Z"/><path d="M169.438,714.603l-1.366,-0.956l23.737,-33.909l3.925,-5.607l8.975,-12.815c0.457,0.315 0.916,0.634 1.372,0.95l-8.972,12.812l-3.925,5.606l-23.746,33.919Zm37.181,-53.106c-0.466,-0.319 -0.91,-0.625 -1.375,-0.947l0.872,-1.244l1.365,0.963l-0.862,1.228Z"/><path d="M183.388,718.053l-1.4,-0.903l19.924,-30.684l3.729,-5.741l7.122,-10.969l1.403,0.903l-7.119,10.96l-3.728,5.74l-19.931,30.694Z"/><path d="M205.344,707.541l-1.428,-0.86l7.962,-13.253l1.428,0.856l-7.962,13.257Z"/><path d="M216.581,713.447l-1.456,-0.809l7.031,-12.688l1.456,0.813l-7.031,12.684Z"/><path d="M218.775,737.072l-1.494,-0.756l16.244,-31.882l3.106,-6.1l5.272,-10.346l1.494,0.756l-5.266,10.337l-3.106,6.1l-16.25,31.891Z"/><path d="M238.506,726.391l-1.512,-0.703l7.462,-16.016l0.053,-0.113l1.513,0.703l-0.047,0.1l-7.469,16.029Z"/><path d="M249.606,732.819l-1.537,-0.656l7.487,-17.644l0.544,-1.278l1.541,0.653l-0.538,1.262l-7.497,17.663Z"/><path d="M253.972,757.125l-1.559,-0.603l22.371,-58.278l1.557,0.6l-22.369,58.281Z"/><path d="M270.159,751.597l-1.578,-0.544l13.357,-38.794l1.578,0.547l-13.357,38.791Z"/><path d="M283.622,752.509l-1.594,-0.49l10.081,-32.991l1.594,0.494l-10.081,32.987Z"/><path d="M296.413,755.084l-1.613,-0.434l8.4,-31.337l1.613,0.434l-8.4,31.337Z"/><path d="M308.413,760.859l-1.632,-0.378l8.525,-36.937l1.635,0.378l-8.528,36.937Z"/><path d="M323.781,750.362l-1.643,-0.315l2.109,-10.841l1.64,0.316l-2.106,10.84Z"/><path d="M332.041,778.878l-1.654,-0.266l10.069,-63.593c0.228,0.034 0.453,0.069 0.685,0.103l0.968,0.153l-10.068,63.603Z"/><path d="M346.981,768.297l-1.659,-0.203l4.797,-39.044l1.659,0.203l-4.797,39.044Z"/><path d="M359.147,779.656l-1.663,-0.147l5.179,-59.225l1.662,0.15l-5.178,59.222Z"/><path d="M372.35,784.906l-1.669,-0.084l3.494,-66.616c0.553,0.025 1.116,0.047 1.669,0.066l-3.494,66.634Zm3.547,-67.668c-0.559,-0.019 -1.106,-0.041 -1.669,-0.066l0.022,-0.403l1.669,0.081l-0.022,0.388Z"/><path d="M386.294,765.981l-1.669,-0.028l0.513,-29.391l1.665,0.029l-0.509,29.39Z"/><path d="M397.825,781.006l-1.037,-59.444l1.668,-0.028l1.038,59.447l-1.669,0.025Z"/><path d="M411.722,789.131l-3.731,-71.228c0.556,-0.031 1.112,-0.065 1.668,-0.103l3.732,71.25l-1.669,0.081Zm-3.784,-72.265l-0.222,-4.238l1.668,-0.084l0.222,4.215c-0.553,0.038 -1.118,0.072 -1.668,0.107Z"/><path d="M425.338,786.822l-6.107,-69.791c0.55,-0.053 1.106,-0.106 1.657,-0.162l6.109,69.806l-1.659,0.147Zm-6.2,-70.838l-0.238,-2.721l1.659,-0.147l0.238,2.706c-0.559,0.056 -1.097,0.109 -1.659,0.162Z"/><path d="M435.309,755.584l-1.671,-13.625l1.659,-0.203l1.675,13.625l-1.663,0.203Z"/><path d="M448.05,755.094l-2.541,-16.035l1.65,-0.265l2.541,16.031l-1.65,0.269Z"/><path d="M465.459,778.063l-12.825,-65.976c0.544,-0.109 1.094,-0.221 1.638,-0.334l12.828,65.997l-1.641,0.313Z"/><path d="M478.859,775.653l-15.24,-65.984c0.544,-0.131 1.087,-0.263 1.631,-0.394l15.241,66l-1.632,0.378Z"/><path d="M486.9,753.062l-7.319,-27.299l1.616,-0.435l7.316,27.3l-1.613,0.434Z"/><path d="M503.525,763.272l-16.666,-54.516l1.594,-0.487l16.669,54.515l-1.597,0.488Z"/><path d="M517.387,762.322l-20.74,-60.238l1.578,-0.54l20.738,60.234l-1.576,0.544Z"/><path d="M528.863,754.453l-20.319,-52.937l1.556,-0.6l20.322,52.934l-1.559,0.603Z"/><path d="M533.256,730.487l-6.059,-14.265l1.541,-0.653l6.059,14.265l-1.541,0.653Z"/><path d="M553.856,744.625l-24.525,-52.594l1.513,-0.703l24.525,52.594l-1.513,0.703Z"/><path d="M565.131,737.169l-24.725,-48.522l1.494,-0.756l24.722,48.522l-1.491,0.756Z"/><path d="M577.803,732.453l-28.1,-50.694l1.456,-0.812l28.104,50.694l-1.46,0.812Z"/><path d="M580.028,710.063l-10.994,-18.294l1.432,-0.86l10.99,18.297l-1.428,0.857Z"/><path d="M588.778,700.047l-7.394,-11.388l1.4,-0.903l7.397,11.388l-1.403,0.903Z"/><path d="M615.391,715.994l-39.991,-57.122l1.362,-0.956l39.994,57.115l-1.365,0.963Z"/><path d="M625.288,706.466l-39.66,-52.622l1.338,-1.003l39.659,52.622l-1.337,1.003Z"/><path d="M636.984,699.344l-43.425,-53.622l1.291,-1.053l43.425,53.625l-1.291,1.05Z"/><path d="M641.806,684.128l-34.003,-39.122l1.263,-1.1l34.003,39.125l-1.263,1.097Z"/><path d="M656.797,680.656l-45.472,-48.753l1.219,-1.147l45.468,48.757l-1.215,1.143Z"/><path d="M656.094,660.747l-26.16,-26.163l1.182,-1.181l26.159,26.163l-1.181,1.181Z"/><path d="M658.022,644.675l-12.713,-11.853l1.144,-1.219l12.71,11.856l-1.141,1.216Z"/><path d="M685.156,651.4l-50.309,-43.728l1.094,-1.263l50.309,43.732l-1.094,1.259Z"/><path d="M692.15,639.587l-48.287,-39.099l1.056,-1.294l48.287,39.097l-1.056,1.296Z"/><path d="M697.013,626.341l-42.66,-32.147l1.003,-1.338l42.66,32.15l-1.003,1.335Z"/><path d="M715.094,622.697l-61.719,-43.216c0.319,-0.456 0.634,-0.912 0.947,-1.368l61.731,43.221l-0.959,1.363Zm-62.485,-43.75l-1.687,-1.184l0.956,-1.363l1.675,1.172c-0.312,0.459 -0.628,0.919 -0.944,1.375Z"/><path d="M714.097,605.613l-48.231,-31.322l0.903,-1.4l48.234,31.318l-0.906,1.404Z"/><path d="M723.953,595.869l-54.731,-32.885l0.856,-1.428l54.731,32.882l-0.856,1.431Z"/><path d="M730.272,583.897l-54.9,-30.428l0.812,-1.46l54.897,30.429l-0.809,1.459Z"/><path d="M738.909,573.128l-60.45,-30.797l0.754,-1.49l60.446,30.796l-0.75,1.491Z"/><path d="M726.553,552.359l-24.803,-11.568l0.706,-1.516l24.803,11.566l-0.706,1.518Z"/><path d="M732.853,541.019l-27.234,-11.566l0.65,-1.534l27.234,11.562l-0.65,1.538Z"/><path d="M750.016,533.747l-52.203,-20.038l0.6,-1.559l52.2,20.038l-0.597,1.559Z"/><path d="M756.188,521.706l-55.994,-19.284l0.54,-1.575l56.004,19.284l-0.55,1.575Z"/><path d="M747.647,505.022l-31.181,-9.531l0.487,-1.597l31.178,9.534l-0.484,1.594Z"/><path d="M758.653,494.525l-46.284,-12.4l0.431,-1.616l46.284,12.4l-0.431,1.616Z"/><path d="M744.834,477.734l-12.581,-2.909l0.375,-1.625l12.581,2.903l-0.375,1.631Z"/><path d="M748.603,465.575l-14.89,-2.888l0.312,-1.64l14.888,2.887l-0.31,1.641Z"/><path d="M752.078,453.281l-17.481,-2.765l0.262,-1.647l17.485,2.765l-0.266,1.647Z"/><path d="M766.928,442.284l-43.653,-5.362l0.2,-1.66l43.656,5.363l-0.203,1.659Z"/><path d="M771.806,429.469l-50.762,-4.444l0.147,-1.659l50.765,4.443l-0.15,1.66Z"/><path d="M782.088,416.684l-69.529,-3.65l0.085,-1.668l69.528,3.65l-0.084,1.668Z"/><path d="M762.284,402.697l-29,-0.51l0.029,-1.668l29.003,0.509l-0.032,1.669Z"/><path d="M718.644,390.528l-0.025,-1.669l58.337,-1.015l0.025,1.668l-58.337,1.016Z"/><path d="M730.688,378.478l-0.088,-1.662l33.447,-1.757l0.084,1.666l-33.443,1.753Z"/><path d="M730.025,366.656l-0.144,-1.665l33.094,-2.897l0.144,1.665l-33.094,2.897Z"/><path d="M738.863,353.641l-0.204,-1.66l12.879,-1.584l0.203,1.659l-12.878,1.585Z"/><path d="M720.603,344.188l-0.266,-1.654l46.007,-7.284l0.265,1.653l-46.006,7.285Z"/><path d="M706.509,335.097l-0.315,-1.638l69.922,-13.59l0.318,1.637l-69.925,13.591Z"/><path d="M700.803,324.944l-0.378,-1.632l0.672,-0.156c0.128,0.55 0.25,1.082 0.375,1.635l-0.669,0.153Zm1.719,-0.397c-0.122,-0.541 -0.25,-1.094 -0.375,-1.634l74.512,-17.197l0.379,1.634l-74.516,17.197Z"/><path d="M698.238,314.184l-0.432,-1.612l0.607,-0.163c0.143,0.535 0.287,1.075 0.428,1.616l-0.603,0.159Zm1.646,-0.44c-0.14,-0.541 -0.284,-1.078 -0.428,-1.616l73.753,-19.762l0.435,1.612l-73.76,19.766Z"/><path d="M716.384,297.072l-0.487,-1.597l32.325,-9.878l0.487,1.594l-32.325,9.881Z"/><path d="M712.353,285.953l-0.544,-1.578l32.763,-11.287l0.547,1.574l-32.766,11.291Z"/><path d="M707.084,275.313l-0.596,-1.56l34.853,-13.378l0.597,1.559l-34.854,13.379Z"/><path d="M687.841,270.7l-0.657,-1.541l12.06,-5.118l6.303,-2.675l45.731,-19.413l0.653,1.541l-45.734,19.415l-6.303,2.675l-12.053,5.116Z"/><path d="M683.034,260.569l-0.7,-1.513l12.169,-5.675l6.206,-2.893l45.272,-21.107l0.7,1.513l-45.272,21.106l-6.206,2.894l-12.169,5.675Z"/><path d="M674.397,252.413l-0.76,-1.491l1.022,-0.519c0.257,0.503 0.5,0.988 0.754,1.494l-1.016,0.516Zm1.919,-0.979c-0.25,-0.497 -0.503,-0.993 -0.757,-1.49l13.841,-7.053l6.103,-3.11l48.219,-24.575l0.759,1.488l-48.225,24.581l-6.1,3.106l-13.84,7.053Z"/><path d="M679.391,237.006l-0.807,-1.459l5.354,-2.969l5.99,-3.319l37.138,-20.587l0.806,1.462l-37.141,20.588l-5.987,3.319l-5.353,2.965Z"/><path d="M676.438,225.419l-0.857,-1.428l2.544,-1.532l5.866,-3.525l33.603,-20.193l0.856,1.431l-33.606,20.194l-5.869,3.528l-2.537,1.525Z"/><path d="M674.572,212.834l-0.909,-1.393l4.037,-2.622l28.594,-18.566l0.906,1.397l-28.597,18.569l-4.031,2.615Z"/><path d="M678.178,195.975l-0.959,-1.362l11.569,-8.101l0.959,1.363l-11.569,8.1Z"/><path d="M665.134,190.569l-1.003,-1.338l23.1,-17.409l1.003,1.337l-23.1,17.41Z"/><path d="M658.225,180.825l-1.047,-1.294l21.669,-17.55l1.047,1.297l-21.669,17.547Z"/><path d="M644.775,176.706l-1.097,-1.262l0.3,-0.263l5.166,-4.49l27.175,-23.619l1.097,1.262l-27.182,23.629l-5.165,4.487l-0.294,0.256Z"/><path d="M643.572,161.872l-1.138,-1.222l18.46,-17.213l1.14,1.219l-18.462,17.216Z"/><rect x="385.713" y="225.522" width="4.853" height="0.781"/><rect x="385.538" y="220.869" width="5.2" height="0.784"/><rect x="385.363" y="216.219" width="5.55" height="0.781"/><rect x="385.191" y="211.566" width="5.897" height="0.784"/><rect x="385.016" y="206.913" width="6.244" height="0.784"/><rect x="384.841" y="202.259" width="6.594" height="0.788"/><rect x="384.666" y="197.609" width="6.944" height="0.784"/><rect x="384.494" y="192.959" width="7.291" height="0.784"/><rect x="384.319" y="188.306" width="7.641" height="0.784"/><rect x="384.144" y="183.653" width="7.988" height="0.784"/><rect x="383.969" y="179.003" width="8.338" height="0.784"/><rect x="383.797" y="174.35" width="8.684" height="0.784"/><rect x="383.622" y="169.697" width="9.034" height="0.784"/><rect x="383.447" y="165.047" width="9.381" height="0.784"/><rect x="383.272" y="160.394" width="9.731" height="0.784"/><rect x="383.097" y="155.744" width="10.081" height="0.784"/><rect x="382.925" y="151.091" width="10.428" height="0.784"/><rect x="382.75" y="146.441" width="10.775" height="0.781"/><rect x="382.575" y="141.788" width="11.128" height="0.784"/><rect x="382.4" y="137.138" width="11.475" height="0.781"/><rect x="382.228" y="132.484" width="11.822" height="0.784"/><rect x="382.053" y="127.831" width="12.172" height="0.784"/><rect x="217.484" y="393.75" width="0.784" height="4.85"/><rect x="212.831" y="393.575" width="0.784" height="5.2"/><rect x="208.181" y="393.4" width="0.784" height="5.55"/><rect x="203.528" y="393.225" width="0.784" height="5.897"/><rect x="198.875" y="393.053" width="0.784" height="6.247"/><rect x="194.225" y="392.878" width="0.784" height="6.594"/><rect x="189.572" y="392.703" width="0.787" height="6.944"/><rect x="184.922" y="392.528" width="0.784" height="7.291"/><rect x="180.269" y="392.353" width="0.784" height="7.644"/><rect x="175.616" y="392.181" width="0.784" height="7.987"/><rect x="170.966" y="392.006" width="0.784" height="8.337"/><rect x="166.313" y="391.831" width="0.784" height="8.687"/><rect x="161.663" y="391.656" width="0.784" height="9.034"/><rect x="157.009" y="391.484" width="0.784" height="9.381"/><rect x="152.359" y="391.309" width="0.784" height="9.731"/><rect x="147.706" y="391.134" width="0.784" height="10.081"/><rect x="143.053" y="390.959" width="0.784" height="10.431"/><rect x="138.403" y="390.788" width="0.784" height="10.778"/><rect x="133.75" y="390.613" width="0.784" height="11.125"/><rect x="129.1" y="390.438" width="0.784" height="11.475"/><rect x="124.447" y="390.263" width="0.784" height="11.825"/><rect x="119.794" y="390.088" width="0.784" height="12.172"/><rect x="385.713" y="566.044" width="4.853" height="0.784"/><rect x="385.538" y="570.697" width="5.2" height="0.784"/><rect x="385.363" y="575.35" width="5.55" height="0.784"/><rect x="385.188" y="580" width="5.897" height="0.784"/><rect x="385.016" y="584.65" width="6.247" height="0.787"/><rect x="384.841" y="589.306" width="6.594" height="0.784"/><rect x="384.666" y="593.956" width="6.944" height="0.784"/><rect x="384.494" y="598.606" width="7.291" height="0.784"/><rect x="384.316" y="603.263" width="7.644" height="0.781"/><rect x="384.144" y="607.912" width="7.988" height="0.784"/><rect x="383.969" y="612.563" width="8.338" height="0.784"/><rect x="383.797" y="617.212" width="8.684" height="0.787"/><rect x="383.619" y="621.869" width="9.038" height="0.784"/><rect x="383.447" y="626.519" width="9.384" height="0.784"/><rect x="383.272" y="631.169" width="9.731" height="0.784"/><rect x="383.097" y="635.825" width="10.081" height="0.781"/><rect x="382.922" y="640.475" width="10.431" height="0.784"/><rect x="382.75" y="645.125" width="10.778" height="0.784"/><rect x="382.575" y="649.778" width="11.128" height="0.784"/><rect x="382.4" y="654.431" width="11.475" height="0.784"/><rect x="382.228" y="659.081" width="11.822" height="0.784"/><rect x="382.05" y="663.731" width="12.175" height="0.784"/><rect x="558.009" y="393.75" width="0.781" height="4.85"/><rect x="562.659" y="393.575" width="0.784" height="5.2"/><rect x="567.313" y="393.4" width="0.784" height="5.55"/><rect x="571.963" y="393.228" width="0.784" height="5.897"/><rect x="576.616" y="393.05" width="0.784" height="6.247"/><rect x="581.269" y="392.878" width="0.784" height="6.594"/><rect x="585.919" y="392.703" width="0.784" height="6.944"/><rect x="590.572" y="392.531" width="0.784" height="7.291"/><rect x="595.222" y="392.356" width="0.784" height="7.641"/><rect x="599.875" y="392.181" width="0.784" height="7.987"/><rect x="604.525" y="392.006" width="0.788" height="8.337"/><rect x="609.178" y="391.831" width="0.784" height="8.687"/><rect x="613.831" y="391.659" width="0.784" height="9.031"/><rect x="618.481" y="391.484" width="0.784" height="9.381"/><rect x="623.134" y="391.309" width="0.784" height="9.731"/><rect x="627.787" y="391.134" width="0.784" height="10.081"/><rect x="632.438" y="390.959" width="0.784" height="10.431"/><rect x="637.091" y="390.784" width="0.784" height="10.781"/><rect x="641.744" y="390.613" width="0.781" height="11.125"/><rect x="646.394" y="390.438" width="0.784" height="11.475"/><rect x="651.044" y="390.263" width="0.784" height="11.825"/><rect x="655.697" y="390.091" width="0.784" height="12.169"/></g></svg>