<?xml version="1.0" encoding="UTF-8" standalone="no"?><!DOCTYPE svg PUBLIC "-//W3C//DTD SVG 1.1//EN" "http://www.w3.org/Graphics/SVG/1.1/DTD/svg11.dtd"><svg width="100%" height="100%" viewBox="0 0 1240 1103" version="1.1" xmlns="http://www.w3.org/2000/svg" xmlns:xlink="http://www.w3.org/1999/xlink" xml:space="preserve" style="fill-rule:evenodd;clip-rule:evenodd;stroke-linejoin:round;stroke-miterlimit:1.41421;"><g id="Layer6"><path d="M476.734,50.75c-6.462,0 -12.753,0.863 -18.85,2.844c-27.759,9.012 -45.953,38.615 -63.55,67.247c-13.443,21.875 -27.346,44.497 -45.459,57.678c-18.412,13.4 -44.456,19.744 -69.647,25.881c-32.409,7.897 -65.925,16.059 -82.819,39.275c-16.671,22.903 -14.146,57.097 -11.709,90.166c1.916,26.025 3.9,52.937 -3.241,74.922c-6.762,20.837 -23.759,40.765 -40.196,60.04c-21.985,25.775 -44.716,52.428 -44.716,82.306c0,29.879 22.734,56.532 44.716,82.31c16.437,19.275 33.434,39.203 40.196,60.04c7.141,21.985 5.157,48.894 3.241,74.919c-2.437,33.069 -4.962,67.263 11.709,90.169c16.894,23.212 50.41,31.375 82.822,39.269c25.188,6.137 51.232,12.481 69.644,25.884c18.113,13.181 32.016,35.803 45.463,57.681c17.593,28.628 35.79,58.235 63.55,67.247c26.343,8.55 56.34,-3.7 88.096,-16.675c24.497,-10.009 49.829,-20.359 73.55,-20.359c23.722,0 49.053,10.35 73.55,20.356c31.757,12.975 61.75,25.231 88.1,16.675c27.76,-9.016 45.954,-38.619 63.55,-67.247c13.444,-21.875 27.347,-44.5 45.46,-57.678c18.412,-13.403 44.456,-19.747 69.644,-25.881c32.409,-7.894 65.928,-16.06 82.821,-39.272c16.669,-22.903 14.147,-57.1 11.71,-90.169c-1.919,-26.025 -3.9,-52.937 3.237,-74.922c6.766,-20.834 23.763,-40.765 40.2,-60.037c21.982,-25.778 44.716,-52.431 44.716,-82.31c0,-29.878 -22.731,-56.531 -44.716,-82.309c-16.437,-19.272 -33.434,-39.203 -40.2,-60.037c-7.137,-21.985 -5.156,-48.9 -3.237,-74.925c2.437,-33.066 4.959,-67.263 -11.71,-90.163c-16.893,-23.216 -50.412,-31.378 -82.818,-39.275c-25.188,-6.137 -51.235,-12.481 -69.647,-25.881c-18.113,-13.181 -32.016,-35.803 -45.46,-57.678c-17.596,-28.632 -35.793,-58.235 -63.553,-67.247c-26.34,-8.553 -56.34,3.7 -88.097,16.675c-24.497,10.006 -49.828,20.356 -73.55,20.356c-23.725,0 -49.053,-10.35 -73.55,-20.356c-24.406,-9.972 -47.781,-19.519 -69.25,-19.519Zm-0.256,1003.79c-6.712,0 -13.253,-0.888 -19.556,-2.938c-28.853,-9.369 -47.356,-39.472 -65.247,-68.584c-13.287,-21.619 -27.025,-43.972 -44.641,-56.791c-17.909,-13.037 -43.65,-19.306 -68.543,-25.372c-32.96,-8.028 -67.041,-16.331 -84.607,-40.469c-17.343,-23.828 -14.781,-58.603 -12.303,-92.234c1.897,-25.725 3.86,-52.325 -3.09,-73.728c-6.575,-20.244 -22.619,-39.059 -39.607,-58.978c-22.35,-26.203 -45.462,-53.306 -45.462,-84.335c0,-31.028 23.112,-58.128 45.462,-84.334c16.988,-19.919 33.032,-38.731 39.6,-58.975c6.95,-21.403 4.994,-48.006 3.097,-73.731c-2.478,-33.628 -5.04,-68.403 12.303,-92.235c17.566,-24.137 51.647,-32.44 84.603,-40.468c24.894,-6.066 50.638,-12.338 68.547,-25.375c17.616,-12.816 31.354,-35.169 44.638,-56.785c17.894,-29.112 36.394,-59.215 65.25,-68.584c27.425,-8.906 59.362,4.137 90.244,16.753c24.215,9.894 49.259,20.125 72.368,20.125c23.11,0 48.15,-10.231 72.369,-20.125c30.878,-12.616 62.809,-25.659 90.244,-16.753c28.853,9.369 47.356,39.472 65.25,68.584c13.284,21.616 27.022,43.969 44.634,56.785c17.913,13.037 43.657,19.309 68.547,25.375c32.96,8.028 67.041,16.331 84.606,40.468c17.344,23.829 14.782,58.604 12.304,92.232c-1.897,25.728 -3.857,52.331 3.09,73.731c6.575,20.247 22.619,39.059 39.606,58.975c22.35,26.209 45.463,53.309 45.463,84.337c0,31.029 -23.113,58.129 -45.463,84.335c-16.987,19.919 -33.031,38.734 -39.606,58.975c-6.947,21.403 -4.987,48.006 -3.09,73.731c2.478,33.631 5.04,68.406 -12.304,92.234c-17.565,24.138 -51.646,32.444 -84.609,40.472c-24.891,6.063 -50.631,12.335 -68.544,25.369c-17.612,12.819 -31.35,35.172 -44.634,56.788c-17.894,29.112 -36.394,59.215 -65.25,68.584c-27.431,8.916 -59.363,-4.138 -90.244,-16.753c-24.219,-9.894 -49.259,-20.125 -72.369,-20.125c-23.109,0 -48.15,10.234 -72.368,20.128c-23.782,9.716 -48.191,19.687 -70.688,19.691Z" style="fill-rule:nonzero;"/><path d="M549.559,981.156c0.597,0 1.185,0.044 1.763,0.135c13.156,2.068 23.381,29.8 34.209,59.162c10.632,28.828 21.625,58.641 34.003,58.641c12.379,0 23.372,-29.813 34.004,-58.641c10.825,-29.362 21.053,-57.094 34.209,-59.162c13.612,-2.175 32.272,21.54 51.994,46.612c18.625,23.681 37.881,48.163 49.162,44.5c11.606,-3.769 12.819,-35.322 13.988,-65.84c1.209,-31.466 2.35,-61.188 14.35,-67.316c12.175,-6.219 37.109,10.428 63.503,28.05c25.193,16.822 51.253,34.209 60.937,27.15c9.772,-7.113 1.213,-37.363 -7.068,-66.613c-8.613,-30.434 -16.747,-59.184 -7.144,-68.787c9.606,-9.616 38.353,-1.469 68.787,7.144c29.253,8.284 59.5,16.84 66.616,7.068c7.059,-9.7 -10.331,-35.746 -27.15,-60.937c-17.622,-26.394 -34.266,-51.325 -28.053,-63.506c6.131,-12 35.853,-13.141 67.319,-14.347c30.518,-1.172 62.075,-2.385 65.843,-13.991c3.663,-11.281 -20.822,-30.537 -44.503,-49.162c-25.072,-19.719 -48.756,-38.347 -46.612,-51.991c2.068,-13.159 29.803,-23.384 59.162,-34.209c28.831,-10.635 58.644,-21.628 58.644,-34.007c0,-12.378 -29.813,-23.371 -58.641,-34.003c-29.362,-10.828 -57.097,-21.053 -59.165,-34.212c-2.144,-13.647 21.54,-32.272 46.612,-51.991c23.681,-18.625 48.166,-37.881 44.503,-49.162c-3.768,-11.61 -35.325,-12.819 -65.84,-13.988c-31.469,-1.209 -61.191,-2.35 -67.316,-14.35c-6.219,-12.178 10.425,-37.109 28.047,-63.503c16.819,-25.191 34.209,-51.237 27.15,-60.934c-7.109,-9.778 -37.363,-1.213 -66.613,7.062c-30.434,8.616 -59.184,16.75 -68.787,7.147c-9.606,-9.603 -1.469,-38.353 7.144,-68.787c8.278,-29.254 16.84,-59.504 7.065,-66.616c-9.69,-7.056 -35.744,10.331 -60.934,27.15c-26.394,17.622 -51.322,34.262 -63.506,28.047c-12,-6.125 -13.141,-35.847 -14.35,-67.316c-1.169,-30.512 -2.378,-62.069 -13.988,-65.837c-11.272,-3.657 -30.541,20.822 -49.162,44.5c-19.722,25.072 -38.363,48.734 -51.994,46.609c-13.156,-2.066 -23.384,-29.8 -34.209,-59.159c-10.632,-28.828 -21.625,-58.641 -34.004,-58.641c-12.378,0 -23.371,29.813 -34.003,58.644c-10.828,29.356 -21.053,57.09 -34.209,59.156c-13.672,2.122 -32.275,-21.537 -51.997,-46.609c-18.625,-23.682 -37.897,-48.175 -49.159,-44.5c-11.607,3.768 -12.819,35.322 -13.991,65.837c-1.206,31.469 -2.347,61.191 -14.347,67.316c-12.187,6.231 -37.109,-10.428 -63.503,-28.047c-25.191,-16.819 -51.244,-34.2 -60.937,-27.15c-9.772,7.112 -1.213,37.359 7.065,66.612c8.616,30.438 16.753,59.185 7.147,68.788c-9.609,9.603 -38.356,1.469 -68.787,-7.144c-29.257,-8.278 -59.507,-16.844 -66.619,-7.065c-7.056,9.696 10.331,35.746 27.153,60.934c17.622,26.394 34.266,51.325 28.05,63.506c-6.128,12 -35.85,13.141 -67.316,14.347c-30.518,1.172 -62.075,2.381 -65.843,13.991c-3.663,11.281 20.821,30.537 44.5,49.159c25.075,19.722 48.759,38.35 46.612,51.997c-2.066,13.156 -29.8,23.381 -59.159,34.209c-28.832,10.632 -58.644,21.625 -58.644,34.003c0,12.379 29.812,23.372 58.644,34.007c29.359,10.825 57.093,21.05 59.159,34.209c2.147,13.644 -21.537,32.272 -46.612,51.994c-23.679,18.622 -48.163,37.881 -44.5,49.159c3.768,11.606 35.325,12.819 65.843,13.991c31.466,1.206 61.188,2.347 67.316,14.347c6.216,12.181 -10.428,37.112 -28.05,63.506c-16.822,25.187 -34.209,51.234 -27.153,60.934c7.112,9.775 37.362,1.213 66.615,-7.068c30.438,-8.613 59.185,-16.754 68.791,-7.144c9.603,9.603 1.466,38.353 -7.147,68.79c-8.278,29.25 -16.84,59.5 -7.065,66.613c9.687,7.059 35.743,-10.331 60.934,-27.15c26.394,-17.625 51.316,-34.269 63.506,-28.05c12,6.128 13.141,35.85 14.347,67.316c1.172,30.518 2.384,62.071 13.991,65.84c11.281,3.678 30.537,-20.822 49.162,-44.5c18.885,-24.009 36.766,-46.747 50.231,-46.747Zm69.975,121.063c-14.556,0 -25.425,-29.475 -36.934,-60.681c-10.041,-27.225 -20.419,-55.375 -31.766,-57.16c-11.875,-1.869 -30.759,22.197 -49.05,45.456c-20.175,25.654 -39.237,49.866 -52.584,45.544c-13.681,-4.444 -14.878,-35.656 -16.147,-68.697c-1.122,-29.181 -2.278,-59.356 -12.647,-64.65c-10.559,-5.384 -35.865,11.519 -60.35,27.866c-27.281,18.212 -53.047,35.412 -64.509,27.078c-11.534,-8.397 -3.066,-38.316 5.9,-69.994c7.991,-28.228 16.25,-57.422 7.944,-65.728c-8.31,-8.309 -37.497,-0.047 -65.728,7.944c-31.679,8.962 -61.6,17.428 -69.994,5.897c-8.341,-11.46 8.862,-37.225 27.078,-64.51c16.347,-24.484 33.25,-49.8 27.866,-60.346c-5.294,-10.372 -35.472,-11.529 -64.654,-12.647c-33.04,-1.266 -64.25,-2.466 -68.693,-16.147c-4.335,-13.356 19.89,-32.41 45.54,-52.581c23.266,-18.297 47.319,-37.219 45.457,-49.057c-1.785,-11.34 -29.932,-21.725 -57.154,-31.762c-31.209,-11.506 -60.687,-22.378 -60.687,-36.935c0,-14.556 29.478,-25.428 60.687,-36.934c27.222,-10.041 55.369,-20.419 57.154,-31.762c1.862,-11.841 -22.194,-30.76 -45.457,-49.057c-25.65,-20.172 -49.875,-39.225 -45.54,-52.581c4.443,-13.681 35.653,-14.881 68.693,-16.147c29.182,-1.119 59.36,-2.278 64.654,-12.647c5.384,-10.547 -11.519,-35.865 -27.866,-60.35c-18.213,-27.281 -35.419,-53.05 -27.078,-64.509c8.397,-11.531 38.318,-3.066 69.994,5.9c28.234,7.991 57.421,16.253 65.728,7.941c8.309,-8.307 0.047,-37.497 -7.944,-65.729c-8.966,-31.675 -17.434,-61.596 -5.9,-69.99c11.469,-8.341 37.231,8.865 64.512,27.078c24.485,16.347 49.807,33.253 60.347,27.866c10.369,-5.294 11.528,-35.472 12.647,-64.657c1.269,-33.037 2.466,-64.247 16.147,-68.687c13.353,-4.328 32.406,19.887 52.584,45.54c18.294,23.26 37.2,47.319 49.05,45.454c11.347,-1.782 21.725,-29.932 31.766,-57.154c11.506,-31.206 22.378,-60.684 36.934,-60.684c14.557,0 25.425,29.478 36.935,60.684c10.037,27.222 20.419,55.372 31.765,57.154c11.825,1.859 30.754,-22.194 49.05,-45.454c20.175,-25.65 39.254,-49.871 52.585,-45.54c13.681,4.44 14.878,35.65 16.147,68.69c1.118,29.182 2.278,59.36 12.647,64.654c10.54,5.371 35.865,-11.519 60.349,-27.866c27.279,-18.213 53.041,-35.416 64.51,-27.075c11.534,8.394 3.066,38.312 -5.9,69.991c-7.988,28.228 -16.25,57.418 -7.941,65.728c8.313,8.309 37.497,0.047 65.725,-7.944c31.678,-8.966 61.594,-17.438 69.994,-5.897c8.341,11.459 -8.862,37.228 -27.078,64.509c-16.347,24.485 -33.25,49.8 -27.866,60.347c5.294,10.369 35.469,11.528 64.653,12.647c33.044,1.269 64.25,2.466 68.694,16.147c4.338,13.356 -19.89,32.409 -45.544,52.584c-23.259,18.294 -47.315,37.213 -45.453,49.05c1.781,11.344 29.931,21.725 57.153,31.766c31.21,11.509 60.688,22.378 60.688,36.934c0,14.557 -29.478,25.429 -60.688,36.935c-27.222,10.037 -55.372,20.422 -57.153,31.762c-1.862,11.838 22.194,30.757 45.453,49.053c25.654,20.175 49.882,39.229 45.544,52.585c-4.444,13.681 -35.653,14.881 -68.694,16.147c-29.184,1.118 -59.359,2.275 -64.653,12.647c-5.384,10.546 11.519,35.865 27.866,60.35c18.212,27.281 35.415,53.05 27.075,64.509c-8.388,11.537 -38.313,3.069 -69.991,-5.897c-28.231,-7.991 -57.422,-16.247 -65.728,-7.944c-8.306,8.307 -0.047,37.497 7.944,65.725c8.962,31.678 17.431,61.597 5.897,69.994c-11.456,8.341 -37.228,-8.862 -64.51,-27.078c-24.487,-16.347 -49.793,-33.241 -60.35,-27.866c-10.365,5.294 -11.525,35.469 -12.643,64.65c-1.269,33.044 -2.466,64.253 -16.147,68.697c-13.325,4.328 -32.41,-19.89 -52.585,-45.544c-18.293,-23.259 -37.218,-47.378 -49.05,-45.456c-11.346,1.785 -21.728,29.935 -31.765,57.16c-11.51,31.206 -22.378,60.681 -36.935,60.681Z" style="fill-rule:nonzero;"/><path d="M619.534,973.772c42.497,0 93.629,30.925 143.075,60.831c49.175,29.741 96.241,58.206 134.429,58.213c11.075,0 21.396,-2.394 30.812,-7.841c43.856,-25.378 42.1,-100.5 40.397,-173.147c-1.322,-56.356 -2.688,-114.631 17.45,-149.431c19.156,-33.113 66.812,-58.834 117.266,-86.063c65.378,-35.281 132.984,-71.765 132.984,-125.225c0,-53.462 -67.606,-89.946 -132.988,-125.228c-50.45,-27.228 -98.106,-52.944 -117.262,-86.059c-20.138,-34.8 -18.772,-93.075 -17.45,-149.431c1.703,-72.647 3.459,-147.766 -40.397,-173.144c-41.884,-24.238 -101.809,12.003 -165.244,50.372c-49.443,29.906 -100.575,60.831 -143.072,60.831c-42.496,0 -93.625,-30.925 -143.075,-60.831c-63.434,-38.369 -123.353,-74.606 -165.24,-50.372c-43.863,25.378 -42.1,100.497 -40.397,173.144c1.322,56.356 2.687,114.631 -17.45,149.431c-19.16,33.115 -66.813,58.831 -117.266,86.059c-65.378,35.282 -132.981,71.766 -132.981,125.228c0,53.46 67.603,89.944 132.981,125.229c50.453,27.228 98.11,52.946 117.269,86.059c20.134,34.8 18.769,93.075 17.447,149.431c-1.703,72.65 -3.466,147.769 40.397,173.147c41.884,24.234 101.806,-12.006 165.24,-50.372c49.447,-29.906 100.579,-60.831 143.075,-60.831Zm-277.525,122.178c-11.578,0 -22.415,-2.519 -32.356,-8.272c-45.462,-26.303 -43.678,-102.365 -41.956,-175.925c1.312,-55.922 2.669,-113.75 -17.025,-147.794c-18.719,-32.346 -65.997,-57.859 -116.047,-84.871c-66.187,-35.719 -134.625,-72.654 -134.625,-127.979c0,-55.328 68.438,-92.259 134.625,-127.978c50.05,-27.012 97.328,-52.525 116.044,-84.875c19.694,-34.04 18.34,-91.868 17.028,-147.794c-1.722,-73.556 -3.506,-149.615 41.956,-175.918c43.491,-25.172 104.175,11.54 168.425,50.4c49.081,29.684 99.831,60.381 141.456,60.381c41.625,0 92.375,-30.697 141.457,-60.381c64.25,-38.863 124.937,-75.569 168.425,-50.403c45.462,26.306 43.681,102.365 41.956,175.925c-1.313,55.922 -2.666,113.75 17.028,147.79c18.716,32.35 65.991,57.863 116.047,84.875c66.184,35.719 134.625,72.65 134.625,127.978c0,55.325 -68.441,92.26 -134.625,127.979c-50.053,27.012 -97.331,52.525 -116.047,84.871c-19.694,34.044 -18.341,91.872 -17.028,147.794c1.725,73.56 3.506,149.622 -41.956,175.925c-43.488,25.163 -104.175,-11.54 -168.425,-50.4c-49.082,-29.687 -99.832,-60.381 -141.457,-60.381c-41.625,0 -92.375,30.694 -141.456,60.381c-49.562,29.975 -97.006,58.672 -136.069,58.672Z" style="fill-rule:nonzero;"/><path d="M619.534,1059.53c23.338,0 47.625,5.563 71.119,10.938c35.531,8.137 69.094,15.815 99.553,5.925c32.013,-10.394 56.053,-38.185 79.303,-65.06c15.266,-17.643 31.05,-35.887 48.869,-48.853c18.119,-13.19 40.569,-22.718 62.272,-31.931c32.516,-13.8 66.134,-28.072 85.628,-54.853c19.259,-26.466 22.494,-62.703 25.622,-97.75c2.109,-23.631 4.291,-48.069 11.309,-69.678c6.654,-20.5 18.963,-40.847 30.866,-60.528c18.5,-30.588 37.631,-62.219 37.631,-96.632c0,-34.412 -19.131,-66.04 -37.631,-96.631c-11.903,-19.681 -24.212,-40.031 -30.866,-60.531c-7.018,-21.609 -9.2,-46.044 -11.309,-69.675c-3.128,-35.047 -6.363,-71.284 -25.622,-97.75c-19.494,-26.781 -53.112,-41.053 -85.628,-54.853c-21.706,-9.213 -44.153,-18.741 -62.272,-31.928c-17.819,-12.969 -33.6,-31.213 -48.865,-48.857c-23.254,-26.875 -47.294,-54.665 -79.307,-65.059c-30.465,-9.894 -64.025,-2.209 -99.553,5.925c-23.49,5.378 -47.781,10.938 -71.119,10.938c-23.337,0 -47.628,-5.56 -71.118,-10.938c-35.529,-8.131 -69.088,-15.812 -99.553,-5.925c-32.013,10.394 -56.057,38.184 -79.307,65.063c-15.265,17.643 -31.047,35.884 -48.862,48.853c-18.122,13.187 -40.569,22.712 -62.272,31.928c-32.516,13.8 -66.138,28.072 -85.631,54.853c-19.26,26.466 -22.497,62.703 -25.625,97.75c-2.107,23.631 -4.291,48.066 -11.307,69.675c-6.656,20.503 -18.962,40.853 -30.865,60.534c-18.503,30.588 -37.632,62.216 -37.632,96.628c0,34.413 19.129,66.041 37.629,96.632c11.903,19.681 24.212,40.028 30.868,60.531c7.016,21.609 9.2,46.044 11.307,69.678c3.128,35.044 6.365,71.281 25.625,97.747c19.49,26.781 53.112,41.053 85.625,54.853c21.709,9.213 44.156,18.741 62.278,31.931c17.815,12.966 33.6,31.21 48.865,48.853c23.25,26.875 47.294,54.669 79.304,65.06c30.462,9.89 64.024,2.212 99.556,-5.925c23.49,-5.375 47.778,-10.938 71.115,-10.938Zm139.035,24.585c-22.322,0 -45.725,-5.36 -68.616,-10.6c-23.322,-5.338 -47.434,-10.86 -70.419,-10.86c-22.981,0 -47.097,5.522 -70.418,10.86c-34.385,7.868 -69.938,16.009 -101.219,5.85c-32.838,-10.663 -57.172,-38.788 -80.703,-65.985c-15.147,-17.512 -30.813,-35.618 -48.341,-48.375c-17.831,-12.978 -40.112,-22.434 -61.659,-31.578c-32.903,-13.969 -66.931,-28.409 -86.928,-55.894c-19.772,-27.162 -23.044,-63.84 -26.213,-99.306c-2.094,-23.459 -4.256,-47.719 -11.165,-68.99c-6.544,-20.16 -18.213,-39.454 -30.569,-59.882c-18.722,-30.956 -38.082,-62.962 -38.082,-98.247c0,-35.284 19.36,-67.29 38.082,-98.246c12.356,-20.429 24.025,-39.722 30.569,-59.879c6.909,-21.275 9.071,-45.531 11.165,-68.99c3.169,-35.469 6.441,-72.147 26.213,-99.313c20,-27.481 54.028,-41.925 86.931,-55.89c21.547,-9.147 43.825,-18.6 61.656,-31.578c17.525,-12.754 33.191,-30.863 48.341,-48.372c23.531,-27.197 47.862,-55.325 80.703,-65.988c31.284,-10.156 66.837,-2.019 101.216,5.853c23.321,5.338 47.437,10.857 70.421,10.857c22.985,0 47.1,-5.519 70.422,-10.857c34.378,-7.872 69.932,-16.012 101.216,-5.853c32.837,10.663 57.172,38.791 80.703,65.988c15.15,17.509 30.816,35.615 48.341,48.372c17.831,12.978 40.112,22.434 61.656,31.581c32.906,13.965 66.931,28.409 86.931,55.887c19.769,27.166 23.044,63.844 26.213,99.313c2.09,23.459 4.256,47.715 11.165,68.99c6.544,20.157 18.213,39.447 30.566,59.879c18.725,30.953 38.084,62.962 38.084,98.246c0,35.285 -19.359,67.294 -38.084,98.247c-12.353,20.428 -24.022,39.722 -30.566,59.878c-6.909,21.272 -9.075,45.532 -11.165,68.991c-3.169,35.469 -6.444,72.147 -26.213,99.309c-20,27.485 -54.025,41.925 -86.931,55.891c-21.544,9.147 -43.825,18.603 -61.656,31.581c-17.528,12.757 -33.194,30.863 -48.344,48.375c-23.531,27.197 -47.863,55.322 -80.7,65.985c-10.459,3.397 -21.394,4.75 -32.603,4.75Z" style="fill-rule:nonzero;"/></g></svg>