<svg xmlns="http://www.w3.org/2000/svg" data-name="Layer 1" viewBox="0 0 100 100" x="0px" y="0px"><title>Artboard 2</title><path d="M65.52,11.18h-31a9.27,9.27,0,0,0-9.09,9.39V79.43a9.27,9.27,0,0,0,9.09,9.39h31a9.27,9.27,0,0,0,9.09-9.39V20.58A9.27,9.27,0,0,0,65.52,11.18ZM52.61,84.72H47.39a2.27,2.27,0,1,1,0-4.55h5.21a2.27,2.27,0,1,1,0,4.55Zm15-9.25a.59.59,0,0,1-.59.59H33a.59.59,0,0,1-.59-.59V24.58A.59.59,0,0,1,33,24H67a.59.59,0,0,1,.59.59ZM84.75,42a15.11,15.11,0,0,1,0,16,2.8,2.8,0,0,1-4.34.43l-.16-.16a2.76,2.76,0,0,1-.34-3.42,9.32,9.32,0,0,0,0-9.7,2.76,2.76,0,0,1,.34-3.42l.16-.16A2.8,2.8,0,0,1,84.75,42Zm8.15-8.41a26.65,26.65,0,0,1,0,32.87,2.83,2.83,0,0,1-4.21.23l-.09-.09a2.81,2.81,0,0,1-.23-3.73,20.78,20.78,0,0,0,0-25.72,2.81,2.81,0,0,1,.2-3.69l.08-.08A2.83,2.83,0,0,1,92.9,33.57Zm-72.8,11.6a9.32,9.32,0,0,0,0,9.7,2.76,2.76,0,0,1-.34,3.42l-.16.16A2.8,2.8,0,0,1,15.25,58a15.11,15.11,0,0,1,0-16,2.8,2.8,0,0,1,4.34-.43l.16.16A2.76,2.76,0,0,1,20.09,45.17ZM11.43,33.42a2.81,2.81,0,0,1,.23,3.73,20.78,20.78,0,0,0,0,25.72,2.81,2.81,0,0,1-.2,3.69l-.08.08a2.83,2.83,0,0,1-4.24-.2,26.65,26.65,0,0,1,0-32.87,2.83,2.83,0,0,1,4.21-.23ZM47,55.88l-.53-20.34a1,1,0,0,1,1-1.06h5a1,1,0,0,1,1,1.06L53,55.88a.91.91,0,0,1-.91.89H47.92A.91.91,0,0,1,47,55.88Zm6.52,5.5V64A1.55,1.55,0,0,1,52,65.51H48A1.55,1.55,0,0,1,46.47,64V61.39A1.55,1.55,0,0,1,48,59.84h4A1.55,1.55,0,0,1,53.53,61.39Z"></path></svg>