<?xml version="1.0" encoding="UTF-8" standalone="no"?><!DOCTYPE svg PUBLIC "-//W3C//DTD SVG 1.1//EN" "http://www.w3.org/Graphics/SVG/1.1/DTD/svg11.dtd"><svg width="100%" height="100%" viewBox="0 0 1278 1190" version="1.1" xmlns="http://www.w3.org/2000/svg" xmlns:xlink="http://www.w3.org/1999/xlink" xml:space="preserve" style="fill-rule:evenodd;clip-rule:evenodd;stroke-linejoin:round;stroke-miterlimit:1.41421;"><g id="Layer5"><path d="M844.978,941.144l1.394,2.459l2.462,-1.394l-1.393,-2.459l-2.463,1.394Zm0.216,6.718l-4.475,-7.896l7.9,-4.479l4.475,7.9l-7.9,4.475Z" style="fill-rule:nonzero;"/><path d="M871.638,999.797l10.046,12.381l12.382,-10.047l-10.05,-12.381l-12.378,10.047Zm9.59,16.778l-13.987,-17.234l17.231,-13.988l13.987,17.234l-17.231,13.988Z" style="fill-rule:nonzero;"/><path d="M951.2,926.897l8.638,7.75l7.746,-8.644l-8.637,-7.744l-7.747,8.638Zm8.878,12.162l-13.294,-11.922l11.922,-13.29l13.291,11.919l-11.919,13.293Z" style="fill-rule:nonzero;"/><path d="M954.284,927.759l13.032,7.304l7.303,-13.029l-13.028,-7.303l-7.307,13.028Zm14.229,11.557l-18.482,-10.36l10.363,-18.481l18.481,10.362l-10.362,18.479Z" style="fill-rule:nonzero;"/><path d="M1032.1,830.834l8.015,3.091l3.094,-8.013l-8.012,-3.093l-3.097,8.015Zm9.803,7.132l-13.841,-5.344l5.344,-13.844l13.844,5.347l-5.347,13.841Z" style="fill-rule:nonzero;"/><path d="M956.178,728.409l4.447,0.735l0.734,-4.447l-4.446,-0.735l-0.735,4.447Zm7.022,4.325l-10.616,-1.75l1.75,-10.612l10.616,1.75l-1.75,10.612Z" style="fill-rule:nonzero;"/><path d="M1083.52,707.925l0.028,2.453l2.456,-0.028l-0.028,-2.453l-2.456,0.028Zm-3.06,5.616l-0.096,-8.704l8.699,-0.1l0.1,8.704l-8.703,0.1Z" style="fill-rule:nonzero;"/><path d="M1061,596.097l0.631,4.225l4.225,-0.635l-0.634,-4.221l-4.222,0.631Zm-1.994,7.781l-1.562,-10.406l10.406,-1.563l1.562,10.407l-10.406,1.562Z" style="fill-rule:nonzero;"/><path d="M910.272,512.197l4.753,13.134l13.131,-4.753l-4.75,-13.131l-13.134,4.75Zm2.875,17.134l-6.875,-19.009l19.009,-6.878l6.875,19.009l-19.009,6.878Z" style="fill-rule:nonzero;"/><path d="M942.984,447.719l0.8,1.365l1.369,-0.8l-0.8,-1.368l-1.369,0.803Zm-0.309,5.643l-3.969,-6.756l6.757,-3.965l3.968,6.753l-6.756,3.968Z" style="fill-rule:nonzero;"/><path d="M858.628,428.231l5.903,7.26l7.256,-5.904l-5.9,-7.259l-7.259,5.903Zm5.45,11.653l-9.847,-12.103l12.106,-9.85l9.851,12.11l-12.11,9.843Z" style="fill-rule:nonzero;"/><path d="M873.147,412.106l11.3,9.925l9.925,-11.3l-11.297,-9.925l-9.928,11.3Zm11.584,14.335l-15.993,-14.05l14.053,-15.994l15.993,14.053l-14.053,15.991Z" style="fill-rule:nonzero;"/><path d="M921.762,292.663l-4.093,-2.31l2.306,-4.094l4.094,2.31l-2.307,4.094Z" style="fill-rule:nonzero;"/><path d="M729.331,395.672l-3.993,-1.419l1.418,-4l3.997,1.422l-1.422,3.997Z" style="fill-rule:nonzero;"/><path d="M714.925,309.244l10.85,1.84l1.841,-10.85l-10.85,-1.84l-1.841,10.85Zm13.409,5.443l-17.012,-2.887l2.887,-17.012l17.01,2.887l-2.885,17.012Z" style="fill-rule:nonzero;"/><path d="M615.619,322.084l2.334,0.032l0.035,-2.335l-2.335,-0.031l-0.034,2.334Zm5.415,3.2l-8.581,-0.118l0.116,-8.585l8.584,0.119l-0.119,8.584Z" style="fill-rule:nonzero;"/><path d="M496.272,280.391l1.606,8.437l8.438,-1.606l-1.607,-8.441l-8.437,1.61Zm-0.881,12.09l-2.772,-14.578l14.578,-2.775l2.772,14.581l-14.578,2.772Z" style="fill-rule:nonzero;"/><path d="M394.975,239.609l3.256,9.872l9.875,-3.256l-3.256,-9.872l-9.875,3.256Zm1.269,13.819l-5.213,-15.809l15.81,-5.213l5.212,15.81l-15.809,5.212Z" style="fill-rule:nonzero;"/><path d="M309.816,273.731l-2.769,-4.947l4.95,-2.772l2.765,4.954l-4.946,2.765Z" style="fill-rule:nonzero;"/><path d="M378.522,302.994l4.912,6.3l6.3,-4.91l-4.912,-6.3l-6.3,4.91Zm4.369,10.684l-8.754,-11.225l11.229,-8.756l8.753,11.231l-11.228,8.75Z" style="fill-rule:nonzero;"/><path d="M336.066,300.378l9.225,8.166l8.168,-9.225l-9.225,-8.169l-8.168,9.228Zm9.493,12.578l-13.903,-12.312l12.31,-13.907l13.903,12.313l-12.31,13.906Z" style="fill-rule:nonzero;"/><path d="M216.144,423.487l10.322,6.275l6.275,-10.318l-10.319,-6.278l-6.278,10.321Zm11.368,10.569l-15.662,-9.522l9.525,-15.662l15.659,9.525l-9.522,15.659Z" style="fill-rule:nonzero;"/><path d="M233.231,504.281l5.8,2.21l2.21,-5.803l-5.8,-2.207l-2.21,5.8Zm7.613,6.241l-11.644,-4.431l4.431,-11.641l11.641,4.428l-4.428,11.644Z" style="fill-rule:nonzero;"/><path d="M215.959,564.575l14.61,3.031l3.031,-14.612l-14.613,-3.028l-3.028,14.609Zm17.038,6.728l-20.734,-4.3l4.299,-20.734l20.735,4.3l-4.3,20.734Z" style="fill-rule:nonzero;"/><path d="M246.75,541.628l1.641,0.035l0.034,-1.641l-1.641,-0.038l-0.034,1.644Zm4.697,3.225l-7.891,-0.172l0.172,-7.887l7.891,0.172l-0.172,7.887Z" style="fill-rule:nonzero;"/><path d="M193.019,807.819l-0.538,-3.613l3.616,-0.531l0.528,3.613l-3.606,0.531Z" style="fill-rule:nonzero;"/><path d="M193.459,722.95l4.835,13.35l13.35,-4.834l-4.832,-13.35l-13.353,4.834Zm2.963,17.353l-6.963,-19.228l19.228,-6.963l6.963,19.229l-19.228,6.962Z" style="fill-rule:nonzero;"/><path d="M197.466,804.922l5.781,10.087l10.084,-5.784l-5.784,-10.084l-10.081,5.781Zm4.625,14.353l-8.894,-15.506l15.509,-8.897l8.894,15.512l-15.509,8.891Z" style="fill-rule:nonzero;"/><path d="M338.131,956.622l-3.722,-4.741l4.738,-3.725l3.725,4.741l-4.741,3.725Z" style="fill-rule:nonzero;"/><path d="M462.638,964.656l6.225,5.119l5.121,-6.228l-6.228,-5.119l-5.118,6.228Zm6.656,9.519l-11.057,-9.091l9.088,-11.056l11.056,9.091l-9.087,11.056Z" style="fill-rule:nonzero;"/><path d="M396,1007.9l2.469,1.422l1.422,-2.469l-2.469,-1.422l-1.422,2.469Zm3.616,5.691l-7.882,-4.544l4.538,-7.881l7.884,4.54l-4.54,7.885Z" style="fill-rule:nonzero;"/><path d="M455.291,990.591l-5.144,-2.088l2.084,-5.141l5.144,2.088l-2.084,5.141Z" style="fill-rule:nonzero;"/><path d="M556.866,935.387l10.853,2.007l2.009,-10.857l-10.856,-2.003l-2.006,10.853Zm13.359,5.65l-17.003,-3.146l3.144,-17.004l17.003,3.147l-3.144,17.003Z" style="fill-rule:nonzero;"/><path d="M655.838,1069.65l6.562,0.069l0.066,-6.56l-6.563,-0.072l-0.065,6.563Zm9.653,3.222l-12.81,-0.128l0.131,-12.81l12.81,0.131l-0.131,12.807Z" style="fill-rule:nonzero;"/><path d="M720.784,956.044l2.144,12.487l12.485,-2.147l-2.144,-12.484l-12.485,2.144Zm-0.406,16.093l-3.2,-18.643l18.641,-3.2l3.203,18.64l-18.644,3.203Z" style="fill-rule:nonzero;"/><path d="M671.712,969.178l-1.665,-5.012l5.015,-1.666l1.666,5.009l-5.016,1.669Z" style="fill-rule:nonzero;"/><path d="M70.972,861.031l6.594,19.378l19.381,-6.593l-6.597,-19.375l-19.378,6.59Zm4.64,23.347l-8.603,-25.3l25.294,-8.606l8.606,25.297l-25.297,8.609Z" style="fill-rule:nonzero;"/><path d="M47.166,882.466l7.459,12.206l12.206,-7.46l-7.456,-12.209l-12.209,7.463Zm6.421,16.503l-10.718,-17.541l17.544,-10.722l10.715,17.544l-17.541,10.719Z" style="fill-rule:nonzero;"/><path d="M197.363,1065.33l17.806,9.578l9.575,-17.812l-17.81,-9.575l-9.571,17.809Zm19.078,13.807l-23.313,-12.532l12.535,-23.315l23.312,12.537l-12.534,23.31Z" style="fill-rule:nonzero;"/><path d="M395.103,1005.73l19.438,6.366l6.368,-19.438l-19.437,-6.369l-6.369,19.441Zm21.434,10.309l-25.378,-8.312l8.316,-25.378l25.378,8.315l-8.316,25.375Z" style="fill-rule:nonzero;"/><path d="M341.406,988.247l13.028,2.919l2.919,-13.025l-13.028,-2.919l-2.919,13.025Zm15.394,6.653l-19.125,-4.284l4.284,-19.129l19.125,4.285l-4.284,19.128Z" style="fill-rule:nonzero;"/><path d="M480.637,1108.78l20.666,7.584l7.588,-20.668l-20.669,-7.585l-7.585,20.669Zm22.525,11.594l-26.534,-9.738l9.734,-26.534l26.538,9.737l-9.738,26.535Z" style="fill-rule:nonzero;"/><path d="M574.712,1050.34l4.088,17.885l17.884,-4.088l-4.084,-17.881l-17.888,4.084Zm1.738,21.625l-5.478,-23.975l23.978,-5.478l5.475,23.975l-23.975,5.478Z" style="fill-rule:nonzero;"/><path d="M568.497,1172.76l4.319,12.819l12.818,-4.319l-4.318,-12.815l-12.819,4.315Zm2.353,16.778l-6.312,-18.743l18.743,-6.31l6.31,18.741l-18.741,6.312Z" style="fill-rule:nonzero;"/><path d="M649.081,1002.73l6.669,12.712l12.712,-6.665l-6.665,-12.716l-12.716,6.669Zm5.353,16.931l-9.568,-18.25l18.246,-9.565l9.569,18.246l-18.247,9.569Z" style="fill-rule:nonzero;"/><path d="M902.822,1043.55l7.312,17.153l17.153,-7.312l-7.315,-17.154l-17.15,7.313Zm5.666,21.253l-9.769,-22.9l22.9,-9.769l9.769,22.903l-22.9,9.766Z" style="fill-rule:nonzero;"/><path d="M954.875,1083.37l15.491,15.209l15.209,-15.487l-15.491,-15.21l-15.209,15.488Zm15.531,19.628l-19.95,-19.588l19.588,-19.947l19.95,19.585l-19.588,19.95Z" style="fill-rule:nonzero;"/><path d="M989.078,1050.13l10.766,6.163l6.162,-10.766l-10.765,-6.159l-6.163,10.762Zm11.925,10.428l-16.187,-9.269l9.265,-16.19l16.188,9.269l-9.266,16.19Z" style="fill-rule:nonzero;"/><path d="M1110.98,966.481l19.322,9.872l9.869,-19.322l-19.319,-9.869l-9.872,19.319Zm20.684,14.075l-24.887,-12.712l12.712,-24.888l24.888,12.713l-12.713,24.887Z" style="fill-rule:nonzero;"/><path d="M1052.55,908.916l19.703,5.071l5.072,-19.706l-19.703,-5.069l-5.072,19.704Zm21.953,8.875l-25.759,-6.629l6.628,-25.753l25.759,6.625l-6.628,25.757Z" style="fill-rule:nonzero;"/><path d="M1186.67,755.175l14.362,0.456l0.454,-14.365l-14.363,-0.457l-0.453,14.366Zm17.387,3.678l-20.612,-0.65l0.653,-20.616l20.612,0.65l-0.653,20.616Z" style="fill-rule:nonzero;"/><path d="M1252.56,650.881l3.978,17.635l17.631,-3.982l-3.978,-17.631l-17.631,3.978Zm1.615,21.369l-5.353,-23.731l23.731,-5.353l5.35,23.731l-23.728,5.353Z" style="fill-rule:nonzero;"/><path d="M992.163,547.156l6.918,18.231l18.228,-6.915l-6.915,-18.231l-18.231,6.915Zm5.103,22.263l-9.135,-24.075l24.075,-9.135l9.138,24.075l-24.078,9.135Z" style="fill-rule:nonzero;"/><path d="M1028.73,392.991l5.297,19.968l19.972,-5.297l-5.3,-19.971l-19.969,5.3Zm3.078,23.79l-6.9,-26.009l26.01,-6.9l6.903,26.009l-26.013,6.9Z" style="fill-rule:nonzero;"/><path d="M1133.11,388.497l11.41,17.284l17.284,-11.409l-11.409,-17.285l-17.285,11.41Zm10.525,21.612l-14.853,-22.497l22.497,-14.853l14.853,22.497l-22.497,14.853Z" style="fill-rule:nonzero;"/><path d="M1044.89,141.641l5.875,9.737l9.737,-5.878l-5.878,-9.737l-9.734,5.878Zm4.815,14.028l-9.109,-15.091l15.087,-9.106l9.11,15.09l-15.088,9.107Z" style="fill-rule:nonzero;"/><path d="M801.297,202.238l16.728,13.743l13.744,-16.728l-16.728,-13.744l-13.744,16.729Zm17.159,18.14l-21.556,-17.712l17.712,-21.554l21.554,17.71l-17.71,21.556Z" style="fill-rule:nonzero;"/><path d="M861.687,125.644l19.716,8.268l8.269,-19.715l-19.716,-8.269l-8.269,19.716Zm21.388,12.359l-25.478,-10.684l10.687,-25.478l25.478,10.684l-10.687,25.478Z" style="fill-rule:nonzero;"/><path d="M803.744,21.956l17.868,7.444l7.444,-17.869l-17.869,-7.444l-7.443,17.869Zm19.55,11.528l-23.638,-9.847l9.85,-23.637l23.635,9.847l-9.847,23.637Z" style="fill-rule:nonzero;"/><path d="M670.503,142.806l20.925,8.938l8.938,-20.925l-20.925,-8.938l-8.938,20.925Zm22.572,13.041l-26.675,-11.394l11.394,-26.675l26.675,11.394l-11.394,26.675Z" style="fill-rule:nonzero;"/><path d="M620.159,52.856l1.857,11.569l11.565,-1.856l-1.856,-11.566l-11.566,1.853Zm-0.734,15.15l-2.847,-17.74l17.738,-2.844l2.846,17.737l-17.737,2.847Z" style="fill-rule:nonzero;"/><path d="M619.687,39.722l2.616,11.128l11.128,-2.616l-2.615,-11.128l-11.129,2.616Zm0.288,14.884l-4.044,-17.212l17.213,-4.044l4.043,17.216l-17.212,4.04Z" style="fill-rule:nonzero;"/><path d="M467.869,165.731l3.425,12.566l12.565,-3.428l-3.425,-12.566l-12.565,3.428Zm1.231,16.4l-5.069,-18.597l18.597,-5.065l5.066,18.597l-18.594,5.065Z" style="fill-rule:nonzero;"/><path d="M247.119,266.191l9.965,17.706l17.707,-9.963l-9.963,-17.706l-17.709,9.963Zm8.775,21.962l-13.031,-23.153l23.156,-13.031l13.028,23.153l-23.153,13.031Z" style="fill-rule:nonzero;"/><path d="M176.325,316.747l8.847,9.194l9.194,-8.844l-8.847,-9.197l-9.194,8.847Zm8.759,13.612l-13.178,-13.7l13.7,-13.178l13.181,13.7l-13.703,13.178Z" style="fill-rule:nonzero;"/><path d="M176.072,361.984l8.322,6.75l6.75,-8.325l-8.322,-6.75l-6.75,8.325Zm8.781,11.144l-13.178,-10.687l10.688,-13.175l13.174,10.687l-10.684,13.175Z" style="fill-rule:nonzero;"/><path d="M4.159,349.094l18.432,8.675l8.678,-18.432l-18.435,-8.675l-8.675,18.432Zm19.928,12.834l-24.087,-11.341l11.341,-24.084l24.087,11.338l-11.341,24.087Z" style="fill-rule:nonzero;"/><path d="M35.437,546.178l15.969,9.428l9.432,-15.969l-15.972,-9.431l-9.429,15.972Zm17.069,13.706l-21.35,-12.606l12.61,-21.35l21.35,12.606l-12.61,21.35Z" style="fill-rule:nonzero;"/><path d="M114.353,361.559l14.022,2.775l2.775,-14.018l-14.019,-2.782l-2.778,14.025Zm16.481,6.447l-20.153,-3.987l3.991,-20.153l20.15,3.987l-3.988,20.153Z" style="fill-rule:nonzero;"/><path d="M104.238,528.681l10.009,0.731l0.734,-10.015l-10.012,-0.728l-0.731,10.012Zm12.899,4.075l-16.246,-1.187l1.187,-16.247l16.247,1.187l-1.188,16.247Z" style="fill-rule:nonzero;"/><path d="M21.953,574.4l5.944,14.809l14.809,-5.943l-5.944,-14.81l-14.809,5.944Zm4.206,18.875l-8.272,-20.613l20.613,-8.271l8.272,20.612l-20.613,8.272Z" style="fill-rule:nonzero;"/><path d="M65.625,810.588l4.688,17.634l17.634,-4.685l-4.688,-17.637l-17.634,4.688Zm2.469,21.456l-6.291,-23.672l23.675,-6.294l6.291,23.675l-23.675,6.291Z" style="fill-rule:nonzero;"/></g></svg>