<?xml version="1.0" encoding="UTF-8" standalone="no"?><!DOCTYPE svg PUBLIC "-//W3C//DTD SVG 1.1//EN" "http://www.w3.org/Graphics/SVG/1.1/DTD/svg11.dtd"><svg width="100%" height="100%" viewBox="0 0 805 805" version="1.1" xmlns="http://www.w3.org/2000/svg" xmlns:xlink="http://www.w3.org/1999/xlink" xml:space="preserve" style="fill-rule:evenodd;clip-rule:evenodd;stroke-linejoin:round;stroke-miterlimit:1.41421;"><path d="M794.432,438.629c-1.747,1.744 -4.066,2.7 -6.537,2.7c-2.466,0 -4.785,-0.956 -6.529,-2.7c-3.603,-3.603 -3.603,-9.466 0,-13.066c3.6,-3.603 9.463,-3.603 13.066,0c1.8,1.797 2.7,4.163 2.7,6.532c0,2.362 -0.9,4.731 -2.7,6.534Zm-155.413,-30.578c-3.599,3.6 -9.459,3.6 -13.062,-0.003c-1.791,-1.788 -2.687,-4.141 -2.697,-6.494c0.01,-2.353 0.906,-4.703 2.697,-6.494c3.603,-3.6 9.463,-3.6 13.062,0c1.794,1.791 2.688,4.141 2.697,6.494c-0.009,2.353 -0.903,4.706 -2.697,6.497Zm142.347,-43.566c1.744,-1.747 4.063,-2.706 6.529,-2.706c2.471,0 4.79,0.959 6.537,2.706c1.8,1.8 2.7,4.166 2.7,6.531c0,2.366 -0.9,4.732 -2.7,6.532c-3.603,3.603 -9.466,3.603 -13.066,0c-3.603,-3.6 -3.603,-9.463 0,-13.063Zm-5.271,55.806c-2.407,2.407 -3.922,5.372 -4.544,8.491l-38.506,0l-27.225,-27.228l27.225,-27.222l38.506,0c0.622,3.109 2.137,6.078 4.544,8.488c6.509,6.506 17.099,6.506 23.606,0c6.509,-6.51 6.509,-17.1 0.003,-23.607c-3.153,-3.153 -7.347,-4.89 -11.809,-4.89c-4.454,0 -8.65,1.737 -11.8,4.89c-2.197,2.194 -3.629,4.857 -4.344,7.663l-41.797,0l-30.606,30.606l-50.685,0c-0.706,-2.847 -2.15,-5.547 -4.368,-7.769c-6.51,-6.509 -17.101,-6.509 -23.61,0c-3.253,3.253 -4.881,7.528 -4.881,11.803l0.003,0.038l-0.003,0.037c0,4.279 1.628,8.554 4.881,11.807c6.509,6.506 17.1,6.506 23.61,0c2.218,-2.222 3.662,-4.922 4.368,-7.775l50.685,0l30.606,30.609l41.797,0c0.715,2.813 2.147,5.469 4.344,7.663c3.15,3.153 7.346,4.89 11.8,4.89c4.462,0 8.656,-1.737 11.809,-4.89c6.506,-6.507 6.506,-17.094 -0.003,-23.604c-6.507,-6.509 -17.097,-6.509 -23.606,0Z" style="fill-rule:nonzero;"/></svg>