<?xml version="1.0" encoding="UTF-8" standalone="no"?><!DOCTYPE svg PUBLIC "-//W3C//DTD SVG 1.1//EN" "http://www.w3.org/Graphics/SVG/1.1/DTD/svg11.dtd"><svg width="100%" height="100%" viewBox="0 0 805 805" version="1.1" xmlns="http://www.w3.org/2000/svg" xmlns:xlink="http://www.w3.org/1999/xlink" xml:space="preserve" style="fill-rule:evenodd;clip-rule:evenodd;stroke-linejoin:round;stroke-miterlimit:1.41421;"><path d="M439.288,794.429c-1.8,1.803 -4.165,2.703 -6.531,2.703c-2.366,0 -4.731,-0.9 -6.534,-2.703c-3.6,-3.6 -3.6,-9.459 0,-13.063c3.603,-3.603 9.462,-3.603 13.065,0c1.744,1.744 2.706,4.063 2.706,6.535c0,2.465 -0.962,4.784 -2.706,6.528Zm-31.162,-168.472c3.603,3.603 3.603,9.463 0,13.066c-1.725,1.725 -3.975,2.6 -6.241,2.668c-2.266,-0.068 -4.512,-0.943 -6.237,-2.668c-3.603,-3.603 -3.603,-9.463 0,-13.066c1.725,-1.725 3.971,-2.603 6.237,-2.672c2.266,0.069 4.516,0.947 6.241,2.672Zm-30.578,168.472c-1.8,1.803 -4.166,2.703 -6.532,2.703c-2.365,0 -4.731,-0.9 -6.531,-2.703c-1.747,-1.744 -2.706,-4.063 -2.706,-6.528c0,-2.472 0.959,-4.791 2.706,-6.535c3.6,-3.603 9.463,-3.603 13.063,0c3.603,3.604 3.603,9.463 0,13.063Zm67.012,-18.334c-2.197,-2.194 -4.856,-3.629 -7.665,-4.341l0,-41.797l-31.269,-31.272l0,-49.878c3.065,-0.644 5.981,-2.141 8.356,-4.516c6.506,-6.509 6.506,-17.097 0,-23.606c-3.253,-3.253 -7.528,-4.881 -11.803,-4.881l-0.294,0.016l-0.29,-0.016c-4.279,0 -8.551,1.628 -11.804,4.881c-6.509,6.509 -6.509,17.097 0,23.606c2.372,2.375 5.291,3.872 8.357,4.516l0,49.878l-31.272,31.272l0,41.797c-2.81,0.712 -5.469,2.147 -7.663,4.341c-3.153,3.153 -4.887,7.346 -4.887,11.806c0,4.456 1.734,8.647 4.887,11.803c6.507,6.506 17.097,6.506 23.607,-0.003c6.506,-6.506 6.506,-17.097 0,-23.606c-2.41,-2.407 -5.375,-3.919 -8.491,-4.544l0,-38.506l27.556,-27.56l27.556,27.56l0,38.506c-3.112,0.625 -6.081,2.137 -8.487,4.544l-0.003,0c-6.506,6.509 -6.506,17.1 0.003,23.606c6.506,6.509 17.1,6.509 23.606,0.003c3.15,-3.156 4.888,-7.347 4.888,-11.803c0,-4.46 -1.738,-8.653 -4.888,-11.806Z" style="fill-rule:nonzero;"/></svg>