<?xml version="1.0" encoding="UTF-8" standalone="no"?><!DOCTYPE svg PUBLIC "-//W3C//DTD SVG 1.1//EN" "http://www.w3.org/Graphics/SVG/1.1/DTD/svg11.dtd"><svg width="100%" height="100%" viewBox="0 0 805 805" version="1.1" xmlns="http://www.w3.org/2000/svg" xmlns:xlink="http://www.w3.org/1999/xlink" xml:space="preserve" style="fill-rule:evenodd;clip-rule:evenodd;stroke-linejoin:round;stroke-miterlimit:1.41421;"><path d="M172.095,471.513c-5.094,0 -9.238,-4.143 -9.238,-9.237c0,-5.094 4.144,-9.238 9.238,-9.238c5.093,0 9.237,4.144 9.237,9.238c0,5.094 -4.144,9.237 -9.237,9.237Zm-53.697,185.86c-3.603,3.6 -9.466,3.6 -13.066,0c-1.803,-1.8 -2.7,-4.169 -2.7,-6.535c0,-2.365 0.897,-4.731 2.7,-6.531c3.6,-3.603 9.463,-3.603 13.063,0c3.603,3.603 3.603,9.466 0.003,13.066Zm-76.585,-102.416c-5.093,0 -9.237,-4.147 -9.237,-9.241c0,-5.09 4.144,-9.237 9.237,-9.237c5.097,0 9.241,4.147 9.241,9.237c0,5.094 -4.144,9.241 -9.241,9.241Zm146.972,-92.681c0,-9.203 -7.487,-16.691 -16.69,-16.691c-7.922,0 -14.56,5.553 -16.26,12.966l-32.512,0l-72.894,72.894c-2.519,-1.525 -5.463,-2.419 -8.616,-2.419c-9.203,0 -16.69,7.487 -16.69,16.69c0,9.204 7.487,16.691 16.69,16.691c9.203,0 16.694,-7.487 16.694,-16.691c0,-3.356 -1.003,-6.475 -2.716,-9.096l70.619,-70.616l29.425,0c1.503,6.544 6.856,11.622 13.544,12.725l-0.356,0l0,53.394l-60.775,60.772l0,41.668c-3.003,0.663 -5.86,2.144 -8.188,4.475c-6.506,6.507 -6.506,17.094 0,23.607c6.506,6.506 17.097,6.506 23.606,0c3.257,-3.257 4.882,-7.532 4.882,-11.807c0,-4.272 -1.628,-8.547 -4.878,-11.8l-0.004,-0.003c-2.271,-2.272 -5.043,-3.731 -7.965,-4.415l0,-38.638l60.775,-60.772l0,-56.481l-1.669,0c7.916,-1.303 13.978,-8.175 13.978,-16.453Z" style="fill-rule:nonzero;"/></svg>