<?xml version="1.0" encoding="UTF-8" standalone="no"?><!DOCTYPE svg PUBLIC "-//W3C//DTD SVG 1.1//EN" "http://www.w3.org/Graphics/SVG/1.1/DTD/svg11.dtd"><svg width="100%" height="100%" viewBox="0 0 805 805" version="1.1" xmlns="http://www.w3.org/2000/svg" xmlns:xlink="http://www.w3.org/1999/xlink" xml:space="preserve" style="fill-rule:evenodd;clip-rule:evenodd;stroke-linejoin:round;stroke-miterlimit:1.41421;"><path d="M178.626,408.126c-3.6,3.603 -9.463,3.603 -13.066,0c-1.722,-1.728 -2.6,-3.972 -2.672,-6.241c0.072,-2.265 0.95,-4.512 2.672,-6.237c3.603,-3.604 9.466,-3.604 13.066,0c1.725,1.725 2.6,3.972 2.672,6.237c-0.072,2.269 -0.947,4.513 -2.672,6.241Zm-155.41,31.162c-1.743,1.744 -4.065,2.707 -6.531,2.707c-2.469,0 -4.787,-0.963 -6.534,-2.707c-1.8,-1.8 -2.7,-4.162 -2.7,-6.534c0,-2.366 0.9,-4.728 2.7,-6.531c3.603,-3.597 9.462,-3.597 13.065,0c3.604,3.603 3.6,9.468 0,13.065Zm0,-61.74c-3.603,3.603 -9.462,3.603 -13.065,0c-1.8,-1.8 -2.7,-4.166 -2.7,-6.532c0,-2.365 0.9,-4.731 2.7,-6.531c1.747,-1.747 4.065,-2.706 6.534,-2.706c2.466,0 4.788,0.959 6.531,2.706c3.6,3.6 3.604,9.463 0,13.063Zm165.56,24.043c0,-4.275 -1.625,-8.546 -4.878,-11.8c-6.51,-6.509 -17.1,-6.509 -23.607,0c-2.375,2.372 -3.871,5.291 -4.512,8.357l-49.881,0l-31.269,-31.272l-41.797,0c-0.716,-2.806 -2.15,-5.469 -4.344,-7.663c-3.153,-3.153 -7.347,-4.89 -11.803,-4.89c-4.459,0 -8.65,1.737 -11.803,4.89c-6.509,6.507 -6.509,17.097 0,23.607c6.506,6.506 17.097,6.506 23.606,0c2.41,-2.41 3.919,-5.379 4.544,-8.488l38.506,0l27.556,27.553l-27.556,27.556l-38.506,0c-0.625,-3.112 -2.134,-6.081 -4.544,-8.487c-6.509,-6.506 -17.1,-6.506 -23.606,0c-6.509,6.509 -6.509,17.097 0,23.603c3.153,3.153 7.344,4.891 11.803,4.891c4.456,0 8.65,-1.738 11.803,-4.891c2.194,-2.194 3.628,-4.853 4.344,-7.662l41.797,0l31.269,-31.272l49.881,0c0.641,3.065 2.137,5.984 4.512,8.359c6.507,6.506 17.097,6.506 23.607,0c3.253,-3.253 4.878,-7.528 4.878,-11.803l-0.013,-0.294l0.013,-0.294Z" style="fill-rule:nonzero;"/></svg>