<?xml version="1.0" encoding="UTF-8" standalone="no"?><!DOCTYPE svg PUBLIC "-//W3C//DTD SVG 1.1//EN" "http://www.w3.org/Graphics/SVG/1.1/DTD/svg11.dtd"><svg width="100%" height="100%" viewBox="0 0 805 805" version="1.1" xmlns="http://www.w3.org/2000/svg" xmlns:xlink="http://www.w3.org/1999/xlink" xml:space="preserve" style="fill-rule:evenodd;clip-rule:evenodd;stroke-linejoin:round;stroke-miterlimit:1.41421;"><path d="M172.095,348.648c-5.094,0 -9.238,-4.144 -9.238,-9.238c0,-5.091 4.144,-9.237 9.238,-9.237c5.093,0 9.237,4.146 9.237,9.237c0,5.094 -4.144,9.238 -9.237,9.238Zm-139.519,-92.21c0,-5.094 4.144,-9.237 9.237,-9.237c5.097,0 9.241,4.143 9.241,9.237c0,5.094 -4.144,9.238 -9.241,9.238c-5.093,0 -9.237,-4.144 -9.237,-9.238Zm70.056,-102.693c0,-2.366 0.897,-4.732 2.7,-6.535c3.6,-3.6 9.463,-3.6 13.066,0.003c3.6,3.597 3.6,9.46 -0.003,13.063c-3.6,3.603 -9.463,3.603 -13.063,0c-1.803,-1.8 -2.7,-4.169 -2.7,-6.531Zm73.844,169.578l0,-53.95l-60.775,-60.775l0,-38.635c2.922,-0.684 5.694,-2.144 7.965,-4.415l0.004,0c3.25,-3.257 4.878,-7.528 4.878,-11.803c0,-4.276 -1.625,-8.55 -4.882,-11.804c-6.509,-6.509 -17.1,-6.509 -23.606,0c-6.506,6.507 -6.506,17.097 0,23.607c2.328,2.328 5.185,3.809 8.188,4.472l0,41.665l60.775,60.775l0,50.556c-6.682,1.25 -11.972,6.482 -13.297,13.135l-29.316,0l-70.619,-70.619c1.713,-2.619 2.716,-5.741 2.716,-9.094c0,-9.203 -7.491,-16.694 -16.694,-16.694c-9.203,0 -16.69,7.491 -16.69,16.694c0,9.203 7.487,16.691 16.69,16.691c3.153,0 6.097,-0.894 8.616,-2.419l72.894,72.894l32.634,0c1.866,7.178 8.384,12.5 16.138,12.5c9.203,0 16.69,-7.488 16.69,-16.694c0,-7.684 -5.228,-14.156 -12.309,-16.087Z" style="fill-rule:nonzero;"/></svg>