<?xml version="1.0" encoding="UTF-8" standalone="no"?><!DOCTYPE svg PUBLIC "-//W3C//DTD SVG 1.1//EN" "http://www.w3.org/Graphics/SVG/1.1/DTD/svg11.dtd"><svg width="100%" height="100%" viewBox="0 0 1844 1398" version="1.1" xmlns="http://www.w3.org/2000/svg" xmlns:xlink="http://www.w3.org/1999/xlink" xml:space="preserve" style="fill-rule:evenodd;clip-rule:evenodd;stroke-linejoin:round;stroke-miterlimit:1.41421;"><g id="Layer10"><path d="M795.266,1019.62c-1.557,-0.613 -3.097,-1.234 -4.644,-1.869l0.537,-1.262l-1.54,-0.653l-0.544,1.278c-3.222,-1.341 -6.412,-2.725 -9.581,-4.157l0.047,-0.1l-1.513,-0.703l-0.053,0.113c-3.172,-1.453 -6.316,-2.95 -9.431,-4.491l3.106,-6.1c8.45,4.175 17.112,8.019 25.959,11.507l-2.343,6.437Zm-28.222,-12.591c-10.388,-5.2 -20.469,-10.903 -30.206,-17.075l3.728,-5.74c9.537,6.04 19.409,11.622 29.584,16.715l-3.106,6.1Zm-31.613,-17.968c-2.94,-1.885 -5.847,-3.81 -8.728,-5.782l3.925,-5.606c2.813,1.922 5.66,3.806 8.531,5.647l-3.728,5.741Zm-10.103,-6.728c-2.872,-1.985 -5.709,-4.013 -8.519,-6.082l4.119,-5.465c2.744,2.022 5.516,4 8.325,5.94l-3.925,5.607Zm-9.862,-7.079c-2.803,-2.087 -5.569,-4.212 -8.304,-6.384l4.31,-5.316c2.672,2.119 5.372,4.194 8.109,6.235l-4.115,5.465Zm-9.603,-7.421c-2.729,-2.185 -5.416,-4.407 -8.076,-6.672l3.213,-3.697l-1.263,-1.097l-3.218,3.703c-2.653,-2.281 -5.26,-4.597 -7.838,-6.956l4.669,-5.007c5.444,4.985 11.05,9.788 16.819,14.41l-4.306,5.316Zm-18.41,-15.85c-2.569,-2.375 -5.094,-4.785 -7.587,-7.235l4.84,-4.837c2.432,2.39 4.91,4.75 7.413,7.065l-4.666,5.007Zm-8.775,-8.407c-2.475,-2.456 -4.925,-4.965 -7.325,-7.497l5.003,-4.668c2.35,2.481 4.738,4.922 7.163,7.328l-4.841,4.837Zm-8.472,-8.712c-2.39,-2.547 -4.747,-5.135 -7.059,-7.757l5.162,-4.487c2.263,2.559 4.563,5.087 6.904,7.578l-5.007,4.666Zm-8.159,-9.006c-2.303,-2.635 -4.563,-5.297 -6.785,-8.004l5.319,-4.306c2.169,2.638 4.385,5.25 6.628,7.819l-5.162,4.491Zm-7.841,-9.297c-2.206,-2.71 -4.372,-5.454 -6.493,-8.235l5.465,-4.115c2.075,2.715 4.191,5.397 6.347,8.043l-5.319,4.307Zm-7.509,-9.566c-2.106,-2.784 -4.175,-5.612 -6.2,-8.463l5.606,-3.928c1.981,2.794 4,5.544 6.063,8.272l-5.469,4.119Zm-7.163,-9.825c-2.009,-2.862 -3.975,-5.753 -5.9,-8.678l5.741,-3.731c1.881,2.856 3.806,5.69 5.766,8.481l-5.607,3.928Zm-6.812,-10.078c-1.906,-2.925 -3.772,-5.891 -5.591,-8.881l5.613,-3.372l-0.86,-1.428l-5.615,3.375c-1.8,-2.997 -3.563,-6.025 -5.275,-9.079l5.987,-3.318c3.628,6.468 7.453,12.787 11.481,18.975l-5.74,3.728Zm-12.541,-20.844c-1.697,-3.059 -3.347,-6.14 -4.953,-9.259l6.1,-3.11c1.572,3.047 3.185,6.06 4.841,9.05l-5.988,3.319Zm-5.712,-10.744c-1.585,-3.109 -3.128,-6.256 -4.622,-9.425l6.206,-2.893c1.46,3.096 2.966,6.168 4.516,9.209l-6.1,3.109Zm-5.332,-10.937c-1.478,-3.172 -2.906,-6.36 -4.29,-9.585l6.306,-2.675c1.353,3.151 2.747,6.266 4.191,9.363l-6.207,2.897Zm-4.943,-11.116c-1.163,-2.743 -2.294,-5.509 -3.388,-8.29l6.438,-2.344c1.053,2.669 2.137,5.322 3.253,7.956l-6.303,2.678Z"/><path d="M1236.07,574.725c-0.863,-2.194 -1.747,-4.369 -2.657,-6.541l6.304,-2.675c0.953,2.275 1.884,4.569 2.793,6.872l-6.44,2.344Zm-3.307,-8.084c-1.303,-3.072 -2.65,-6.122 -4.04,-9.147l6.206,-2.894c1.422,3.097 2.803,6.222 4.138,9.366l-6.304,2.675Zm-4.74,-10.66c-1.406,-3.022 -2.859,-6.028 -4.347,-9l6.1,-3.106c1.528,3.044 3.013,6.116 4.453,9.213l-6.206,2.893Zm-5.103,-10.49c-1.51,-2.972 -3.066,-5.932 -4.656,-8.85l5.987,-3.319c1.631,2.99 3.222,6.012 4.772,9.059l-6.103,3.11Zm-5.463,-10.313c-1.612,-2.925 -3.265,-5.816 -4.962,-8.684l5.869,-3.528c1.737,2.937 3.431,5.9 5.084,8.893l-5.991,3.319Zm-5.812,-10.119c-9.747,-16.3 -20.81,-31.681 -33.057,-46.009l5.166,-4.487c9.944,11.628 19.119,23.934 27.466,36.856l-4.038,2.622l0.91,1.393l4.031,-2.615c1.837,2.878 3.634,5.781 5.387,8.715l-5.865,3.525Zm-34.147,-47.278c-7.272,-8.425 -14.966,-16.49 -23.035,-24.153l4.669,-5.003c8.244,7.822 16.1,16.059 23.532,24.666l-5.166,4.49Zm-24.247,-25.297c-2.431,-2.287 -4.903,-4.543 -7.403,-6.756l4.491,-5.165c2.556,2.265 5.09,4.575 7.578,6.915l-4.666,5.006Zm-8.656,-7.859c-2.51,-2.2 -5.06,-4.369 -7.635,-6.497l4.307,-5.319c2.637,2.179 5.25,4.4 7.818,6.65l-4.49,5.166Zm-8.928,-7.556c-5.6,-4.578 -11.36,-8.981 -17.26,-13.197l3.928,-5.606c2.788,1.99 5.541,4.021 8.266,6.093l-3.181,4.222l1.337,1.006l3.172,-4.212c2.716,2.084 5.397,4.209 8.044,6.375l-4.306,5.319Zm-18.619,-14.163c-2.731,-1.934 -5.485,-3.818 -8.275,-5.672l3.728,-5.74c2.856,1.893 5.678,3.828 8.472,5.803l-3.925,5.609Zm-9.669,-6.59c-2.791,-1.835 -5.622,-3.632 -8.475,-5.385l3.528,-5.869c2.922,1.797 5.813,3.635 8.675,5.513l-3.728,5.741Zm-9.897,-6.253c-2.853,-1.738 -5.744,-3.435 -8.656,-5.088l3.319,-5.991c2.984,1.697 5.937,3.432 8.865,5.21l-3.528,5.869Zm-10.109,-5.91c-9.691,-5.44 -19.684,-10.422 -29.96,-14.922l2.679,-6.306c6.812,2.984 13.512,6.178 20.078,9.572l-0.303,0.597l1.484,0.756l0.297,-0.584c3.047,1.59 6.056,3.222 9.044,4.9l-3.319,5.987Zm-31.488,-15.587c-3.068,-1.325 -6.168,-2.613 -9.287,-3.85l2.456,-6.397c3.191,1.268 6.369,2.587 9.509,3.944l-2.678,6.303Z"/><path d="M217.306,1290.54c-140.131,-164.956 -217.306,-375.116 -217.306,-591.766c0,-216.65 77.175,-426.812 217.306,-591.772l2.669,2.269c-139.591,164.325 -216.466,373.684 -216.466,589.503c0,215.819 76.875,425.175 216.466,589.5l-2.669,2.266Z"/><path d="M1626.01,1290.54l-2.668,-2.266c139.59,-164.325 216.468,-373.681 216.468,-589.5c0,-215.819 -76.878,-425.178 -216.468,-589.503l2.668,-2.269c140.132,164.96 217.303,375.122 217.303,591.772c0,216.65 -77.171,426.81 -217.303,591.766Z"/><path d="M455.462,1090.46c-3.087,-3.631 -6.121,-7.29 -9.115,-10.987l1.8,-1.466c2.981,3.684 6.009,7.334 9.081,10.95l-1.766,1.503Zm-10.946,-13.262c-8.319,-10.381 -16.266,-21 -23.85,-31.863l1.896,-1.334c7.55,10.812 15.472,21.397 23.754,31.734l-1.8,1.463Zm-25.513,-34.253c-3.5,-5.066 -6.912,-10.169 -10.253,-15.332l1.944,-1.265c3.322,5.134 6.725,10.222 10.206,15.262l-1.897,1.335Zm-11.828,-17.778c-3.312,-5.176 -6.553,-10.41 -9.703,-15.679l1.087,-0.656l-1.503,-2.494l-1.072,0.647c-3.128,-5.29 -6.175,-10.628 -9.14,-16.006l2.028,-1.128c6.369,11.559 13.112,22.906 20.247,34.05l-1.944,1.266Zm-21.731,-36.744c-2.941,-5.397 -5.794,-10.831 -8.566,-16.313l2.066,-1.059c2.756,5.453 5.603,10.872 8.528,16.244l-2.028,1.128Zm-9.872,-18.913c-2.747,-5.493 -5.409,-11.031 -7.988,-16.6l2.103,-0.987c2.563,5.544 5.216,11.065 7.947,16.531l-2.062,1.056Zm-9.206,-19.256c-2.55,-5.581 -5.013,-11.203 -7.391,-16.859l2.134,-0.913c2.366,5.628 4.822,11.235 7.357,16.788l-2.1,0.984Zm-8.513,-19.547c-2.353,-5.675 -4.612,-11.369 -6.794,-17.112l2.166,-0.835c2.169,5.713 4.422,11.391 6.763,17.035l-2.135,0.912Zm-7.819,-19.837c-2.15,-5.747 -4.212,-11.525 -6.187,-17.335l2.194,-0.759c1.965,5.784 4.015,11.534 6.156,17.256l-2.163,0.838Zm-7.118,-20.094c-4.194,-12.547 -7.982,-25.228 -11.35,-38.034l2.24,-0.607c3.353,12.75 7.125,25.391 11.303,37.878l-2.193,0.763Zm-12.085,-40.856c-1.531,-5.932 -2.972,-11.891 -4.325,-17.869l2.26,-0.528c1.346,5.956 2.781,11.884 4.303,17.79l-2.238,0.607Zm-4.959,-20.716c-1.319,-5.978 -2.55,-11.978 -3.691,-18l2.278,-0.447c1.132,5.988 2.36,11.975 3.672,17.922l-2.259,0.525Zm-4.225,-20.863c-1.11,-6.018 -2.128,-12.062 -3.053,-18.118l2.29,-0.369c0.922,6.034 1.935,12.044 3.041,18.041l-2.278,0.446Zm-3.488,-20.996c-0.897,-6.053 -1.7,-12.113 -2.415,-18.203l2.303,-0.288c0.709,6.056 1.512,12.1 2.403,18.125l-2.291,0.366Zm-2.747,-21.104c-0.681,-6.065 -1.275,-12.165 -1.771,-18.262l2.309,-0.206c0.497,6.072 1.084,12.137 1.763,18.181l-2.301,0.287Zm-2.003,-21.171c-0.468,-6.091 -0.843,-12.191 -1.128,-18.307l2.316,-0.128c0.284,6.097 0.656,12.16 1.125,18.228l-2.313,0.207Zm-1.256,-21.216c-0.253,-6.1 -0.412,-12.219 -0.481,-18.337l2.319,-0.047c0.068,6.096 0.228,12.181 0.481,18.262l-2.319,0.122Zm-0.506,-21.253c-0.009,-1.278 -0.013,-2.544 -0.013,-3.822c0,-4.838 0.057,-9.678 0.172,-14.506l2.322,0.034c-0.115,4.819 -0.175,9.644 -0.175,14.472c0,1.256 0.003,2.522 0.013,3.778l-2.319,0.044Zm2.556,-21.209l-2.319,-0.035c0.178,-6.119 0.447,-12.209 0.807,-18.306l2.318,0.116c-0.362,6.065 -0.628,12.14 -0.806,18.225Zm0.984,-21.132l-2.318,-0.115c0.393,-6.104 0.875,-12.182 1.45,-18.257l2.312,0.197c-0.575,6.053 -1.053,12.097 -1.444,18.175Zm1.725,-21.078l-2.312,-0.197c0.603,-6.072 1.3,-12.147 2.088,-18.187l2.303,0.278c-0.785,6.019 -1.479,12.056 -2.079,18.106Zm2.463,-21l-2.303,-0.278c1.762,-13.066 3.953,-26.053 6.556,-38.944l2.278,0.438c-2.594,12.831 -4.775,25.778 -6.531,38.784Zm7.116,-41.634l-2.279,-0.438c1.235,-5.962 2.566,-11.925 3.979,-17.843l2.262,0.518c-1.409,5.894 -2.731,11.822 -3.962,17.763Zm4.646,-20.6l-2.262,-0.516c1.444,-5.919 2.975,-11.816 4.597,-17.684l2.241,0.597c-1.613,5.847 -3.138,11.709 -4.576,17.603Zm5.36,-20.413l-2.241,-0.597c1.647,-5.859 3.385,-11.696 5.206,-17.503l2.222,0.675c-1.818,5.782 -3.543,11.588 -5.187,17.425Zm6.066,-20.203l-2.219,-0.672c1.85,-5.797 3.79,-11.568 5.812,-17.303l2.197,0.75c-2.016,5.706 -3.95,11.459 -5.79,17.225Zm6.765,-19.969l-2.194,-0.75c2.05,-5.728 4.188,-11.422 6.413,-17.084l2.165,0.825c-2.215,5.641 -4.34,11.303 -6.384,17.009Zm7.456,-19.718l-2.168,-0.828c2.25,-5.644 4.584,-11.263 7,-16.835l2.137,0.9c-2.406,5.553 -4.731,11.141 -6.969,16.763Zm8.135,-19.432l-2.138,-0.903c5.275,-12.009 10.935,-23.844 16.988,-35.5l2.068,1.05c-6.024,11.603 -11.668,23.397 -16.918,35.353Zm18.265,-37.934l-2.068,-1.05c2.818,-5.369 5.725,-10.703 8.709,-15.991l2.031,1.119c-2.968,5.26 -5.865,10.581 -8.672,15.922Zm10.11,-18.459l-2.031,-1.119c3.006,-5.269 6.093,-10.491 9.259,-15.672l1.99,1.191c-3.156,5.159 -6.224,10.353 -9.218,15.6Zm10.74,-18.082l-1.99,-1.19c3.184,-5.15 6.456,-10.272 9.797,-15.335l1.95,1.26c-3.329,5.044 -6.585,10.134 -9.757,15.265Zm11.366,-17.687l-1.95,-1.259c3.362,-5.038 6.803,-10.029 10.319,-14.972l1.903,1.328c-3.503,4.922 -6.925,9.884 -10.272,14.903Zm11.966,-17.272l-1.903,-1.328c3.534,-4.913 7.146,-9.781 10.831,-14.594l1.856,1.391c-3.672,4.797 -7.266,9.634 -10.784,14.531Zm12.565,-16.844l-1.856,-1.39c3.7,-4.785 7.475,-9.516 11.325,-14.197l1.806,1.456c-3.831,4.656 -7.597,9.372 -11.275,14.131Zm13.135,-16.381l-1.807,-1.453c1.391,-1.675 2.794,-3.341 4.203,-5l1.766,1.5c-1.397,1.647 -2.784,3.294 -4.162,4.953Z"/><path d="M1387.85,1090.46l-1.766,-1.503c3.254,-3.828 6.45,-7.687 9.6,-11.591l1.803,1.457c-3.162,3.915 -6.371,7.794 -9.637,11.637Zm11.459,-13.906l-1.806,-1.453c3.841,-4.806 7.606,-9.669 11.291,-14.581l1.856,1.39c-3.7,4.932 -7.484,9.819 -11.341,14.644Zm13.088,-16.984l-1.856,-1.391c3.668,-4.944 7.256,-9.931 10.765,-14.972l1.9,1.325c-3.522,5.063 -7.128,10.078 -10.809,15.038Zm12.469,-17.432l-1.903,-1.328c3.493,-5.072 6.896,-10.175 10.228,-15.347l1.947,1.26c-3.344,5.19 -6.766,10.322 -10.272,15.415Zm11.843,-17.865l-1.947,-1.26c3.304,-5.184 6.529,-10.418 9.672,-15.693l1.991,1.19c-3.156,5.297 -6.397,10.557 -9.716,15.763Zm11.197,-18.269l-1.99,-1.187c3.118,-5.301 6.159,-10.644 9.109,-16.032l2.031,1.122c-2.969,5.413 -6.012,10.772 -9.15,16.097Zm10.544,-18.653l-2.031,-1.119c2.931,-5.406 5.772,-10.844 8.534,-16.334l2.069,1.05c-2.772,5.509 -5.628,10.978 -8.572,16.403Zm9.878,-19.016l-2.069,-1.05c2.735,-5.5 5.382,-11.04 7.947,-16.618l2.103,0.975c-2.571,5.599 -5.234,11.168 -7.981,16.693Zm9.191,-19.34l-2.103,-0.975c2.537,-5.591 4.987,-11.222 7.353,-16.888l2.137,0.903c-2.378,5.694 -4.837,11.341 -7.387,16.96Zm8.506,-19.66l-2.137,-0.9c2.34,-5.684 4.587,-11.387 6.753,-17.137l2.168,0.825c-2.172,5.765 -4.437,11.515 -6.784,17.212Zm7.803,-19.94l-2.166,-0.828c2.135,-5.754 4.179,-11.535 6.138,-17.35l2.197,0.75c-1.969,5.837 -4.025,11.653 -6.169,17.428Zm7.091,-20.191l-2.197,-0.75c1.931,-5.825 3.772,-11.678 5.525,-17.562l2.222,0.675c-1.76,5.906 -3.613,11.79 -5.55,17.637Zm6.375,-20.431l-2.222,-0.675c1.722,-5.885 3.356,-11.797 4.9,-17.735l2.241,0.597c-1.551,5.969 -3.188,11.897 -4.919,17.813Zm5.647,-20.638l-2.244,-0.597c1.512,-5.937 2.934,-11.896 4.269,-17.881l2.259,0.516c-1.338,6.019 -2.763,11.994 -4.284,17.962Zm4.915,-20.818l-2.262,-0.516c2.806,-12.913 5.19,-25.922 7.15,-39.025l2.293,0.359c-0.912,6.088 -1.912,12.163 -3.006,18.21l-0.69,-0.132l-0.541,2.869l0.703,0.134c-1.125,6.06 -2.34,12.085 -3.647,18.101Zm7.607,-42.072l-2.294,-0.357c0.875,-6.053 1.659,-12.131 2.35,-18.218l2.303,0.278c-0.694,6.109 -1.481,12.222 -2.359,18.297Zm2.681,-21.197l-2.303,-0.278c0.659,-6.085 1.228,-12.179 1.703,-18.288l2.312,0.197c-0.478,6.144 -1.047,12.253 -1.712,18.369Zm1.931,-21.269l-2.313,-0.197c0.447,-6.106 0.801,-12.209 1.06,-18.337l2.315,0.115c-0.259,6.153 -0.615,12.291 -1.062,18.419Zm1.181,-21.334l-2.318,-0.116c0.228,-6.106 0.365,-12.219 0.406,-18.344l2.322,0.035c-0.044,6.15 -0.182,12.297 -0.41,18.425Zm0.422,-21.338l-2.319,-0.034c0,-0.428 0,-0.866 0,-1.294c0,-5.691 -0.081,-11.378 -0.24,-17.056l2.319,-0.044c0.162,5.691 0.243,11.394 0.243,17.1c0,0.447 0,0.881 -0.003,1.328Zm-2.65,-21.297c-0.203,-6.109 -0.5,-12.218 -0.887,-18.306l2.318,-0.128c0.388,6.122 0.685,12.247 0.891,18.387l-2.322,0.047Zm-1.081,-21.218c-0.419,-6.1 -0.928,-12.194 -1.531,-18.269l2.309,-0.207c0.606,6.107 1.119,12.216 1.541,18.347l-2.319,0.129Zm-1.825,-21.163c-1.369,-13.138 -3.166,-26.187 -5.385,-39.166l2.291,-0.368c1.031,6.034 1.975,12.093 2.822,18.165l-1.003,0.125l0.362,2.897l1.041,-0.128c0.819,6.078 1.547,12.156 2.181,18.266l-2.309,0.209Zm-5.884,-42.044c-1.057,-6.006 -2.207,-12.009 -3.444,-17.975l2.275,-0.447c1.244,5.997 2.4,12.016 3.459,18.054l-2.29,0.368Zm-4.044,-20.828c-1.269,-5.969 -2.625,-11.906 -4.072,-17.825l2.259,-0.528c1.453,5.944 2.816,11.916 4.091,17.903l-2.278,0.45Zm-4.772,-20.665c-1.475,-5.913 -3.041,-11.804 -4.691,-17.663l2.238,-0.606c1.659,5.884 3.231,11.806 4.712,17.74l-2.259,0.529Zm-5.491,-20.469c-1.681,-5.863 -3.45,-11.678 -5.306,-17.485l2.216,-0.681c1.865,5.825 3.64,11.678 5.331,17.559l-2.241,0.607Zm-6.203,-20.257c-1.884,-5.787 -3.856,-11.553 -5.912,-17.278l2.19,-0.759c2.069,5.756 4.047,11.538 5.941,17.353l-2.219,0.684Zm-6.906,-20.018c-2.084,-5.716 -4.256,-11.403 -6.513,-17.053l2.163,-0.835c2.269,5.681 4.447,11.381 6.544,17.128l-2.194,0.76Zm-7.6,-19.76c-4.928,-12.165 -10.253,-24.175 -15.969,-36.003l2.1,-0.984c2.656,5.497 5.231,11.044 7.719,16.616l-0.288,0.121l1.15,2.685l0.322,-0.138c2.46,5.585 4.838,11.213 7.128,16.869l-2.162,0.834Zm-17.241,-38.621c-2.669,-5.457 -5.415,-10.866 -8.25,-16.241l2.066,-1.059c2.844,5.4 5.606,10.837 8.284,16.315l-2.1,0.985Zm-9.619,-18.826c-2.853,-5.346 -5.79,-10.662 -8.806,-15.928l2.025,-1.128c3.032,5.291 5.978,10.622 8.847,16l-2.066,1.056Zm-10.259,-18.453c-3.041,-5.25 -6.162,-10.456 -9.365,-15.618l1.984,-1.2c3.216,5.184 6.353,10.418 9.406,15.69l-2.025,1.128Zm-10.906,-18.087c-6.941,-11.075 -14.263,-21.947 -21.941,-32.581l1.897,-1.332c7.713,10.679 15.056,21.591 22.031,32.713l-1.987,1.2Zm-23.65,-34.938c-3.569,-4.89 -7.2,-9.715 -10.925,-14.509l1.85,-1.397c3.731,4.803 7.394,9.669 10.972,14.575l-1.897,1.331Zm-12.722,-16.809c-3.731,-4.756 -7.541,-9.466 -11.425,-14.116l1.8,-1.462c3.903,4.675 7.722,9.397 11.475,14.178l-1.85,1.4Zm-13.291,-16.341c-0.484,-0.572 -0.965,-1.14 -1.45,-1.712l1.766,-1.5c0.494,0.578 0.991,1.169 1.481,1.75l-1.797,1.462Z"/><rect x="919.897" y="21.606" width="3.537" height="33.416"/><path d="M277.903,700.55l-33.419,0l0.004,-3.534l33.415,0l0,3.534Z"/><path d="M919.897,1375.96l0,-33.416l3.537,0l0,33.412l-3.537,0.004Z"/><rect x="1565.43" y="697.016" width="33.416" height="3.534"/><path d="M1448.66,165.847c-0.429,0 -0.844,-0.044 -1.257,-0.131c-1.353,-0.294 -2.612,-1.025 -3.784,-2.194c-0.591,-0.591 -1.063,-1.213 -1.419,-1.863l0.738,-0.734c0.168,0.325 0.4,0.681 0.703,1.069c0.3,0.387 0.544,0.672 0.725,0.853c1.219,1.219 2.59,1.828 4.112,1.828c0.238,0 0.475,-0.016 0.719,-0.044c1.816,-0.222 3.744,-1.259 5.781,-3.115l-0.103,-0.103c-0.306,0.04 -0.606,0.062 -0.903,0.062c-0.634,0 -1.25,-0.097 -1.841,-0.291c-0.872,-0.281 -1.621,-0.737 -2.243,-1.359c-1.16,-1.156 -1.741,-2.378 -1.75,-3.662c-0.007,-1.288 0.572,-2.516 1.746,-3.691c1.254,-1.253 2.622,-1.91 4.107,-1.978c0.081,-0.003 0.159,-0.003 0.24,-0.003c1.388,0 2.616,0.534 3.688,1.606c0.819,0.819 1.322,1.753 1.506,2.797c0.184,1.047 0.031,2.153 -0.469,3.318c-0.496,1.166 -1.318,2.319 -2.456,3.457c-1.641,1.64 -3.228,2.8 -4.762,3.475c-1.072,0.469 -2.097,0.703 -3.078,0.703Zm5.678,-14.25c-0.078,0 -0.157,0.003 -0.238,0.006c-1.14,0.075 -2.237,0.638 -3.29,1.691c-0.991,0.994 -1.497,1.99 -1.513,3c-0.019,1.006 0.434,1.975 1.359,2.9c0.575,0.572 1.238,0.981 1.994,1.222c0.491,0.156 0.975,0.237 1.453,0.237c0.253,0 0.507,-0.025 0.756,-0.069c0.719,-0.131 1.297,-0.418 1.735,-0.856c0.665,-0.666 1.156,-1.422 1.475,-2.269c0.316,-0.843 0.4,-1.672 0.25,-2.475c-0.147,-0.803 -0.531,-1.515 -1.153,-2.137c-0.838,-0.834 -1.778,-1.25 -2.828,-1.25Z"/><path d="M1458.75,176.725c-1.278,0 -2.447,-0.528 -3.503,-1.584c-1.303,-1.304 -1.753,-2.835 -1.344,-4.6c0.406,-1.763 1.675,-3.713 3.806,-5.841c2.175,-2.178 4.116,-3.459 5.825,-3.847c0.385,-0.09 0.76,-0.134 1.128,-0.134c1.257,0 2.407,0.522 3.444,1.562c1.319,1.316 1.778,2.863 1.381,4.635c-0.397,1.775 -1.643,3.712 -3.746,5.815c-2.194,2.194 -4.154,3.482 -5.875,3.866c-0.382,0.084 -0.754,0.128 -1.116,0.128Zm6.081,-14.797c-0.406,0 -0.831,0.072 -1.269,0.216c-1.44,0.475 -3.087,1.634 -4.931,3.478c-1.937,1.937 -3.116,3.622 -3.534,5.053c-0.419,1.434 -0.11,2.669 0.919,3.697c0.753,0.753 1.596,1.128 2.531,1.128c0.403,0 0.822,-0.069 1.259,-0.209c1.447,-0.463 3.113,-1.635 4.988,-3.507c1.843,-1.846 3,-3.493 3.462,-4.943c0.466,-1.453 0.159,-2.713 -0.919,-3.791c-0.747,-0.747 -1.584,-1.122 -2.506,-1.122Z"/><path d="M904.578,106.359l-0.65,-0.806l3.388,-2.534l0.025,1.181c-0.588,0.459 -1.51,1.181 -2.763,2.159Z"/><path d="M920.503,119.069c-1.694,0 -3.175,-0.316 -4.437,-0.947l0,-1.128c0.64,0.331 1.356,0.593 2.153,0.784c0.79,0.191 1.54,0.288 2.237,0.288c1.681,0 2.944,-0.344 3.791,-1.022c0.84,-0.682 1.266,-1.641 1.266,-2.881c0,-1.104 -0.435,-1.951 -1.297,-2.544c-0.863,-0.591 -2.132,-0.888 -3.804,-0.888l-1.803,0l0,-1.097l1.825,0c1.385,0 2.485,-0.325 3.294,-0.984c0.806,-0.663 1.213,-1.553 1.213,-2.675c0,-0.931 -0.328,-1.672 -0.988,-2.231c-0.656,-0.56 -1.519,-0.838 -2.584,-0.838c-0.828,0 -1.585,0.113 -2.269,0.347c-0.684,0.228 -1.453,0.631 -2.303,1.191l-0.56,-0.763c0.647,-0.544 1.425,-0.965 2.341,-1.284c0.91,-0.313 1.834,-0.472 2.769,-0.472c1.537,0 2.725,0.366 3.559,1.091c0.838,0.722 1.256,1.75 1.256,3.071c0,1.035 -0.328,1.907 -0.974,2.613c-0.654,0.706 -1.522,1.159 -2.619,1.356l0,0.069c1.337,0.166 2.356,0.594 3.056,1.275c0.7,0.691 1.05,1.609 1.05,2.763c0,1.559 -0.531,2.768 -1.591,3.625c-1.062,0.853 -2.587,1.281 -4.581,1.281Z"/><path d="M934.191,119.069c-0.828,0 -1.616,-0.085 -2.363,-0.244c-0.744,-0.166 -1.366,-0.397 -1.869,-0.706l0,-1.172c0.822,0.415 1.553,0.706 2.191,0.872c0.641,0.162 1.319,0.247 2.044,0.247c1.456,0 2.628,-0.388 3.509,-1.157c0.884,-0.775 1.325,-1.818 1.325,-3.134c0,-1.238 -0.428,-2.209 -1.287,-2.919c-0.863,-0.709 -2.029,-1.059 -3.503,-1.059c-0.988,0 -2.022,0.144 -3.104,0.444l-0.684,-0.444l0.663,-7.634l8.028,0l0,1.096l-6.957,0l-0.512,5.885c1.184,-0.219 2.112,-0.328 2.781,-0.328c1.778,0 3.181,0.428 4.203,1.29c1.025,0.856 1.535,2.041 1.535,3.544c0,1.713 -0.532,3.044 -1.597,3.994c-1.066,0.95 -2.532,1.425 -4.403,1.425Z"/><path d="M341.537,717.681l-1.006,0l-4.628,-4.443c-1.294,-1.244 -2.284,-2.119 -2.965,-2.619c-0.688,-0.506 -1.341,-0.869 -1.963,-1.106c-0.625,-0.235 -1.278,-0.357 -1.962,-0.36c-0.997,0 -1.807,0.331 -2.429,0.985c-0.625,0.653 -0.937,1.499 -0.937,2.543c0,1.394 0.506,2.722 1.515,3.997l-0.784,0.609c-1.172,-1.384 -1.756,-2.934 -1.756,-4.628c0,-1.447 0.387,-2.593 1.162,-3.425c0.775,-0.831 1.844,-1.253 3.203,-1.253c1.104,0 2.172,0.281 3.2,0.838c1.032,0.565 2.307,1.584 3.819,3.069l4.391,4.271l0.044,0l0,-8.922l1.096,0.004l0,10.44Z"/><path d="M325.309,702.331c-0.459,-0.943 -0.687,-1.943 -0.69,-3.006c0.003,-1.453 0.387,-2.591 1.165,-3.428c0.775,-0.831 1.844,-1.247 3.203,-1.247l0.004,0c1.1,0 2.168,0.278 3.2,0.834c1.028,0.56 2.3,1.585 3.815,3.066l3.594,3.503l-1.431,0.025l-2.266,-2.172c-1.294,-1.247 -2.284,-2.122 -2.965,-2.622c-0.688,-0.503 -1.341,-0.868 -1.963,-1.109c-0.625,-0.234 -1.278,-0.35 -1.962,-0.353c-0.997,0 -1.807,0.328 -2.429,0.981c-0.625,0.656 -0.937,1.503 -0.937,2.544c0,1.022 0.272,2.006 0.815,2.962l-1.153,0.022Zm15.132,-0.297l0,-8.128l1.096,-0.003l0,8.109l-1.096,0.022Z"/><path d="M339.644,690.666c0.418,-0.819 0.709,-1.547 0.872,-2.191c0.165,-0.637 0.243,-1.319 0.243,-2.041c0.003,-0.631 -0.068,-1.203 -0.212,-1.725l1.066,0.016c0.103,0.528 0.153,1.097 0.153,1.709c0,0.832 -0.085,1.616 -0.247,2.366c-0.163,0.741 -0.394,1.363 -0.703,1.866l-1.172,0Zm-7.153,-0.488l-7.628,-0.666l0,-5.043l1.093,0.015l0,3.957l5.888,0.512c-0.222,-1.181 -0.331,-2.116 -0.335,-2.778c0,-0.575 0.047,-1.109 0.135,-1.603l1.062,0.016c-0.143,0.54 -0.215,1.14 -0.215,1.803c0,0.99 0.147,2.025 0.447,3.103l-0.447,0.684Zm7.612,-8.391l-2.381,-0.037c-0.384,-0.1 -0.797,-0.153 -1.241,-0.153c-0.003,0 -0.006,0 -0.006,0c-0.003,0 -0.006,0 -0.009,0c-0.372,0 -0.719,0.041 -1.041,0.119l-2.363,-0.038c0.832,-0.828 1.926,-1.244 3.279,-1.244c0,0 0.003,0 0.006,0c1.575,0 2.828,0.454 3.756,1.353Zm-14.147,-0.218l-1.093,-0.016l0,-0.072l1.093,0.003l0,0.085Z"/><path d="M935.312,1296.01c-0.653,0 -1.243,-0.066 -1.771,-0.197l-0.022,-1.116c0.509,0.222 1.1,0.331 1.772,0.331c0.825,0 1.581,-0.115 2.268,-0.347c0.682,-0.234 1.453,-0.631 2.303,-1.193l0.56,0.765c-0.65,0.544 -1.428,0.966 -2.341,1.285c-0.909,0.312 -1.834,0.472 -2.769,0.472Zm-4.746,-3.288c-0.047,-0.275 -0.069,-0.566 -0.069,-0.875c0,-0.206 0.012,-0.406 0.037,-0.6l0.032,1.475Zm2.84,-3.766l-0.019,-0.906c0.225,-0.072 0.457,-0.128 0.7,-0.172l0,-0.072c-0.246,-0.028 -0.481,-0.068 -0.706,-0.115l-0.018,-0.913c0.768,0.282 1.731,0.425 2.884,0.425l1.803,0l0,1.1l-1.828,0c-1.128,0 -2.069,0.216 -2.816,0.653Zm-2.978,-3.228c-0.297,-0.553 -0.447,-1.203 -0.447,-1.959c0,-0.75 0.125,-1.416 0.369,-2.003l0.078,3.962Zm10.163,-4.787c-0.641,-0.331 -1.353,-0.597 -2.15,-0.788c-0.794,-0.187 -1.541,-0.284 -2.241,-0.284c-1.2,0 -2.187,0.175 -2.959,0.522l-0.022,-1.116c0.828,-0.275 1.806,-0.409 2.934,-0.409c1.694,0 3.178,0.309 4.438,0.95l0,1.125Z"/><path d="M921.531,1295.78l-0.981,0l0,-16.678l1.119,0l0,12.15c0,1.097 -0.05,2.244 -0.138,3.428l0.353,-0.325c0.122,-0.106 1.297,-1.034 3.525,-2.775l0.647,0.813l-4.525,3.387Z"/><path d="M909.547,1295.78l-5.366,0l0,-1.1l5.382,0l-0.016,1.1Zm2.969,-3.491l0.065,-4.331l0.294,0.191l-0.359,4.14Zm-3.647,-3.162c-1.775,0 -3.178,-0.431 -4.2,-1.291c-1.025,-0.856 -1.538,-2.037 -1.538,-3.543c0,-1.716 0.532,-3.041 1.597,-3.991c1.066,-0.953 2.531,-1.428 4.406,-1.428c0.825,0 1.616,0.081 2.36,0.244c0.747,0.168 1.369,0.396 1.872,0.706l0,1.172c-0.822,-0.416 -1.557,-0.707 -2.191,-0.875c-0.641,-0.16 -1.322,-0.244 -2.041,-0.244c-1.462,0 -2.634,0.387 -3.512,1.159c-0.885,0.769 -1.328,1.813 -1.328,3.128c0,1.241 0.431,2.216 1.29,2.922c0.86,0.703 2.025,1.06 3.503,1.063c0.191,0 0.382,-0.006 0.579,-0.019l-0.016,0.959c-0.291,0.025 -0.553,0.038 -0.781,0.038Z"/><path d="M1507.03,698.647l-0.978,0l0,-2.875l-4.256,-0.003l0,-1.072l4.256,0.003l0,-8.581l0.762,0.003l11.747,8.269l0.003,1.381l-11.534,0l0,2.875Zm4.769,-3.95c2.297,0 4.225,0.056 5.784,0.162l0,-0.09c-0.281,-0.153 -0.997,-0.622 -2.144,-1.406l-8.409,-5.885l0,7.222l4.769,-0.003Z"/><path d="M1506.98,710.825c-1.712,0 -3.043,-0.534 -3.993,-1.591c-0.951,-1.065 -1.429,-2.54 -1.429,-4.409c0,-0.825 0.085,-1.613 0.247,-2.359c0.163,-0.747 0.4,-1.366 0.703,-1.866l1.175,0c-0.418,0.819 -0.709,1.547 -0.872,2.187c-0.165,0.635 -0.246,1.316 -0.246,2.038c0,1.463 0.387,2.631 1.156,3.516c0.772,0.881 1.809,1.318 3.119,1.318l0.028,0c1.234,0 2.2,-0.428 2.906,-1.281c0.706,-0.859 1.063,-2.031 1.063,-3.503c0,-0.987 -0.151,-2.025 -0.447,-3.103l0.447,-0.684l5.137,0.443l-0.016,1.166l-4.475,-0.391c0.222,1.191 0.335,2.119 0.335,2.788c0,1.778 -0.432,3.178 -1.291,4.2c-0.859,1.022 -2.04,1.531 -3.547,1.531Zm11.485,-1.047l-1.091,0l0,-6.959l-0.294,-0.025l1.385,0.022l0,6.962Z"/><path d="M356.522,153.631l-9.103,-9.1c-0.825,-0.825 -1.647,-1.718 -2.469,-2.675l-0.016,0.513c-0.012,0.172 -0.2,1.743 -0.565,4.715l-1.094,-0.115l0.856,-5.935l0.735,-0.734l12.493,12.494l-0.837,0.837Z"/><path d="M362.575,145.909c-1.138,0 -2.209,-0.506 -3.222,-1.515c-0.747,-0.747 -1.169,-1.638 -1.259,-2.675c-0.091,-1.038 0.162,-2.253 0.756,-3.644c-1.112,0.4 -2.053,0.6 -2.831,0.6c-0.169,0 -0.328,-0.009 -0.482,-0.028c-0.859,-0.106 -1.621,-0.494 -2.293,-1.166c-0.6,-0.6 -0.975,-1.278 -1.125,-2.031c-0.153,-0.753 -0.078,-1.525 0.222,-2.316c0.297,-0.787 0.781,-1.515 1.446,-2.184c1.06,-1.059 2.185,-1.641 3.372,-1.747c0.122,-0.009 0.244,-0.016 0.363,-0.016c1.04,0 1.975,0.416 2.803,1.244c0.638,0.641 1,1.4 1.091,2.294c0.087,0.891 -0.11,1.994 -0.594,3.309c1.353,-0.562 2.487,-0.843 3.406,-0.843c0.131,0 0.256,0.006 0.378,0.015c0.981,0.091 1.853,0.519 2.616,1.281c1.031,1.032 1.494,2.216 1.387,3.551c-0.106,1.337 -0.765,2.612 -1.978,3.825c-1.259,1.262 -2.509,1.937 -3.759,2.037c-0.1,0.006 -0.2,0.009 -0.297,0.009Zm1.469,-9.531c-0.007,0 -0.013,0 -0.019,0c-0.887,0.006 -2.212,0.406 -3.972,1.194c-0.647,1.453 -0.941,2.647 -0.891,3.572c0.051,0.931 0.447,1.765 1.188,2.506c0.697,0.7 1.469,1.047 2.309,1.047c0.107,0 0.213,-0.006 0.319,-0.019c0.969,-0.097 1.928,-0.628 2.884,-1.584c0.938,-0.935 1.457,-1.916 1.569,-2.944c0.11,-1.025 -0.228,-1.934 -1.012,-2.722c-0.703,-0.7 -1.494,-1.05 -2.375,-1.05Zm-6.656,-6.025c-0.091,0 -0.185,0.003 -0.279,0.013c-0.881,0.081 -1.737,0.54 -2.568,1.372c-0.803,0.803 -1.25,1.646 -1.344,2.531c-0.088,0.881 0.209,1.669 0.897,2.356c0.403,0.4 0.843,0.663 1.325,0.788c0.281,0.071 0.578,0.106 0.893,0.106c0.229,0 0.469,-0.019 0.713,-0.056c0.591,-0.091 1.444,-0.369 2.575,-0.838c0.569,-1.287 0.838,-2.35 0.812,-3.187c-0.028,-0.838 -0.35,-1.56 -0.959,-2.169c-0.609,-0.61 -1.297,-0.916 -2.065,-0.916Z"/><path d="M373.275,135.328c-0.394,0 -0.8,-0.047 -1.219,-0.144c-1.762,-0.406 -3.712,-1.675 -5.844,-3.806c-2.175,-2.175 -3.459,-4.119 -3.846,-5.825c-0.391,-1.706 0.084,-3.231 1.428,-4.575c1.012,-1.012 2.162,-1.519 3.443,-1.519c0.388,0 0.785,0.047 1.194,0.138c1.775,0.397 3.713,1.647 5.816,3.75c2.194,2.194 3.481,4.15 3.869,5.875c0.384,1.719 -0.104,3.259 -1.46,4.616c-0.994,0.993 -2.119,1.49 -3.381,1.49Zm-6.181,-14.709c-0.935,0 -1.778,0.375 -2.528,1.128c-1.075,1.075 -1.379,2.334 -0.907,3.778c0.472,1.441 1.632,3.084 3.475,4.931c1.941,1.938 3.622,3.113 5.057,3.532c0.415,0.121 0.812,0.181 1.19,0.181c0.938,0 1.775,-0.366 2.507,-1.1c1.078,-1.078 1.384,-2.338 0.918,-3.788c-0.462,-1.453 -1.634,-3.112 -3.506,-4.987c-1.847,-1.847 -3.497,-3 -4.944,-3.466c-0.437,-0.141 -0.859,-0.209 -1.262,-0.209Z"/><path d="M395.256,1252.65c-1.922,-0.169 -3.512,-0.887 -4.784,-2.156c-1.088,-1.088 -1.656,-2.234 -1.697,-3.438c-0.044,-1.206 0.447,-2.315 1.469,-3.337c0.825,-0.825 1.831,-1.416 3.022,-1.772c1.19,-0.353 2.909,-0.538 5.15,-0.562l6.496,-0.088l0.035,-0.031l-6.681,-6.681l0.818,-0.822l7.819,7.815l-0.753,0.753l-6.791,0.147c-1.906,0.035 -3.3,0.119 -4.187,0.257c-0.891,0.137 -1.656,0.353 -2.3,0.64c-0.644,0.291 -1.222,0.694 -1.735,1.206c-0.743,0.744 -1.106,1.597 -1.084,2.557c0.022,0.956 0.422,1.828 1.206,2.606c1.038,1.044 2.419,1.659 4.125,1.85l-0.128,1.056Z"/><path d="M384.453,1244.12l-8.081,-8.081l0.622,-0.622l17.031,-6.713l1,0.997l-16.819,6.531l7.069,7.066l-0.822,0.822Z"/><path d="M373.669,1231.85c-1.256,0 -2.407,-0.522 -3.444,-1.562c-1.319,-1.319 -1.775,-2.866 -1.381,-4.638c0.397,-1.775 1.647,-3.712 3.75,-5.816c2.193,-2.193 4.15,-3.481 5.872,-3.865c0.381,-0.085 0.753,-0.128 1.118,-0.128c1.278,0 2.447,0.528 3.5,1.584c1.304,1.303 1.754,2.838 1.347,4.6c-0.406,1.766 -1.675,3.713 -3.803,5.844c-2.181,2.178 -4.122,3.456 -5.831,3.847c-0.384,0.09 -0.763,0.134 -1.128,0.134Zm6.119,-14.784c-0.404,0 -0.822,0.068 -1.26,0.209c-1.45,0.463 -3.112,1.634 -4.987,3.506c-1.844,1.847 -3,3.494 -3.463,4.944c-0.466,1.45 -0.159,2.712 0.916,3.791c0.75,0.746 1.587,1.122 2.509,1.122c0.406,0 0.831,-0.072 1.269,-0.216c1.44,-0.475 3.087,-1.635 4.931,-3.478c1.938,-1.935 3.113,-3.622 3.531,-5.056c0.419,-1.432 0.113,-2.663 -0.918,-3.694c-0.754,-0.753 -1.594,-1.128 -2.528,-1.128Z"/><path d="M1481.31,1263.33c-0.387,0 -0.784,-0.044 -1.197,-0.137c-1.775,-0.397 -3.709,-1.644 -5.815,-3.75c-2.191,-2.191 -3.482,-4.15 -3.866,-5.872c-0.384,-1.725 0.1,-3.266 1.456,-4.619c0.994,-0.994 2.119,-1.49 3.382,-1.49c0.393,0 0.8,0.05 1.222,0.146c1.762,0.403 3.709,1.672 5.84,3.804c2.178,2.178 3.459,4.118 3.85,5.828c0.391,1.703 -0.087,3.228 -1.431,4.575c-1.013,1.009 -2.16,1.515 -3.441,1.515Zm-6.15,-14.709c-0.937,0 -1.768,0.369 -2.503,1.1c-1.075,1.075 -1.381,2.341 -0.915,3.791c0.462,1.446 1.631,3.112 3.506,4.984c1.843,1.847 3.49,3 4.943,3.466c0.435,0.137 0.857,0.209 1.26,0.209c0.934,0 1.775,-0.375 2.528,-1.128c1.078,-1.078 1.378,-2.335 0.906,-3.775c-0.475,-1.441 -1.631,-3.088 -3.478,-4.931c-1.934,-1.941 -3.619,-3.116 -5.053,-3.532c-0.416,-0.122 -0.812,-0.184 -1.194,-0.184Z"/><path d="M917.506,1199.21c-4.628,-0.04 -9.259,-0.14 -13.772,-0.303l0.063,-1.765c4.494,0.162 9.106,0.262 13.709,0.3l0,1.768Zm14.547,-0.087l-0.037,-1.766c0.909,-0.018 1.822,-0.04 2.737,-0.065l0.063,1.765c-0.922,0.025 -1.844,0.047 -2.763,0.066Zm5.1,-0.131l-0.059,-1.766c3.012,-0.094 6.034,-0.216 9.025,-0.359l0.09,1.765c-3.003,0.144 -6.031,0.266 -9.056,0.36Zm-47.556,-0.785c-1.441,-0.09 -2.888,-0.19 -4.338,-0.293l0.125,-1.766c1.444,0.106 2.888,0.203 4.325,0.297l-0.112,1.762Zm70.737,-0.462l-0.134,-1.76c3.009,-0.237 6.019,-0.497 8.997,-0.781l0.184,1.759c-2.994,0.285 -6.022,0.547 -9.047,0.782Zm-77.409,-0.006c-2.488,-0.191 -4.975,-0.404 -7.441,-0.629l0.163,-1.765c2.453,0.228 4.925,0.437 7.4,0.628l-0.122,1.766Zm88.788,-1.004l-0.185,-1.759c0.916,-0.091 1.828,-0.184 2.735,-0.281l0.184,1.759c-0.906,0.094 -1.819,0.188 -2.734,0.281Zm-110.297,-1.125c-3.535,-0.428 -7.069,-0.89 -10.553,-1.384l0.243,-1.75c3.475,0.491 7,0.956 10.522,1.381l-0.212,1.753Zm127.503,-0.893l-0.244,-1.75c4.569,-0.619 9.134,-1.294 13.578,-2.022l0.284,1.747c-4.456,0.725 -9.034,1.406 -13.618,2.025Zm-140.375,-0.829c-0.385,-0.056 -0.769,-0.112 -1.15,-0.168l0.262,-1.747c0.375,0.056 0.753,0.112 1.132,0.169l-0.244,1.746Zm-17.063,-2.803c-3.959,-0.721 -7.962,-1.503 -11.931,-2.322l0.356,-1.734c3.95,0.819 7.938,1.597 11.882,2.316l-0.307,1.74Zm185.01,-0.871l-0.335,-1.738c1.425,-0.272 2.85,-0.553 4.272,-0.841l0.366,1.732c-1.435,0.287 -2.869,0.571 -4.303,0.847Zm6.593,-1.313l-0.368,-1.731c2.443,-0.503 4.878,-1.022 7.281,-1.556l0.381,1.731c-2.409,0.531 -4.847,1.05 -7.294,1.556Zm-217.331,-3.206c-1.937,-0.46 -3.875,-0.928 -5.797,-1.41l0.428,-1.715c1.916,0.478 3.844,0.947 5.778,1.406l-0.409,1.719Zm238.428,-1.613l-0.434,-1.715c3.425,-0.863 6.878,-1.769 10.303,-2.71l0.488,1.7c-3.444,0.944 -6.913,1.86 -10.357,2.725Zm-246.49,-0.365c-1.904,-0.485 -3.788,-0.979 -5.647,-1.475l0.459,-1.713c1.847,0.497 3.722,0.988 5.616,1.472l-0.428,1.716Zm259.1,-2.985l-0.485,-1.697c0.366,-0.103 0.735,-0.206 1.1,-0.309l0.478,1.7c-0.362,0.103 -0.728,0.206 -1.093,0.306Zm-278.338,-2.331c-3.916,-1.166 -7.853,-2.391 -11.731,-3.653l0.547,-1.678c3.862,1.253 7.784,2.472 11.684,3.634l-0.5,1.697Zm294.966,-2.622l-0.547,-1.684c3.831,-1.216 7.697,-2.494 11.516,-3.81l0.578,1.672c-3.832,1.319 -7.707,2.6 -11.547,3.822Zm-321.803,-6.2c-0.416,-0.15 -0.832,-0.3 -1.247,-0.45l0.606,-1.665c0.416,0.15 0.828,0.299 1.241,0.45l-0.6,1.665Zm-3.438,-1.256c-3.237,-1.194 -6.512,-2.441 -9.775,-3.716l0.644,-1.65c3.25,1.275 6.509,2.516 9.734,3.703l-0.603,1.663Zm350.138,-1.175l-0.619,-1.656c1.865,-0.707 3.731,-1.422 5.587,-2.144l0.663,1.637c-1.869,0.732 -3.747,1.454 -5.631,2.163Zm7.806,-3.016l-0.663,-1.64c1.819,-0.719 3.622,-1.444 5.407,-2.175l0.665,1.637c-1.781,0.731 -3.587,1.456 -5.409,2.178Zm-380.778,-4.872c-2.353,-1 -4.703,-2.025 -7.035,-3.059l0.722,-1.616c2.319,1.032 4.656,2.05 7,3.047l-0.687,1.628Zm399.25,-2.872l-0.716,-1.618c3.763,-1.669 7.522,-3.388 11.194,-5.125l0.775,1.587c-3.691,1.747 -7.469,3.478 -11.253,5.156Zm-408.419,-1.14c-1.272,-0.575 -2.534,-1.15 -3.784,-1.725l0.737,-1.606c1.244,0.572 2.503,1.143 3.766,1.712l-0.719,1.619Zm-16.562,-7.825c-4.1,-2.028 -8.263,-4.163 -12.385,-6.347l0.831,-1.562c4.104,2.178 8.257,4.303 12.338,6.324l-0.784,1.585Zm450.615,-3.284l-0.812,-1.572c0.393,-0.204 0.784,-0.403 1.175,-0.607l0.831,1.563c-0.4,0.206 -0.797,0.409 -1.194,0.616Zm3.266,-1.694l-0.832,-1.563c3.094,-1.615 6.182,-3.272 9.216,-4.947l0.856,1.554c-3.046,1.671 -6.14,3.334 -9.24,4.956Zm-478.894,-8.306c-0.831,-0.472 -1.662,-0.95 -2.491,-1.429l0.885,-1.531c0.825,0.478 1.653,0.95 2.478,1.419l-0.872,1.541Zm-4.519,-2.6c-2.587,-1.507 -5.162,-3.038 -7.694,-4.569l0.919,-1.516c2.519,1.531 5.082,3.053 7.66,4.553l-0.885,1.532Zm504.963,-1.054l-0.9,-1.521c2.209,-1.3 4.431,-2.632 6.647,-3.982l0.937,1.503c-2.228,1.357 -4.462,2.694 -6.684,4Zm8.681,-5.222l-0.937,-1.503c1.143,-0.703 2.284,-1.412 3.415,-2.125l0.944,1.503c-1.135,0.713 -2.278,1.419 -3.422,2.125Zm-533.337,-5.812c-2.554,-1.647 -5.1,-3.328 -7.616,-5.019l0.987,-1.468c2.507,1.687 5.047,3.362 7.585,5.003l-0.956,1.484Zm548.653,-4.006l-0.982,-1.472c3.888,-2.594 7.8,-5.285 11.625,-7.997l1.022,1.441c-3.837,2.725 -7.765,5.425 -11.665,8.028Zm-558.207,-2.322c-0.746,-0.506 -1.49,-1.016 -2.231,-1.522l1,-1.462c0.738,0.506 1.478,1.012 2.222,1.518l-0.991,1.466Zm-14.125,-9.963c-3.643,-2.662 -7.334,-5.443 -10.978,-8.262l1.085,-1.397c3.625,2.809 7.303,5.575 10.931,8.228l-1.038,1.431Zm595.425,-4.096l-1.062,-1.413c0.884,-0.666 1.765,-1.334 2.647,-2.006l1.087,1.394c-0.887,0.678 -1.778,1.353 -2.672,2.025Zm4.532,-3.45l-1.088,-1.394c2.244,-1.728 4.469,-3.472 6.653,-5.213l1.097,1.385c-2.187,1.743 -4.412,3.49 -6.662,5.222Zm-622.003,-9.541c-1.11,-0.913 -2.222,-1.831 -3.332,-2.756l1.138,-1.357c1.106,0.922 2.212,1.838 3.315,2.741l-1.121,1.372Zm-5.122,-4.259c-1.913,-1.613 -3.819,-3.241 -5.697,-4.876l1.156,-1.334c1.875,1.625 3.772,3.247 5.678,4.853l-1.137,1.357Zm644.731,-0.416l-1.138,-1.35c2.466,-2.081 4.957,-4.225 7.429,-6.4l1.184,1.312c-2.491,2.188 -4.991,4.344 -7.475,6.438Zm9.225,-7.981l-1.185,-1.316c0.491,-0.434 0.982,-0.872 1.469,-1.309l1.181,1.318c-0.487,0.435 -0.974,0.872 -1.465,1.307Zm-670.216,-5.916c-2.59,-2.381 -5.172,-4.806 -7.706,-7.231l1.228,-1.272c2.525,2.416 5.097,4.828 7.675,7.2l-1.197,1.303Zm683.05,-5.875l-1.228,-1.272c3.081,-2.928 6.163,-5.937 9.181,-8.95l0.619,-0.625l1.25,1.247l-0.615,0.619c-3.026,3.028 -6.119,6.043 -9.207,8.981Zm-692.444,-2.975c-0.296,-0.288 -0.59,-0.575 -0.887,-0.859l1.231,-1.272c0.297,0.287 0.591,0.572 0.888,0.856l-1.232,1.275Zm-12.212,-12.225c-2.869,-2.966 -5.697,-5.963 -8.425,-8.928l1.303,-1.197c2.719,2.953 5.538,5.941 8.394,8.897l-1.272,1.228Zm724.337,-4.566l-1.287,-1.212c1.05,-1.116 2.097,-2.238 3.134,-3.363l1.319,1.185c-1.05,1.134 -2.109,2.265 -3.166,3.39Zm4.744,-5.106l-1.312,-1.184c1.631,-1.778 3.24,-3.56 4.812,-5.325l1.325,1.178c-1.578,1.769 -3.19,3.55 -4.825,5.331Zm-746.95,-9.809c-1.259,-1.45 -2.522,-2.919 -3.781,-4.397l1.353,-1.138c1.253,1.475 2.51,2.935 3.763,4.375l-1.335,1.16Zm-5.29,-6.178c-1.294,-1.538 -2.582,-3.085 -3.854,-4.632l1.366,-1.125c1.272,1.544 2.553,3.088 3.844,4.619l-1.356,1.138Zm766.34,-0.05l-1.35,-1.138c2.369,-2.816 4.741,-5.697 7.078,-8.6l1.391,1.088c-2.35,2.918 -4.738,5.818 -7.119,8.65Zm8.581,-10.475l-1.39,-1.088c0.131,-0.165 0.262,-0.328 0.394,-0.494l1.381,1.1c-0.128,0.16 -0.256,0.319 -0.385,0.482Zm-787.612,-5.169c-2.459,-3.172 -4.9,-6.397 -7.278,-9.619l1.431,-1.037c2.363,3.206 4.797,6.415 7.244,9.568l-1.397,1.088Zm796.65,-6.519l-1.413,-1.059c0.063,-0.085 0.129,-0.172 0.191,-0.257l1.428,1.038c-0.068,0.091 -0.137,0.184 -0.206,0.278Zm1.603,-2.153l-1.428,-1.037c2.291,-3.091 4.544,-6.204 6.716,-9.275l1.44,1.015c-2.175,3.085 -4.431,6.2 -6.728,9.297Zm-814.969,-14.191c-0.193,-0.281 -0.39,-0.565 -0.584,-0.85l1.466,-0.99c0.193,0.281 0.384,0.559 0.575,0.837l-1.457,1.003Zm-1.903,-2.784c-2.012,-2.966 -4.009,-5.978 -5.959,-8.991l1.481,-0.962c1.947,3.006 3.938,6.009 5.944,8.962l-1.466,0.991Zm831.606,-4.006l-1.471,-0.978c1.265,-1.897 2.528,-3.828 3.787,-5.782l1.5,0.938c-1.269,1.966 -2.544,3.912 -3.816,5.822Zm5.079,-7.791l-1.497,-0.937c0.869,-1.363 1.734,-2.735 2.59,-4.11l1.5,0.938c-0.859,1.375 -1.725,2.743 -2.593,4.109Zm-850.178,-9.187c-1.266,-2.085 -2.516,-4.179 -3.747,-6.272l1.528,-0.885c1.225,2.082 2.472,4.166 3.731,6.238l-1.512,0.919Zm860.103,-7.038l-1.528,-0.89c2.281,-3.894 4.525,-7.854 6.681,-11.782l1.562,0.832c-2.169,3.946 -4.425,7.928 -6.715,11.84Zm-865.035,-1.259c-0.759,-1.306 -1.509,-2.613 -2.25,-3.91l1.538,-0.875c0.737,1.297 1.487,2.597 2.244,3.904l-1.532,0.881Zm-9.081,-16.313c-2.091,-3.928 -4.187,-7.993 -6.228,-12.09l1.59,-0.778c2.029,4.084 4.116,8.124 6.197,12.034l-1.559,0.834Zm887.722,-7.262l-1.578,-0.806c0.418,-0.819 0.834,-1.635 1.247,-2.457l1.59,0.778c-0.418,0.829 -0.837,1.657 -1.259,2.485Zm2.306,-4.575l-1.59,-0.775c1.353,-2.716 2.674,-5.428 3.953,-8.11l1.593,0.76c-1.278,2.687 -2.6,5.406 -3.956,8.125Zm-902.653,-13.622c-0.347,-0.753 -0.694,-1.506 -1.038,-2.263l1.613,-0.718c0.344,0.747 0.684,1.496 1.028,2.243l-1.603,0.738Zm-2.003,-4.397c-1.285,-2.862 -2.544,-5.734 -3.756,-8.584l1.625,-0.691c1.209,2.838 2.462,5.703 3.747,8.556l-1.616,0.719Zm914.516,-2.981l-1.619,-0.713c1.256,-2.85 2.503,-5.747 3.719,-8.653l1.637,0.663c-1.222,2.925 -2.475,5.837 -3.737,8.703Zm4.634,-10.86l-1.638,-0.662c0.294,-0.713 0.585,-1.425 0.875,-2.138l1.638,0.666c-0.288,0.709 -0.581,1.422 -0.875,2.134Zm-928.297,-7.878c-1.059,-2.703 -2.103,-5.428 -3.122,-8.147l1.663,-0.606c1.009,2.706 2.05,5.419 3.106,8.103l-1.647,0.65Zm934.706,-8.425l-1.659,-0.606c1.5,-4.034 2.972,-8.144 4.372,-12.234l1.675,0.575c-1.406,4.1 -2.881,8.218 -4.388,12.265Zm-938.64,-1.918c-0.363,-0.982 -0.719,-1.963 -1.072,-2.941l1.665,-0.6c0.35,0.975 0.707,1.953 1.069,2.934l-1.662,0.607Zm-5.697,-16.36c-1.46,-4.444 -2.885,-8.997 -4.241,-13.54l1.697,-0.504c1.347,4.525 2.769,9.063 4.225,13.491l-1.681,0.553Zm953.119,-7.409l-1.691,-0.528c0.544,-1.744 1.084,-3.504 1.612,-5.272l1.7,0.487c-0.534,1.782 -1.075,3.556 -1.621,5.313Zm2.287,-7.556l-1.7,-0.485c0.587,-1.991 1.163,-3.991 1.722,-5.984l1.703,0.475c-0.562,2 -1.137,4 -1.725,5.994Zm-963.5,-12.225c-0.337,-1.269 -0.672,-2.541 -1,-3.813l1.716,-0.428c0.325,1.259 0.656,2.522 0.993,3.781l-1.709,0.46Zm-1.581,-6.075c-0.653,-2.579 -1.281,-5.147 -1.881,-7.682l1.721,-0.409c0.597,2.531 1.225,5.09 1.875,7.662l-1.715,0.429Zm970.437,-1.351l-1.715,-0.434c0.984,-3.931 1.94,-7.947 2.84,-11.962l1.732,0.368c-0.907,4.035 -1.866,8.075 -2.857,12.028Zm-975.397,-20.171c-0.693,-3.347 -1.356,-6.716 -1.975,-10.057l1.741,-0.306c0.616,3.325 1.275,6.672 1.966,10.003l-1.732,0.36Zm981.491,-7.438l-1.738,-0.331c0.101,-0.525 0.201,-1.05 0.3,-1.575l1.741,0.306c-0.1,0.535 -0.2,1.066 -0.303,1.6Zm0.731,-3.897l-1.744,-0.306c0.613,-3.344 1.194,-6.697 1.732,-10.006l1.747,0.284c-0.541,3.319 -1.122,6.675 -1.735,10.028Zm-984.618,-1.022c-0.094,-0.521 -0.188,-1.043 -0.282,-1.562l1.744,-0.309c0.091,0.521 0.184,1.043 0.278,1.565l-1.74,0.306Zm-2.797,-17.115c-0.613,-4.203 -1.172,-8.397 -1.657,-12.488l1.757,-0.206c0.484,4.075 1.04,8.256 1.653,12.447l-1.753,0.247Zm991.218,-5.891l-1.75,-0.231c0.366,-2.769 0.713,-5.553 1.038,-8.322l1.756,0.184c-0.325,2.785 -0.672,5.585 -1.044,8.369Zm1.31,-10.697l-1.757,-0.184c0.125,-1.122 0.247,-2.238 0.363,-3.35l1.759,0.184c-0.118,1.113 -0.24,2.231 -0.365,3.35Zm-995.675,-9.984c-0.169,-1.85 -0.332,-3.713 -0.478,-5.578l1.762,-0.125c0.147,1.853 0.306,3.703 0.475,5.54l-1.759,0.163Zm997.325,-7.491l-1.763,-0.122c0.357,-4.653 0.65,-9.387 0.875,-14.059l1.769,0.091c-0.228,4.684 -0.525,9.425 -0.881,14.09Zm-997.988,-0.415c-0.156,-2.079 -0.3,-4.157 -0.431,-6.216l1.766,-0.109c0.128,2.056 0.271,4.128 0.431,6.2l-1.766,0.125Zm-1.128,-20.366c-0.137,-3.95 -0.231,-7.972 -0.275,-11.981l1.766,0c0.047,3.987 0.14,7.987 0.275,11.922l-1.766,0.059Zm1000.49,-7.453l-1.769,-0.038c0.028,-1.493 0.05,-2.99 0.066,-4.49l1.771,0c-0.018,1.512 -0.04,3.022 -0.068,4.528Zm0.087,-6.869l-1.769,0c0.016,-2.437 0.016,-4.869 -0.003,-7.281l1.769,-0.009c0.019,2.412 0.019,4.85 0.003,7.29Zm-999.006,-13.959l-1.766,-0.038c0.006,-0.34 0.016,-0.684 0.022,-1.028l1.769,0.063c-0.009,0.334 -0.016,0.668 -0.025,1.003Zm0.084,-3.344l-1.765,-0.062c0.1,-3.594 0.237,-7.207 0.415,-10.779l1.766,0.088c-0.175,3.565 -0.316,7.169 -0.416,10.753Zm996.841,-4.084c-0.138,-3.782 -0.316,-7.569 -0.534,-11.288l1.762,-0.125c0.219,3.741 0.4,7.547 0.537,11.347l-1.765,0.066Zm-0.678,-13.632c-0.01,-0.156 -0.019,-0.309 -0.028,-0.465l1.762,-0.113c0.009,0.153 0.019,0.303 0.028,0.457l-1.762,0.121Zm-994.86,-7.112l-1.759,-0.138c0.191,-2.487 0.403,-4.978 0.631,-7.45l1.76,0.185c-0.229,2.456 -0.438,4.931 -0.632,7.403Zm993.725,-7.428c-0.018,-0.197 -0.037,-0.394 -0.053,-0.591l1.76,-0.187c0.018,0.206 0.037,0.409 0.056,0.615l-1.763,0.163Zm-992.875,-2.297l-1.756,-0.184c0.141,-1.451 0.288,-2.891 0.438,-4.319l1.759,0.187c-0.153,1.425 -0.3,2.866 -0.441,4.316Zm992.597,-0.619c-0.362,-3.694 -0.772,-7.422 -1.222,-11.125l1.757,-0.212c0.45,3.712 0.859,7.45 1.225,11.153l-1.76,0.184Zm-990.475,-17.697l-1.75,-0.237c0.619,-4.622 1.31,-9.26 2.05,-13.794l1.741,0.306c-0.738,4.51 -1.425,9.128 -2.041,13.725Zm987.363,-7.422c-0.363,-2.428 -0.75,-4.875 -1.153,-7.328l1.74,-0.306c0.41,2.466 0.797,4.928 1.163,7.372l-1.75,0.262Zm-1.541,-9.631c-0.244,-1.437 -0.494,-2.875 -0.747,-4.306l1.738,-0.313c0.256,1.435 0.506,2.872 0.753,4.31l-1.744,0.309Zm-981.281,-10.765l-1.738,-0.332c0.194,-1 0.388,-2 0.588,-3l1.728,0.369c-0.197,0.988 -0.388,1.975 -0.578,2.963Zm1.037,-5.254l-1.728,-0.368c0.585,-2.875 1.194,-5.738 1.822,-8.56l1.725,0.385c-0.625,2.815 -1.234,5.675 -1.819,8.543Zm976.816,-2.156c-0.962,-4.625 -2,-9.269 -3.075,-13.79l1.719,-0.41c1.078,4.541 2.115,9.197 3.084,13.838l-1.728,0.362Zm-971.756,-20.091l-1.713,-0.434c0.778,-3.087 1.591,-6.194 2.432,-9.287l1.699,0.484c-0.837,3.078 -1.646,6.169 -2.418,9.237Zm965.222,-7.403c-0.307,-1.137 -0.619,-2.278 -0.935,-3.422l1.7,-0.487c0.319,1.153 0.632,2.306 0.941,3.453l-1.706,0.456Zm-962.185,-4.084l-1.7,-0.487c0.197,-0.707 0.394,-1.413 0.594,-2.116l1.7,0.481c-0.2,0.706 -0.397,1.413 -0.594,2.122Zm960.625,-1.591c-0.744,-2.643 -1.512,-5.293 -2.3,-7.925l1.697,-0.506c0.788,2.638 1.556,5.294 2.303,7.944l-1.7,0.487Zm-955.7,-15.053l-1.681,-0.547c1.303,-4.14 2.675,-8.3 4.078,-12.375l1.672,0.578c-1.397,4.063 -2.766,8.21 -4.069,12.344Zm949.166,-6.362c-1.081,-3.275 -2.206,-6.569 -3.359,-9.825l1.662,-0.606c1.156,3.275 2.287,6.584 3.375,9.878l-1.678,0.553Zm-4.141,-12.025c-0.162,-0.45 -0.322,-0.897 -0.484,-1.341l1.665,-0.6c0.163,0.444 0.322,0.888 0.482,1.335l-1.663,0.606Zm-936.19,-7.197l-1.653,-0.622c0.625,-1.666 1.265,-3.338 1.915,-5.012l1.641,0.662c-0.647,1.659 -1.282,3.319 -1.903,4.972Zm2.756,-7.156l-1.641,-0.66c0.785,-1.99 1.582,-3.978 2.388,-5.95l1.634,0.669c-0.803,1.972 -1.6,3.956 -2.381,5.941Zm927.212,-2.082c-1.493,-3.737 -3.05,-7.503 -4.64,-11.222l1.625,-0.696c1.597,3.728 3.159,7.506 4.656,11.256l-1.641,0.662Zm-919.321,-16.797l-1.616,-0.718c1.612,-3.65 3.291,-7.316 4.994,-10.928l1.59,0.775c-1.694,3.59 -3.362,7.237 -4.968,10.871Zm908.934,-7.353c-0.906,-1.962 -1.831,-3.928 -2.769,-5.89l1.588,-0.775c0.943,1.972 1.875,3.95 2.784,5.922l-1.603,0.743Zm-3.784,-7.996c-0.772,-1.597 -1.554,-3.191 -2.338,-4.769l1.581,-0.791c0.788,1.585 1.572,3.181 2.347,4.784l-1.59,0.776Zm-893.007,-10.126l-1.575,-0.803c0.175,-0.34 0.35,-0.681 0.531,-1.021l1.557,0.831c-0.169,0.331 -0.338,0.662 -0.513,0.993Zm1.591,-3.068l-1.563,-0.831c1.654,-3.166 3.341,-6.319 5.038,-9.413l1.55,0.85c-1.697,3.087 -3.381,6.234 -5.025,9.394Zm882.591,-4.169c-2.079,-3.897 -4.244,-7.825 -6.438,-11.684l1.531,-0.885c2.207,3.878 4.378,7.822 6.469,11.738l-1.562,0.831Zm-870.597,-17.497l-1.528,-0.89c1.309,-2.232 2.634,-4.454 3.971,-6.651l1.497,0.938c-1.325,2.181 -2.643,4.387 -3.94,6.603Zm856.609,-7.009c-0.466,-0.769 -0.937,-1.535 -1.409,-2.303l1.5,-0.938c0.475,0.772 0.95,1.544 1.418,2.316l-1.509,0.925Zm-851.444,-1.597l-1.5,-0.938c0.716,-1.162 1.432,-2.315 2.147,-3.459l1.5,0.937c-0.716,1.144 -1.431,2.297 -2.147,3.46Zm848.797,-2.7c-1.603,-2.572 -3.231,-5.131 -4.862,-7.65l1.481,-0.966c1.641,2.532 3.272,5.1 4.881,7.678l-1.5,0.938Zm-839,-12.616l-1.472,-0.981c2.616,-3.925 5.316,-7.856 8.019,-11.675l1.441,1.025c-2.694,3.803 -5.382,7.716 -7.988,11.631Zm826.294,-6.759c-1.813,-2.628 -3.675,-5.269 -5.56,-7.888l1.432,-1.04c1.894,2.631 3.762,5.284 5.584,7.922l-1.456,1.006Zm-6.935,-9.791c-0.415,-0.572 -0.831,-1.144 -1.246,-1.709l1.425,-1.047c0.418,0.572 0.837,1.144 1.253,1.716l-1.432,1.04Zm-803.059,-6.481l-1.412,-1.063c0.706,-0.937 1.415,-1.878 2.131,-2.815l1.394,1.087c-0.71,0.932 -1.413,1.86 -2.113,2.791Zm3.538,-4.65l-1.394,-1.091c1.687,-2.19 3.397,-4.372 5.106,-6.521l1.384,1.099c-1.706,2.144 -3.412,4.322 -5.096,6.513Zm788.94,-2.912c-2.606,-3.335 -5.29,-6.679 -7.984,-9.95l1.369,-1.122c2.7,3.281 5.393,6.637 8.009,9.984l-1.394,1.088Zm-774.897,-14.513l-1.353,-1.137c2.191,-2.597 4.419,-5.185 6.656,-7.729l1.313,1.182c-2.222,2.531 -4.438,5.106 -6.616,7.684Zm757.797,-6.2c-1.306,-1.497 -2.628,-2.994 -3.953,-4.481l0.969,-0.878l-1.563,-1.735l-0.968,0.875c-1.3,-1.444 -2.603,-2.875 -3.907,-4.287l1.3,-1.2c3.169,3.437 6.35,6.984 9.453,10.544l-1.331,1.162Zm-749.631,-3.237l-1.313,-1.185c0.36,-0.403 0.719,-0.809 1.082,-1.212l1.312,1.181c-0.359,0.403 -0.722,0.809 -1.081,1.216Zm11.791,-12.838l-1.272,-1.228c2.834,-2.984 5.753,-5.978 8.69,-8.922l1.254,1.247c-2.932,2.937 -5.841,5.925 -8.672,8.903Zm718.703,-4.669c-3.003,-3.081 -6.056,-6.14 -9.144,-9.147l1.228,-1.272c3.097,3.022 6.166,6.091 9.181,9.182l-1.265,1.237Zm-699.928,-14.078l-1.216,-1.284c1.459,-1.381 2.938,-2.766 4.428,-4.147l1.184,1.315c-1.481,1.369 -2.946,2.744 -4.396,4.116Zm679.687,-5.556c-0.569,-0.522 -1.141,-1.047 -1.715,-1.569l1.184,-1.312c0.578,0.525 1.156,1.053 1.728,1.578l-1.197,1.303Zm-673.569,-0.147l-1.184,-1.312c1.416,-1.297 2.838,-2.588 4.263,-3.866l1.181,1.316c-1.425,1.278 -2.847,2.568 -4.26,3.862Zm670.119,-2.994c-2.334,-2.1 -4.7,-4.193 -7.078,-6.253l1.159,-1.337c2.385,2.068 4.76,4.168 7.104,6.278l-1.185,1.312Zm-655.219,-10.134l-1.143,-1.347c3.25,-2.75 6.565,-5.484 9.868,-8.144l1.091,1.394c-3.287,2.644 -6.584,5.363 -9.816,8.097Zm637.347,-5.213c-2.365,-1.94 -4.787,-3.89 -7.237,-5.821l1.09,-1.394c2.46,1.94 4.894,3.897 7.272,5.847l-1.125,1.368Zm-9.081,-7.268c-0.65,-0.507 -1.303,-1.016 -1.956,-1.519l1.081,-1.4c0.656,0.506 1.312,1.016 1.966,1.525l-1.091,1.394Zm-606.222,-5.138l-1.065,-1.412c0.531,-0.4 1.065,-0.8 1.603,-1.2l1.037,1.428c-0.525,0.394 -1.053,0.79 -1.575,1.184Zm3.456,-2.581l-1.04,-1.431c2.643,-1.957 5.303,-3.888 7.947,-5.763l1.021,1.444c-2.637,1.872 -5.29,3.797 -7.928,5.75Zm588.71,-2.859c-3.491,-2.538 -7.091,-5.075 -10.703,-7.557l0.997,-1.459c3.631,2.49 7.24,5.041 10.746,7.584l-1.04,1.432Zm-569.166,-10.904l-0.981,-1.468c2.416,-1.616 4.869,-3.225 7.334,-4.81l0.938,1.497c-2.45,1.578 -4.891,3.178 -7.291,4.781Zm546.716,-4.472c-1.578,-1.015 -3.169,-2.028 -4.766,-3.034l0.934,-1.497c1.607,1.01 3.207,2.025 4.788,3.047l-0.956,1.484Zm-537.447,-1.575l-0.938,-1.496c0.857,-0.547 1.713,-1.088 2.569,-1.625l0.941,1.497c-0.86,0.537 -1.716,1.081 -2.572,1.624Zm530.697,-2.699c-1.738,-1.082 -3.478,-2.151 -5.219,-3.204l0.919,-1.509c1.744,1.056 3.494,2.128 5.237,3.216l-0.937,1.497Zm-515.781,-6.429l-0.885,-1.531c3.969,-2.334 8.006,-4.634 12.003,-6.837l0.857,1.55c-3.991,2.197 -8.016,4.49 -11.975,6.818Zm498.387,-3.906c-3.65,-2.072 -7.362,-4.112 -11.062,-6.09l0.831,-1.56c3.712,1.981 7.44,4.034 11.106,6.109l-0.875,1.541Zm-473.963,-9.55l-0.812,-1.572c1.422,-0.731 2.856,-1.459 4.294,-2.181l0.775,1.588c-1.428,0.718 -2.847,1.44 -4.257,2.165Zm6.347,-3.209l-0.775,-1.588c2.11,-1.05 4.232,-2.084 6.344,-3.097l0.766,1.594c-2.113,1.013 -4.228,2.044 -6.335,3.091Zm442.685,-0.46c-0.597,-0.293 -1.197,-0.587 -1.8,-0.881l0.775,-1.59c0.606,0.296 1.209,0.59 1.809,0.887l-0.784,1.584Zm-3.9,-1.903c-2.925,-1.415 -5.885,-2.809 -8.838,-4.165l0.735,-1.607c2.965,1.363 5.937,2.763 8.878,4.182l-0.775,1.59Zm-419.597,-6.656l-0.719,-1.619c3.481,-1.544 7.038,-3.075 10.603,-4.562l0.663,1.64c-3.55,1.479 -7.088,3 -10.547,4.541Zm397.847,-3.209c-2.732,-1.166 -5.51,-2.313 -8.291,-3.438l0.663,-1.637c2.79,1.128 5.578,2.281 8.318,3.447l-0.69,1.628Zm-385.135,-2.229l-0.662,-1.64c0.097,-0.038 0.194,-0.078 0.291,-0.119l0.671,1.635c-0.1,0.04 -0.2,0.084 -0.3,0.124Zm374.675,-2.078c-0.853,-0.34 -1.706,-0.678 -2.559,-1.012l0.644,-1.644c0.859,0.335 1.719,0.675 2.578,1.019l-0.663,1.637Zm-361.212,-3.231l-0.625,-1.653c0.228,-0.087 0.453,-0.172 0.681,-0.256l0.606,1.662c-0.221,0.082 -0.44,0.166 -0.662,0.247Zm2.85,-1.065l-0.606,-1.66c3.481,-1.287 6.993,-2.544 10.478,-3.75l0.578,1.669c-3.475,1.203 -6.981,2.456 -10.45,3.741Zm341.9,-1.926c-4.156,-1.484 -8.381,-2.934 -12.575,-4.309l0.55,-1.681c4.212,1.381 8.459,2.837 12.628,4.331l-0.603,1.659Zm-318.019,-6.237l-0.531,-1.687c2.378,-0.747 4.784,-1.482 7.2,-2.197l0.487,1.697c-2.403,0.715 -4.793,1.443 -7.156,2.187Zm292.003,-2.266c-1.744,-0.515 -3.5,-1.028 -5.256,-1.528l0.488,-1.697c1.762,0.5 3.521,1.013 5.271,1.532l-0.503,1.693Zm-282.606,-0.581l-0.487,-1.7c1.384,-0.403 2.771,-0.803 4.156,-1.194l0.478,1.7c-1.381,0.391 -2.766,0.791 -4.147,1.194Zm275.103,-1.581c-2.025,-0.566 -4.044,-1.116 -6.05,-1.65l0.456,-1.709c2.016,0.537 4.047,1.093 6.079,1.662l-0.485,1.697Zm-257.297,-3.266l-0.434,-1.712c4.587,-1.156 9.231,-2.26 13.797,-3.275l0.384,1.725c-4.553,1.012 -9.178,2.109 -13.747,3.262Zm237.581,-1.815c-4.031,-0.95 -8.121,-1.863 -12.178,-2.716l0.366,-1.728c4.069,0.853 8.172,1.769 12.222,2.725l-0.41,1.719Zm-209.999,-4.319l-0.335,-1.734c1.172,-0.229 2.35,-0.451 3.531,-0.669l0.307,1.74c-1.172,0.216 -2.341,0.438 -3.503,0.663Zm5.803,-1.084l-0.31,-1.741c2.71,-0.491 5.425,-0.96 8.125,-1.4l0.285,1.747c-2.691,0.44 -5.4,0.906 -8.1,1.394Zm176.606,-0.294c-0.616,-0.11 -1.238,-0.219 -1.856,-0.325l0.306,-1.744c0.622,0.109 1.244,0.216 1.862,0.325l-0.312,1.744Zm-4.16,-0.719c-3.249,-0.547 -6.512,-1.066 -9.75,-1.544l0.26,-1.75c3.253,0.482 6.534,1.003 9.797,1.55l-0.307,1.744Zm-150.375,-2.469l-0.237,-1.75c3.45,-0.468 6.931,-0.9 10.391,-1.294l0.184,1.757c-3.444,0.393 -6.906,0.822 -10.338,1.287Zm126.651,-0.95c-2.907,-0.347 -5.851,-0.672 -8.794,-0.972l0.184,-1.759c2.953,0.3 5.906,0.628 8.819,0.978l-0.209,1.753Zm-113.994,-0.593l-0.185,-1.76c0.454,-0.05 0.907,-0.097 1.36,-0.147l0.184,1.76c-0.45,0.046 -0.906,0.096 -1.359,0.147Zm102.869,-0.613c-0.966,-0.094 -1.932,-0.184 -2.894,-0.272l0.156,-1.759c0.975,0.087 1.947,0.181 2.922,0.275l-0.184,1.756Zm-85.382,-0.988l-0.122,-1.762c4.016,-0.297 8.063,-0.547 12.054,-0.744l0.087,1.766c-3.978,0.197 -8.013,0.444 -12.019,0.74Zm67.869,-0.403c-4.475,-0.275 -9.025,-0.493 -13.531,-0.653l0.062,-1.765c4.528,0.156 9.097,0.378 13.591,0.656l-0.122,1.762Zm-41.747,-0.84l-0.041,-1.766c2.207,-0.047 4.435,-0.081 6.669,-0.1l0,1.769c-2.222,0.019 -4.437,0.05 -6.628,0.097Zm14.11,-0.103c-1.079,-0.01 -2.16,-0.013 -3.241,-0.013c-0.635,0 -1.269,0.003 -1.903,0.003l0,-1.765c0.625,-0.004 1.253,-0.004 1.878,-0.004c1.09,0 2.184,0.004 3.275,0.01l-0.009,1.769Z"/><path d="M921.566,1319.26c-2.45,0 -4.903,-0.016 -7.341,-0.044l0.016,-0.885c2.44,0.029 4.897,0.044 7.356,0.044c2.256,0 4.509,-0.012 6.747,-0.037l0.006,0.884c-2.253,0.025 -4.519,0.038 -6.784,0.038Zm20.909,-0.354l-0.028,-0.878c3.469,-0.118 6.978,-0.262 10.462,-0.437l0.047,0.878c-3.49,0.178 -7.003,0.325 -10.481,0.437Zm-42.353,-0.021c-3.319,-0.116 -6.631,-0.257 -9.897,-0.422l0.044,-0.885c3.262,0.166 6.572,0.307 9.887,0.422l-0.034,0.885Zm55.75,-0.569l-0.047,-0.878c0.238,-0.016 0.475,-0.028 0.712,-0.041l0.051,0.878c-0.241,0.013 -0.479,0.028 -0.716,0.041Zm-68.553,-0.006c-0.435,-0.025 -0.869,-0.05 -1.3,-0.075l0.053,-0.885c0.428,0.025 0.859,0.05 1.291,0.075l-0.044,0.885Zm83.359,-0.979l-0.069,-0.878c1.36,-0.106 2.732,-0.218 4.11,-0.337l0.078,0.878c-1.381,0.119 -2.756,0.231 -4.119,0.337Zm-98.737,-0.056c-1.182,-0.094 -2.366,-0.194 -3.55,-0.294l0.075,-0.881c1.184,0.103 2.365,0.2 3.543,0.294l-0.068,0.881Zm105.753,-0.534l-0.078,-0.881c2.337,-0.213 4.69,-0.438 7.046,-0.675l0.088,0.878c-2.356,0.24 -4.716,0.465 -7.056,0.678Zm-112.21,-0.016c-2.537,-0.228 -5.078,-0.472 -7.597,-0.731l0.091,-0.878c2.516,0.256 5.05,0.5 7.581,0.728l-0.075,0.881Zm133.988,-2.337l-0.11,-0.878c4.385,-0.547 8.857,-1.157 13.307,-1.816l0.131,0.875c-4.456,0.659 -8.934,1.272 -13.328,1.819Zm-155.741,-0.01c-4.637,-0.587 -9.294,-1.225 -13.84,-1.903l0.131,-0.875c4.541,0.678 9.187,1.316 13.815,1.894l-0.106,0.884Zm183.025,-4.037l-0.147,-0.869c4.291,-0.734 8.675,-1.534 13.047,-2.375l0.172,0.869c-4.378,0.844 -8.772,1.64 -13.072,2.375Zm-210.787,-0.1c-4.141,-0.716 -8.363,-1.488 -12.569,-2.3l0.169,-0.866c4.197,0.81 8.415,1.578 12.55,2.291l-0.15,0.875Zm238.544,-5.294l-0.191,-0.866c2.231,-0.487 4.478,-0.99 6.731,-1.509l0.2,0.866c-2.256,0.518 -4.506,1.022 -6.74,1.509Zm-266.229,-0.116c-2.112,-0.462 -4.209,-0.934 -6.278,-1.409l0.197,-0.862c2.069,0.475 4.163,0.946 6.272,1.409l-0.191,0.862Zm275.81,-2.056l-0.2,-0.862c1.4,-0.328 2.8,-0.663 4.194,-0.997l0.206,0.859c-1.397,0.338 -2.797,0.672 -4.2,1Zm-284.938,-0.015c-1.556,-0.366 -3.093,-0.735 -4.606,-1.104l0.209,-0.856c1.51,0.369 3.044,0.735 4.594,1.1l-0.197,0.86Zm302.856,-4.472l-0.231,-0.857c0.166,-0.043 0.328,-0.087 0.491,-0.131l0.231,0.856c-0.162,0.044 -0.328,0.088 -0.491,0.132Zm-321.112,-0.11c-0.041,-0.012 -0.084,-0.025 -0.125,-0.034l0.228,-0.856c0.041,0.012 0.085,0.025 0.125,0.034l-0.228,0.856Zm324.422,-0.784l-0.231,-0.853c3.465,-0.944 6.918,-1.916 10.306,-2.903l0.244,0.853c-3.391,0.987 -6.85,1.959 -10.319,2.903Zm-327.363,-0.009c-3.562,-0.972 -7.125,-1.979 -10.628,-3l0.244,-0.85c3.497,1.021 7.053,2.025 10.609,2.993l-0.225,0.857Zm351.222,-7.01l-0.269,-0.844c4.447,-1.4 8.969,-2.881 13.429,-4.406l0.287,0.831c-4.469,1.529 -8.994,3.013 -13.447,4.419Zm-375.328,-0.09c-4.45,-1.413 -8.95,-2.894 -13.378,-4.407l0.287,-0.837c4.419,1.509 8.916,2.99 13.36,4.4l-0.269,0.844Zm402.113,-9.054l-0.304,-0.831c3.01,-1.106 6.01,-2.234 8.966,-3.372l0.319,0.825c-2.963,1.141 -5.969,2.272 -8.981,3.378Zm-428.763,-0.056c-2.922,-1.072 -5.866,-2.178 -8.794,-3.306l0.316,-0.825c2.922,1.125 5.862,2.231 8.778,3.3l-0.3,0.831Zm-11.509,-4.359c-0.55,-0.216 -1.1,-0.431 -1.65,-0.65l0.322,-0.819c0.546,0.216 1.093,0.431 1.643,0.644l-0.315,0.825Zm451.972,-0.016l-0.319,-0.825c0.512,-0.197 1.025,-0.397 1.534,-0.597l0.322,0.816c-0.509,0.203 -1.025,0.403 -1.537,0.606Zm14.659,-5.937l-0.35,-0.813c0.975,-0.409 1.947,-0.822 2.922,-1.237l0.347,0.812c-0.975,0.416 -1.947,0.828 -2.919,1.238Zm-481.313,0c-0.956,-0.4 -1.909,-0.804 -2.856,-1.21l0.344,-0.815c0.95,0.406 1.903,0.809 2.859,1.212l-0.347,0.813Zm-5.54,-2.36c-2.51,-1.081 -4.988,-2.172 -7.413,-3.259l0.363,-0.806c2.416,1.084 4.887,2.168 7.394,3.25l-0.344,0.815Zm492.447,-0.025l-0.347,-0.812c2.478,-1.072 4.95,-2.156 7.387,-3.25l0.363,0.812c-2.444,1.091 -4.922,2.178 -7.403,3.25Zm-512.691,-9.147c-4.225,-2.012 -8.494,-4.1 -12.687,-6.209l0.4,-0.791c4.184,2.11 8.447,4.197 12.668,6.197l-0.381,0.803Zm532.966,-0.043l-0.381,-0.8c4.203,-1.997 8.481,-4.091 12.706,-6.225l0.403,0.793c-4.238,2.132 -8.522,4.232 -12.728,6.232Zm-558.188,-12.666c-3.515,-1.872 -7.1,-3.825 -10.678,-5.825l0.428,-0.772c3.575,1.997 7.157,3.947 10.666,5.816l-0.416,0.781Zm583.494,-0.097l-0.413,-0.778c3.551,-1.894 7.129,-3.847 10.657,-5.819l0.431,0.772c-3.534,1.978 -7.116,3.931 -10.675,5.825Zm-608.109,-13.75c-1.644,-0.975 -3.297,-1.965 -4.947,-2.965l0.456,-0.757c1.647,0.997 3.297,1.988 4.937,2.96l-0.446,0.762Zm632.721,-0.103l-0.449,-0.766c1.646,-0.975 3.306,-1.968 4.971,-2.978l0.457,0.753c-1.669,1.013 -3.332,2.013 -4.979,2.991Zm-640.153,-4.375c-1.55,-0.95 -3.097,-1.906 -4.634,-2.866l0.469,-0.75c1.531,0.957 3.072,1.91 4.619,2.857l-0.454,0.759Zm647.616,-0.128l-0.456,-0.756c1.528,-0.938 3.059,-1.888 4.584,-2.841l0.472,0.75c-1.531,0.956 -3.066,1.906 -4.6,2.847Zm-666.028,-11.609c-3.291,-2.179 -6.588,-4.407 -9.825,-6.644l0.5,-0.725c3.231,2.228 6.519,4.453 9.803,6.628l-0.478,0.741Zm684.478,-0.157l-0.484,-0.74c3.29,-2.182 6.556,-4.391 9.734,-6.588l0.503,0.728c-3.187,2.2 -6.456,4.413 -9.753,6.6Zm-705.834,-14.64c-3.822,-2.766 -7.638,-5.597 -11.344,-8.413l0.537,-0.703c3.697,2.813 7.51,5.638 11.325,8.406l-0.518,0.71Zm727.112,-0.113l-0.519,-0.715c3.782,-2.744 7.591,-5.572 11.319,-8.41l0.538,0.7c-3.735,2.847 -7.553,5.678 -11.338,8.425Zm-749.597,-16.972c-2.159,-1.718 -4.325,-3.469 -6.478,-5.231l0.553,-0.687c2.153,1.762 4.319,3.512 6.475,5.231l-0.55,0.687Zm772.082,-0.128l-0.554,-0.687c2.232,-1.782 4.463,-3.585 6.663,-5.388l0.556,0.685c-2.2,1.803 -4.434,3.606 -6.665,5.39Zm-780.804,-6.95c-0.743,-0.612 -1.484,-1.228 -2.222,-1.844l0.56,-0.678c0.737,0.613 1.475,1.225 2.215,1.835l-0.553,0.687Zm789.722,-0.294l-0.556,-0.684c0.675,-0.559 1.347,-1.119 2.016,-1.675l0.562,0.681c-0.672,0.557 -1.344,1.119 -2.022,1.678Zm-802.694,-10.715c-0.468,-0.41 -0.937,-0.822 -1.409,-1.235l0.581,-0.668c0.469,0.412 0.941,0.825 1.41,1.234l-0.582,0.669Zm815.454,-0.135l-0.582,-0.668c0.55,-0.482 1.104,-0.963 1.657,-1.45l0.581,0.665c-0.553,0.488 -1.106,0.972 -1.656,1.453Zm-819.053,-3.034c-2.341,-2.075 -4.663,-4.166 -6.932,-6.244l0.597,-0.65c2.266,2.069 4.578,4.153 6.916,6.225l-0.581,0.669Zm822.887,-0.347l-0.578,-0.665c2.225,-1.979 4.459,-3.994 6.678,-6.019l0.597,0.653c-2.222,2.031 -4.463,4.05 -6.697,6.031Zm-840.138,-15.541c-3.415,-3.259 -6.818,-6.581 -10.1,-9.871l0.626,-0.622c3.281,3.281 6.674,6.6 10.084,9.856l-0.61,0.637Zm857.15,-0.134l-0.612,-0.64c3.341,-3.191 6.731,-6.51 10.084,-9.863l0.56,-0.559l0.625,0.628l-0.56,0.556c-3.356,3.359 -6.753,6.681 -10.097,9.878Zm-877.128,-19.828c-2.493,-2.603 -4.962,-5.231 -7.375,-7.837l0.647,-0.604c2.41,2.604 4.875,5.229 7.366,7.828l-0.638,0.613Zm897.65,-0.716l-0.637,-0.609c2.437,-2.562 4.837,-5.122 7.165,-7.641l0.647,0.604c-2.328,2.521 -4.731,5.084 -7.175,7.646Zm-907,-9.268c-0.1,-0.11 -0.2,-0.219 -0.3,-0.328l0.654,-0.597c0.096,0.106 0.196,0.212 0.293,0.322l-0.647,0.603Zm916.147,-0.525l-0.65,-0.603c0.163,-0.176 0.325,-0.354 0.485,-0.529l0.653,0.597c-0.163,0.178 -0.325,0.356 -0.488,0.535Zm-925.859,-10.332c-0.938,-1.071 -1.878,-2.153 -2.819,-3.243l0.666,-0.582c0.94,1.088 1.881,2.172 2.819,3.241l-0.666,0.584Zm935.74,-0.746l-0.665,-0.585c0.891,-1.019 1.781,-2.05 2.675,-3.087l0.669,0.581c-0.894,1.037 -1.788,2.069 -2.679,3.091Zm-940.453,-4.707c-1.493,-1.75 -2.984,-3.518 -4.462,-5.287l0.678,-0.563c1.472,1.763 2.959,3.522 4.45,5.269l-0.666,0.581Zm945.032,-0.606l-0.669,-0.578c1.531,-1.797 3.059,-3.61 4.572,-5.425l0.678,0.562c-1.519,1.822 -3.047,3.641 -4.581,5.441Zm-958.885,-16.194c-2.772,-3.481 -5.534,-7.034 -8.222,-10.562l0.704,-0.538c2.681,3.522 5.437,7.066 8.203,10.544l-0.685,0.556Zm972.75,-0.675l-0.687,-0.553c2.793,-3.519 5.572,-7.106 8.268,-10.662l0.704,0.534c-2.7,3.563 -5.488,7.156 -8.285,10.681Zm-989.39,-21.225c-2.582,-3.556 -5.129,-7.147 -7.582,-10.684l0.722,-0.509c2.45,3.534 4.994,7.121 7.572,10.675l-0.712,0.518Zm1006.08,-0.806l-0.719,-0.516c2.525,-3.493 5.069,-7.09 7.569,-10.706l0.725,0.503c-2.503,3.622 -5.05,7.222 -7.575,10.719Zm-1022.14,-22.431c-1.2,-1.822 -2.403,-3.672 -3.603,-5.538l0.741,-0.484c1.2,1.865 2.403,3.716 3.6,5.541l-0.738,0.481Zm1038.16,-0.828l-0.735,-0.485c1.213,-1.853 2.428,-3.734 3.644,-5.631l0.744,0.481c-1.216,1.897 -2.435,3.781 -3.653,5.635Zm-1043.33,-7.16c-0.826,-1.297 -1.644,-2.594 -2.46,-3.894l0.75,-0.474c0.813,1.296 1.628,2.593 2.45,3.884l-0.74,0.484Zm1048.55,-0.931l-0.747,-0.481c0.801,-1.263 1.597,-2.528 2.388,-3.794l0.753,0.466c-0.794,1.271 -1.594,2.543 -2.394,3.809Zm-1058.36,-15.025c-0.016,-0.031 -0.034,-0.059 -0.053,-0.091l0.756,-0.459c0.019,0.034 0.041,0.066 0.06,0.1l-0.763,0.45Zm1068.09,-0.85l-0.763,-0.45c0.053,-0.084 0.103,-0.169 0.153,-0.256l0.76,0.453c-0.05,0.084 -0.1,0.169 -0.15,0.253Zm-1069.62,-1.75c-1.891,-3.219 -3.747,-6.444 -5.538,-9.625l0.769,-0.434c1.787,3.175 3.64,6.393 5.528,9.603l-0.759,0.456Zm1071.24,-1.012l-0.759,-0.454c1.869,-3.193 3.684,-6.362 5.419,-9.453l0.772,0.432c-1.741,3.096 -3.56,6.275 -5.432,9.475Zm-1083.58,-20.994c-2.218,-4.163 -4.418,-8.394 -6.531,-12.582l0.791,-0.403c2.109,4.185 4.303,8.413 6.518,12.569l-0.778,0.416Zm1095.78,-0.875l-0.778,-0.413c2.225,-4.19 4.403,-8.403 6.475,-12.528l0.794,0.394c-2.078,4.137 -4.262,8.353 -6.491,12.547Zm-1108.54,-24.435c-1.25,-2.625 -2.482,-5.262 -3.681,-7.878l0.8,-0.378c1.2,2.619 2.431,5.253 3.681,7.875l-0.8,0.381Zm1121.23,-0.797l-0.803,-0.381c1.306,-2.753 2.612,-5.556 3.897,-8.378l0.803,0.372c-1.288,2.825 -2.591,5.631 -3.897,8.387Zm-1126.12,-9.74c-0.353,-0.778 -0.703,-1.553 -1.047,-2.328l0.81,-0.363c0.343,0.769 0.69,1.541 1.04,2.316l-0.803,0.375Zm1131.22,-1.3l-0.803,-0.372c0.268,-0.594 0.534,-1.191 0.8,-1.784l0.809,0.362c-0.269,0.6 -0.538,1.197 -0.806,1.794Zm-1137.91,-14.022c-0.268,-0.634 -0.537,-1.272 -0.803,-1.916l0.816,-0.346c0.269,0.643 0.537,1.281 0.803,1.918l-0.816,0.344Zm1144.32,-0.737l-0.812,-0.338c0.356,-0.856 0.712,-1.719 1.072,-2.581l0.812,0.343c-0.356,0.863 -0.716,1.722 -1.072,2.576Zm-1146.24,-3.869c-1.147,-2.794 -2.291,-5.641 -3.422,-8.51l0.819,-0.325c1.131,2.863 2.275,5.7 3.418,8.488l-0.815,0.347Zm1148.42,-1.41l-0.815,-0.343c1.044,-2.566 2.081,-5.153 3.1,-7.744l0.822,0.325c-1.019,2.597 -2.06,5.191 -3.107,7.762Zm-1156.88,-20.331c-1.637,-4.459 -3.228,-8.947 -4.731,-13.347l0.834,-0.284c1.503,4.394 3.094,8.872 4.725,13.322l-0.828,0.309Zm1164.99,-0.591l-0.832,-0.303c1.616,-4.406 3.194,-8.865 4.691,-13.256l0.837,0.288c-1.499,4.393 -3.078,8.862 -4.696,13.271Zm-1174.14,-26.2c-1.059,-3.346 -2.094,-6.721 -3.091,-10.075l0.844,-0.259c0.997,3.35 2.031,6.725 3.091,10.066l-0.844,0.268Zm1183.22,-0.456l-0.844,-0.265c1.185,-3.757 2.344,-7.554 3.456,-11.325l0.844,0.256c-1.109,3.772 -2.272,7.575 -3.456,11.334Zm-1187.14,-12.409c-0.065,-0.225 -0.131,-0.45 -0.197,-0.675l0.847,-0.247c0.066,0.222 0.128,0.441 0.194,0.659l-0.844,0.263Zm-4,-14.303c-0.334,-1.256 -0.668,-2.519 -0.996,-3.785l0.856,-0.231c0.328,1.266 0.659,2.528 0.997,3.788l-0.857,0.228Zm1199.01,-0.338l-0.857,-0.231c0.466,-1.75 0.925,-3.509 1.375,-5.263l0.857,0.229c-0.454,1.753 -0.91,3.512 -1.375,5.265Zm-1200.73,-6.272c-0.606,-2.371 -1.196,-4.743 -1.765,-7.1l0.859,-0.206c0.569,2.347 1.159,4.713 1.763,7.075l-0.857,0.231Zm1202.83,-1.822l-0.856,-0.228c0.469,-1.859 0.928,-3.712 1.372,-5.55l0.856,0.21c-0.444,1.84 -0.903,3.7 -1.372,5.568Zm-1207.81,-19.268c-0.972,-4.453 -1.919,-9.041 -2.816,-13.635l0.866,-0.172c0.897,4.591 1.844,9.163 2.812,13.607l-0.862,0.2Zm1212.76,-1.928l-0.862,-0.197c0.847,-3.96 1.665,-7.953 2.431,-11.891l0.866,0.169c-0.766,3.947 -1.585,7.947 -2.435,11.919Zm-1218.12,-25.619c-0.697,-4.075 -1.356,-8.163 -1.965,-12.181l0.875,-0.138c0.606,4.013 1.262,8.1 1.959,12.172l-0.869,0.147Zm1223.09,-0.172l-0.869,-0.147c0.785,-4.597 1.528,-9.278 2.216,-13.912l0.875,0.128c-0.688,4.64 -1.435,9.331 -2.222,13.931Zm-1227.23,-27.791c-0.234,-1.887 -0.463,-3.778 -0.681,-5.668l0.875,-0.11c0.218,1.891 0.447,3.782 0.684,5.669l-0.878,0.109Zm1231.35,-0.118l-0.878,-0.11c0.322,-2.587 0.628,-5.187 0.919,-7.781l0.878,0.106c-0.291,2.594 -0.6,5.197 -0.919,7.785Zm-1232.37,-8.45c-0.203,-1.835 -0.397,-3.663 -0.578,-5.475l0.878,-0.085c0.182,1.803 0.375,3.622 0.578,5.45l-0.878,0.11Zm1233.6,-2.238l-0.875,-0.106c0.119,-1.11 0.235,-2.216 0.347,-3.319l0.878,0.091c-0.112,1.106 -0.228,2.219 -0.35,3.334Zm1.622,-17.384l-0.881,-0.069c0.038,-0.45 0.072,-0.903 0.106,-1.356l0.878,0.075c-0.034,0.45 -0.068,0.9 -0.103,1.35Zm-1237.23,-1.919c-0.309,-4.066 -0.578,-8.128 -0.8,-12.1l0.881,-0.05c0.222,3.963 0.491,8.016 0.797,12.072l-0.878,0.078Zm1237.55,-2.331l-0.881,-0.075c0.234,-3.253 0.444,-6.535 0.628,-9.803l0.881,0.047c-0.184,3.278 -0.393,6.571 -0.628,9.831Zm-1238.99,-23.872c-0.156,-4.619 -0.262,-9.356 -0.312,-14.081l0.884,-0.019c0.053,4.725 0.157,9.453 0.316,14.062l-0.888,0.038Zm1240.25,-0.066l-0.885,-0.028c0.157,-4.731 0.263,-9.475 0.316,-14.094l0.884,0.01c-0.053,4.625 -0.159,9.375 -0.315,14.112Zm-1239.68,-28.168l-0.881,-0.013c0.028,-2.463 0.072,-4.95 0.128,-7.444l0.885,0.016c-0.06,2.491 -0.1,4.978 -0.132,7.441Zm1239.11,-0.057c-0.038,-3.34 -0.107,-6.694 -0.197,-10.018l0.884,-0.019c0.091,3.328 0.156,6.684 0.197,10.028l-0.884,0.009Zm-1238.9,-10.3l-0.885,-0.012c0.038,-1.253 0.075,-2.507 0.119,-3.757l0.881,0.032c-0.044,1.243 -0.081,2.49 -0.115,3.737Zm1238.62,-2.634c-0.012,-0.388 -0.025,-0.775 -0.04,-1.163l0.884,-0.034c0.013,0.394 0.025,0.787 0.038,1.181l-0.882,0.016Zm-1237.86,-15.191l-0.881,-0.05c0.015,-0.269 0.031,-0.54 0.047,-0.812l0.881,0.043c-0.016,0.276 -0.031,0.547 -0.047,0.819Zm1237.17,-0.062c-0.066,-1.153 -0.134,-2.31 -0.206,-3.469l0.881,-0.047c0.072,1.156 0.141,2.313 0.206,3.466l-0.881,0.05Zm-1236.95,-3.66l-0.884,-0.043c0.218,-3.447 0.465,-6.922 0.737,-10.366l0.881,0.069c-0.275,3.437 -0.518,6.903 -0.734,10.34Zm1236.55,-2.721c-0.172,-2.576 -0.362,-5.147 -0.565,-7.694l0.881,-0.069c0.203,2.553 0.393,5.131 0.565,7.716l-0.881,0.047Zm-1234.54,-21.654l-0.882,-0.087c0.485,-4.684 1.019,-9.4 1.6,-14.019l0.878,0.11c-0.578,4.609 -1.115,9.321 -1.596,13.996Zm1232.7,-0.087c-0.481,-4.672 -1.018,-9.391 -1.6,-14.025l0.875,-0.113c0.585,4.644 1.125,9.369 1.607,14.047l-0.882,0.091Zm-1229.19,-27.863l-0.875,-0.134c0.447,-3.003 0.919,-6.025 1.409,-9.022l0.872,0.138c-0.491,2.993 -0.959,6.012 -1.406,9.018Zm1225.68,-0.14c-0.585,-3.935 -1.219,-7.91 -1.881,-11.844l0.875,-0.141c0.662,3.941 1.293,7.919 1.878,11.854l-0.872,0.131Zm-1223.79,-11.75l-0.875,-0.138c0.116,-0.678 0.228,-1.356 0.344,-2.034l0.875,0.15c-0.116,0.672 -0.231,1.347 -0.344,2.022Zm2.878,-15.872l-0.865,-0.169c0.159,-0.815 0.318,-1.631 0.481,-2.45l0.869,0.166c-0.163,0.822 -0.325,1.637 -0.485,2.453Zm1216.12,-0.21c-0.347,-1.765 -0.7,-3.531 -1.059,-5.284l0.869,-0.172c0.359,1.757 0.712,3.519 1.056,5.288l-0.866,0.168Zm-1215.07,-5.096l-0.866,-0.166c0.575,-2.831 1.178,-5.675 1.794,-8.503l0.865,0.191c-0.615,2.818 -1.215,5.653 -1.793,8.478Zm1213.41,-3.047c-0.4,-1.913 -0.806,-3.81 -1.218,-5.681l0.865,-0.191c0.413,1.878 0.822,3.781 1.222,5.703l-0.869,0.169Zm-1208.46,-19.147l-0.863,-0.209c1.107,-4.563 2.279,-9.157 3.482,-13.66l0.853,0.231c-1.2,4.494 -2.366,9.082 -3.472,13.638Zm1203.66,-1.944c-0.984,-4.009 -2.025,-8.05 -3.09,-12.037l0.853,-0.232c1.072,3.997 2.109,8.047 3.1,12.069l-0.863,0.2Zm-1196.4,-25.247l-0.85,-0.247c1,-3.425 2.044,-6.89 3.116,-10.34l0.844,0.256c-1.069,3.447 -2.113,6.913 -3.11,10.331Zm1189.5,-0.4c-1.256,-4.315 -2.603,-8.74 -4,-13.159l0.844,-0.263c1.397,4.422 2.747,8.854 4.006,13.179l-0.85,0.243Zm-1185.52,-12.712l-0.846,-0.257c0.037,-0.118 0.075,-0.237 0.112,-0.359l0.844,0.266c-0.038,0.119 -0.075,0.234 -0.11,0.35Zm4.5,-13.703l-0.837,-0.288c0.45,-1.312 0.903,-2.628 1.366,-3.947l0.834,0.285c-0.459,1.322 -0.916,2.637 -1.363,3.95Zm1172.49,-0.519c-0.763,-2.231 -1.544,-4.469 -2.341,-6.706l0.838,-0.291c0.793,2.238 1.575,4.478 2.337,6.706l-0.834,0.291Zm-1170.16,-6.178l-0.834,-0.285c0.778,-2.196 1.569,-4.393 2.369,-6.578l0.831,0.303c-0.8,2.182 -1.591,4.372 -2.366,6.56Zm1166.84,-3.272c-0.469,-1.297 -0.941,-2.588 -1.413,-3.875l0.829,-0.303c0.478,1.29 0.949,2.587 1.418,3.89l-0.834,0.288Zm-1159.29,-16.875l-0.825,-0.316c1.663,-4.215 3.388,-8.453 5.128,-12.597l0.813,0.344c-1.735,4.135 -3.453,8.36 -5.116,12.569Zm1152.84,-0.213c-0.053,-0.128 -0.103,-0.259 -0.157,-0.39l0.826,-0.319c0.05,0.128 0.1,0.256 0.153,0.384l-0.822,0.325Zm-1.235,-3.1c-1.325,-3.309 -2.7,-6.656 -4.106,-9.993l0.813,-0.344c1.409,3.344 2.79,6.703 4.118,10.019l-0.825,0.318Zm-1140.88,-22.197l-0.806,-0.359c1.669,-3.734 3.406,-7.522 5.181,-11.287l0.803,0.375c-1.772,3.756 -3.509,7.543 -5.178,11.271Zm1131.13,-0.768c-1.925,-4.294 -3.925,-8.613 -5.94,-12.844l0.797,-0.378c2.018,4.231 4.022,8.559 5.953,12.862l-0.81,0.36Zm-1119.03,-24.706l-0.791,-0.401c0.847,-1.684 1.713,-3.378 2.585,-5.075l0.787,0.4c-0.872,1.697 -1.734,3.391 -2.581,5.076Zm1106.86,-0.838c-1.284,-2.544 -2.596,-5.094 -3.921,-7.631l0.784,-0.403c1.328,2.537 2.641,5.09 3.925,7.634l-0.788,0.4Zm-1102.94,-6.822l-0.791,-0.4c0.85,-1.631 1.71,-3.259 2.572,-4.881l0.778,0.415c-0.859,1.616 -1.712,3.241 -2.559,4.866Zm1097.65,-3.397c-0.416,-0.784 -0.831,-1.565 -1.247,-2.344l0.778,-0.418c0.419,0.784 0.838,1.572 1.256,2.362l-0.787,0.4Zm-8.041,-14.706c-0.309,-0.544 -0.618,-1.091 -0.928,-1.637l0.772,-0.429c0.309,0.544 0.619,1.088 0.925,1.629l-0.769,0.437Zm-1079.35,-0.775l-0.778,-0.428c2,-3.525 4.059,-7.081 6.141,-10.594l0.762,0.45c-2.078,3.506 -4.134,7.056 -6.125,10.572Zm1076.98,-3.391c-1.541,-2.681 -3.113,-5.372 -4.701,-8.037l0.763,-0.45c1.587,2.672 3.166,5.369 4.709,8.059l-0.771,0.428Zm-1063.53,-19.228l-0.75,-0.468c2.41,-3.857 4.894,-7.744 7.4,-11.566l0.741,0.481c-2.5,3.816 -4.984,7.7 -7.391,11.553Zm1051.48,-0.84c-2.493,-3.991 -5.059,-7.982 -7.621,-11.869l0.74,-0.485c2.563,3.891 5.131,7.888 7.635,11.882l-0.754,0.472Zm-1036,-22.738l-0.729,-0.5c1.316,-1.909 2.651,-3.819 3.991,-5.715l0.725,0.503c-1.341,1.9 -2.675,3.806 -3.987,5.712Zm1020.48,-0.819c-1.9,-2.747 -3.85,-5.518 -5.825,-8.278l0.722,-0.506c1.978,2.759 3.931,5.531 5.831,8.281l-0.728,0.503Zm-1014.81,-7.268l-0.724,-0.504c0.824,-1.156 1.65,-2.306 2.474,-3.446l0.716,0.518c-0.822,1.138 -1.644,2.282 -2.466,3.432Zm1007.28,-3.372c-0.21,-0.288 -0.419,-0.575 -0.628,-0.863l0.715,-0.522c0.213,0.294 0.425,0.585 0.635,0.879l-0.722,0.506Zm-996.413,-11.385l-0.703,-0.537c0.041,-0.053 0.084,-0.11 0.125,-0.166l0.709,0.531c-0.043,0.057 -0.087,0.116 -0.131,0.172Zm987.369,-0.79c-0.691,-0.91 -1.391,-1.822 -2.094,-2.735l0.703,-0.534c0.703,0.913 1.403,1.822 2.094,2.731l-0.703,0.538Zm-985.466,-1.703l-0.709,-0.532c2.234,-2.909 4.5,-5.812 6.769,-8.659l0.69,0.55c-2.259,2.841 -4.522,5.738 -6.75,8.641Zm981.585,-3.344c-1.582,-2.028 -3.182,-4.06 -4.791,-6.072l0.691,-0.553c1.612,2.019 3.218,4.056 4.803,6.094l-0.703,0.531Zm-965.928,-16.231l-0.682,-0.563c3.016,-3.615 6.097,-7.231 9.169,-10.747l0.666,0.578c-3.066,3.513 -6.144,7.122 -9.153,10.732Zm952.215,-0.76c-2.984,-3.568 -6.069,-7.175 -9.169,-10.718l0.663,-0.582c3.106,3.547 6.197,7.16 9.184,10.731l-0.678,0.569Zm-933.672,-20.49l-0.653,-0.597c1.813,-1.985 3.663,-3.985 5.531,-5.981l0.65,0.603c-1.868,1.993 -3.715,3.99 -5.528,5.975Zm915.091,-0.735c-2.6,-2.84 -5.253,-5.681 -7.906,-8.472l0.647,-0.606c2.653,2.794 5.309,5.638 7.915,8.481l-0.656,0.597Zm-907.566,-7.365l-0.647,-0.6c0.704,-0.744 1.407,-1.485 2.107,-2.222l0.643,0.612c-0.703,0.735 -1.403,1.472 -2.103,2.21Zm11.96,-12.3l-0.625,-0.625l0.281,-0.282c0.228,-0.225 0.453,-0.45 0.681,-0.678l0.625,0.625c-0.228,0.228 -0.456,0.456 -0.681,0.681l-0.281,0.279Zm876.1,-0.7c-1.15,-1.147 -2.31,-2.294 -3.475,-3.441l0.625,-0.625c1.162,1.144 2.325,2.294 3.475,3.441l-0.625,0.625Zm-873.069,-2.313l-0.628,-0.625c2.331,-2.3 4.7,-4.6 7.062,-6.865l0.613,0.637c-2.36,2.262 -4.719,4.556 -7.047,6.853Zm867.509,-3.166c-1.509,-1.468 -3.025,-2.931 -4.534,-4.371l0.609,-0.638c1.516,1.444 3.035,2.909 4.55,4.385l-0.625,0.624Zm-850.168,-13.321l-0.597,-0.653c3.446,-3.157 6.987,-6.325 10.525,-9.419l0.581,0.665c-3.531,3.088 -7.066,6.254 -10.509,9.407Zm834.518,-1.41c-3.228,-2.931 -6.49,-5.84 -9.719,-8.653l0.582,-0.665c3.234,2.821 6.506,5.734 9.737,8.671l-0.6,0.647Zm-813.293,-17.162l-0.566,-0.675c2.347,-1.963 4.734,-3.932 7.137,-5.875l0.557,0.684c-2.4,1.944 -4.785,3.906 -7.128,5.866Zm792.84,-0.638c-3.306,-2.75 -6.672,-5.5 -10.028,-8.178l0.553,-0.687c3.36,2.681 6.734,5.431 10.044,8.187l-0.569,0.678Zm-783.45,-7.056l-0.556,-0.684c0.512,-0.413 1.025,-0.822 1.537,-1.232l0.55,0.691c-0.509,0.409 -1.021,0.816 -1.531,1.225Zm12.656,-9.894l-0.537,-0.706c0.647,-0.491 1.294,-0.981 1.947,-1.472l0.534,0.703c-0.65,0.491 -1.297,0.985 -1.944,1.475Zm748.722,-0.603c-1.644,-1.247 -3.303,-2.494 -4.972,-3.731l0.535,-0.706c1.662,1.237 3.328,2.484 4.972,3.731l-0.535,0.706Zm-744.443,-2.625l-0.535,-0.706c2.338,-1.747 4.697,-3.484 7.053,-5.197l0.519,0.716c-2.35,1.706 -4.703,3.443 -7.037,5.187Zm737.128,-2.844c-1.344,-0.984 -2.679,-1.959 -4.016,-2.928l0.516,-0.715c1.343,0.968 2.684,1.95 4.028,2.937l-0.528,0.706Zm-718.585,-10.496l-0.503,-0.729c3.881,-2.684 7.819,-5.343 11.71,-7.9l0.484,0.738c-3.885,2.556 -7.816,5.209 -11.691,7.891Zm701.075,-1.922c-3.209,-2.194 -6.472,-4.378 -9.728,-6.516l0.488,-0.741c3.259,2.141 6.531,4.332 9.747,6.532l-0.507,0.725Zm-677.519,-13.591l-0.468,-0.747c2.912,-1.822 5.847,-3.625 8.762,-5.384l0.46,0.756c-2.916,1.756 -5.844,3.556 -8.754,5.375Zm655.916,-0.528c-3.953,-2.463 -8.006,-4.928 -12.053,-7.322l0.45,-0.763c4.05,2.401 8.112,4.869 12.069,7.338l-0.466,0.747Zm-644.669,-6.344l-0.456,-0.756c0.266,-0.159 0.531,-0.316 0.797,-0.475l0.453,0.759c-0.262,0.16 -0.528,0.316 -0.794,0.472Zm12.997,-7.54l-0.434,-0.769c1.006,-0.569 2.019,-1.135 3.034,-1.7l0.431,0.775c-1.015,0.562 -2.024,1.128 -3.031,1.694Zm607.406,-0.488c-2.165,-1.212 -4.343,-2.422 -6.524,-3.609l0.424,-0.775c2.185,1.19 4.366,2.4 6.532,3.615l-0.432,0.769Zm-601.824,-2.619l-0.432,-0.772c2.263,-1.247 4.535,-2.478 6.797,-3.684l0.419,0.778c-2.259,1.206 -4.528,2.435 -6.784,3.678Zm592.74,-2.381c-1.1,-0.594 -2.2,-1.181 -3.294,-1.766l0.416,-0.781c1.097,0.585 2.2,1.175 3.303,1.772l-0.425,0.775Zm-573.397,-7.822l-0.4,-0.787c4.191,-2.116 8.472,-4.216 12.728,-6.244l0.378,0.8c-4.246,2.022 -8.521,4.119 -12.706,6.231Zm557.578,-0.425c-0.209,-0.103 -0.415,-0.209 -0.625,-0.312l0.4,-0.791c0.207,0.106 0.416,0.209 0.625,0.316l-0.4,0.787Zm-3.231,-1.612c-3.15,-1.56 -6.312,-3.094 -9.437,-4.578l0.378,-0.797c3.134,1.487 6.303,3.022 9.459,4.587l-0.4,0.788Zm-528.797,-10.135l-0.362,-0.806c3.387,-1.516 6.809,-3.012 10.209,-4.466l0.347,0.813c-3.394,1.45 -6.809,2.944 -10.194,4.459Zm506.55,-0.34c-4.256,-1.903 -8.612,-3.788 -12.943,-5.607l0.34,-0.815c4.341,1.822 8.7,3.709 12.963,5.612l-0.36,0.81Zm-493.668,-5.26l-0.347,-0.812c0.034,-0.013 0.065,-0.025 0.096,-0.041l0.341,0.816c-0.028,0.012 -0.059,0.025 -0.09,0.037Zm13.19,-5.375l-0.325,-0.822c1.306,-0.515 2.625,-1.031 3.95,-1.543l0.319,0.825c-1.322,0.512 -2.638,1.025 -3.944,1.54Zm454.516,-0.259c-2.669,-1.05 -5.375,-2.091 -8.088,-3.113l0.316,-0.825c2.716,1.022 5.425,2.066 8.097,3.113l-0.325,0.825Zm-447.847,-2.325l-0.319,-0.825c2.175,-0.828 4.366,-1.647 6.556,-2.453l0.307,0.828c-2.185,0.806 -4.372,1.625 -6.544,2.45Zm437.028,-1.81c-0.772,-0.287 -1.547,-0.571 -2.319,-0.856l0.3,-0.828c0.778,0.284 1.557,0.572 2.335,0.86l-0.316,0.824Zm-416.9,-5.459l-0.291,-0.834c4.372,-1.491 8.81,-2.95 13.188,-4.338l0.266,0.841c-4.369,1.384 -8.797,2.84 -13.163,4.331Zm401.322,-0.084c-0.622,-0.213 -1.247,-0.425 -1.875,-0.638l0.287,-0.837c0.625,0.212 1.25,0.425 1.875,0.637l-0.287,0.838Zm-4.638,-1.563c-2.89,-0.962 -5.812,-1.909 -8.721,-2.831l0.265,-0.841c2.919,0.922 5.844,1.872 8.744,2.835l-0.288,0.837Zm-370.003,-6.797l-0.247,-0.85c3.8,-1.106 7.644,-2.19 11.457,-3.221l0.231,0.853c-3.809,1.031 -7.647,2.112 -11.441,3.218Zm347.819,-0.115c-4.463,-1.3 -9.025,-2.572 -13.553,-3.781l0.228,-0.85c4.534,1.206 9.103,2.478 13.575,3.781l-0.25,0.85Zm-320.525,-7.175l-0.209,-0.86c1.621,-0.393 3.256,-0.784 4.897,-1.168l0.199,0.859c-1.637,0.384 -3.265,0.775 -4.887,1.169Zm293.331,-0.075c-3.228,-0.785 -6.481,-1.544 -9.706,-2.272l0.197,-0.859c3.231,0.728 6.484,1.487 9.722,2.271l-0.213,0.86Zm-285.594,-1.753l-0.2,-0.863c2.013,-0.462 4.029,-0.912 6.035,-1.353l0.19,0.866c-2.006,0.437 -4.015,0.887 -6.025,1.35Zm273.041,-1.154c-0.387,-0.084 -0.775,-0.168 -1.159,-0.256l0.187,-0.859c0.388,0.084 0.778,0.169 1.169,0.256l-0.197,0.859Zm-14.947,-3.1c-1.053,-0.206 -2.112,-0.409 -3.172,-0.609l0.166,-0.869c1.063,0.204 2.119,0.407 3.175,0.61l-0.169,0.868Zm-237.168,-0.168l-0.169,-0.866c4.212,-0.815 8.525,-1.603 12.834,-2.344l0.15,0.872c-4.303,0.738 -8.609,1.525 -12.815,2.338Zm231.128,-0.978c-2.607,-0.482 -5.219,-0.947 -7.813,-1.391l0.15,-0.869c2.6,0.444 5.216,0.91 7.828,1.391l-0.165,0.869Zm-204.372,-3.588l-0.135,-0.875c4.204,-0.622 8.444,-1.206 12.632,-1.74l0.109,0.875c-4.181,0.534 -8.416,1.118 -12.606,1.74Zm182.65,-0.022c-4.591,-0.678 -9.285,-1.319 -13.956,-1.903l0.109,-0.878c4.678,0.584 9.381,1.225 13.978,1.906l-0.131,0.875Zm-154.65,-3.484l-0.088,-0.878c1.944,-0.2 3.91,-0.391 5.882,-0.572l0.078,0.878c-1.969,0.184 -3.928,0.375 -5.872,0.572Zm126.693,-0.013c-3.643,-0.371 -7.356,-0.718 -11.065,-1.031l0.075,-0.878c3.715,0.313 7.431,0.656 11.081,1.028l-0.091,0.881Zm-117.915,-0.821l-0.081,-0.879c1.762,-0.156 3.528,-0.303 5.29,-0.443l0.069,0.881c-1.759,0.14 -3.522,0.287 -5.278,0.441Zm103.95,-0.444c-0.022,-0.003 -0.044,-0.003 -0.069,-0.007l0.072,-0.881c0.025,0 0.05,0.003 0.075,0.006l-0.078,0.882Zm-14.128,-0.96c-1.435,-0.081 -2.875,-0.156 -4.319,-0.228l0.044,-0.884c1.443,0.072 2.887,0.15 4.322,0.231l-0.047,0.881Zm-68.485,-0.106l-0.046,-0.881c4.006,-0.216 8.074,-0.394 12.121,-0.531l0.032,0.884c-4.041,0.138 -8.107,0.316 -12.107,0.528Zm61.25,-0.259c-2.287,-0.103 -4.578,-0.194 -6.85,-0.269l0.028,-0.888c2.279,0.079 4.572,0.169 6.866,0.272l-0.044,0.885Zm-35.046,-0.591l-0.007,-0.884c2.341,-0.025 4.7,-0.038 7.06,-0.038c2.209,0 4.422,0.013 6.618,0.035l-0.015,0.881c-2.191,-0.022 -4.397,-0.035 -6.603,-0.035c-2.357,0 -4.713,0.013 -7.053,0.041Z"/><path d="M921.666,1021.1c-4.116,0 -8.213,-0.078 -12.303,-0.231c-0.554,-0.019 -1.116,-0.041 -1.669,-0.066c-11.125,-0.472 -22.144,-1.503 -33.035,-3.084c-0.231,-0.034 -0.456,-0.069 -0.684,-0.103c-48.419,-7.138 -94.172,-25.119 -134.375,-52.753c-0.456,-0.316 -0.916,-0.635 -1.372,-0.95c-2.647,-1.838 -5.272,-3.722 -7.869,-5.644c-0.447,-0.334 -0.897,-0.666 -1.343,-1c-2.579,-1.931 -5.135,-3.906 -7.663,-5.919c-0.437,-0.347 -0.862,-0.687 -1.3,-1.04c-9.122,-7.341 -17.903,-15.219 -26.303,-23.616c-1.988,-1.988 -3.941,-3.994 -5.872,-6.025c-0.381,-0.403 -0.765,-0.809 -1.147,-1.213c-10.09,-10.725 -19.368,-22.031 -27.8,-33.831c-0.322,-0.453 -0.644,-0.906 -0.965,-1.359c-1.872,-2.65 -3.697,-5.316 -5.482,-8.013c-0.306,-0.462 -0.615,-0.931 -0.918,-1.397c-10.135,-15.472 -18.869,-31.731 -26.135,-48.609c-0.218,-0.509 -0.437,-1.022 -0.653,-1.531c-1.269,-2.988 -2.484,-5.985 -3.662,-9.007c-0.2,-0.518 -0.4,-1.04 -0.6,-1.559c-13.238,-34.597 -20.46,-71.578 -21.119,-109.628c-0.013,-0.553 -0.019,-1.113 -0.025,-1.669c-0.019,-1.356 -0.025,-2.712 -0.025,-4.072c0,-9.528 0.409,-18.993 1.222,-28.375c0.05,-0.553 0.1,-1.109 0.15,-1.662c0.297,-3.231 0.64,-6.441 1.031,-9.65c0.069,-0.556 0.138,-1.106 0.206,-1.659c2.341,-18.385 6.238,-36.41 11.625,-53.913c0.163,-0.531 0.328,-1.063 0.494,-1.594c10.025,-31.962 25.037,-62.181 44.638,-89.687c0.321,-0.453 0.646,-0.903 0.971,-1.353c1.882,-2.616 3.803,-5.2 5.769,-7.763c0.341,-0.444 0.681,-0.884 1.022,-1.325c1.972,-2.54 3.988,-5.066 6.037,-7.553c0.354,-0.431 0.71,-0.856 1.066,-1.284c6.344,-7.622 13.072,-14.997 20.172,-22.097c16.791,-16.788 35.106,-31.497 54.634,-43.997c0.469,-0.3 0.935,-0.594 1.407,-0.894c5.903,-3.734 11.925,-7.275 18.04,-10.606c0.488,-0.266 0.978,-0.531 1.469,-0.794c2.825,-1.522 5.675,-2.997 8.544,-4.431c0.5,-0.247 0.994,-0.494 1.494,-0.741c19.731,-9.725 40.415,-17.381 61.79,-22.856c0.541,-0.137 1.078,-0.272 1.619,-0.409c3.097,-0.775 6.216,-1.507 9.341,-2.191c0.543,-0.119 1.084,-0.238 1.631,-0.353c21.234,-4.535 43.081,-6.944 65.281,-7.122c0.556,-0.003 1.113,-0.006 1.669,-0.009c0.331,0 0.665,0 0.997,0c2.856,0 5.709,0.037 8.556,0.109c0.553,0.016 1.112,0.031 1.669,0.047c3.187,0.1 6.368,0.244 9.54,0.434c0.557,0.035 1.107,0.069 1.663,0.107c14.465,0.943 28.744,2.837 42.768,5.656c0.544,0.109 1.091,0.222 1.635,0.334c21.475,4.435 42.337,11.035 62.325,19.697c0.509,0.219 1.019,0.441 1.528,0.666c36.175,15.903 69.447,38.571 98.228,67.353c24.338,24.337 44.3,51.878 59.5,81.675c0.253,0.497 0.506,0.993 0.756,1.49c9.757,19.375 17.507,39.697 23.141,60.694c0.144,0.538 0.287,1.075 0.428,1.616c0.8,3.044 1.553,6.097 2.263,9.169c0.125,0.54 0.253,1.093 0.375,1.634c5.25,23.24 7.943,47.228 7.943,71.637c0,65.888 -19.637,128.757 -56.143,181.929c-0.313,0.456 -0.629,0.912 -0.947,1.368c-10.966,15.797 -23.432,30.728 -37.316,44.616c-42.262,42.259 -94.197,71.344 -150.809,85.178c-0.544,0.131 -1.088,0.263 -1.632,0.394c-3.103,0.74 -6.215,1.434 -9.346,2.084c-0.544,0.113 -1.094,0.225 -1.638,0.334c-10.45,2.113 -21.04,3.71 -31.747,4.782c-0.55,0.056 -1.106,0.109 -1.656,0.162c-3.184,0.303 -6.372,0.56 -9.572,0.769c-0.556,0.038 -1.112,0.072 -1.669,0.103c-6.578,0.4 -13.196,0.6 -19.843,0.6Zm-12.25,-1.265c4.078,0.156 8.168,0.231 12.25,0.231c6.6,0 13.2,-0.2 19.79,-0.603c0.55,-0.035 1.116,-0.069 1.669,-0.107c3.178,-0.209 6.359,-0.468 9.531,-0.775c0.563,-0.053 1.1,-0.106 1.66,-0.162c71.112,-7.2 140.275,-37.984 194.64,-92.35c13.944,-13.944 26.331,-28.85 37.172,-44.525c0.316,-0.456 0.631,-0.916 0.944,-1.375c51.312,-75.013 67.284,-167.131 47.919,-252.781c-0.125,-0.553 -0.247,-1.085 -0.375,-1.635c-0.707,-3.05 -1.46,-6.103 -2.257,-9.131c-0.14,-0.541 -0.284,-1.081 -0.428,-1.616c-5.562,-20.737 -13.231,-41.025 -23,-60.512c-0.253,-0.506 -0.497,-0.991 -0.753,-1.494c-14.931,-29.397 -34.675,-56.966 -59.222,-81.512c-29.09,-29.091 -62.419,-51.432 -98.012,-67.016c-0.516,-0.225 -1.016,-0.444 -1.532,-0.666c-20.103,-8.675 -40.946,-15.215 -62.121,-19.6c-0.554,-0.115 -1.082,-0.221 -1.635,-0.334c-14.078,-2.837 -28.334,-4.731 -42.615,-5.675c-0.563,-0.038 -1.104,-0.072 -1.666,-0.106c-3.159,-0.191 -6.341,-0.338 -9.503,-0.438c-0.563,-0.019 -1.106,-0.034 -1.669,-0.05c-2.844,-0.075 -5.694,-0.112 -8.537,-0.112c-0.322,0 -0.66,0.003 -0.982,0.003c-0.562,0 -1.106,0.003 -1.668,0.009c-21.822,0.178 -43.628,2.556 -65.057,7.141c-0.54,0.115 -1.087,0.234 -1.631,0.353c-3.103,0.681 -6.212,1.413 -9.3,2.184c-0.541,0.138 -1.081,0.272 -1.619,0.413c-21.109,5.403 -41.753,12.972 -61.609,22.719c-0.497,0.243 -0.997,0.49 -1.494,0.737c-2.859,1.422 -5.7,2.888 -8.522,4.4c-0.49,0.263 -0.981,0.528 -1.472,0.791c-6.087,3.303 -12.093,6.815 -17.999,10.537c-0.466,0.294 -0.944,0.597 -1.41,0.894c-19.35,12.334 -37.647,26.934 -54.528,43.816c-7.106,7.106 -13.803,14.456 -20.103,22.037c-0.353,0.425 -0.71,0.86 -1.06,1.284c-2.046,2.491 -4.05,5.001 -6.012,7.538c-0.341,0.444 -0.678,0.884 -1.019,1.325c-23.109,30.222 -40.14,63.647 -51.075,98.572c-0.165,0.534 -0.328,1.059 -0.493,1.594c-5.413,17.606 -9.279,35.578 -11.604,53.725c-0.071,0.547 -0.143,1.109 -0.209,1.659c-0.394,3.197 -0.741,6.409 -1.037,9.613c-0.054,0.559 -0.101,1.103 -0.151,1.662c-0.94,10.759 -1.343,21.547 -1.209,32.341c0.006,0.55 0.016,1.115 0.025,1.668c0.656,37.113 7.684,74.138 21.081,109.263c0.2,0.522 0.397,1.037 0.6,1.559c1.166,3.01 2.375,5.997 3.635,8.975c0.212,0.51 0.434,1.028 0.653,1.535c7.172,16.721 15.828,32.959 25.965,48.503c0.307,0.469 0.607,0.925 0.916,1.394c1.769,2.681 3.594,5.359 5.45,7.996c0.325,0.463 0.638,0.9 0.966,1.36c8.344,11.718 17.581,23.015 27.684,33.762c0.381,0.41 0.763,0.81 1.147,1.216c1.919,2.019 3.869,4.019 5.85,6c8.413,8.415 17.172,16.256 26.247,23.541c0.428,0.343 0.872,0.696 1.3,1.04c2.525,2.003 5.078,3.969 7.647,5.884c0.447,0.335 0.897,0.669 1.344,1.001c2.593,1.915 5.212,3.784 7.849,5.612c0.466,0.322 0.91,0.628 1.376,0.947c50.506,34.584 108.784,53.147 167.609,55.675c0.562,0.025 1.109,0.047 1.669,0.066Z"/><path d="M1611.47,526.269c-2.507,0 -4.904,-1.032 -6.657,-2.785c-1.106,-1.109 -1.956,-2.496 -2.412,-4.093c-33.863,-118.207 -98.253,-227.179 -186.216,-315.138c-87.962,-87.965 -196.934,-152.356 -315.137,-186.215c-4.919,-1.413 -7.863,-6.507 -6.581,-11.388c1.059,-4.031 4.668,-6.65 8.659,-6.65c0.844,0 1.706,0.116 2.562,0.362c121.282,34.741 233.091,100.807 323.335,191.054c90.244,90.24 156.309,202.05 191.05,323.331c1.409,4.915 -1.407,9.94 -6.285,11.222c-0.771,0.203 -1.55,0.3 -2.318,0.3Z"/><path d="M740.194,1397.55c-0.844,0 -1.707,-0.116 -2.566,-0.362c-121.284,-34.741 -233.087,-100.807 -323.334,-191.05c-90.244,-90.244 -156.31,-202.054 -191.053,-323.335c-1.407,-4.916 1.409,-9.937 6.29,-11.222c0.772,-0.203 1.55,-0.3 2.316,-0.3c4.081,0 7.881,2.741 9.072,6.882c33.859,118.199 98.25,227.175 186.212,315.137c87.963,87.966 196.935,152.353 315.138,186.216c1.6,0.456 2.987,1.306 4.094,2.412c2.29,2.291 3.353,5.681 2.487,8.972c-1.059,4.028 -4.666,6.65 -8.656,6.65Z"/><path d="M1143.82,187.075c-71,-30.847 -146.594,-46.272 -222.163,-46.272c-75.587,0 -151.15,15.419 -222.168,46.272l-4.775,-10.247c1.115,-0.487 2.234,-0.969 3.35,-1.447l0.743,1.741l2.688,-1.15l-0.741,-1.731c23.382,-9.857 47.241,-18.085 71.41,-24.682l2.396,8.863l2.816,-0.763l-2.394,-8.862c5.385,-1.441 10.788,-2.8 16.204,-4.081l2.115,9.09l2.85,-0.665l-2.119,-9.088c5.441,-1.256 10.882,-2.428 16.344,-3.522l0.625,3.169l2.856,-0.562l-0.625,-3.169c35.819,-6.975 72.119,-10.463 108.422,-10.463c8.485,0 16.972,0.191 25.447,0.572l-0.103,2.078l2.916,0.138l0.103,-2.078c67.697,3.39 134.937,18.925 198.581,46.609l-4.778,10.25Z"/><path d="M921.659,1268.04c-16.315,0 -32.64,-0.703 -48.909,-2.113l0.734,-8.622l-2.906,-0.243l-0.734,8.606c-5.703,-0.522 -11.381,-1.131 -17.072,-1.828l1.353,-11.213c22.428,2.747 44.984,4.119 67.531,4.119c2.731,0 5.475,-0.019 8.207,-0.059l0.218,11.29c-2.806,0.044 -5.615,0.063 -8.422,0.063Zm11.338,-0.113l-0.222,-11.29c64.288,-1.288 128.403,-13.735 189.553,-37.347l4.072,10.544c-62.384,24.081 -127.816,36.781 -193.403,38.093Zm-83.122,-4.45c-32.103,-4.097 -63.944,-10.95 -95.194,-20.562l3.282,-10.813c30.615,9.425 61.815,16.144 93.265,20.163l-1.353,11.212Zm-97.978,-21.428c-5.456,-1.709 -10.878,-3.497 -16.297,-5.375l1.622,-4.744l-2.756,-0.943l-1.616,4.728c-12.838,-4.525 -25.556,-9.519 -38.134,-14.991l4.778,-10.25c15.559,6.759 31.343,12.781 47.293,18.06l-0.337,1.037l2.228,0.719l0.334,-1.025c2.054,0.669 4.107,1.328 6.169,1.972l-3.284,10.812Zm377.219,-13.272l-4.072,-10.544c6.29,-2.468 12.556,-5.056 18.778,-7.759l4.778,10.25c-0.3,0.128 -0.603,0.26 -0.903,0.391l-4.397,-10.297l-2.678,1.141l4.4,10.306c-5.278,2.253 -10.581,4.425 -15.906,6.512Z"/></g></svg>