<?xml version="1.0" encoding="UTF-8" standalone="no"?><!DOCTYPE svg PUBLIC "-//W3C//DTD SVG 1.1//EN" "http://www.w3.org/Graphics/SVG/1.1/DTD/svg11.dtd"><svg width="100%" height="100%" viewBox="0 0 1097 1087" version="1.1" xmlns="http://www.w3.org/2000/svg" xmlns:xlink="http://www.w3.org/1999/xlink" xml:space="preserve" style="fill-rule:evenodd;clip-rule:evenodd;stroke-linejoin:round;stroke-miterlimit:1.41421;"><g id="Layer9"><path d="M546.475,1062.67l-2.338,0l0,-18.878l0,-1.769l0,-11.659l2.338,0l0,32.306Z"/><path d="M562.953,1086.72l-1.506,-43.081l-0.063,-1.766l-1.259,-36.081l2.338,-0.085l1.262,36.1l0.059,1.766l1.507,43.066l-2.338,0.081Z"/><path d="M581.459,1081.67l-5.075,-72.56l2.328,-0.165l5.075,72.562l-2.328,0.163Z"/><path d="M599.522,1074.93l-3.51,-33.381l-0.184,-1.759l-2.828,-26.894l2.331,-0.247l2.828,26.912l0.185,1.76l3.509,33.365l-2.331,0.244Z"/><path d="M617.287,1068.48l-7.493,-53.309l2.322,-0.325l3.19,22.7l0.244,1.75l4.056,28.856l-2.319,0.328Z"/><path d="M636.753,1073.24l-12.022,-68.187l2.303,-0.4l12.022,68.184l-2.303,0.403Z"/><path d="M658.066,1084l-10.641,-50.05l-0.366,-1.731l-9.456,-44.494l2.285,-0.481l9.459,44.509l0.369,1.731l10.634,50.035l-2.284,0.481Z"/><path d="M674.813,1072.14l-20.022,-80.31l2.265,-0.568l20.022,80.309l-2.265,0.569Z"/><path d="M693.1,1067.55l-11.931,-41.612l-0.488,-1.7l-10.534,-36.741l2.247,-0.65l10.544,36.769l0.484,1.697l11.928,41.587l-2.25,0.65Z"/><path d="M704.406,1041.33l-12.25,-37.712l2.219,-0.719l5.128,15.781l0.547,1.684l6.575,20.247l-2.219,0.719Z"/><path d="M717.378,1024.08l-5.262,-14.459l2.2,-0.803l5.262,14.459l-2.2,0.803Z"/><path d="M750.616,1059.17l-20.038,-49.6l-0.662,-1.638l-18.503,-45.803l2.165,-0.878l18.513,45.825l0.662,1.641l20.028,49.572l-2.165,0.881Z"/><path d="M764.616,1043.34l-35.135,-78.913l2.138,-0.95l35.134,78.913l-2.137,0.95Z"/><path d="M774.828,1021.14l-12.35,-25.325l-0.775,-1.588l-10.847,-22.237l2.103,-1.022l23.969,49.143l-2.1,1.029Z"/><path d="M787.525,1005.92l-9.472,-17.816l-0.831,-1.562l-8.013,-15.069l2.066,-1.094l8.019,15.085l0.831,1.562l9.462,17.8l-2.062,1.094Z"/><path d="M817.669,1021.98l-48.125,-83.362l2.028,-1.169l48.125,83.362l-2.028,1.169Z"/><path d="M827.116,1001.09l-18.757,-30.018l-0.937,-1.503l-17.441,-27.913l1.985,-1.241l17.453,27.932l0.937,1.503l18.741,29.997l-1.981,1.243Z"/><path d="M854.041,1004.86l-2.935,-4.496l-1.397,0.906l-56.1,-83.172l1.938,-1.306l59.122,87.647l-0.628,0.421Z"/><path d="M843.934,960.897l-12.968,-17.85l1.89,-1.369l12.969,17.85l-1.891,1.369Z"/><path d="M868.953,964.041l-17.516,-22.419l-1.087,-1.394l-16.563,-21.197l1.847,-1.443l16.575,21.215l1.088,1.394l17.503,22.4l-1.847,1.444Z"/><path d="M878.991,947.372l-28.128,-33.519l1.79,-1.509l28.125,33.522l-1.787,1.506Z"/><path d="M912.178,957.087l-33.8,-37.543l-1.184,-1.313l-33.197,-36.872l1.737,-1.562l33.21,36.887l1.184,1.316l33.784,37.525l-1.734,1.562Z"/><path d="M925.809,943.591l-69.931,-72.419l1.681,-1.625l34.175,35.391l1.228,1.271l34.525,35.757l-1.678,1.625Z"/><path d="M943.003,933.559l-79.644,-76.909l1.625,-1.681l79.644,76.912l-1.625,1.678Z"/><path d="M932.216,897.825l-16.407,-14.772l-1.318,-1.184l-16.538,-14.891l1.563,-1.737l16.559,14.912l1.312,1.184l16.388,14.754l-1.559,1.734Z"/><path d="M948.103,887.397l-43.153,-36.206l1.506,-1.788l43.153,36.203l-1.506,1.791Z"/><path d="M967.613,879.313l-29.007,-22.663l-1.39,-1.088l-29.807,-23.281l1.447,-1.843l29.822,23.299l1.391,1.088l28.987,22.644l-1.443,1.844Z"/><path d="M981.241,866.056l-31.929,-23.197l-1.428,-1.037l-33.084,-24.038l1.372,-1.89l33.109,24.053l1.428,1.037l31.904,23.178l-1.372,1.894Z"/><path d="M993.237,851.425l-70.39,-47.478l1.303,-1.941l70.391,47.481l-1.304,1.938Z"/><path d="M1012.03,840.909l-42.775,-26.728l-1.5,-0.937l-44.693,-27.928l1.24,-1.985l44.719,27.944l1.497,0.938l42.756,26.715l-1.244,1.981Z"/><path d="M1019.84,823.206l-86.585,-49.984l1.172,-2.031l86.581,49.987l-1.168,2.028Z"/><path d="M992.294,786.878l-5.132,-2.731l-1.562,-0.831l-7.844,-4.172l1.097,-2.066l14.538,7.734l-1.097,2.066Z"/><path d="M1031.78,786.456l-36.472,-17.787l-1.59,-0.778l-39.581,-19.303l1.025,-2.1l39.603,19.315l1.59,0.775l36.45,17.778l-1.025,2.1Z"/><path d="M1019.98,760.503l-39.259,-17.481l0.95,-2.135l39.256,17.482l-0.947,2.134Z"/><path d="M1046.59,751.675l-36.631,-14.8l-1.637,-0.663l-40.519,-16.371l0.875,-2.166l40.541,16.381l1.637,0.663l36.61,14.79l-0.876,2.166Z"/><path d="M1037.68,728.337l-48.434,-17.621l0.806,-2.204l25.55,9.297l1.66,0.607l21.221,7.721l-0.803,2.2Z"/><path d="M1066.88,718.578l-95.415,-31l0.722,-2.219l95.415,31l-0.722,2.219Z"/><path d="M1077.07,701.578l-49.4,-14.162l-1.7,-0.488l-54.435,-15.609l0.647,-2.244l54.453,15.613l1.7,0.484l49.385,14.159l-0.65,2.247Z"/><path d="M1037.5,671.809l-17.319,-4.322l0.566,-2.265l17.319,4.322l-0.566,2.265Z"/><path d="M1083.09,663.384l-46.547,-9.89l-1.732,-0.369l-52.303,-11.116l0.485,-2.284l100.581,21.378l-0.484,2.281Z"/><path d="M1065.53,640.8l-25.45,-4.488l-1.74,-0.306l-31.553,-5.562l0.403,-2.3l31.575,5.565l1.744,0.307l25.421,4.481l-0.4,2.303Z"/><path d="M1045.26,619.334l-12.684,-1.784l0.331,-2.319l12.682,1.782l-0.329,2.321Z"/><path d="M1085.32,605.816l-39.957,-4.197l-1.756,-0.185l-46.75,-4.912l0.247,-2.328l46.769,4.912l1.756,0.185l39.937,4.196l-0.246,2.329Z"/><path d="M1076.79,586.219l-68.287,-4.775l0.163,-2.328l36.849,2.578l1.763,0.122l29.678,2.075l-0.166,2.328Z"/><path d="M1063.06,567.134l-38.931,-1.359l0.085,-2.337l38.928,1.359l-0.082,2.337Z"/><path d="M1052.2,549.053l-3.487,0l-1.772,0l-11.263,0l0,-2.341l16.522,0l0,2.341Z"/><path d="M1034.73,531.959l-0.084,-2.334l17.894,-0.625l0.081,2.341l-17.891,0.618Z"/><path d="M1035.35,514.787l-0.166,-2.34l10.794,-0.753l1.762,-0.122l2.363,-0.166l0.163,2.341l-2.382,0.165l-1.762,0.126l-10.772,0.749Z"/><path d="M986.088,502.728l-0.247,-2.319l58.721,-6.171l1.76,-0.185l50.006,-5.253l0.247,2.319l-50.028,5.256l-1.759,0.187l-58.7,6.166Z"/><path d="M994.606,485.922l-0.328,-2.322l89.294,-12.55l0.328,2.322l-89.294,12.55Z"/><path d="M992.719,470.181l-0.403,-2.3l47.593,-8.393l1.744,-0.31l38.353,-6.762l0.403,2.3l-38.372,6.768l-1.74,0.307l-47.578,8.39Z"/><path d="M1007,450.944l-0.487,-2.285l52.568,-11.171l0.485,2.284l-52.566,11.172Z"/><path d="M1006.08,434.209l-0.566,-2.265l46.675,-11.641l0.566,2.269l-46.675,11.637Z"/><path d="M1004.96,417.291l-0.646,-2.247l24.072,-6.9l1.7,-0.488l14.193,-4.068l0.647,2.246l-14.216,4.075l-1.7,0.488l-24.05,6.894Z"/><path d="M982.725,406.984l-0.722,-2.228l74.341,-24.153l0.722,2.231l-74.341,24.15Z"/><path d="M982.594,389.966l-0.807,-2.191l35.925,-13.072l1.663,-0.606l25.769,-9.378l0.806,2.193l-25.794,9.385l-1.662,0.606l-35.9,13.063Z"/><path d="M980.081,373.487l-0.878,-2.174l32.288,-13.044l1.64,-0.663l22.05,-8.909l0.878,2.172l-55.978,22.618Z"/><path d="M990.878,350.778l-0.95,-2.137l20.856,-9.282l0.947,2.138l-20.853,9.281Z"/><path d="M956.875,348.45l-1.025,-2.103l41.469,-20.225l1.59,-0.775l31.163,-15.203l1.022,2.103l-31.172,15.206l-1.588,0.775l-41.459,20.222Z"/><path d="M944.947,336.712l-1.097,-2.065l82.347,-43.785l1.097,2.066l-82.347,43.784Z"/><path d="M965.916,306.394l-1.169,-2.028l23.609,-13.632l1.172,2.028l-5.94,3.429l-1.532,0.884l-16.14,9.319Z"/><path d="M949.409,296.753l-1.24,-1.99l23.69,-14.807l1.5,-0.937l13.572,-8.482l1.244,1.991l-13.578,8.485l-1.5,0.937l-23.688,14.803Z"/><path d="M945.109,279.625l-1.306,-1.934l28.472,-19.21l1.306,1.935l-28.472,19.209Z"/><path d="M938.684,263.531l-1.378,-1.9l14.913,-10.84l1.431,-1.041l5.081,-3.694l1.381,1.9l-5.087,3.697l-1.431,1.041l-14.91,10.837Z"/><path d="M896.075,275.313l-1.444,-1.844l47.007,-36.722l1.393,-1.088l37.36,-29.184l1.443,1.844l-85.759,66.994Z"/><path d="M894.631,256.297l-1.506,-1.791l66.809,-56.062l1.507,1.79l-66.81,56.063Z"/><path d="M911.731,219.528l-1.562,-1.737l8.853,-7.975l0.969,-0.875l1.562,1.734l-0.969,0.878l-8.853,7.975Z"/><path d="M887.05,219.491l-1.625,-1.682l35.512,-34.293l1.626,1.684l-35.513,34.291Z"/><path d="M860.503,223.162l-1.678,-1.625l64.038,-66.312l1.678,1.628l-27.057,28.019l-1.228,1.272l-35.753,37.018Z"/><path d="M872.641,186.084l-1.738,-1.571l10.806,-11.997l1.185,-1.313l2.375,-2.64l1.734,1.571l-2.375,2.641l-1.184,1.313l-10.803,11.996Z"/><path d="M855.597,179.909l-1.788,-1.496l22.238,-26.504l1.79,1.5l-22.24,26.5Z"/><path d="M837.941,175.231l-1.844,-1.444l18.659,-23.887l1.091,-1.394l10.8,-13.825l1.847,1.444l-10.803,13.828l-1.091,1.394l-18.659,23.884Z"/><path d="M820.862,170.6l-1.89,-1.369l21.728,-29.909l1.041,-1.431l14.187,-19.535l1.891,1.372l-36.957,50.872Z"/><path d="M808.097,160.369l-1.938,-1.316l34.019,-50.425l1.938,1.316l-34.019,50.425Z"/><path d="M801.941,139.388l-1.985,-1.244l11.544,-18.472l0.938,-1.497l4.703,-7.528l1.981,1.244l-4.703,7.525l-0.935,1.496l-11.543,18.476Z"/><path d="M787.438,130.838l-2.029,-1.169l16.4,-28.403l2.028,1.168l-16.399,28.404Z"/><path d="M767.772,131.978l-2.066,-1.097l25.322,-47.628l2.063,1.097l-9.216,17.338l-0.831,1.559l-15.272,28.731Z"/><path d="M755.206,120.194l-2.1,-1.022l12.169,-24.956l0.775,-1.591l6.531,-13.394l2.1,1.025l-6.531,13.391l-0.775,1.591l-12.169,24.956Z"/><path d="M727.038,142.584l-2.138,-0.95l44.3,-99.496l2.138,0.949l-44.3,99.497Z"/><path d="M716.091,128.297l-2.166,-0.878l19.141,-47.375l0.662,-1.638l14.375,-35.584l2.166,0.878l-14.372,35.575l-0.663,1.637l-19.143,47.385Z"/><path d="M705.625,110.831l-2.2,-0.806l13.178,-36.203l0.603,-1.659l8.863,-24.354l2.203,0.807l-22.647,62.215Z"/><path d="M692.366,99.066l-2.219,-0.732l16.275,-50.087l2.219,0.731l-16.275,50.088Z"/><path d="M673.516,104.994l-2.247,-0.641l11.815,-41.197l0.485,-1.697l8.409,-29.325l2.247,0.641l-8.406,29.319l-0.488,1.697l-11.815,41.203Z"/><path d="M662.341,83.306l-2.266,-0.565l9.453,-37.929l2.266,0.569l-9.453,37.925Z"/><path d="M638.953,112.922l-2.284,-0.491l22.331,-105.062l2.284,0.493l-9.728,45.769l-0.365,1.728l-12.238,57.563Z"/><path d="M625.459,100.053l-2.303,-0.403l8.463,-47.991l0.306,-1.743l6.403,-36.316l2.3,0.4l-6.4,36.309l-0.306,1.744l-8.463,48Z"/><path d="M612.362,79.159l-2.321,-0.328l7,-49.784l2.318,0.328l-6.997,49.784Z"/><path d="M594.981,86.441l-2.328,-0.238l4.116,-39.169l0.184,-1.756l2.919,-27.759l2.328,0.237l-2.916,27.753l-0.184,1.76l-4.119,39.172Z"/><path d="M579.591,74.309l-2.329,-0.162l1.994,-28.503l0.122,-1.763l1.209,-17.253l2.329,0.163l-3.325,47.518Z"/><path d="M562.147,99.109l-2.338,-0.072l3.457,-99.037l2.34,0.072l-3.459,99.037Z"/><path d="M546.475,72.419l-2.338,0l0,-27.713l0,-1.769l0,-16.859l2.338,0l0,46.341Z"/><path d="M527.544,72.784l-1.616,-46.387l2.338,-0.072l1.618,46.388l-2.34,0.071Z"/><path d="M510.609,68.509l-2.512,-35.928l2.337,-0.165l0.832,11.868l0.121,1.763l1.56,22.3l-2.338,0.162Z"/><path d="M497.053,99.969l-5.472,-52.066l-0.184,-1.756l-4.403,-41.919l2.322,-0.237l4.4,41.896l0.184,1.76l5.472,52.084l-2.319,0.238Z"/><path d="M482.153,106.922l-14.809,-105.306l2.322,-0.332l14.806,105.307l-2.319,0.331Z"/><path d="M465.637,102.784l-8.765,-49.69l-0.306,-1.741l-7.072,-40.084l2.303,-0.4l7.065,40.062l0.31,1.741l8.765,49.709l-2.3,0.403Z"/><path d="M448.719,99.109l-16.463,-77.434l2.285,-0.494l16.462,77.438l-2.284,0.49Z"/><path d="M426.166,74.856l-5.244,-21.019l2.262,-0.565l5.247,21.019l-2.265,0.565Z"/><path d="M409.538,78.647l-3.797,-13.25l-0.488,-1.697l-1.312,-4.581l2.243,-0.641l1.31,4.559l0.487,1.701l3.803,13.271l-2.246,0.638Z"/><path d="M401.847,110.156l-23.485,-72.269l2.229,-0.731l23.484,72.266l-2.228,0.734Z"/><path d="M377.934,91.438l-5.418,-14.872l-0.607,-1.663l-2.509,-6.887l2.194,-0.804l2.503,6.876l0.606,1.659l5.422,14.884l-2.191,0.807Z"/><path d="M362.822,99.35l-6.597,-16.331l-0.663,-1.641l-3.528,-8.728l2.175,-0.878l3.519,8.709l0.663,1.641l6.606,16.35l-2.175,0.878Z"/><path d="M359.206,132.781l-35.572,-79.89l2.138,-0.954l35.572,79.894l-2.138,0.95Z"/><path d="M338.269,126.059l-13.869,-28.437l-0.775,-1.588l-10.55,-21.631l2.1,-1.025l10.541,21.613l0.775,1.587l13.878,28.456l-2.1,1.025Z"/><path d="M321.525,129.503l-22.694,-42.669l2.066,-1.096l22.691,42.668l-2.063,1.097Z"/><path d="M306.331,136.319l-22.719,-39.366l2.029,-1.169l9.193,15.928l0.885,1.532l12.64,21.903l-2.028,1.172Z"/><path d="M294.147,148.156l-15.322,-24.519l-0.938,-1.496l-11.884,-19.022l1.991,-1.241l11.872,18.997l0.937,1.497l15.335,24.54l-1.991,1.244Z"/><path d="M269.828,141.569l-8.65,-12.825l1.938,-1.316l8.65,12.825l-1.938,1.316Z"/><path d="M277.775,181.653l-27.666,-38.075l-1.037,-1.428l-24.325,-33.475l1.9,-1.372l24.303,33.447l1.041,1.431l27.687,38.103l-1.903,1.369Z"/><path d="M254.356,177.388l-18.05,-23.104l-1.09,-1.393l-14.788,-18.932l1.844,-1.443l33.928,43.428l-1.844,1.444Z"/><path d="M250.663,198.553l-53.538,-63.797l1.788,-1.5l53.54,63.8l-1.79,1.497Z"/><path d="M242.725,213.591l-32.856,-36.494l-1.185,-1.316l-29.84,-33.14l1.737,-1.572l29.825,33.128l1.185,1.312l32.868,36.51l-1.734,1.572Z"/><path d="M212.387,204.819l-28.609,-29.625l1.681,-1.625l28.61,29.628l-1.682,1.622Z"/><path d="M215.759,231.275l-59.915,-57.859l1.625,-1.682l27.956,26.997l1.272,1.228l30.687,29.635l-1.625,1.681Z"/><path d="M213.841,251.006l-40.485,-36.456l-1.312,-1.181l-37.96,-34.182l1.572,-1.734l37.938,34.16l1.312,1.184l40.507,36.475l-1.572,1.734Z"/><path d="M202.203,261.512l-79.247,-66.493l1.5,-1.791l79.247,66.494l-1.5,1.79Z"/><path d="M159.231,247.738l-7.959,-6.219l-1.394,-1.088l-5.8,-4.534l1.441,-1.847l5.784,4.519l1.394,1.09l7.978,6.232l-1.444,1.847Z"/><path d="M150.416,262.425l-18.397,-13.362l1.368,-1.904l18.4,13.366l-1.371,1.9Z"/><path d="M170.45,296.453l-78.378,-52.866l1.316,-1.934l78.378,52.863l-1.316,1.937Z"/><path d="M162.384,309.991l-40.546,-25.332l-1.497,-0.937l-39.085,-24.419l1.244,-1.994l39.062,24.41l1.501,0.937l40.562,25.344l-1.241,1.991Z"/><path d="M130.037,309.478l-34.293,-19.794l1.168,-2.028l34.294,19.794l-1.169,2.028Z"/><path d="M139.747,333.569l-34.922,-18.566l-1.556,-0.831l-34.035,-18.094l1.097,-2.065l34.01,18.084l1.562,0.831l34.941,18.575l-1.097,2.066Z"/><path d="M136.731,349.912l-39.594,-19.312l-1.59,-0.775l-39.028,-19.038l1.022,-2.103l80.215,39.125l-1.025,2.103Z"/><path d="M125.587,362.297l-72.568,-32.309l0.953,-2.138l72.566,32.313l-0.951,2.134Z"/><path d="M92.613,366.244l-9.188,-3.71l-1.641,-0.662l-9.306,-3.759l0.875,-2.172l9.285,3.75l1.64,0.659l9.21,3.719l-0.875,2.175Z"/><path d="M114.534,392.344l-76.393,-27.81l0.803,-2.19l76.393,27.806l-0.803,2.194Z"/><path d="M106.991,406.703l-72.56,-23.578l0.728,-2.228l35.847,11.647l1.681,0.547l35.032,11.384l-0.728,2.228Z"/><path d="M104.697,422.753l-37.553,-10.769l-1.7,-0.484l-38.806,-11.128l0.64,-2.247l38.784,11.122l1.7,0.487l37.572,10.772l-0.637,2.247Z"/><path d="M75.703,432.006l-29.015,-7.234l0.568,-2.266l29.013,7.235l-0.566,2.265Z"/><path d="M66.622,447.338l-7.416,-1.579l-1.728,-0.368l-9.466,-2.013l0.494,-2.281l9.431,2.003l1.729,0.369l7.45,1.584l-0.494,2.285Z"/><path d="M102.144,470.931l-46.016,-8.115l-1.741,-0.307l-48.44,-8.54l0.403,-2.303l96.2,16.962l-0.406,2.303Z"/><path d="M97.069,486.066l-91.413,-12.841l0.328,-2.322l91.413,12.844l-0.328,2.319Z"/><path d="M97.35,501.972l-45.603,-4.794l-1.759,-0.184l-48.772,-5.125l0.237,-2.322l48.756,5.125l1.757,0.184l45.625,4.794l-0.241,2.322Z"/><path d="M84.025,516.806l-72.441,-5.068l0.163,-2.341l72.444,5.072l-0.166,2.337Z"/><path d="M93.606,533.278l-43.853,-1.528l-1.769,-0.063l-47.718,-1.662l0.072,-2.341l47.709,1.663l1.766,0.062l43.865,1.528l-0.072,2.341Z"/><path d="M72.587,549.053l-22.937,0l-1.766,0l-27.128,0l0,-2.341l51.831,0l0,2.341Z"/><path d="M34.841,566.878l-0.072,-2.334l24.334,-0.85l0.072,2.337l-24.334,0.847Z"/><path d="M1.388,587.091l-0.163,-2.329l48.063,-3.362l1.765,-0.125l43.331,-3.031l0.163,2.328l-43.313,3.031l-1.762,0.125l-48.084,3.363Z"/><path d="M6.241,605.722l-0.238,-2.328l86.563,-9.103l0.237,2.328l-86.562,9.103Z"/><path d="M14.634,623.647l-0.328,-2.319l38.791,-5.45l1.753,-0.247l33.559,-4.715l0.328,2.318l-74.103,10.413Z"/><path d="M0.403,645.153l-0.403,-2.303l55.894,-9.856l1.74,-0.306l50.45,-8.897l0.404,2.303l-50.432,8.893l-1.74,0.307l-55.913,9.859Z"/><path d="M18.409,661.075l-0.497,-2.284l78.81,-16.754l0.494,2.285l-78.807,16.753Z"/><path d="M18.372,680.469l-0.569,-2.266l45.447,-11.331l1.716,-0.428l39.631,-9.881l0.566,2.265l-39.616,9.878l-1.716,0.428l-45.459,11.335Z"/><path d="M24.044,698.569l-0.641,-2.247l84.528,-24.241l0.638,2.247l-84.525,24.241Z"/><path d="M26.247,717.766l-0.731,-2.219l90.39,-29.375l0.728,2.222l-90.387,29.372Z"/><path d="M59.131,726.084l-0.803,-2.2l20.294,-7.387l1.662,-0.606l14.072,-5.122l0.803,2.2l-14.062,5.118l-1.663,0.607l-20.303,7.39Z"/><path d="M64.2,743.522l-0.875,-2.166l38.428,-15.522l0.878,2.163l-38.431,15.525Z"/><path d="M54.472,767.697l-0.95,-2.138l38.181,-17l1.616,-0.718l31.765,-14.144l0.954,2.141l-31.757,14.137l-1.612,0.719l-38.197,17.003Z"/><path d="M60.356,785.709l-1.025,-2.103l74.578,-36.372l1.025,2.103l-33.24,16.21l-1.591,0.778l-39.747,19.384Z"/><path d="M85.422,793.731l-1.097,-2.062l40.331,-21.444l1.097,2.063l-40.331,21.443Z"/><path d="M84.994,815l-1.172,-2.031l31.591,-18.241l1.531,-0.881l25.012,-14.444l1.172,2.031l-25.003,14.435l-1.528,0.884l-31.603,18.247Z"/><path d="M115.384,817.903l-1.243,-1.981l15.35,-9.588l1.24,1.982l-15.347,9.587Z"/><path d="M123.772,833.631l-1.319,-1.937l11.385,-7.685l1.465,-0.99l4.763,-3.216l1.315,1.938l-4.759,3.212l-1.466,0.991l-11.384,7.687Z"/><path d="M132.559,849.209l-1.371,-1.89l20.059,-14.578l1.372,1.89l-6.01,4.369l-1.431,1.037l-12.619,9.172Z"/><path d="M128.822,874.766l-1.444,-1.847l48.553,-37.935l1.444,1.847l-48.553,37.935Z"/><path d="M136.731,892.241l-1.497,-1.794l29.913,-25.097l1.356,-1.137l23.422,-19.654l1.497,1.791l-23.413,19.644l-1.353,1.137l-29.925,25.11Z"/><path d="M139.291,915.037l-1.572,-1.737l72.487,-65.266l1.572,1.738l-72.487,65.265Z"/><path d="M172.816,909.216l-1.625,-1.682l17.115,-16.525l1.272,-1.228l10.844,-10.468l1.625,1.681l-29.231,28.222Z"/><path d="M171.372,936.781l-1.681,-1.625l30.828,-31.922l1.231,-1.275l24.725,-25.6l1.681,1.625l-24.722,25.597l-1.228,1.272l-30.834,31.928Z"/><path d="M196.822,936.656l-1.734,-1.562l31.396,-34.872l1.735,1.562l-31.397,34.872Z"/><path d="M210.725,948.441l-1.791,-1.504l17.238,-20.54l1.137,-1.356l11.544,-13.76l1.791,1.506l-11.544,13.757l-1.138,1.356l-17.237,20.541Z"/><path d="M233.647,948.697l-1.847,-1.444l11.191,-14.328l1.846,1.444l-11.19,14.328Z"/><path d="M233.981,978.369l-1.897,-1.369l21.257,-29.256l1.037,-1.432l16.063,-22.106l1.9,1.369l-38.36,52.794Z"/><path d="M239.538,1003.29l-1.938,-1.31l29.866,-44.275l0.99,-1.465l24.95,-36.991l1.938,1.306l-24.953,36.991l-0.988,1.469l-29.865,44.275Z"/><path d="M253.019,1017.84l-1.991,-1.241l58.091,-92.95l1.99,1.244l-58.09,92.947Z"/><path d="M269.666,1027.66l-2.029,-1.169l29.075,-50.365l0.885,-1.531l24.722,-42.819l2.028,1.169l-24.722,42.822l-0.884,1.531l-29.075,50.362Z"/><path d="M301.125,1009.6l-2.063,-1.094l22.232,-41.809l2.065,1.094l-8.668,16.303l-0.832,1.562l-12.734,23.944Z"/><path d="M317.131,1018.38l-2.103,-1.022l21.275,-43.637l2.103,1.022l-21.275,43.637Z"/><path d="M332.925,1027.78l-2.138,-0.95l12.019,-26.994l0.719,-1.618l8.538,-19.169l2.137,0.953l-8.538,19.172l-0.721,1.615l-12.016,26.991Z"/><path d="M341.328,1055.87l-2.175,-0.875l36.541,-90.447l2.175,0.878l-36.541,90.444Z"/><path d="M359.031,1063.07l-2.19,-0.803l17.968,-49.363l0.603,-1.662l15.079,-41.422l2.193,0.803l-15.078,41.422l-0.606,1.666l-17.969,49.359Z"/><path d="M375.309,1074.88l-2.228,-0.719l0.338,-1.037l33.709,-103.775l2.228,0.722l-15.456,47.584l-0.547,1.678l-17.709,54.522l-0.335,1.025Z"/><path d="M398.284,1064.85l-2.247,-0.65l21.404,-74.647l2.246,0.65l-21.403,74.647Z"/><path d="M417.506,1065.3l-2.265,-0.562l9.081,-36.441l0.428,-1.716l7.097,-28.478l2.265,0.569l-7.096,28.478l-0.429,1.716l-9.081,36.434Z"/><path d="M437.109,1062.52l-2.284,-0.482l11.338,-53.312l2.281,0.481l-11.335,53.313Z"/><path d="M458.156,1048.88l-2.303,-0.4l2.26,-12.815l0.306,-1.741l0.868,-4.931l2.304,0.403l-3.435,19.484Z"/><path d="M474.25,1061.89l-2.319,-0.328l3.244,-23.094l0.244,-1.747l2.147,-15.291l2.321,0.332l-2.149,15.293l-0.244,1.75l-3.244,23.085Z"/><path d="M492.303,1063.33l-2.322,-0.243l4.085,-38.85l2.318,0.246l-4.081,38.847Z"/><path d="M509.575,1075.6l-2.337,-0.162l2.318,-33.119l0.122,-1.766l1.788,-25.556l2.34,0.166l-1.79,25.565l-0.125,1.766l-2.316,33.106Z"/><path d="M528.459,1063.92l-2.34,-0.081l1.234,-35.344l2.338,0.081l-1.232,35.344Z"/></g></svg>