<?xml version="1.0" encoding="UTF-8" standalone="no"?><!DOCTYPE svg PUBLIC "-//W3C//DTD SVG 1.1//EN" "http://www.w3.org/Graphics/SVG/1.1/DTD/svg11.dtd"><svg width="100%" height="100%" viewBox="0 0 1240 1103" version="1.1" xmlns="http://www.w3.org/2000/svg" xmlns:xlink="http://www.w3.org/1999/xlink" xml:space="preserve" style="fill-rule:evenodd;clip-rule:evenodd;stroke-linejoin:round;stroke-miterlimit:1.41421;"><g id="Layer6"><path d="M549.559,981.156c0.597,0 1.185,0.044 1.763,0.135c13.156,2.068 23.381,29.8 34.209,59.162c10.632,28.828 21.625,58.641 34.003,58.641c12.379,0 23.372,-29.813 34.004,-58.641c10.825,-29.362 21.053,-57.094 34.209,-59.162c13.612,-2.175 32.272,21.54 51.994,46.612c18.625,23.681 37.881,48.163 49.162,44.5c11.606,-3.769 12.819,-35.322 13.988,-65.84c1.209,-31.466 2.35,-61.188 14.35,-67.316c12.175,-6.219 37.109,10.428 63.503,28.05c25.193,16.822 51.253,34.209 60.937,27.15c9.772,-7.113 1.213,-37.363 -7.068,-66.613c-8.613,-30.434 -16.747,-59.184 -7.144,-68.787c9.606,-9.616 38.353,-1.469 68.787,7.144c29.253,8.284 59.5,16.84 66.616,7.068c7.059,-9.7 -10.331,-35.746 -27.15,-60.937c-17.622,-26.394 -34.266,-51.325 -28.053,-63.506c6.131,-12 35.853,-13.141 67.319,-14.347c30.518,-1.172 62.075,-2.385 65.843,-13.991c3.663,-11.281 -20.822,-30.537 -44.503,-49.162c-25.072,-19.719 -48.756,-38.347 -46.612,-51.991c2.068,-13.159 29.803,-23.384 59.162,-34.209c28.831,-10.635 58.644,-21.628 58.644,-34.007c0,-12.378 -29.813,-23.371 -58.641,-34.003c-29.362,-10.828 -57.097,-21.053 -59.165,-34.212c-2.144,-13.647 21.54,-32.272 46.612,-51.991c23.681,-18.625 48.166,-37.881 44.503,-49.162c-3.768,-11.61 -35.325,-12.819 -65.84,-13.988c-31.469,-1.209 -61.191,-2.35 -67.316,-14.35c-6.219,-12.178 10.425,-37.109 28.047,-63.503c16.819,-25.191 34.209,-51.237 27.15,-60.934c-7.109,-9.778 -37.363,-1.213 -66.613,7.062c-30.434,8.616 -59.184,16.75 -68.787,7.147c-9.606,-9.603 -1.469,-38.353 7.144,-68.787c8.278,-29.254 16.84,-59.504 7.065,-66.616c-9.69,-7.056 -35.744,10.331 -60.934,27.15c-26.394,17.622 -51.322,34.262 -63.506,28.047c-12,-6.125 -13.141,-35.847 -14.35,-67.316c-1.169,-30.512 -2.378,-62.069 -13.988,-65.837c-11.272,-3.657 -30.541,20.822 -49.162,44.5c-19.722,25.072 -38.363,48.734 -51.994,46.609c-13.156,-2.066 -23.384,-29.8 -34.209,-59.159c-10.632,-28.828 -21.625,-58.641 -34.004,-58.641c-12.378,0 -23.371,29.813 -34.003,58.644c-10.828,29.356 -21.053,57.09 -34.209,59.156c-13.672,2.122 -32.275,-21.537 -51.997,-46.609c-18.625,-23.682 -37.897,-48.175 -49.159,-44.5c-11.607,3.768 -12.819,35.322 -13.991,65.837c-1.206,31.469 -2.347,61.191 -14.347,67.316c-12.187,6.231 -37.109,-10.428 -63.503,-28.047c-25.191,-16.819 -51.244,-34.2 -60.937,-27.15c-9.772,7.112 -1.213,37.359 7.065,66.612c8.616,30.438 16.753,59.185 7.147,68.788c-9.609,9.603 -38.356,1.469 -68.787,-7.144c-29.257,-8.278 -59.507,-16.844 -66.619,-7.065c-7.056,9.696 10.331,35.746 27.153,60.934c17.622,26.394 34.266,51.325 28.05,63.506c-6.128,12 -35.85,13.141 -67.316,14.347c-30.518,1.172 -62.075,2.381 -65.843,13.991c-3.663,11.281 20.821,30.537 44.5,49.159c25.075,19.722 48.759,38.35 46.612,51.997c-2.066,13.156 -29.8,23.381 -59.159,34.209c-28.832,10.632 -58.644,21.625 -58.644,34.003c0,12.379 29.812,23.372 58.644,34.007c29.359,10.825 57.093,21.05 59.159,34.209c2.147,13.644 -21.537,32.272 -46.612,51.994c-23.679,18.622 -48.163,37.881 -44.5,49.159c3.768,11.606 35.325,12.819 65.843,13.991c31.466,1.206 61.188,2.347 67.316,14.347c6.216,12.181 -10.428,37.112 -28.05,63.506c-16.822,25.187 -34.209,51.234 -27.153,60.934c7.112,9.775 37.362,1.213 66.615,-7.068c30.438,-8.613 59.185,-16.754 68.791,-7.144c9.603,9.603 1.466,38.353 -7.147,68.79c-8.278,29.25 -16.84,59.5 -7.065,66.613c9.687,7.059 35.743,-10.331 60.934,-27.15c26.394,-17.625 51.316,-34.269 63.506,-28.05c12,6.128 13.141,35.85 14.347,67.316c1.172,30.518 2.384,62.071 13.991,65.84c11.281,3.678 30.537,-20.822 49.162,-44.5c18.885,-24.009 36.766,-46.747 50.231,-46.747Zm69.975,121.063c-14.556,0 -25.425,-29.475 -36.934,-60.681c-10.041,-27.225 -20.419,-55.375 -31.766,-57.16c-11.875,-1.869 -30.759,22.197 -49.05,45.456c-20.175,25.654 -39.237,49.866 -52.584,45.544c-13.681,-4.444 -14.878,-35.656 -16.147,-68.697c-1.122,-29.181 -2.278,-59.356 -12.647,-64.65c-10.559,-5.384 -35.865,11.519 -60.35,27.866c-27.281,18.212 -53.047,35.412 -64.509,27.078c-11.534,-8.397 -3.066,-38.316 5.9,-69.994c7.991,-28.228 16.25,-57.422 7.944,-65.728c-8.31,-8.309 -37.497,-0.047 -65.728,7.944c-31.679,8.962 -61.6,17.428 -69.994,5.897c-8.341,-11.46 8.862,-37.225 27.078,-64.51c16.347,-24.484 33.25,-49.8 27.866,-60.346c-5.294,-10.372 -35.472,-11.529 -64.654,-12.647c-33.04,-1.266 -64.25,-2.466 -68.693,-16.147c-4.335,-13.356 19.89,-32.41 45.54,-52.581c23.266,-18.297 47.319,-37.219 45.457,-49.057c-1.785,-11.34 -29.932,-21.725 -57.154,-31.762c-31.209,-11.506 -60.687,-22.378 -60.687,-36.935c0,-14.556 29.478,-25.428 60.687,-36.934c27.222,-10.041 55.369,-20.419 57.154,-31.762c1.862,-11.841 -22.194,-30.76 -45.457,-49.057c-25.65,-20.172 -49.875,-39.225 -45.54,-52.581c4.443,-13.681 35.653,-14.881 68.693,-16.147c29.182,-1.119 59.36,-2.278 64.654,-12.647c5.384,-10.547 -11.519,-35.865 -27.866,-60.35c-18.213,-27.281 -35.419,-53.05 -27.078,-64.509c8.397,-11.531 38.318,-3.066 69.994,5.9c28.234,7.991 57.421,16.253 65.728,7.941c8.309,-8.307 0.047,-37.497 -7.944,-65.729c-8.966,-31.675 -17.434,-61.596 -5.9,-69.99c11.469,-8.341 37.231,8.865 64.512,27.078c24.485,16.347 49.807,33.253 60.347,27.866c10.369,-5.294 11.528,-35.472 12.647,-64.657c1.269,-33.037 2.466,-64.247 16.147,-68.687c13.353,-4.328 32.406,19.887 52.584,45.54c18.294,23.26 37.2,47.319 49.05,45.454c11.347,-1.782 21.725,-29.932 31.766,-57.154c11.506,-31.206 22.378,-60.684 36.934,-60.684c14.557,0 25.425,29.478 36.935,60.684c10.037,27.222 20.419,55.372 31.765,57.154c11.825,1.859 30.754,-22.194 49.05,-45.454c20.175,-25.65 39.254,-49.871 52.585,-45.54c13.681,4.44 14.878,35.65 16.147,68.69c1.118,29.182 2.278,59.36 12.647,64.654c10.54,5.371 35.865,-11.519 60.349,-27.866c27.279,-18.213 53.041,-35.416 64.51,-27.075c11.534,8.394 3.066,38.312 -5.9,69.991c-7.988,28.228 -16.25,57.418 -7.941,65.728c8.313,8.309 37.497,0.047 65.725,-7.944c31.678,-8.966 61.594,-17.438 69.994,-5.897c8.341,11.459 -8.862,37.228 -27.078,64.509c-16.347,24.485 -33.25,49.8 -27.866,60.347c5.294,10.369 35.469,11.528 64.653,12.647c33.044,1.269 64.25,2.466 68.694,16.147c4.338,13.356 -19.89,32.409 -45.544,52.584c-23.259,18.294 -47.315,37.213 -45.453,49.05c1.781,11.344 29.931,21.725 57.153,31.766c31.21,11.509 60.688,22.378 60.688,36.934c0,14.557 -29.478,25.429 -60.688,36.935c-27.222,10.037 -55.372,20.422 -57.153,31.762c-1.862,11.838 22.194,30.757 45.453,49.053c25.654,20.175 49.882,39.229 45.544,52.585c-4.444,13.681 -35.653,14.881 -68.694,16.147c-29.184,1.118 -59.359,2.275 -64.653,12.647c-5.384,10.546 11.519,35.865 27.866,60.35c18.212,27.281 35.415,53.05 27.075,64.509c-8.388,11.537 -38.313,3.069 -69.991,-5.897c-28.231,-7.991 -57.422,-16.247 -65.728,-7.944c-8.306,8.307 -0.047,37.497 7.944,65.725c8.962,31.678 17.431,61.597 5.897,69.994c-11.456,8.341 -37.228,-8.862 -64.51,-27.078c-24.487,-16.347 -49.793,-33.241 -60.35,-27.866c-10.365,5.294 -11.525,35.469 -12.643,64.65c-1.269,33.044 -2.466,64.253 -16.147,68.697c-13.325,4.328 -32.41,-19.89 -52.585,-45.544c-18.293,-23.259 -37.218,-47.378 -49.05,-45.456c-11.346,1.785 -21.728,29.935 -31.765,57.16c-11.51,31.206 -22.378,60.681 -36.935,60.681Z" style="fill-rule:nonzero;"/></g></svg>