<?xml version="1.0" encoding="UTF-8" standalone="no"?><!DOCTYPE svg PUBLIC "-//W3C//DTD SVG 1.1//EN" "http://www.w3.org/Graphics/SVG/1.1/DTD/svg11.dtd"><svg width="100%" height="100%" viewBox="0 0 1240 1103" version="1.1" xmlns="http://www.w3.org/2000/svg" xmlns:xlink="http://www.w3.org/1999/xlink" xml:space="preserve" style="fill-rule:evenodd;clip-rule:evenodd;stroke-linejoin:round;stroke-miterlimit:1.41421;"><g id="Layer6"><path d="M619.534,973.772c42.497,0 93.629,30.925 143.075,60.831c49.175,29.741 96.241,58.206 134.429,58.213c11.075,0 21.396,-2.394 30.812,-7.841c43.856,-25.378 42.1,-100.5 40.397,-173.147c-1.322,-56.356 -2.688,-114.631 17.45,-149.431c19.156,-33.113 66.812,-58.834 117.266,-86.063c65.378,-35.281 132.984,-71.765 132.984,-125.225c0,-53.462 -67.606,-89.946 -132.988,-125.228c-50.45,-27.228 -98.106,-52.944 -117.262,-86.059c-20.138,-34.8 -18.772,-93.075 -17.45,-149.431c1.703,-72.647 3.459,-147.766 -40.397,-173.144c-41.884,-24.238 -101.809,12.003 -165.244,50.372c-49.443,29.906 -100.575,60.831 -143.072,60.831c-42.496,0 -93.625,-30.925 -143.075,-60.831c-63.434,-38.369 -123.353,-74.606 -165.24,-50.372c-43.863,25.378 -42.1,100.497 -40.397,173.144c1.322,56.356 2.687,114.631 -17.45,149.431c-19.16,33.115 -66.813,58.831 -117.266,86.059c-65.378,35.282 -132.981,71.766 -132.981,125.228c0,53.46 67.603,89.944 132.981,125.229c50.453,27.228 98.11,52.946 117.269,86.059c20.134,34.8 18.769,93.075 17.447,149.431c-1.703,72.65 -3.466,147.769 40.397,173.147c41.884,24.234 101.806,-12.006 165.24,-50.372c49.447,-29.906 100.579,-60.831 143.075,-60.831Zm-277.525,122.178c-11.578,0 -22.415,-2.519 -32.356,-8.272c-45.462,-26.303 -43.678,-102.365 -41.956,-175.925c1.312,-55.922 2.669,-113.75 -17.025,-147.794c-18.719,-32.346 -65.997,-57.859 -116.047,-84.871c-66.187,-35.719 -134.625,-72.654 -134.625,-127.979c0,-55.328 68.438,-92.259 134.625,-127.978c50.05,-27.012 97.328,-52.525 116.044,-84.875c19.694,-34.04 18.34,-91.868 17.028,-147.794c-1.722,-73.556 -3.506,-149.615 41.956,-175.918c43.491,-25.172 104.175,11.54 168.425,50.4c49.081,29.684 99.831,60.381 141.456,60.381c41.625,0 92.375,-30.697 141.457,-60.381c64.25,-38.863 124.937,-75.569 168.425,-50.403c45.462,26.306 43.681,102.365 41.956,175.925c-1.313,55.922 -2.666,113.75 17.028,147.79c18.716,32.35 65.991,57.863 116.047,84.875c66.184,35.719 134.625,72.65 134.625,127.978c0,55.325 -68.441,92.26 -134.625,127.979c-50.053,27.012 -97.331,52.525 -116.047,84.871c-19.694,34.044 -18.341,91.872 -17.028,147.794c1.725,73.56 3.506,149.622 -41.956,175.925c-43.488,25.163 -104.175,-11.54 -168.425,-50.4c-49.082,-29.687 -99.832,-60.381 -141.457,-60.381c-41.625,0 -92.375,30.694 -141.456,60.381c-49.562,29.975 -97.006,58.672 -136.069,58.672Z" style="fill-rule:nonzero;"/></g></svg>