<?xml version="1.0" encoding="UTF-8" standalone="no"?><!DOCTYPE svg PUBLIC "-//W3C//DTD SVG 1.1//EN" "http://www.w3.org/Graphics/SVG/1.1/DTD/svg11.dtd"><svg width="100%" height="100%" viewBox="0 0 1240 1103" version="1.1" xmlns="http://www.w3.org/2000/svg" xmlns:xlink="http://www.w3.org/1999/xlink" xml:space="preserve" style="fill-rule:evenodd;clip-rule:evenodd;stroke-linejoin:round;stroke-miterlimit:1.41421;"><g id="Layer6"><path d="M476.734,50.75c-6.462,0 -12.753,0.863 -18.85,2.844c-27.759,9.012 -45.953,38.615 -63.55,67.247c-13.443,21.875 -27.346,44.497 -45.459,57.678c-18.412,13.4 -44.456,19.744 -69.647,25.881c-32.409,7.897 -65.925,16.059 -82.819,39.275c-16.671,22.903 -14.146,57.097 -11.709,90.166c1.916,26.025 3.9,52.937 -3.241,74.922c-6.762,20.837 -23.759,40.765 -40.196,60.04c-21.985,25.775 -44.716,52.428 -44.716,82.306c0,29.879 22.734,56.532 44.716,82.31c16.437,19.275 33.434,39.203 40.196,60.04c7.141,21.985 5.157,48.894 3.241,74.919c-2.437,33.069 -4.962,67.263 11.709,90.169c16.894,23.212 50.41,31.375 82.822,39.269c25.188,6.137 51.232,12.481 69.644,25.884c18.113,13.181 32.016,35.803 45.463,57.681c17.593,28.628 35.79,58.235 63.55,67.247c26.343,8.55 56.34,-3.7 88.096,-16.675c24.497,-10.009 49.829,-20.359 73.55,-20.359c23.722,0 49.053,10.35 73.55,20.356c31.757,12.975 61.75,25.231 88.1,16.675c27.76,-9.016 45.954,-38.619 63.55,-67.247c13.444,-21.875 27.347,-44.5 45.46,-57.678c18.412,-13.403 44.456,-19.747 69.644,-25.881c32.409,-7.894 65.928,-16.06 82.821,-39.272c16.669,-22.903 14.147,-57.1 11.71,-90.169c-1.919,-26.025 -3.9,-52.937 3.237,-74.922c6.766,-20.834 23.763,-40.765 40.2,-60.037c21.982,-25.778 44.716,-52.431 44.716,-82.31c0,-29.878 -22.731,-56.531 -44.716,-82.309c-16.437,-19.272 -33.434,-39.203 -40.2,-60.037c-7.137,-21.985 -5.156,-48.9 -3.237,-74.925c2.437,-33.066 4.959,-67.263 -11.71,-90.163c-16.893,-23.216 -50.412,-31.378 -82.818,-39.275c-25.188,-6.137 -51.235,-12.481 -69.647,-25.881c-18.113,-13.181 -32.016,-35.803 -45.46,-57.678c-17.596,-28.632 -35.793,-58.235 -63.553,-67.247c-26.34,-8.553 -56.34,3.7 -88.097,16.675c-24.497,10.006 -49.828,20.356 -73.55,20.356c-23.725,0 -49.053,-10.35 -73.55,-20.356c-24.406,-9.972 -47.781,-19.519 -69.25,-19.519Zm-0.256,1003.79c-6.712,0 -13.253,-0.888 -19.556,-2.938c-28.853,-9.369 -47.356,-39.472 -65.247,-68.584c-13.287,-21.619 -27.025,-43.972 -44.641,-56.791c-17.909,-13.037 -43.65,-19.306 -68.543,-25.372c-32.96,-8.028 -67.041,-16.331 -84.607,-40.469c-17.343,-23.828 -14.781,-58.603 -12.303,-92.234c1.897,-25.725 3.86,-52.325 -3.09,-73.728c-6.575,-20.244 -22.619,-39.059 -39.607,-58.978c-22.35,-26.203 -45.462,-53.306 -45.462,-84.335c0,-31.028 23.112,-58.128 45.462,-84.334c16.988,-19.919 33.032,-38.731 39.6,-58.975c6.95,-21.403 4.994,-48.006 3.097,-73.731c-2.478,-33.628 -5.04,-68.403 12.303,-92.235c17.566,-24.137 51.647,-32.44 84.603,-40.468c24.894,-6.066 50.638,-12.338 68.547,-25.375c17.616,-12.816 31.354,-35.169 44.638,-56.785c17.894,-29.112 36.394,-59.215 65.25,-68.584c27.425,-8.906 59.362,4.137 90.244,16.753c24.215,9.894 49.259,20.125 72.368,20.125c23.11,0 48.15,-10.231 72.369,-20.125c30.878,-12.616 62.809,-25.659 90.244,-16.753c28.853,9.369 47.356,39.472 65.25,68.584c13.284,21.616 27.022,43.969 44.634,56.785c17.913,13.037 43.657,19.309 68.547,25.375c32.96,8.028 67.041,16.331 84.606,40.468c17.344,23.829 14.782,58.604 12.304,92.232c-1.897,25.728 -3.857,52.331 3.09,73.731c6.575,20.247 22.619,39.059 39.606,58.975c22.35,26.209 45.463,53.309 45.463,84.337c0,31.029 -23.113,58.129 -45.463,84.335c-16.987,19.919 -33.031,38.734 -39.606,58.975c-6.947,21.403 -4.987,48.006 -3.09,73.731c2.478,33.631 5.04,68.406 -12.304,92.234c-17.565,24.138 -51.646,32.444 -84.609,40.472c-24.891,6.063 -50.631,12.335 -68.544,25.369c-17.612,12.819 -31.35,35.172 -44.634,56.788c-17.894,29.112 -36.394,59.215 -65.25,68.584c-27.431,8.916 -59.363,-4.138 -90.244,-16.753c-24.219,-9.894 -49.259,-20.125 -72.369,-20.125c-23.109,0 -48.15,10.234 -72.368,20.128c-23.782,9.716 -48.191,19.687 -70.688,19.691Z" style="fill-rule:nonzero;"/></g></svg>